<?xml version="1.0" encoding="iso-8859-1"?>
<!-- Uploaded to: SVG Repo, www.svgrepo.com, Generator: SVG Repo Mixer Tools -->
<svg fill="#000000" height="800px" width="800px" version="1.1" id="Layer_1" xmlns="http://www.w3.org/2000/svg" xmlns:xlink="http://www.w3.org/1999/xlink" 
	 viewBox="0 0 512.055 512.055" xml:space="preserve">
<g transform="translate(-1)">
	<g>
		<g>
			<path d="M491.694,234.694V110.156l20.239-60.716c0.019-0.058,0.034-0.117,0.052-0.175c0.062-0.192,0.117-0.386,0.174-0.58
				c0.15-0.511,0.283-1.021,0.394-1.532c0.015-0.069,0.034-0.136,0.048-0.205c0.143-0.691,0.243-1.381,0.316-2.068
				c0-0.003,0.001-0.005,0.001-0.008c0.1-0.95,0.138-1.894,0.11-2.828V21.361c0-11.782-9.551-21.333-21.333-21.333
				s-21.333,9.551-21.333,21.333h-42.667c0-11.782-9.551-21.333-21.333-21.333c-11.782,0-21.333,9.551-21.333,21.333h-42.667
				c0-11.782-9.551-21.333-21.333-21.333s-21.333,9.551-21.333,21.333v20.683c-0.028,0.934,0.01,1.878,0.11,2.828
				c0,0.003,0.001,0.005,0.001,0.008c0.073,0.687,0.173,1.377,0.316,2.068c0.014,0.069,0.033,0.136,0.048,0.205
				c0.111,0.51,0.244,1.021,0.394,1.532c0.057,0.194,0.112,0.388,0.174,0.58c0.019,0.058,0.033,0.117,0.052,0.175l20.239,60.716
				v124.538h-128V110.156l20.239-60.716c0.019-0.058,0.034-0.117,0.052-0.175c0.062-0.192,0.117-0.386,0.174-0.58
				c0.15-0.511,0.283-1.021,0.394-1.532c0.015-0.069,0.034-0.136,0.048-0.205c0.143-0.691,0.243-1.381,0.316-2.068
				c0-0.003,0.001-0.005,0.001-0.008c0.1-0.95,0.138-1.894,0.11-2.828V21.361c0-11.782-9.551-21.333-21.333-21.333
				c-11.782,0-21.333,9.551-21.333,21.333h-42.667c0-11.782-9.551-21.333-21.333-21.333c-11.782,0-21.333,9.551-21.333,21.333
				H43.694c0-11.782-9.551-21.333-21.333-21.333c-11.782,0-21.333,9.551-21.333,21.333v20.687C1,42.98,1.038,43.923,1.138,44.871
				c0,0.003,0.001,0.006,0.001,0.009c0.073,0.687,0.173,1.376,0.315,2.067c0.014,0.07,0.034,0.139,0.049,0.209
				c0.11,0.509,0.243,1.018,0.393,1.528c0.057,0.195,0.112,0.39,0.175,0.583c0.019,0.058,0.033,0.116,0.052,0.174l20.239,60.716
				v124.538c-15.859,0-26.173,16.689-19.081,30.874l40.414,80.829v144.297c0,11.782,9.551,21.333,21.333,21.333h149.333h85.333
				h149.333c11.782,0,21.333-9.551,21.333-21.333V346.397l40.414-80.829C517.868,251.384,507.553,234.694,491.694,234.694z
				 M435.843,320.028H78.212l-21.333-42.667h114.815h170.667h114.815L435.843,320.028z M462.096,64.028l-7.111,21.333h-97.248
				l-7.111-21.333H462.096z M363.694,128.028h85.333v106.667h-85.333V128.028z M163.429,64.028l-7.111,21.333H59.07l-7.111-21.333
				H163.429z M65.028,128.028h85.333v106.667H65.028V128.028z M235.694,469.361v-21.333c0-11.791,9.542-21.333,21.333-21.333
				s21.333,9.542,21.333,21.333v21.333H235.694z M427.694,469.361H321.028v-21.333c0-35.355-28.645-64-64-64s-64,28.645-64,64
				v21.333H86.361V362.694h341.333V469.361z"/>
			<path d="M107.694,149.361c-11.782,0-21.333,9.551-21.333,21.333v21.333c0,11.782,9.551,21.333,21.333,21.333
				c11.782,0,21.333-9.551,21.333-21.333v-21.333C129.028,158.912,119.476,149.361,107.694,149.361z"/>
			<path d="M406.361,149.361c-11.782,0-21.333,9.551-21.333,21.333v21.333c0,11.782,9.551,21.333,21.333,21.333
				c11.782,0,21.333-9.551,21.333-21.333v-21.333C427.694,158.912,418.143,149.361,406.361,149.361z"/>
		</g>
	</g>
</g>
</svg>