<?xml version="1.0" encoding="utf-8"?>

<!DOCTYPE svg PUBLIC "-//W3C//DTD SVG 1.1//EN" "http://www.w3.org/Graphics/SVG/1.1/DTD/svg11.dtd">
<!-- Uploaded to: SVG Repo, www.svgrepo.com, Generator: SVG Repo Mixer Tools -->
<svg height="800px" width="800px" version="1.1" id="_x32_" xmlns="http://www.w3.org/2000/svg" xmlns:xlink="http://www.w3.org/1999/xlink" 
	 viewBox="0 0 512 512"  xml:space="preserve">
<style type="text/css">
	.st0{fill:#000000;}
</style>
<g>
	<path class="st0" d="M424.737,441.278c0.447-3.452-0.059-7.398-1.788-11.933c-3.829-10.01-11.392-18.385-20.591-25.337
		c-9.074-7.669-19.567-12.88-29.664-16.685c-3.335-1.253-6.611-2.317-9.822-3.323c-5.84-2-11.386-3.611-16.226-4.823
		c-20.926-5.228-24.86-34.252-37.846-27.224v-7.558l14.721-7.505c27.383-13.95,44.621-42.086,44.621-72.822v-72.916l-3.94-2.429
		l-0.624-0.459c-0.165-54.496-40.851-99.346-93.5-106.239L274.07,0h-36.134l3.993,82.026c-52.678,6.899-93.383,51.79-93.5,106.327
		l-0.5,0.371l-3.941,2.429v72.916c0,30.735,17.238,58.872,44.627,72.828l14.592,7.434v13.497c0,0.8-0.318,1.953-1.558,3.599
		c-1.276,1.718-3.547,3.682-6.311,5.576c-1.153-2.594-2.229-5.252-3.229-7.94c0,0-11.745,7.77-50.226,20.114
		c-28.066,9.034-37.099,21.079-40.11,23.067c-9.774,6.475-11.051,12.256-3.847,14.408c-2.17,3.088-4.187,6.358-5.857,9.986
		c-4.246,9.205-6.681,20.144-6.675,32.942c0,2.964,0.129,6.04,0.394,9.215c0.2,2.23,1.047,4.035,2.041,5.529
		c1.893,2.782,4.405,4.846,7.552,6.969c5.51,3.646,13.144,7.21,22.919,10.71c29.254,10.434,77.692,19.984,137.704,19.996
		c48.762,0,89.918-6.328,119.296-14.28c14.697-3.988,26.43-8.346,34.911-12.704c4.246-2.194,7.681-4.364,10.404-6.74
		c1.364-1.2,2.558-2.458,3.564-3.952c0.994-1.494,1.84-3.299,2.035-5.529c0.264-3.17,0.394-6.234,0.394-9.192
		C426.619,452.999,425.948,446.906,424.737,441.278z M189.297,121.884c17.091-17.085,40.634-27.63,66.706-27.636
		c26.072,0.005,49.614,10.55,66.705,27.636c14.745,14.75,24.584,34.323,27.007,56.166l-92.106-67.893h-1.606h-1.488l-92.248,67.999
		C164.678,156.266,174.53,136.658,189.297,121.884z M194.626,325.087c-22.943-11.686-37.393-35.27-37.393-61.018v-70.981
		l98.828-72.852l98.829,72.846v70.987c0.006,25.748-14.444,49.332-37.387,61.018l-22.355,11.392V251.26l27.401-4.817v-39.304
		l-59.318,10.656v71.528h-14.333v-71.528l-59.318-10.656v39.304l27.401,4.817v85.219L194.626,325.087z M203.354,377.595
		c3.346-2.341,6.41-4.964,8.845-8.157c2.406-3.152,4.252-7.099,4.252-11.61v-6.746l3.24,1.653l6.322,1.329v-6.022V243.673
		l-27.401-4.817v-20.92l41.251,7.41v73.01h32.4v-73.01l41.251-7.41v20.92l-27.401,4.817v104.369l-0.176,6.775l6.499-2.076
		l3.111-1.588v6.675c0,2.111,0.406,4.111,1.082,5.976c-20.549,21.449-44.71,32.3-64.47,31.635
		c-2.288-6.446-8.31-11.081-15.598-11.262h-0.064l-0.359-0.059c-2.952,0.059-5.781,0.782-8.192,2.106
		c-2.329-2.194-4.334-4.823-6.216-7.611C202.265,378.266,202.83,377.954,203.354,377.595z M227.161,401.096v0.124v0.242
		c-0.059,3.975-2.288,7.469-5.481,9.216c-1.63,1.023-3.494,1.564-5.54,1.564h-0.241c-3.011-0.058-5.782-1.323-7.711-3.376
		c-1.929-1.988-3.07-4.693-3.07-7.646v-0.241c0.118-5.117,3.676-9.334,8.369-10.48c0.847-0.241,1.746-0.359,2.652-0.359l0.182,0.059
		h0.059c3.552,0.058,6.68,1.805,8.551,4.458C226.379,396.462,227.161,398.691,227.161,401.096z M107.865,473.236
		c-3.611-1.852-6.27-3.616-7.74-4.916c-0.629-0.547-0.982-0.964-1.159-1.206c-0.206-2.605-0.323-5.134-0.323-7.533
		c0.024-14.868,3.658-25.731,9.274-34.247c2.047-3.099,4.406-5.893,6.987-8.445c20.437-1.964,37.228-4.381,51.944-6.146
		l-33.476,72.246C122.563,479.747,113.882,476.342,107.865,473.236z M351.82,489.651c-24.231,4.958-54.419,8.563-88.666,9.016
		v-25.154h-9.634v25.202c-43.828-0.2-81.103-5.646-108.356-12.527l35.652-76.927c6.94-0.6,13.521-0.941,19.902-0.812
		c2.652,5.723,8.375,9.693,15.056,9.816h0.364c5.116,0,9.692-2.229,12.769-5.84c19.031,5.058,38.298,14.45,57.513,22.943
		c22.025,9.71,45.709,16.896,67.164,20.79l13.856,29.901C362.531,487.31,357.361,488.522,351.82,489.651z M413.033,467.096
		l-0.57,0.676c-0.976,0.988-2.947,2.476-5.717,4.053c-5.904,3.411-15.333,7.281-27.536,10.98l-11.362-24.513
		c18.896,2.182,35.034,1.312,45.292-3.264c0.082,1.512,0.218,2.97,0.218,4.576C413.356,461.992,413.233,464.503,413.033,467.096z"/>
</g>
</svg>