<?xml version="1.0" encoding="utf-8"?>

<!DOCTYPE svg PUBLIC "-//W3C//DTD SVG 1.1//EN" "http://www.w3.org/Graphics/SVG/1.1/DTD/svg11.dtd">
<!-- Uploaded to: SVG Repo, www.svgrepo.com, Generator: SVG Repo Mixer Tools -->
<svg height="800px" width="800px" version="1.1" id="_x32_" xmlns="http://www.w3.org/2000/svg" xmlns:xlink="http://www.w3.org/1999/xlink" 
	 viewBox="0 0 512 512"  xml:space="preserve">
<style type="text/css">
	.st0{fill:#000000;}
</style>
<g>
	<path class="st0" d="M459.203,73.563l-11.928-52.79l-54.49,54.497l8.787,38.904L266.429,249.309
		c-4.697,4.705-4.697,12.322,0,17.035c4.712,4.697,12.33,4.697,17.035,0l135.135-135.143l38.896,8.787L512,85.491L459.203,73.563z"
		/>
	<path class="st0" d="M375.295,201.747c5.607,14.084,8.969,30.967,8.976,50.908c-0.03,22.013-6.1,40.641-16.625,58.154
		c-15.768,26.232-42.227,49.542-72.306,72.928c-29.539,23.06-62.381,46.242-91.17,73.732c-38.547-36.771-84.348-65.97-119.768-97.21
		c-17.938-15.768-33.152-31.976-43.684-49.451c-10.532-17.513-16.596-36.141-16.633-58.154c0.03-35.132,10.145-61.068,25.366-78.194
		c15.274-17.096,35.793-25.966,59.209-26.027c0.577,0,1.161,0.008,1.745,0.015c13.241,0.266,24.441,2.762,33.988,6.776
		c14.295,6.025,25.055,15.48,32.985,26.702c7.907,11.208,12.831,24.237,14.933,36.704c0.971,5.812,5.979,10.046,11.867,10.046
		c5.888,0,10.896-4.234,11.875-10.046c2.8-16.656,10.631-34.184,23.826-47.281c6.609-6.571,14.546-12.103,24.092-16.125
		c9.546-4.014,20.745-6.51,33.979-6.776h0.03c0.554-0.007,1.115-0.015,1.707-0.015c12.004,0.038,23.219,2.412,33.38,6.988
		l17.922-17.916c-15.426-8.688-33.007-13.195-51.302-13.157c-0.713,0-1.465,0.008-2.239,0.022h0.038
		c-16.034,0.311-30.375,3.4-42.85,8.651c-18.742,7.861-33.167,20.548-43.35,35.034c-2.663,3.786-5.03,7.702-7.148,11.686
		c-4.818-9.076-10.942-17.748-18.674-25.458c-8.658-8.635-19.258-16.018-31.741-21.261c-12.482-5.251-26.823-8.34-42.857-8.651
		c-0.721-0.014-1.457-0.022-2.208-0.022c-29.654-0.06-57.448,11.784-77.215,34.108C11.624,180.751-0.023,212.939,0,252.655
		c-0.038,26.611,7.663,50.081,20.1,70.606c18.696,30.853,47.478,55.529,78.11,79.476c2.762,2.148,5.554,4.288,8.354,6.434
		l-30.898,30.899l-6.799-16.648c-0.683-1.677-2.344-2.747-4.143-2.67c-1.806,0.083-3.369,1.29-3.9,3.019L41.726,485.69
		c-0.471,1.517-0.06,3.172,1.062,4.286c1.115,1.116,2.77,1.533,4.287,1.055l61.919-19.091c1.73-0.524,2.936-2.087,3.012-3.893
		c0.076-1.806-0.979-3.468-2.656-4.151l-16.663-6.799l33.182-33.167c21.975,16.732,43.858,33.683,63.056,52.228l0.008,0.008
		l0.448,0.455c0.205,0.304,0.326,0.645,0.562,0.926c2.8,3.483,6.966,5.866,11.617,6.556c0.85,0.19,1.722,0.311,2.61,0.311h0.008
		h0.016c0.88,0,1.752-0.121,2.61-0.311c4.644-0.691,8.818-3.073,11.617-6.556c0.235-0.288,0.356-0.63,0.569-0.948
		c0.122-0.122,0.243-0.243,0.433-0.425l0.016-0.008c36.392-35.231,82.466-64.506,120.421-97.817
		c18.97-16.701,35.959-34.51,48.404-55.088c12.437-20.526,20.131-43.995,20.093-70.606c0.016-26.725-5.266-50.02-14.758-69.211
		L375.295,201.747z"/>
</g>
</svg>