<?xml version="1.0" encoding="utf-8"?>
<!-- Uploaded to: SVG Repo, www.svgrepo.com, Generator: SVG Repo Mixer Tools -->
<svg fill="#000000" width="800px" height="800px" viewBox="0 0 32 32" version="1.1" xmlns="http://www.w3.org/2000/svg">
<title>angel-wings</title>
<path d="M29.734 5.921c-0.805-1.845-2.521-2.832-3.23-2.122l0-0c-0.766 0.767 0.291 1.837 0.364 3.557-7.080 5.271-14.155 6.428-21.245 0.108 0.031-1.784 1.148-2.883 0.367-3.666l0 0c-0.709-0.71-2.425 0.277-3.23 2.122-2.702 6.193-0.598 22.443 5.483 21.96-1.373-3.151-2.733-6.737-3.539-10.529 1.643 4.523 4.513 8.46 7.353 7.5-1.998-2.508-4.121-5.445-5.618-8.757 2.185 3.692 5.326 6.605 7.676 5.335-1.856-1.659-3.841-3.59-5.541-5.82 2.482 2.34 5.454 3.838 7.020 2.34-1.298-0.631-2.703-1.419-4.039-2.338l4.673 2.031 4.275-1.737c-1.203 0.794-2.445 1.48-3.602 2.043 1.566 1.497 4.537 0 7.020-2.34-1.7 2.229-3.685 4.161-5.541 5.82 2.35 1.27 5.491-1.642 7.676-5.335-1.497 3.312-3.62 6.249-5.618 8.757 2.84 0.961 5.71-2.976 7.353-7.5-0.806 3.792-2.166 7.378-3.539 10.529 6.081 0.482 8.184-15.768 5.483-21.96zM5.622 7.464c-0.101-0.090-0.201-0.181-0.302-0.274 0.101 0.093 0.201 0.184 0.302 0.274zM4.611 6.511c-0.099-0.099-0.199-0.199-0.298-0.3 0.099 0.102 0.199 0.202 0.298 0.3zM5.282 7.154c-0.096-0.089-0.191-0.179-0.287-0.27 0.096 0.091 0.191 0.181 0.287 0.27zM4.941 6.833c-0.095-0.091-0.19-0.183-0.285-0.277 0.095 0.094 0.19 0.186 0.285 0.277zM27.232 7.081c-0.12 0.092-0.24 0.182-0.36 0.271 0.12-0.089 0.24-0.18 0.36-0.271zM27.969 6.503c0.12-0.096 0.239-0.193 0.359-0.292-0.12 0.098-0.239 0.196-0.359 0.292zM27.234 7.079c0.121-0.092 0.241-0.186 0.362-0.28-0.121 0.095-0.241 0.188-0.362 0.28zM27.602 6.794c0.12-0.094 0.239-0.189 0.359-0.285-0.12 0.096-0.239 0.191-0.359 0.285zM16.247 7.439c2.952 0 5.344-1.168 5.344-2.608s-2.393-2.608-5.344-2.608-5.344 1.168-5.344 2.608c0 1.44 2.393 2.608 5.344 2.608zM16.247 2.641c2.183 0 3.953 0.864 3.953 1.929s-1.77 1.929-3.953 1.929-3.953-0.864-3.953-1.929c0-1.065 1.77-1.929 3.953-1.929z"></path>
</svg>