<svg width="20" height="21" viewBox="0 0 20 21" fill="none" xmlns="http://www.w3.org/2000/svg">
<path fill-rule="evenodd" clip-rule="evenodd" d="M9.7808 0.000305176C12.3947 0.000305176 14.554 1.99196 14.8202 4.53923L14.8945 4.54011C16.3445 4.54011 18.1075 5.5031 18.7025 8.2041L19.4915 14.3111C19.7745 16.2821 19.4205 17.8631 18.4375 18.9971C17.4595 20.1251 15.9115 20.7221 13.9605 20.7221H5.6125C3.4695 20.7221 1.9765 20.1971 1.0475 19.1181C0.1145 18.0361 -0.1975 16.4131 0.1205 14.2951L0.8965 8.2691C1.4065 5.5061 3.2715 4.54011 4.7155 4.54011C4.84016 3.39058 5.3585 2.29701 6.1808 1.47731C7.1258 0.538305 8.4288 0.000305176 9.7598 0.000305176H9.7808ZM14.8945 6.04011H4.7155C4.2745 6.04011 2.8005 6.2181 2.3775 8.5021L1.6055 14.5021C1.3545 16.1851 1.5485 17.4031 2.1835 18.1401C2.8105 18.8681 3.9325 19.2221 5.6125 19.2221H13.9605C15.0085 19.2221 16.4395 19.0131 17.3035 18.0151C17.9895 17.2241 18.2255 16.0461 18.0055 14.5131L17.2265 8.4611C16.8945 6.9701 16.0185 6.04011 14.8945 6.04011ZM12.6973 8.8242C13.1113 8.8242 13.4703 9.1602 13.4703 9.5742C13.4703 9.9882 13.1573 10.3242 12.7433 10.3242H12.6973C12.2833 10.3242 11.9473 9.9882 11.9473 9.5742C11.9473 9.1602 12.2833 8.8242 12.6973 8.8242ZM6.8672 8.8242C7.2812 8.8242 7.6402 9.1602 7.6402 9.5742C7.6402 9.9882 7.3262 10.3242 6.9122 10.3242H6.8672C6.4532 10.3242 6.1172 9.9882 6.1172 9.5742C6.1172 9.1602 6.4532 8.8242 6.8672 8.8242ZM9.7778 1.50031H9.7628C8.8218 1.50031 7.9048 1.87931 7.2398 2.54031C6.6981 3.07957 6.34382 3.7885 6.22921 4.53964L13.3085 4.53992C13.0515 2.82168 11.5657 1.50031 9.7778 1.50031Z" fill="black"/>
</svg>
