<svg width="24" height="24" viewBox="0 0 24 24" fill="none" xmlns="http://www.w3.org/2000/svg">
<path d="M3.17017 7.43994L12.0002 12.5499L20.7701 7.46991" stroke="#D1A661" stroke-width="1.5" stroke-linecap="round" stroke-linejoin="round"/>
<path d="M12.0002 21.6099V12.5399" stroke="#D1A661" stroke-width="1.5" stroke-linecap="round" stroke-linejoin="round"/>
<path d="M9.93011 2.48L4.59012 5.45003C3.38012 6.12003 2.39014 7.80001 2.39014 9.18001V14.83C2.39014 16.21 3.38012 17.89 4.59012 18.56L9.93011 21.53C11.0701 22.16 12.9401 22.16 14.0801 21.53L19.4201 18.56C20.6301 17.89 21.6201 16.21 21.6201 14.83V9.18001C21.6201 7.80001 20.6301 6.12003 19.4201 5.45003L14.0801 2.48C12.9301 1.84 11.0701 1.84 9.93011 2.48Z" stroke="#D1A661" stroke-width="1.5" stroke-linecap="round" stroke-linejoin="round"/>
<path d="M17 13.24V9.58002L7.51001 4.09998" stroke="#D1A661" stroke-width="1.5" stroke-linecap="round" stroke-linejoin="round"/>
</svg>
