<svg width="25" height="25" viewBox="0 0 25 25" fill="none" xmlns="http://www.w3.org/2000/svg">
<path fill-rule="evenodd" clip-rule="evenodd" d="M12.986 2.5C18.699 2.5 23.347 7.148 23.347 12.861C23.347 18.574 18.699 23.222 12.986 23.222C7.273 23.222 2.625 18.574 2.625 12.861C2.625 7.148 7.273 2.5 12.986 2.5ZM12.986 4C8.1 4 4.125 7.976 4.125 12.861C4.125 17.747 8.1 21.722 12.986 21.722C17.872 21.722 21.847 17.747 21.847 12.861C21.847 7.976 17.872 4 12.986 4ZM16.8576 8.9899C17.0546 9.1879 17.1266 9.4789 17.0426 9.7439L15.4506 14.8329C15.3776 15.0679 15.1926 15.2519 14.9586 15.3249L9.8696 16.9179C9.7956 16.9409 9.7196 16.9519 9.6456 16.9519C9.4496 16.9519 9.2576 16.8749 9.1146 16.7329C8.9176 16.5349 8.8456 16.2439 8.9296 15.9789L10.5226 10.8899C10.5956 10.6539 10.7796 10.4709 11.0136 10.3979L16.1026 8.8049C16.3696 8.7199 16.6596 8.7929 16.8576 8.9899ZM15.1836 10.6639L11.8366 11.7119L10.7896 15.0589L14.1356 14.0109L15.1836 10.6639Z" fill="#78828A"/>
</svg>
