<svg width="25" height="25" viewBox="0 0 25 25" fill="none" xmlns="http://www.w3.org/2000/svg">
<path d="M12.6249 2.50009C18.1449 2.50009 22.6249 6.98009 22.6249 12.5001C22.6249 18.0301 18.1449 22.5001 12.6249 22.5001C7.09488 22.5001 2.62488 18.0301 2.62488 12.5001C2.62488 6.98009 7.09488 2.50009 12.6249 2.50009ZM16.4749 9.21009C16.5849 8.86009 16.2649 8.53009 15.9149 8.64009L10.7949 10.2401C10.5849 10.3101 10.4149 10.4701 10.3549 10.6801L8.75488 15.8101C8.64488 16.1501 8.97488 16.4801 9.31488 16.3701L14.4149 14.7701C14.6249 14.7101 14.7949 14.5401 14.8549 14.3301L16.4749 9.21009Z" fill="#D1A661"/>
</svg>
