<svg width="21" height="21" viewBox="0 0 21 21" fill="none" xmlns="http://www.w3.org/2000/svg">
<path fill-rule="evenodd" clip-rule="evenodd" d="M9.49211 0.0366442C9.90611 0.0366442 10.2421 0.372644 10.2421 0.786644C10.2421 1.20064 9.90611 1.53664 9.49211 1.53664H5.75311C3.16911 1.53664 1.50011 3.30664 1.50011 6.04565V14.3596C1.50011 17.0986 3.16911 18.8686 5.75311 18.8686H14.5771C17.1611 18.8686 18.8311 17.0986 18.8311 14.3596V10.3316C18.8311 9.91765 19.1671 9.58165 19.5811 9.58165C19.9951 9.58165 20.3311 9.91765 20.3311 10.3316V14.3596C20.3311 17.9536 18.0181 20.3686 14.5771 20.3686H5.75311C2.31211 20.3686 0.000106812 17.9536 0.000106812 14.3596V6.04565C0.000106812 2.45164 2.31211 0.0366442 5.75311 0.0366442H9.49211ZM18.2017 0.915244L19.4187 2.13224C20.0117 2.72424 20.3377 3.51124 20.3367 4.34924C20.3367 5.18724 20.0107 5.97325 19.4187 6.56425L11.9097 14.0732C11.3587 14.6242 10.6247 14.9282 9.84471 14.9282H6.09871C5.89671 14.9282 5.70271 14.8462 5.56171 14.7012C5.42071 14.5572 5.34371 14.3622 5.34871 14.1592L5.44271 10.3802C5.46171 9.62824 5.76471 8.92124 6.29671 8.38824H6.29771L13.7707 0.915244C14.9927 -0.304756 16.9797 -0.304756 18.2017 0.915244ZM13.1551 3.65124L7.35771 9.44924C7.09871 9.70824 6.95171 10.0522 6.94271 10.4172L6.86771 13.4282H9.84471C10.2247 13.4282 10.5807 13.2812 10.8497 13.0122L16.6821 7.17825L13.1551 3.65124ZM14.8307 1.97624L14.2151 2.59024L17.7421 6.11825L18.3587 5.50324C18.6667 5.19524 18.8367 4.78524 18.8367 4.34924C18.8367 3.91224 18.6667 3.50124 18.3587 3.19324L17.1417 1.97624C16.5047 1.34124 15.4687 1.34124 14.8307 1.97624Z" fill="#171725"/>
</svg>
