<svg width="125" height="125" viewBox="0 0 125 125" fill="none" xmlns="http://www.w3.org/2000/svg">
<g clip-path="url(#clip0_29646_2298)">
<path d="M101.725 78.4504H23.2744C21.252 78.4504 19.6123 80.0901 19.6123 82.1125V121.338C19.6123 123.36 21.252 125 23.2744 125H101.725C103.747 125 105.387 123.36 105.387 121.338V82.1125C105.387 80.0901 103.748 78.4504 101.725 78.4504Z" fill="#D1A661"/>
<path d="M105.387 121.338V82.1125C105.387 80.0901 103.748 78.4504 101.725 78.4504H62.4998V125H101.725C103.748 125 105.387 123.36 105.387 121.338Z" fill="#E6AC50"/>
<path d="M62.4998 62.2395C60.4778 62.2395 58.8386 60.6011 58.8376 58.5793C58.8376 58.4751 58.7942 48.0417 55.9922 37.8479C52.5713 25.4023 46.8425 19.0918 38.9646 19.0918C31.9255 19.0918 28.7747 23.2817 28.7747 27.4343C28.7747 33.113 34.4185 39.2251 46.8096 39.2251C48.832 39.2251 50.4717 40.8647 50.4717 42.8872C50.4717 44.9097 48.832 46.5493 46.8096 46.5493C30.8401 46.5493 21.4504 37.6685 21.4504 27.4343C21.4504 19.6489 27.4663 11.7676 38.9646 11.7676C46.9509 11.7676 57.6196 15.9788 63.0908 36.04C66.1269 47.1721 66.1619 58.1169 66.1619 58.5774C66.1619 60.5999 64.5222 62.2395 62.4998 62.2395Z" fill="#F3F9FF"/>
<path d="M74.2673 46.5496C72.2449 46.5496 70.6052 44.9099 70.6052 42.8875C70.6052 40.865 72.2449 39.2253 74.2673 39.2253C91.783 39.2253 98.155 30.2151 98.155 23.5769C98.155 16.8606 92.3325 11.2468 82.1125 11.2468C80.0901 11.2468 78.4504 9.60718 78.4504 7.58472C78.4504 5.56226 80.0901 3.92261 82.1125 3.92261C98.7827 3.92261 105.479 15.0044 105.479 23.5769C105.479 35.823 94.0413 46.5496 74.2673 46.5496Z" fill="#FFD085"/>
<path d="M66.4225 11.2468C65.4513 11.2468 64.5199 10.8611 63.8331 10.1741L59.9105 6.25146C58.4803 4.82129 58.4803 2.50269 59.9105 1.07251C61.3405 -0.357666 63.6593 -0.357666 65.0895 1.07251L66.4225 2.40552L67.7553 1.07251C69.1854 -0.357666 71.504 -0.357666 72.9342 1.07251C74.3644 2.50269 74.3644 4.82129 72.9342 6.25146L69.0118 10.1741C68.3253 10.8611 67.3937 11.2468 66.4225 11.2468Z" fill="#FF6733"/>
<path d="M124.721 61.0986C124.154 59.7302 122.819 58.8379 121.338 58.8379H82.1123C81.1411 58.8379 80.2097 59.2239 79.5229 59.9106L62.4997 76.9338L45.4765 59.9106C44.7897 59.2239 43.8584 58.8379 42.8872 58.8379H3.66207C2.18087 58.8379 0.845417 59.7302 0.278767 61.0986C-0.287883 62.467 0.025349 64.0422 1.07271 65.0896L19.6125 83.6294H105.387L123.927 65.0896C124.974 64.0422 125.288 62.467 124.721 61.0986Z" fill="#E6AC50"/>
<path d="M123.927 65.0894C124.974 64.042 125.288 62.4668 124.721 61.0984C124.154 59.73 122.819 58.8376 121.338 58.8376H82.1123C81.1411 58.8376 80.2097 59.2236 79.5229 59.9104L62.4998 76.9338V83.6294H105.387L123.927 65.0894Z" fill="#A28251"/>
</g>
<defs>
<clipPath id="clip0_29646_2298">
<rect width="125" height="125" fill="white" transform="translate(-0.000244141)"/>
</clipPath>
</defs>
</svg>
