<svg width="14" height="12" viewBox="0 0 14 12" fill="none" xmlns="http://www.w3.org/2000/svg">
<path fill-rule="evenodd" clip-rule="evenodd" d="M11.0409 7.281C12.3279 7.281 13.3749 8.32275 13.3749 9.603C13.3749 10.8832 12.3279 11.925 11.0409 11.925C9.75318 11.925 8.70543 10.8832 8.70543 9.603C8.70543 8.32275 9.75318 7.281 11.0409 7.281ZM11.0409 8.406C10.3734 8.406 9.83043 8.943 9.83043 9.603C9.83043 10.2637 10.3734 10.8 11.0409 10.8C11.7077 10.8 12.2499 10.2637 12.2499 9.603C12.2499 8.943 11.7077 8.406 11.0409 8.406ZM5.56023 9.0696C5.87072 9.0696 6.12273 9.3216 6.12273 9.6321C6.12273 9.9426 5.87072 10.1946 5.56023 10.1946H0.834475C0.523975 10.1946 0.271975 9.9426 0.271975 9.6321C0.271975 9.3216 0.523975 9.0696 0.834475 9.0696H5.56023ZM2.58475 0C3.8725 0 4.9195 1.0425 4.9195 2.32275C4.9195 3.603 3.8725 4.644 2.58475 4.644C1.29775 4.644 0.25 3.603 0.25 2.32275C0.25 1.0425 1.29775 0 2.58475 0ZM2.58475 1.125C1.918 1.125 1.375 1.662 1.375 2.32275C1.375 2.98275 1.918 3.519 2.58475 3.519C3.25225 3.519 3.7945 2.98275 3.7945 2.32275C3.7945 1.662 3.25225 1.125 2.58475 1.125ZM12.3933 1.8003C12.7038 1.8003 12.9558 2.0523 12.9558 2.3628C12.9558 2.6733 12.7038 2.9253 12.3933 2.9253H7.66832C7.35782 2.9253 7.10582 2.6733 7.10582 2.3628C7.10582 2.0523 7.35782 1.8003 7.66832 1.8003H12.3933Z" fill="#171725"/>
</svg>
