<svg width="25" height="25" viewBox="0 0 25 25" fill="none" xmlns="http://www.w3.org/2000/svg">
<path d="M22.0078 7.14689C21.6937 6.41948 21.2407 5.7603 20.6742 5.20627C20.1073 4.65058 19.439 4.20898 18.7055 3.90549C17.9449 3.58953 17.1291 3.42781 16.3055 3.4297C15.15 3.4297 14.0227 3.74611 13.043 4.34377C12.8086 4.48674 12.5859 4.64377 12.375 4.81486C12.1641 4.64377 11.9414 4.48674 11.707 4.34377C10.7273 3.74611 9.6 3.4297 8.44453 3.4297C7.6125 3.4297 6.80625 3.58908 6.04453 3.90549C5.30859 4.21017 4.64531 4.64845 4.07578 5.20627C3.50859 5.75968 3.0555 6.41901 2.74219 7.14689C2.41641 7.90392 2.25 8.70783 2.25 9.53517C2.25 10.3156 2.40938 11.1289 2.72578 11.9563C2.99063 12.6477 3.37031 13.3649 3.85547 14.0891C4.62422 15.2352 5.68125 16.4305 6.99375 17.6422C9.16875 19.6508 11.3227 21.0383 11.4141 21.0945L11.9695 21.4508C12.2156 21.6078 12.532 21.6078 12.7781 21.4508L13.3336 21.0945C13.425 21.036 15.5766 19.6508 17.7539 17.6422C19.0664 16.4305 20.1234 15.2352 20.8922 14.0891C21.3773 13.3649 21.7594 12.6477 22.0219 11.9563C22.3383 11.1289 22.4977 10.3156 22.4977 9.53517C22.5 8.70783 22.3336 7.90392 22.0078 7.14689ZM12.375 19.5969C12.375 19.5969 4.03125 14.2508 4.03125 9.53517C4.03125 7.14689 6.00703 5.21095 8.44453 5.21095C10.1578 5.21095 11.6438 6.1672 12.375 7.56408C13.1062 6.1672 14.5922 5.21095 16.3055 5.21095C18.743 5.21095 20.7188 7.14689 20.7188 9.53517C20.7188 14.2508 12.375 19.5969 12.375 19.5969Z" fill="#78828A"/>
</svg>
