<svg width="102" height="101" viewBox="0 0 102 101" fill="none" xmlns="http://www.w3.org/2000/svg">
<path d="M49.9294 61.3954C49.92 61.3954 49.9105 61.3954 49.901 61.3954C48.1588 61.3797 46.7574 59.9546 46.7732 58.2108L46.7874 56.6327C46.7874 56.5427 46.7921 56.4512 46.8016 56.3612C47.2387 51.7705 50.2861 48.9567 52.7369 46.6952C53.567 45.9282 54.3529 45.2039 55.0221 44.448C55.8379 43.5279 57.0215 41.6436 55.7764 39.3696C54.3419 36.7436 50.8384 36.0003 48.1162 36.6236C45.2724 37.2738 44.2245 39.7025 43.8521 41.0913C43.4007 42.7752 41.6695 43.7741 39.9857 43.3243C38.3018 42.873 37.3028 41.1418 37.7526 39.4579C39.0104 34.7599 42.2739 31.4853 46.7053 30.4705C52.6691 29.1086 58.6754 31.5184 61.3125 36.3396C63.5076 40.3543 62.9064 45.065 59.7422 48.6347C58.8632 49.6258 57.9242 50.4938 57.0152 51.3317C54.7506 53.4228 53.335 54.821 53.0952 56.8394L53.0825 58.2644C53.0699 60.002 51.6591 61.3954 49.9294 61.3954Z" fill="#FF4747"/>
<path d="M49.9279 70.8578C49.1072 70.8578 48.2866 70.5264 47.7027 69.9425C47.103 69.3586 46.7716 68.538 46.7716 67.7016C46.7716 66.881 47.103 66.0604 47.7027 65.4764C48.8705 64.3086 50.9852 64.3086 52.153 65.4764C52.7527 66.0604 53.0841 66.881 53.0841 67.7016C53.0841 68.538 52.7527 69.3428 52.1688 69.9425C51.5691 70.5264 50.7643 70.8578 49.9279 70.8578Z" fill="#FF4747"/>
<path d="M50.8795 91.5266C47.2892 91.5266 43.7305 91.0595 40.3013 90.1363C25.5237 86.161 13.9529 73.9194 10.8235 58.9478C7.6341 43.6952 13.5205 27.6614 25.822 18.0996C32.933 12.5714 41.9015 9.52563 51.0767 9.52563C57.4287 9.52563 63.7364 11.0028 69.3198 13.7945C83.1079 20.6924 92.0164 35.1039 92.0164 50.5111C92.0164 63.0825 86.0843 75.1993 76.1484 82.9226C69.0121 88.4713 60.0373 91.5266 50.8795 91.5266ZM51.0783 15.8381C43.2997 15.8381 35.7058 18.4105 29.6979 23.0833C19.287 31.1759 14.3033 44.7462 17.0034 57.6553C19.6515 70.3197 29.4406 80.677 41.9425 84.04C44.8368 84.818 47.8447 85.2141 50.8795 85.2141H50.881C58.6423 85.2141 66.2393 82.6307 72.2757 77.9389C80.6855 71.4023 85.7055 61.1493 85.7055 50.5111C85.7055 37.4742 78.1668 25.2785 66.4982 19.441C61.7859 17.0849 56.455 15.8381 51.0783 15.8381Z" fill="#FF4747"/>
</svg>
