<svg width="25" height="25" viewBox="0 0 25 25" fill="none" xmlns="http://www.w3.org/2000/svg">
<g clip-path="url(#clip0_24_292)">
<path d="M19.875 9.21001L14.542 5.06201C14.0739 4.69792 13.4979 4.50024 12.905 4.50024C12.312 4.50024 11.736 4.69792 11.268 5.06201L5.93395 9.21001C5.6134 9.4593 5.35405 9.77854 5.17571 10.1434C4.99737 10.5082 4.90476 10.9089 4.90495 11.315V18.515C4.90495 19.0454 5.11567 19.5542 5.49074 19.9292C5.86581 20.3043 6.37452 20.515 6.90495 20.515H18.905C19.4354 20.515 19.9441 20.3043 20.3192 19.9292C20.6942 19.5542 20.905 19.0454 20.905 18.515V11.315C20.905 10.492 20.525 9.71501 19.875 9.21001Z" fill="#D1A661" stroke="#D1A661" stroke-width="1.5" stroke-linecap="round" stroke-linejoin="round"/>
<path d="M16.875 15.5C14.665 16.833 11.083 16.833 8.87497 15.5" stroke="#FEFEFE" stroke-width="1.5" stroke-linecap="round" stroke-linejoin="round"/>
</g>
<defs>
<clipPath id="clip0_24_292">
<rect width="24" height="24" fill="white" transform="translate(0.875 0.5)"/>
</clipPath>
</defs>
</svg>
