<svg width="25" height="25" viewBox="0 0 25 25" fill="none" xmlns="http://www.w3.org/2000/svg">
<g clip-path="url(#clip0_24_497)">
<path d="M19.875 9.21001L14.542 5.06201C14.074 4.69792 13.4979 4.50024 12.905 4.50024C12.312 4.50024 11.736 4.69792 11.268 5.06201L5.93397 9.21001C5.61341 9.4593 5.35406 9.77854 5.17572 10.1434C4.99739 10.5082 4.90478 10.9089 4.90497 11.315V18.515C4.90497 19.0454 5.11568 19.5542 5.49075 19.9292C5.86583 20.3043 6.37454 20.515 6.90497 20.515H18.905C19.4354 20.515 19.9441 20.3043 20.3192 19.9292C20.6943 19.5542 20.905 19.0454 20.905 18.515V11.315C20.905 10.492 20.525 9.71501 19.875 9.21001Z" stroke="#78828A" stroke-width="1.5" stroke-linecap="round" stroke-linejoin="round"/>
<path d="M16.8749 15.5C14.6649 16.833 11.0829 16.833 8.87494 15.5" stroke="#78828A" stroke-width="1.5" stroke-linecap="round" stroke-linejoin="round"/>
</g>
<defs>
<clipPath id="clip0_24_497">
<rect width="24" height="24" fill="white" transform="translate(0.875 0.5)"/>
</clipPath>
</defs>
</svg>
