<svg width="20" height="21" viewBox="0 0 20 21" fill="none" xmlns="http://www.w3.org/2000/svg">
<path fill-rule="evenodd" clip-rule="evenodd" d="M10 0.209473C15.514 0.209473 20 4.69547 20 10.2095C20 15.7235 15.514 20.2095 10 20.2095C4.486 20.2095 0 15.7235 0 10.2095C0 4.69547 4.486 0.209473 10 0.209473ZM10 1.70947C5.313 1.70947 1.5 5.52247 1.5 10.2095C1.5 14.8965 5.313 18.7095 10 18.7095C14.687 18.7095 18.5 14.8965 18.5 10.2095C18.5 5.52247 14.687 1.70947 10 1.70947ZM10.0039 13.0054C10.5569 13.0054 11.0039 13.4524 11.0039 14.0054C11.0039 14.5584 10.5569 15.0054 10.0039 15.0054C9.4509 15.0054 8.9989 14.5584 8.9989 14.0054C8.9989 13.4524 9.4419 13.0054 9.9939 13.0054H10.0039ZM9.9941 5.66347C10.4081 5.66347 10.7441 5.99947 10.7441 6.41347V10.8325C10.7441 11.2465 10.4081 11.5825 9.9941 11.5825C9.5801 11.5825 9.2441 11.2465 9.2441 10.8325V6.41347C9.2441 5.99947 9.5801 5.66347 9.9941 5.66347Z" fill="#171725"/>
</svg>
