<svg width="20" height="20" viewBox="0 0 20 20" fill="none" xmlns="http://www.w3.org/2000/svg">
<path d="M14.7141 13.8808L11.1783 17.4167C10.8658 17.7289 10.4421 17.9042 10.0004 17.9042C9.55866 17.9042 9.13499 17.7289 8.82248 17.4167L5.28582 13.8808C4.3535 12.9485 3.7186 11.7606 3.46139 10.4674C3.20418 9.17419 3.33622 7.83376 3.84082 6.61561C4.34541 5.39745 5.1999 4.35628 6.29622 3.62376C7.39254 2.89123 8.68146 2.50024 9.99998 2.50024C11.3185 2.50024 12.6074 2.89123 13.7037 3.62376C14.8001 4.35628 15.6546 5.39745 16.1591 6.61561C16.6637 7.83376 16.7958 9.17419 16.5386 10.4674C16.2814 11.7606 15.6465 12.9485 14.7141 13.8808Z" fill="#2DD4BF" stroke="#2DD4BF" stroke-width="1.5" stroke-linecap="round" stroke-linejoin="round"/>
<path d="M10 11.6666C11.3807 11.6666 12.5 10.5473 12.5 9.16663C12.5 7.78591 11.3807 6.66663 10 6.66663C8.61929 6.66663 7.5 7.78591 7.5 9.16663C7.5 10.5473 8.61929 11.6666 10 11.6666Z" fill="#FEFEFE"/>
</svg>
