<svg width="45" height="36" viewBox="0 0 45 36" fill="none" xmlns="http://www.w3.org/2000/svg">
<path d="M16.418 2.98145H28.5852V24.8938H16.418V2.98145Z" fill="#FF5F00"/>
<path d="M8.19121 35.9225V33.5998C8.19121 32.7092 7.65032 32.1286 6.72322 32.1286C6.25975 32.1286 5.75758 32.2834 5.4099 32.7868C5.13963 32.3609 4.75341 32.1286 4.17399 32.1286C3.7876 32.1286 3.40155 32.2446 3.0924 32.6705V32.206H2.28125V35.9225H3.0924V33.8706C3.0924 33.2127 3.44009 32.9028 3.98097 32.9028C4.5215 32.9028 4.79212 33.2513 4.79212 33.8706V35.9225H5.60327V33.8706C5.60327 33.2127 5.98931 32.9028 6.49149 32.9028C7.03237 32.9028 7.30264 33.2513 7.30264 33.8706V35.9225H8.19121ZM20.2038 32.206H18.8906V31.0833H18.0795V32.206H17.3456V32.9414H18.0793V34.645C18.0793 35.4968 18.427 36 19.3541 36C19.7018 36 20.0878 35.8839 20.3585 35.7291L20.1265 35.0321C19.8948 35.187 19.6245 35.2258 19.4314 35.2258C19.0451 35.2258 18.8906 34.9935 18.8906 34.6062V32.9414H20.2038V32.206ZM27.0794 32.1284C26.6159 32.1284 26.3069 32.3609 26.1137 32.6705V32.206H25.3026V35.9225H26.1137V33.832C26.1137 33.2127 26.384 32.8642 26.8862 32.8642C27.0407 32.8642 27.2339 32.903 27.3884 32.9416L27.6201 32.1674C27.4656 32.1286 27.2339 32.1284 27.0794 32.1284ZM16.6889 32.5157C16.3025 32.2446 15.7618 32.1286 15.1824 32.1286C14.2555 32.1286 13.6375 32.5931 13.6375 33.3287C13.6375 33.9482 14.101 34.2965 14.9121 34.4128L15.2984 34.4516C15.7233 34.5288 15.955 34.645 15.955 34.8387C15.955 35.1095 15.646 35.3032 15.1052 35.3032C14.5645 35.3032 14.1395 35.1095 13.8691 34.9161L13.4829 35.5354C13.9078 35.8451 14.4872 36 15.0665 36C16.148 36 16.7662 35.4968 16.7662 34.7999C16.7662 34.1417 16.264 33.7932 15.4914 33.6772L15.1052 33.6384C14.7575 33.5996 14.4872 33.5223 14.4872 33.2901C14.4872 33.019 14.7575 32.8642 15.1824 32.8642C15.646 32.8642 16.1095 33.0576 16.3412 33.1739L16.6889 32.5157ZM38.2425 32.1286C37.7788 32.1286 37.4698 32.3609 37.2766 32.6705V32.206H36.4655V35.9225H37.2766V33.832C37.2766 33.2127 37.5471 32.8642 38.0491 32.8642C38.2038 32.8642 38.3969 32.903 38.5514 32.9416L38.7832 32.1674C38.6287 32.1286 38.3969 32.1286 38.2425 32.1286ZM27.8905 34.0643C27.8905 35.187 28.663 36 29.8605 36C30.4012 36 30.7875 35.8839 31.1737 35.5742L30.7874 34.9161C30.4785 35.1483 30.1695 35.2644 29.8218 35.2644C29.1652 35.2644 28.7017 34.7999 28.7017 34.0643C28.7017 33.3675 29.1652 32.9028 29.8218 32.8642C30.1695 32.8642 30.4785 32.9802 30.7874 33.2127L31.1737 32.5545C30.7875 32.2446 30.4012 32.1286 29.8605 32.1286C28.663 32.1286 27.8905 32.9416 27.8905 34.0643ZM35.3841 34.0643V32.206H34.5729V32.6705C34.3025 32.3222 33.9163 32.1286 33.4141 32.1286C32.3712 32.1286 31.5601 32.9416 31.5601 34.0643C31.5601 35.187 32.3712 36 33.4141 36C33.9548 36 34.3412 35.8065 34.5729 35.458V35.9225H35.3841V34.0643ZM32.4097 34.0643C32.4097 33.4061 32.8347 32.8642 33.5299 32.8642C34.1865 32.8642 34.6502 33.3675 34.6502 34.0643C34.6502 34.7224 34.1865 35.2644 33.5299 35.2644C32.8347 35.2256 32.4097 34.7224 32.4097 34.0643ZM22.7147 32.1286C21.6331 32.1286 20.8605 32.9028 20.8605 34.0643C20.8605 35.2258 21.6329 36 22.7532 36C23.2939 36 23.8348 35.8451 24.2597 35.4968L23.8733 34.9161C23.5643 35.1483 23.1781 35.3032 22.7919 35.3032C22.2897 35.3032 21.7876 35.0709 21.6716 34.4126H24.4142V34.1031C24.4529 32.9028 23.7577 32.1286 22.7147 32.1286ZM22.7147 32.8254C23.2167 32.8254 23.5645 33.1352 23.6416 33.716H21.7103C21.7876 33.2127 22.1352 32.8254 22.7147 32.8254ZM42.8389 34.0643V30.7349H42.0278V32.6705C41.7573 32.3222 41.3711 32.1286 40.8689 32.1286C39.8261 32.1286 39.0149 32.9416 39.0149 34.0643C39.0149 35.187 39.8261 36 40.8689 36C41.4098 36 41.796 35.8065 42.0278 35.458V35.9225H42.8389V34.0643ZM39.8648 34.0643C39.8648 33.4061 40.2895 32.8642 40.9849 32.8642C41.6415 32.8642 42.105 33.3675 42.105 34.0643C42.105 34.7224 41.6415 35.2644 40.9849 35.2644C40.2895 35.2256 39.8648 34.7224 39.8648 34.0643ZM12.749 34.0643V32.206H11.9378V32.6705C11.6674 32.3222 11.2811 32.1286 10.779 32.1286C9.73609 32.1286 8.92494 32.9416 8.92494 34.0643C8.92494 35.187 9.73609 36 10.779 36C11.3199 36 11.7061 35.8065 11.9378 35.458V35.9225H12.749V34.0643ZM9.73609 34.0643C9.73609 33.4061 10.161 32.8642 10.8562 32.8642C11.5129 32.8642 11.9765 33.3675 11.9765 34.0643C11.9765 34.7224 11.5129 35.2644 10.8562 35.2644C10.161 35.2256 9.73609 34.7224 9.73609 34.0643Z" fill="#FEFEFE"/>
<path d="M17.1888 13.9372C17.1888 9.4851 19.2746 5.53615 22.4805 2.98093C20.1244 1.12268 17.1503 0 13.9057 0C6.21876 0 0 6.23293 0 13.9372C0 21.6413 6.21876 27.8744 13.9055 27.8744C17.1501 27.8744 20.1243 26.7517 22.4805 24.8933C19.2746 22.3769 17.1888 18.3893 17.1888 13.9372Z" fill="#FF0925"/>
<path d="M44.9995 13.9372C44.9995 21.6413 38.7808 27.8744 31.094 27.8744C27.8494 27.8744 24.8752 26.7517 22.519 24.8933C25.7636 22.3382 27.8109 18.3893 27.8109 13.9372C27.8109 9.4851 25.7249 5.53615 22.519 2.98093C24.8751 1.12268 27.8494 0 31.094 0C38.7808 0 44.9997 6.27173 44.9997 13.9372H44.9995Z" fill="#171725"/>
</svg>
