<svg width="24" height="15" viewBox="0 0 24 15" fill="none" xmlns="http://www.w3.org/2000/svg">
<path fill-rule="evenodd" clip-rule="evenodd" d="M8.6655 13.3771H15.0889V1.6012H8.6655V13.3771Z" fill="#FF5F00"/>
<path fill-rule="evenodd" clip-rule="evenodd" d="M9.07346 7.48919C9.07346 5.10014 10.1699 2.97238 11.8773 1.60123C10.6285 0.598303 9.05307 0 7.34057 0C3.28647 0 0.00012207 3.35308 0.00012207 7.48919C0.00012207 11.6253 3.28647 14.9784 7.34057 14.9784C9.05307 14.9784 10.6285 14.3801 11.8773 13.3772C10.1699 12.0058 9.07346 9.87825 9.07346 7.48919Z" fill="#EB001B"/>
<path fill-rule="evenodd" clip-rule="evenodd" d="M23.5253 12.1299V11.8393H23.4508L23.3654 12.0392L23.2798 11.8393H23.2053V12.1299H23.2577V11.9106L23.3381 12.0997H23.3925L23.4729 11.9102V12.1299H23.5253ZM23.054 12.1299V11.8888H23.1495V11.8397H22.9068V11.8888H23.002V12.1299H23.054ZM23.7545 7.48907C23.7545 11.6252 20.4679 14.9783 16.414 14.9783C14.7015 14.9783 13.1258 14.38 11.8773 13.377C13.5847 12.0059 14.6811 9.87813 14.6811 7.48907C14.6811 5.10023 13.5847 2.97246 11.8773 1.60111C13.1258 0.598181 14.7015 -0.00012207 16.414 -0.00012207C20.4679 -0.00012207 23.7545 3.35296 23.7545 7.48907Z" fill="#F79E1B"/>
</svg>
