<svg width="169" height="169" viewBox="0 0 169 169" fill="none" xmlns="http://www.w3.org/2000/svg">
<circle cx="84.0798" cy="84.0801" r="63.2279" transform="rotate(115.103 84.0798 84.0801)" fill="#F8FCF8"/>
<path d="M58.9998 118H109C118.205 118 125.667 110.538 125.667 101.333V68C125.667 58.7952 118.205 51.3333 109 51.3333H58.9998C49.7951 51.3333 42.3332 58.7952 42.3332 68V101.333C42.3332 110.538 49.7951 118 58.9998 118Z" fill="url(#paint0_linear_29652_2308)"/>
<path d="M42.3331 68H125.666V76.3333H42.3331V68Z" fill="#E89236"/>
<path d="M102.583 88.8333C103.693 89.0796 104.686 89.6967 105.398 90.583C106.11 91.4692 106.498 92.5715 106.5 93.7083V103.917C106.493 110.515 104.503 116.959 100.788 122.413C97.0727 127.867 91.8044 132.078 85.6665 134.5C84.5448 134.958 83.2881 134.958 82.1665 134.5C76.0285 132.078 70.7602 127.867 67.0453 122.413C63.3303 116.959 61.3402 110.515 61.3331 103.917V93.5417C61.3802 92.4105 61.8097 91.3288 62.5515 90.4735C63.2932 89.6181 64.3033 89.0399 65.4165 88.8333L82.9165 84.9583C83.629 84.7914 84.3706 84.7914 85.0831 84.9583L102.583 88.8333Z" fill="#4CD964"/>
<path d="M82.9998 116.542C81.9067 116.537 80.8592 116.103 80.0832 115.333L75.1665 110.458C74.7753 110.075 74.4633 109.619 74.2484 109.115C74.0336 108.612 73.92 108.071 73.9142 107.523C73.9084 106.976 74.0105 106.433 74.2146 105.925C74.4188 105.417 74.721 104.954 75.104 104.563C75.487 104.171 75.9433 103.859 76.4469 103.644C76.9505 103.43 77.4915 103.316 78.039 103.31C79.1446 103.298 80.2097 103.726 80.9998 104.5L83.0415 106.5L89.3748 100.292C89.7515 99.8584 90.2137 99.5076 90.7323 99.2613C91.251 99.0151 91.8149 98.8787 92.3888 98.8607C92.9627 98.8427 93.534 98.9435 94.0671 99.1568C94.6002 99.37 95.0834 99.6912 95.4865 100.1C95.8896 100.509 96.2038 100.997 96.4095 101.533C96.6152 102.069 96.7079 102.641 96.6817 103.215C96.6556 103.789 96.5112 104.35 96.2576 104.866C96.0041 105.381 95.6468 105.838 95.2082 106.208L85.9582 115.333C85.5688 115.72 85.1071 116.025 84.5994 116.232C84.0918 116.44 83.5482 116.545 82.9998 116.542Z" fill="white"/>
<defs>
<linearGradient id="paint0_linear_29652_2308" x1="83.9998" y1="118" x2="83.9998" y2="51.3333" gradientUnits="userSpaceOnUse">
<stop stop-color="#FCC252"/>
<stop offset="1" stop-color="#FBEAC9"/>
</linearGradient>
</defs>
</svg>
