<svg width="18" height="20" viewBox="0 0 18 20" fill="none" xmlns="http://www.w3.org/2000/svg">
<path d="M15.6364 5.21293C15.8701 3.68888 15.6364 2.67285 14.8182 1.73497C13.9222 0.67986 12.2859 0.25 10.1822 0.25H4.14363C3.71509 0.25 3.36446 0.562625 3.28655 0.992485L0.754248 17.0145C0.71529 17.3272 0.94904 17.6007 1.26071 17.6007H5.00072L4.72801 19.242C4.68905 19.5155 4.88384 19.75 5.19551 19.75H8.35114C8.74072 19.75 9.05239 19.4765 9.09135 19.1247L9.75364 14.9825C9.7926 14.6308 10.1432 14.3572 10.4939 14.3572H10.9614C14.0001 14.3572 16.4155 13.1067 17.1168 9.51152C17.3895 8.02655 17.2726 6.73697 16.4934 5.87725C16.2597 5.60371 15.987 5.40832 15.6364 5.21293Z" fill="#009CDE"/>
<path d="M15.6364 5.21293C15.8701 3.68888 15.6364 2.67285 14.8182 1.73497C13.9222 0.67986 12.2859 0.25 10.1822 0.25H4.14363C3.71509 0.25 3.36446 0.562625 3.28654 0.992485L0.754248 17.0145C0.71529 17.3272 0.94904 17.6007 1.26071 17.6007H5.00071L5.89676 11.8171C5.97468 11.3873 6.3253 11.0746 6.75384 11.0746H8.54593C12.0522 11.0746 14.7793 9.66784 15.5584 5.52555C15.5974 5.44739 15.5974 5.33016 15.6364 5.21293Z" fill="#012169"/>
<path d="M6.94864 5.252C6.98759 4.97846 7.33822 4.62675 7.68884 4.62675H12.4418C12.9872 4.62675 13.5326 4.66583 14.0001 4.74399C14.4286 4.82214 15.2078 5.01753 15.5974 5.252C15.8312 3.72796 15.5974 2.71192 14.7793 1.77405C13.9222 0.67986 12.2859 0.25 10.1822 0.25H4.14363C3.71509 0.25 3.36446 0.562625 3.28654 0.992485L0.754248 17.0145C0.71529 17.3272 0.94904 17.6007 1.26071 17.6007H5.00071L6.94864 5.252Z" fill="#003087"/>
</svg>
