<svg width="18" height="18" viewBox="0 0 18 18" fill="none" xmlns="http://www.w3.org/2000/svg">
<path fill-rule="evenodd" clip-rule="evenodd" d="M8.80401 1.5C12.8315 1.5 16.1075 4.776 16.1075 8.8035C16.1075 10.7037 15.3783 12.4367 14.185 13.7374L16.5331 16.0805C16.7528 16.3003 16.7536 16.6558 16.5338 16.8755C16.4243 16.9865 16.2796 17.0413 16.1356 17.0413C15.9923 17.0413 15.8483 16.9865 15.7381 16.877L13.3617 14.5073C12.1116 15.5084 10.5265 16.1077 8.80401 16.1077C4.77651 16.1077 1.49976 12.831 1.49976 8.8035C1.49976 4.776 4.77651 1.5 8.80401 1.5ZM8.80401 2.625C5.39676 2.625 2.62476 5.39625 2.62476 8.8035C2.62476 12.2108 5.39676 14.9827 8.80401 14.9827C12.2105 14.9827 14.9825 12.2108 14.9825 8.8035C14.9825 5.39625 12.2105 2.625 8.80401 2.625Z" fill="#78828A"/>
</svg>
