<svg width="17" height="21" viewBox="0 0 17 21" fill="none" xmlns="http://www.w3.org/2000/svg">
<path fill-rule="evenodd" clip-rule="evenodd" d="M8.48359 0C9.61659 0 15.5616 2.041 16.3486 2.828C17.0046 3.484 16.9946 4.014 16.9486 6.554C16.9306 7.572 16.9056 8.959 16.9056 10.879C16.9056 17.761 9.03559 20.223 8.70059 20.324C8.62959 20.346 8.55659 20.356 8.48359 20.356C8.41059 20.356 8.33759 20.346 8.26659 20.324C7.93159 20.223 0.0615925 17.761 0.0615925 10.879C0.0615925 8.962 0.0365925 7.575 0.0185925 6.557C0.0103782 6.10289 0.00331192 5.71298 0.000986616 5.37507L0.000701904 4.99377C0.00928003 3.74113 0.126843 3.32 0.619593 2.828C1.40459 2.041 7.34959 0 8.48359 0ZM8.48359 1.5C7.63559 1.5 2.28559 3.384 1.66859 3.899C1.48659 4.082 1.47959 4.4 1.51859 6.529C1.53659 7.555 1.56159 8.949 1.56159 10.879C1.56159 16.08 7.28359 18.389 8.48259 18.814C9.68059 18.387 15.4056 16.065 15.4056 10.879C15.4056 8.947 15.4306 7.552 15.4496 6.526C15.4876 4.399 15.4806 4.081 15.2876 3.889C14.6826 3.384 9.33159 1.5 8.48359 1.5ZM12.2051 7.3395C12.4981 7.6325 12.4981 8.1075 12.2051 8.4005L8.30709 12.2995C8.19509 12.4123 8.05045 12.4854 7.89519 12.5102L7.77709 12.5195C7.57809 12.5195 7.38709 12.4405 7.24609 12.2995L5.35409 10.4055C5.06209 10.1125 5.06209 9.6365 5.35509 9.3445C5.64709 9.0515 6.12309 9.0515 6.41609 9.3445L7.77709 10.7075L11.1451 7.3395C11.4381 7.0465 11.9121 7.0465 12.2051 7.3395Z" fill="#171725"/>
</svg>
