<svg width="64" height="64" viewBox="0 0 64 64" fill="none" xmlns="http://www.w3.org/2000/svg">
<path d="M56 48.8799C55.504 45.6098 54.1205 42.5383 52 39.9999C49.8736 42.5346 48.4893 45.6078 48 48.8799C47.9348 49.444 47.9896 50.0155 48.1608 50.5569C48.332 51.0983 48.6158 51.5973 48.9936 52.0213C49.3713 52.4452 49.8345 52.7845 50.3526 53.0168C50.8708 53.2491 51.4322 53.3692 52 53.3692C52.5678 53.3692 53.1292 53.2491 53.6474 53.0168C54.1655 52.7845 54.6287 52.4452 55.0064 52.0213C55.3842 51.5973 55.668 51.0983 55.8392 50.5569C56.0104 50.0155 56.0652 49.444 56 48.8799ZM29.3333 54.2132C28.8374 50.9431 27.4538 47.8716 25.3333 45.3332C23.207 47.868 21.8227 50.9411 21.3333 54.2132C21.2752 55.3337 21.6635 56.4316 22.4132 57.2663C23.163 58.1011 24.213 58.6046 25.3333 58.6666C26.4536 58.6046 27.5037 58.1011 28.2534 57.2663C29.0032 56.4316 29.3915 55.3337 29.3333 54.2132ZM42.6667 54.2132C42.1707 50.9431 40.7872 47.8716 38.6667 45.3332C36.5403 47.868 35.156 50.9411 34.6667 54.2132C34.6085 55.3337 34.9968 56.4316 35.7466 57.2663C36.4963 58.1011 37.5464 58.6046 38.6667 58.6666C39.787 58.6046 40.837 58.1011 41.5867 57.2663C42.3365 56.4316 42.7248 55.3337 42.6667 54.2132ZM16 48.8799C15.504 45.6098 14.1205 42.5383 12 39.9999C9.87363 42.5346 8.48932 45.6078 8 48.8799C7.94183 50.0004 8.33016 51.0983 9.07992 51.933C9.82967 52.7677 10.8797 53.2712 12 53.3332C13.1203 53.2712 14.1703 52.7677 14.9201 51.933C15.6698 51.0983 16.0582 50.0004 16 48.8799ZM5.33333 31.9999H58.6667V37.3333H5.33333V31.9999ZM34.6667 10.8533V5.33325H29.3333V10.8533C24.6399 11.4484 20.2775 13.5868 16.9322 16.9321C13.5869 20.2775 11.4485 24.6399 10.8533 29.3333H53.1467C52.5515 24.6399 50.4131 20.2775 47.0678 16.9321C43.7225 13.5868 39.3601 11.4484 34.6667 10.8533Z" fill="#FEFEFE"/>
</svg>
