<svg width="58" height="36" viewBox="0 0 58 36" fill="none" xmlns="http://www.w3.org/2000/svg">
<path fill-rule="evenodd" clip-rule="evenodd" d="M10.6957 21.4925H15.0964L21.6963 5.17877H17.4179L13.0194 16.2228L11.3072 6.80993C11.1849 5.93345 10.4511 5.17877 9.47269 5.17877H2.38354V5.68117C3.85115 5.93345 5.19646 6.43367 6.41732 7.06221C6.90652 7.31232 7.2391 7.84299 7.39573 8.44326L10.6957 21.4925ZM19.9855 21.4925H24.1416L27.5639 5.17877H23.4078L19.9855 21.4925ZM34.6549 8.31464C33.7988 8.31464 33.0649 8.81704 32.9426 9.69569C32.9426 10.4464 33.8576 10.9373 34.9572 11.5274C36.6134 12.4162 38.6886 13.5298 38.6886 16.0942C38.6886 19.4826 35.8779 21.7401 31.3549 21.6162C29.8873 21.6162 28.2995 21.3639 26.8319 20.7375L27.5657 17.2229C28.9089 17.8515 30.3765 18.2277 31.8441 18.2277C33.0649 18.2277 34.288 17.7253 34.288 16.5966C34.4103 15.8441 33.7988 15.3417 32.211 14.5892C30.7434 13.8345 28.6643 12.5817 28.6643 10.1959C28.6643 7.05974 31.5995 4.80005 35.6333 4.80005C36.8541 4.80005 38.1994 5.05233 39.4224 5.55473L38.6886 9.06715C37.4656 8.44079 36.0002 8.1885 34.6549 8.31464ZM49.9313 5.17877L53.2312 21.4925H49.4421L48.9529 19.1088H43.6961L42.8421 21.4925H38.5637L44.6745 6.43367C44.9191 5.68117 45.6529 5.17877 46.3867 5.17877H49.9313ZM48.2196 15.7186L46.9987 9.57025L44.7973 15.7186H48.2196ZM45.0429 24.8H45.7637V27.3334H45.7799C46.0369 26.8838 46.5 26.6001 47.1456 26.6001C48.1474 26.6001 48.8427 27.4332 48.8427 28.6496C48.8427 30.0905 47.9322 30.8074 47.038 30.8074C46.4589 30.8074 45.9945 30.5823 45.6886 30.0571H45.6723L45.6306 30.7155H45.0104C45.0266 30.4404 45.0429 30.0321 45.0429 29.6737V24.8ZM45.7637 29.0993C45.7637 29.1905 45.7714 29.2824 45.7962 29.3651C45.9293 29.8732 46.3591 30.2238 46.8894 30.2238C47.6596 30.2238 48.1057 29.5988 48.1057 28.6739C48.1057 27.8657 47.6922 27.1738 46.9063 27.1738C46.4171 27.1738 45.9541 27.5244 45.8047 28.0738C45.7799 28.1658 45.7637 28.2655 45.7637 28.3824V29.0993ZM36.491 25.0674C35.9196 25.0674 35.3985 25.1173 34.9589 25.1921V30.7078C35.3228 30.7491 35.7447 30.7741 36.2672 30.7741C37.3519 30.7741 38.2128 30.4905 38.7423 29.966C39.2549 29.4493 39.5452 28.6996 39.5452 27.7832C39.5452 26.8746 39.2549 26.2247 38.7501 25.7672C38.2623 25.3175 37.5246 25.0674 36.491 25.0674ZM36.4074 30.1912C36.1264 30.1912 35.8616 30.1826 35.6796 30.1577V25.7166C35.8701 25.6753 36.1518 25.6418 36.5235 25.6418C38.0471 25.6418 38.7919 26.4834 38.7834 27.8082C38.7834 29.3246 37.9558 30.1912 36.4074 30.1912ZM42.4621 30.2328C41.7251 30.2328 41.1042 29.8252 41.0879 28.8332V28.8325H43.9021C43.9184 28.7491 43.9269 28.6408 43.9269 28.4905C43.9269 27.7501 43.5871 26.5999 42.2709 26.5999C41.1042 26.5999 40.3926 27.5498 40.3926 28.7655C40.3926 29.9827 41.1289 30.8079 42.3623 30.8079C42.9994 30.8079 43.4462 30.6661 43.7032 30.5492L43.5708 30.0247C43.306 30.1409 42.9832 30.2328 42.4621 30.2328ZM42.2129 27.1258C43.0327 27.1258 43.2317 27.8498 43.2232 28.3087H43.2225H41.095C41.153 27.8006 41.4681 27.1258 42.2129 27.1258ZM50.3124 26.0014C50.6013 26.0014 50.7755 25.8018 50.7755 25.5517C50.7755 25.2937 50.5942 25.0935 50.3287 25.0935C50.0561 25.0935 49.8742 25.3023 49.8742 25.5517C49.8742 25.8011 50.0469 26.0014 50.3124 26.0014ZM49.9641 26.6848V30.7175H50.6926V26.6848H49.9641ZM52.9819 25.7268V26.6938H54.0247V27.2518H52.9819V29.426C52.9819 29.9255 53.1228 30.2091 53.5277 30.2091C53.7267 30.2091 53.8428 30.1928 53.9497 30.1593L53.983 30.7172C53.8421 30.7678 53.6183 30.8177 53.3373 30.8177C52.9974 30.8177 52.7249 30.7009 52.5507 30.5092C52.3518 30.284 52.2689 29.9255 52.2689 29.4502V27.2511H51.6487V26.6931H52.2689V25.9427L52.9812 25.726L52.9819 25.7268Z" fill="#FEFEFE"/>
</svg>
