<svg width="20" height="20" viewBox="0 0 20 20" fill="none" xmlns="http://www.w3.org/2000/svg">
<path d="M18.2332 15.1866C19.1817 13.6412 19.6826 11.8629 19.6801 10.0496L19.6801 10.0494L19.6801 10.0493C19.6826 8.23598 19.1817 6.4576 18.2331 4.91221L18.2277 4.90377C17.3477 3.46943 16.1145 2.28474 14.6461 1.46288C13.1776 0.641028 11.523 0.20948 9.84018 0.209473C8.15739 0.209466 6.50272 0.641 5.03426 1.46284C3.56581 2.28468 2.33264 3.46937 1.4526 4.90371L1.44713 4.91225C0.500915 6.4587 0.000190129 8.23645 0.000183106 10.0494C0.000176082 11.8624 0.500887 13.6401 1.44709 15.1866L1.45265 15.1953C2.3327 16.6296 3.56586 17.8142 5.0343 18.6361C6.50275 19.4579 8.15741 19.8894 9.84019 19.8894C11.523 19.8894 13.1776 19.4579 14.6461 18.636C16.1145 17.8142 17.3476 16.6295 18.2277 15.1952L18.2332 15.1866ZM11.0979 18.203C10.9104 18.3839 10.6946 18.5329 10.459 18.6442C10.2656 18.7361 10.0542 18.7838 9.84015 18.7838C9.62605 18.7838 9.41465 18.7361 9.22128 18.6442C8.77295 18.4152 8.38918 18.0775 8.10503 17.6619C7.52473 16.8234 7.09468 15.8903 6.8341 14.9044C7.8351 14.8428 8.83712 14.8114 9.84015 14.8103C10.8428 14.8103 11.8448 14.8416 12.8464 14.9044C12.7021 15.4113 12.522 15.9073 12.3073 16.3886C12.0245 17.0655 11.6139 17.6816 11.0979 18.203V18.203ZM1.12504 10.6023H5.09397C5.11981 11.7097 5.23985 12.813 5.45279 13.9001C4.36784 13.9956 3.28566 14.1267 2.20625 14.2935C1.57417 13.1595 1.20469 11.8981 1.12504 10.6023ZM2.20625 5.80538C3.28523 5.97258 4.36779 6.10374 5.45393 6.19885C5.24057 7.2859 5.12026 8.38915 5.09432 9.49664H1.12504C1.20468 8.20081 1.57416 6.93939 2.20624 5.80538H2.20625ZM8.58237 1.8959C8.76987 1.71497 8.98568 1.56592 9.22128 1.45462C9.41465 1.36274 9.62605 1.31507 9.84015 1.31507C10.0542 1.31507 10.2656 1.36274 10.459 1.45462C10.9073 1.68363 11.2911 2.02135 11.5753 2.43692C12.1556 3.27548 12.5856 4.20856 12.8462 5.19447C11.8452 5.25607 10.8432 5.28745 9.84015 5.28861C8.83754 5.28859 7.83546 5.25721 6.83392 5.19446C6.97816 4.68755 7.15832 4.19155 7.37303 3.71025C7.65576 3.03334 8.06637 2.41731 8.58237 1.8959ZM18.5553 9.49664H14.5863C14.5605 8.38915 14.4404 7.28588 14.2275 6.19875C15.3125 6.10328 16.3947 5.97216 17.4741 5.80538C18.1061 6.93939 18.4756 8.20081 18.5553 9.49664ZM6.56478 13.8142C6.34857 12.7564 6.22645 11.6816 6.19987 10.6023H13.4805C13.4542 11.6816 13.3323 12.7564 13.1163 13.8142C12.0254 13.7426 10.9334 13.7061 9.84015 13.7047C8.7477 13.7047 7.65591 13.7412 6.56478 13.8142ZM13.1155 6.2847C13.3317 7.34248 13.4538 8.41732 13.4804 9.49664H6.19975C6.22609 8.41732 6.34798 7.34246 6.56399 6.28466C7.65485 6.35623 8.7469 6.39275 9.84015 6.39421C10.9326 6.39421 12.0244 6.35771 13.1155 6.28471V6.2847ZM14.586 10.6023H18.5553C18.4756 11.8981 18.1061 13.1595 17.474 14.2935C16.3951 14.1263 15.3125 13.9951 14.2264 13.9C14.4397 12.813 14.56 11.7097 14.586 10.6023ZM16.8111 4.78777C15.8678 4.92388 14.9216 5.03164 13.9725 5.11105C13.8019 4.47601 13.582 3.85528 13.3146 3.25455C13.0705 2.70173 12.7633 2.17897 12.3992 1.69667C14.1588 2.23633 15.703 3.31819 16.8111 4.78777ZM3.664 3.87329C4.67341 2.86293 5.91525 2.11559 7.28066 1.6968C7.25995 1.72363 7.23864 1.74928 7.21822 1.77666C6.5164 2.78697 6.00519 3.91706 5.7098 5.11122C4.76071 5.03084 3.81383 4.92302 2.86916 4.78777C3.1128 4.46506 3.37837 4.15951 3.664 3.87329ZM2.86915 15.3111C3.81253 15.175 4.75873 15.0672 5.70777 14.9878C5.87834 15.6229 6.09832 16.2436 6.36571 16.8443C6.60984 17.3971 6.91701 17.9199 7.28112 18.4022C5.52146 17.8625 3.9773 16.7807 2.86915 15.3111V15.3111ZM16.0163 16.2256C15.0069 17.236 13.765 17.9833 12.3996 18.4021C12.4203 18.3752 12.4416 18.3496 12.4621 18.3222C13.1639 17.3119 13.6751 16.1818 13.9705 14.9877C14.9196 15.068 15.8665 15.1759 16.8111 15.3111C16.5675 15.6338 16.3019 15.9394 16.0163 16.2256V16.2256Z" fill="#171725"/>
</svg>
