<svg width="24" height="24" viewBox="0 0 24 24" fill="none" xmlns="http://www.w3.org/2000/svg">
<g clip-path="url(#clip0_604_3)">
<path d="M23.12 9.91002L19.25 6.00002C19.157 5.90629 19.0464 5.8319 18.9246 5.78113C18.8027 5.73036 18.672 5.70422 18.54 5.70422C18.408 5.70422 18.2773 5.73036 18.1554 5.78113C18.0336 5.8319 17.923 5.90629 17.83 6.00002V6.00002C17.6437 6.18738 17.5392 6.44084 17.5392 6.70502C17.5392 6.96921 17.6437 7.22266 17.83 7.41002L21.39 11H1C0.734784 11 0.48043 11.1054 0.292893 11.2929C0.105357 11.4805 0 11.7348 0 12H0C0 12.2652 0.105357 12.5196 0.292893 12.7071C0.48043 12.8947 0.734784 13 1 13H21.45L17.83 16.61C17.7363 16.703 17.6619 16.8136 17.6111 16.9354C17.5603 17.0573 17.5342 17.188 17.5342 17.32C17.5342 17.452 17.5603 17.5827 17.6111 17.7046C17.6619 17.8265 17.7363 17.9371 17.83 18.03C17.923 18.1238 18.0336 18.1981 18.1554 18.2489C18.2773 18.2997 18.408 18.3258 18.54 18.3258C18.672 18.3258 18.8027 18.2997 18.9246 18.2489C19.0464 18.1981 19.157 18.1238 19.25 18.03L23.12 14.15C23.6818 13.5875 23.9974 12.825 23.9974 12.03C23.9974 11.235 23.6818 10.4725 23.12 9.91002V9.91002Z" fill="#374957"/>
</g>
<defs>
<clipPath id="clip0_604_3">
<rect width="24" height="24" fill="white"/>
</clipPath>
</defs>
</svg>
