<svg width="24" height="24" viewBox="0 0 24 24" fill="none" xmlns="http://www.w3.org/2000/svg">
<g clip-path="url(#clip0_606_23)">
<path d="M6 19C6 19.2652 5.89464 19.5196 5.70711 19.7071C5.51957 19.8946 5.26522 20 5 20C4.73478 20 4.48043 19.8946 4.29289 19.7071C4.10536 19.5196 4 19.2652 4 19C4 18.7348 4.10536 18.4804 4.29289 18.2929C4.48043 18.1054 4.73478 18 5 18C5.26522 18 5.51957 18.1054 5.70711 18.2929C5.89464 18.4804 6 18.7348 6 19V19ZM23.73 7.625C23.5235 8.03936 23.2053 8.38771 22.8112 8.63069C22.4171 8.87367 21.963 9.00159 21.5 9H16.981C16.961 10.061 16.918 11.071 16.832 12H17.2C17.6026 11.992 18.002 12.0725 18.37 12.2361C18.738 12.3996 19.0655 12.642 19.3293 12.9462C19.5932 13.2504 19.7869 13.609 19.8967 13.9964C20.0066 14.3838 20.0299 14.7906 19.965 15.188C19.8511 15.9663 19.462 16.678 18.8683 17.1939C18.2746 17.7099 17.5156 17.9958 16.729 18H15.4C13.6 21.889 8 24 3.987 24C3.44122 23.9981 2.9016 23.8846 2.40135 23.6664C1.90109 23.4481 1.45079 23.1298 1.07816 22.7311C0.705519 22.3323 0.418432 21.8615 0.234562 21.3476C0.0506916 20.8337 -0.0260707 20.2877 0.0089989 19.743C0.0623353 17.0847 0.74463 14.4768 2 12.133V11.6C2.00641 9.80172 2.64137 8.06227 3.79498 6.68276C4.94859 5.30325 6.54823 4.37051 8.317 4.046C8.76483 3.96952 9.22396 3.99192 9.66222 4.11163C10.1005 4.23134 10.5072 4.44547 10.854 4.739C11.2089 5.03723 11.4952 5.40873 11.693 5.82802C11.8908 6.2473 11.9955 6.70442 12 7.168C12.93 7.082 13.941 7.039 15 7.019V2.5C15 2.03572 15.1293 1.58061 15.3734 1.18567C15.6175 0.790733 15.9667 0.471566 16.382 0.263933C16.7972 0.056301 17.2621 -0.031592 17.7245 0.0101029C18.1869 0.0517978 18.6286 0.221433 19 0.500001C19.8969 1.15254 20.5437 2.0922 20.833 3.163C21.9058 3.4525 22.8471 4.10083 23.5 5C23.779 5.37273 23.9483 5.81596 23.9889 6.27974C24.0296 6.74352 23.9399 7.20944 23.73 7.625V7.625ZM4.385 9.541C6.07061 8.41756 7.9916 7.69604 10 7.432V7.2C10 7.02216 9.96106 6.84647 9.88591 6.68529C9.81076 6.5241 9.70122 6.38133 9.565 6.267C9.44333 6.16041 9.29937 6.08237 9.14365 6.0386C8.98793 5.99482 8.82439 5.98642 8.665 6.014C7.7073 6.18108 6.8094 6.59395 6.05916 7.2122C5.30891 7.83045 4.73204 8.6329 4.385 9.541ZM8.783 21.2C8.4399 19.746 7.6983 18.4163 6.64145 17.3603C5.5846 16.3044 4.25434 15.5639 2.8 15.222C2.35071 16.7377 2.08218 18.3012 2 19.88C1.98244 20.163 2.02525 20.4464 2.12558 20.7116C2.22591 20.9768 2.38147 21.2176 2.58195 21.4181C2.78242 21.6185 3.02323 21.7741 3.28839 21.8744C3.55356 21.9748 3.83703 22.0176 4.12 22C5.70048 21.9185 7.26573 21.6499 8.783 21.2V21.2ZM14.992 9.008C8.753 9.115 5.353 10.272 3.592 13.37C5.27594 13.8304 6.81083 14.7217 8.04535 15.956C9.27986 17.1904 10.1714 18.7251 10.632 20.409C13.728 18.646 14.885 15.247 14.992 9.008ZM16.568 14C16.4563 14.6743 16.3077 15.342 16.123 16H16.729C17.0353 15.9985 17.3308 15.8873 17.5622 15.6866C17.7935 15.4859 17.9453 15.209 17.99 14.906C18.0137 14.792 18.0108 14.6741 17.9813 14.5614C17.9518 14.4487 17.8967 14.3444 17.8201 14.2567C17.7436 14.1689 17.6478 14.1001 17.5402 14.0555C17.4326 14.011 17.3162 13.992 17.2 14H16.568ZM21.9 6.189C21.6573 5.85839 21.3492 5.58125 20.9948 5.37481C20.6404 5.16837 20.2473 5.03704 19.84 4.989C19.6347 4.95461 19.4453 4.85703 19.2981 4.70986C19.151 4.56269 19.0534 4.37327 19.019 4.168C18.9711 3.76066 18.8398 3.36754 18.6333 3.01314C18.4269 2.65873 18.1497 2.35062 17.819 2.108C17.7435 2.04937 17.6528 2.01359 17.5577 2.00491C17.4625 1.99622 17.3668 2.015 17.282 2.059C17.1971 2.09701 17.1252 2.15901 17.0751 2.23736C17.025 2.31572 16.9989 2.40701 17 2.5V7H21.5C21.5927 7.00267 21.6841 6.97827 21.7632 6.92979C21.8422 6.8813 21.9054 6.81083 21.945 6.727C21.9898 6.64242 22.0093 6.54677 22.0014 6.45141C21.9934 6.35604 21.9582 6.26497 21.9 6.189V6.189Z" fill="#374957"/>
</g>
<defs>
<clipPath id="clip0_606_23">
<rect width="24" height="24" fill="white"/>
</clipPath>
</defs>
</svg>
