<svg width="24" height="24" viewBox="0 0 24 24" fill="none" xmlns="http://www.w3.org/2000/svg">
<g clip-path="url(#clip0_604_10)">
<path d="M17.5 1.9165C16.3739 1.93402 15.2724 2.24836 14.3067 2.82778C13.341 3.40719 12.5453 4.23117 12 5.2165C11.4546 4.23117 10.6589 3.40719 9.6932 2.82778C8.7275 2.24836 7.62601 1.93402 6.49996 1.9165C4.7049 1.99449 3.01366 2.77976 1.79574 4.10074C0.577818 5.42171 -0.0677922 7.17103 -4.17093e-05 8.9665C-4.17093e-05 13.5135 4.78596 18.4795 8.79996 21.8465C9.69618 22.5996 10.8293 23.0125 12 23.0125C13.1706 23.0125 14.3037 22.5996 15.2 21.8465C19.214 18.4795 24 13.5135 24 8.9665C24.0677 7.17103 23.4221 5.42171 22.2042 4.10074C20.9863 2.77976 19.295 1.99449 17.5 1.9165ZM13.915 20.3165C13.3789 20.7679 12.7007 21.0154 12 21.0154C11.2992 21.0154 10.621 20.7679 10.085 20.3165C4.94696 16.0055 1.99996 11.8695 1.99996 8.9665C1.9316 7.70122 2.36632 6.46023 3.20932 5.5142C4.05232 4.56817 5.23519 3.99385 6.49996 3.9165C7.76472 3.99385 8.9476 4.56817 9.7906 5.5142C10.6336 6.46023 11.0683 7.70122 11 8.9665C11 9.23172 11.1053 9.48607 11.2929 9.67361C11.4804 9.86115 11.7347 9.9665 12 9.9665C12.2652 9.9665 12.5195 9.86115 12.7071 9.67361C12.8946 9.48607 13 9.23172 13 8.9665C12.9316 7.70122 13.3663 6.46023 14.2093 5.5142C15.0523 4.56817 16.2352 3.99385 17.5 3.9165C18.7647 3.99385 19.9476 4.56817 20.7906 5.5142C21.6336 6.46023 22.0683 7.70122 22 8.9665C22 11.8695 19.053 16.0055 13.915 20.3125V20.3165Z" fill="#374957"/>
</g>
<defs>
<clipPath id="clip0_604_10">
<rect width="24" height="24" fill="white"/>
</clipPath>
</defs>
</svg>
