<svg width="24" height="24" viewBox="0 0 24 24" fill="none" xmlns="http://www.w3.org/2000/svg">
<g clip-path="url(#clip0_607_2)">
<path d="M12 14.9918C10.3432 14.9918 9 16.335 9 17.9918V23.9918H15V17.9918C15 16.335 13.6568 14.9918 12 14.9918Z" fill="#374957"/>
<path d="M17 17.9923V23.9923H21C22.6568 23.9923 24 22.6491 24 20.9923V11.8713C24.0002 11.3518 23.7983 10.8525 23.437 10.4793L14.939 1.29224C13.4396 -0.330101 10.9089 -0.42971 9.28655 1.06973C9.20948 1.14098 9.13523 1.21518 9.06403 1.29224L0.581016 10.4763C0.208734 10.8511 -0.000140554 11.358 7.09607e-08 11.8863V20.9923C7.09607e-08 22.6491 1.34316 23.9923 3 23.9923H6.99998V17.9923C7.01869 15.2654 9.22027 13.0387 11.8784 12.9746C14.6255 12.9083 16.9791 15.173 17 17.9923Z" fill="#374957"/>
<path d="M12 14.9918C10.3432 14.9918 9 16.335 9 17.9918V23.9918H15V17.9918C15 16.335 13.6568 14.9918 12 14.9918Z" fill="#374957"/>
</g>
<defs>
<clipPath id="clip0_607_2">
<rect width="24" height="24" fill="white"/>
</clipPath>
</defs>
</svg>
