<svg width="18" height="18" viewBox="0 0 18 18" fill="none" xmlns="http://www.w3.org/2000/svg">
<g clip-path="url(#clip0_607_8)">
<path d="M2.75 14.2512V14.2504V3.75434C2.75053 3.15423 2.91721 2.56599 3.23155 2.0548C3.54593 1.54355 3.99575 1.12934 4.53113 0.858084C5.06651 0.586826 5.66654 0.469117 6.26473 0.518003C6.8628 0.56688 7.43566 0.780383 7.91984 1.13485C7.91987 1.13487 7.9199 1.1349 7.91993 1.13492C7.91999 1.13496 7.92005 1.135 7.92011 1.13505L14.869 6.23052V6.23415L15.0732 6.38399C15.4846 6.68588 15.8191 7.08039 16.0496 7.53559C16.2802 7.99079 16.4003 8.49388 16.4003 9.00414C16.4003 9.5144 16.2802 10.0175 16.0496 10.4727C15.8191 10.9278 15.4846 11.3223 15.0733 11.6242C15.0733 11.6242 15.0732 11.6243 15.0732 11.6243L7.91984 16.8697L7.91915 16.8702C7.43537 17.2262 6.86229 17.441 6.26369 17.4906C5.66509 17.5402 5.06446 17.4228 4.52866 17.1513C3.99285 16.8798 3.54289 16.465 3.22887 15.953C2.91484 15.4409 2.74907 14.8518 2.75 14.2512Z" fill="#02A774" stroke="black"/>
</g>
<defs>
<clipPath id="clip0_607_8">
<rect width="18" height="18" fill="white"/>
</clipPath>
</defs>
</svg>
