<svg width="24" height="24" viewBox="0 0 24 24" fill="none" xmlns="http://www.w3.org/2000/svg">
<g clip-path="url(#clip0_606_27)">
<path d="M23.1939 11.6003C22.6625 10.8907 21.9076 10.3809 21.0509 10.1533C21.4684 8.93945 21.777 7.69085 21.9729 6.42226C22.0369 5.96113 21.993 5.49143 21.8446 5.05015C21.6962 4.60887 21.4475 4.20805 21.1179 3.87924C20.7883 3.55043 20.3869 3.30261 19.9453 3.15529C19.5036 3.00797 19.0338 2.96517 18.5729 3.03026C18.4469 3.04726 18.0729 3.10226 17.5619 3.20126C17.8783 2.50072 18.0282 1.73643 17.9999 0.968263C17.9957 0.836941 17.9656 0.707733 17.9115 0.588015C17.8574 0.468298 17.7802 0.360416 17.6843 0.270528C17.5885 0.180641 17.4759 0.110509 17.353 0.0641372C17.23 0.0177649 17.0992 -0.00393973 16.9679 0.000262573C16.8365 0.00446487 16.7073 0.0344918 16.5876 0.0886289C16.4679 0.142766 16.36 0.219953 16.2701 0.315783C16.1802 0.411613 16.1101 0.52421 16.0637 0.647143C16.0174 0.770077 15.9957 0.900941 15.9999 1.03226C16.0169 1.51533 15.9178 1.99544 15.7109 2.43226C15.5662 2.04192 15.3599 1.67729 15.0999 1.35226C14.6578 0.849159 14.0967 0.464914 13.4678 0.234666C12.8389 0.00441808 12.1623 -0.0644834 11.4999 0.0342626C10.7735 0.0925636 10.0793 0.358459 9.49986 0.800263C8.8448 0.307456 8.05232 0.0312927 7.23286 0.0102626C6.19304 -0.090517 5.15566 0.224832 4.34786 0.887263C3.93768 1.25243 3.60652 1.69762 3.3747 2.19547C3.14289 2.69332 3.01533 3.23331 2.99986 3.78226C2.97241 4.66128 3.22834 5.52583 3.72986 6.24826C3.11976 6.77136 2.64616 7.43511 2.34998 8.18219C2.05379 8.92927 1.94392 9.73722 2.02986 10.5363C1.23901 10.977 0.622698 11.6749 0.283264 12.5142C-0.0561706 13.3535 -0.0983059 14.2837 0.163855 15.1503C0.848864 17.5338 2.12383 19.7061 3.87086 21.4663C5.54686 23.1005 7.798 24.0106 10.1389 24.0003H13.8609C16.2014 24.0107 18.4523 23.1006 20.1279 21.4663C21.8755 19.7064 23.1509 17.534 23.8359 15.1503C24.0144 14.5496 24.0493 13.9154 23.9378 13.2988C23.8263 12.6822 23.5715 12.1003 23.1939 11.6003ZM18.8509 5.01026C19.0056 4.98938 19.1631 5.00456 19.311 5.05462C19.4589 5.10467 19.5933 5.18824 19.7036 5.29881C19.8138 5.40938 19.897 5.54394 19.9467 5.69199C19.9964 5.84004 20.0111 5.99756 19.9899 6.15226C19.7801 7.46545 19.4401 8.75448 18.9749 10.0003H16.4139L17.7069 8.70726C17.889 8.51866 17.9898 8.26606 17.9875 8.00386C17.9853 7.74167 17.8801 7.49085 17.6947 7.30545C17.5093 7.12004 17.2585 7.01487 16.9963 7.01259C16.7341 7.01031 16.4815 7.11111 16.2929 7.29326L13.5859 10.0003H12.0369C11.9638 9.47431 12.014 8.93859 12.1833 8.43532C12.3527 7.93206 12.6367 7.47503 13.0129 7.10026C13.4399 6.66926 15.0769 5.50026 18.8509 5.01026ZM4.99986 3.84926C5.00587 3.57396 5.06794 3.30277 5.18227 3.05226C5.29661 2.80175 5.46081 2.57718 5.66486 2.39226C6.07743 2.08731 6.58997 1.94944 7.09986 2.00626C7.34614 1.99614 7.59178 2.03821 7.82065 2.12973C8.04952 2.22124 8.25645 2.36012 8.42786 2.53726C8.56279 2.68803 8.72801 2.80862 8.91274 2.89116C9.09746 2.9737 9.29753 3.01633 9.49986 3.01626V3.01626C9.70171 3.01527 9.90111 2.97184 10.0851 2.8888C10.2691 2.80577 10.4336 2.68497 10.5679 2.53426C10.717 2.3765 10.896 2.24991 11.0944 2.16185C11.2929 2.07379 11.5068 2.026 11.7239 2.02126C12.0544 1.96238 12.3944 1.98637 12.7134 2.09108C13.0324 2.19579 13.3205 2.37795 13.5519 2.62126C13.8554 3.00991 14.0139 3.49231 13.9999 3.98526C13.9999 4.05026 13.9999 4.19226 13.9999 4.19226C12.6724 4.67029 11.5384 5.57067 10.7719 6.75526C10.1404 6.00774 9.30023 5.46567 8.35889 5.19844C7.41755 4.93122 6.41788 4.95101 5.48786 5.25526C5.156 4.86359 4.98201 4.36231 4.99986 3.84926V3.84926ZM3.99986 10.0003C3.99986 9.20461 4.31593 8.44155 4.87854 7.87894C5.44114 7.31633 6.20421 7.00026 6.99986 7.00026C7.79551 7.00026 8.55857 7.31633 9.12118 7.87894C9.68379 8.44155 9.99986 9.20461 9.99986 10.0003H3.99986ZM21.9159 14.5893C21.3184 16.6464 20.2187 18.5227 18.7159 20.0493C17.4164 21.3118 15.6726 22.0125 13.8609 22.0003H10.1389C8.32664 22.0121 6.58232 21.3114 5.28186 20.0493C3.77894 18.5228 2.67927 16.6465 2.08186 14.5893C1.99221 14.2865 1.97482 13.9669 2.03109 13.6562C2.08736 13.3455 2.21572 13.0524 2.40585 12.8003C2.59034 12.5514 2.8307 12.3494 3.10757 12.2104C3.38444 12.0715 3.69008 11.9995 3.99986 12.0003H19.9999C20.3106 11.9985 20.6175 12.0701 20.8955 12.2091C21.1734 12.348 21.4148 12.5506 21.5999 12.8003C21.7886 13.053 21.9156 13.3465 21.9704 13.6572C22.0253 13.9679 22.0066 14.2871 21.9159 14.5893V14.5893Z" fill="#374957"/>
</g>
<defs>
<clipPath id="clip0_606_27">
<rect width="24" height="24" fill="white"/>
</clipPath>
</defs>
</svg>
