<svg width="24" height="24" viewBox="0 0 24 24" fill="none" xmlns="http://www.w3.org/2000/svg">
<g clip-path="url(#clip0_606_25)">
<path d="M17 7.964V7C16.9974 6.38174 16.8039 5.77937 16.4459 5.2753C16.0879 4.77123 15.5829 4.39008 15 4.184V2H19C19.2652 2 19.5196 1.89464 19.7071 1.70711C19.8946 1.51957 20 1.26522 20 1C20 0.734784 19.8946 0.48043 19.7071 0.292893C19.5196 0.105357 19.2652 0 19 0L12 0C11.2044 0 10.4413 0.31607 9.87868 0.87868C9.31607 1.44129 9 2.20435 9 3V4.184C8.4171 4.39008 7.9121 4.77123 7.55409 5.2753C7.19609 5.77937 7.00257 6.38174 7 7V7.964C5.49832 8.70167 4.23368 9.84579 3.34981 11.2663C2.46594 12.6869 1.99829 14.3269 2 16V18C2.00159 19.5908 2.63424 21.116 3.75912 22.2409C4.88399 23.3658 6.40919 23.9984 8 24H16C17.5908 23.9984 19.116 23.3658 20.2409 22.2409C21.3658 21.116 21.9984 19.5908 22 18V16C22.0017 14.3269 21.5341 12.6869 20.6502 11.2663C19.7663 9.84579 18.5017 8.70167 17 7.964V7.964ZM11 3C11 2.73478 11.1054 2.48043 11.2929 2.29289C11.4804 2.10536 11.7348 2 12 2H13V4H11V3ZM9 7C9 6.73478 9.10536 6.48043 9.2929 6.29289C9.48043 6.10536 9.73479 6 10 6H14C14.2652 6 14.5196 6.10536 14.7071 6.29289C14.8946 6.48043 15 6.73478 15 7V8H9V7ZM20 18C20 19.0609 19.5786 20.0783 18.8284 20.8284C18.0783 21.5786 17.0609 22 16 22H8C6.93914 22 5.92172 21.5786 5.17158 20.8284C4.42143 20.0783 4 19.0609 4 18V16C3.99682 14.7914 4.30802 13.6028 4.90307 12.5509C5.49811 11.499 6.35652 10.6199 7.394 10H16.606C17.6435 10.6199 18.5019 11.499 19.0969 12.5509C19.692 13.6028 20.0032 14.7914 20 16V18ZM15 14H9C8.20436 14 7.44129 14.3161 6.87868 14.8787C6.31608 15.4413 6 16.2044 6 17C6 17.7956 6.31608 18.5587 6.87868 19.1213C7.44129 19.6839 8.20436 20 9 20H15C15.7957 20 16.5587 19.6839 17.1213 19.1213C17.6839 18.5587 18 17.7956 18 17C18 16.2044 17.6839 15.4413 17.1213 14.8787C16.5587 14.3161 15.7957 14 15 14V14ZM15 18H9C8.73479 18 8.48043 17.8946 8.2929 17.7071C8.10536 17.5196 8 17.2652 8 17C8 16.7348 8.10536 16.4804 8.2929 16.2929C8.48043 16.1054 8.73479 16 9 16H15C15.2652 16 15.5196 16.1054 15.7071 16.2929C15.8946 16.4804 16 16.7348 16 17C16 17.2652 15.8946 17.5196 15.7071 17.7071C15.5196 17.8946 15.2652 18 15 18Z" fill="#374957"/>
</g>
<defs>
<clipPath id="clip0_606_25">
<rect width="24" height="24" fill="white"/>
</clipPath>
</defs>
</svg>
