<?xml version="1.0" encoding="utf-8"?><!-- Uploaded to: SVG Repo, www.svgrepo.com, Generator: SVG Repo Mixer Tools -->
<svg fill="#000000" width="800px" height="800px" viewBox="0 0 50 50" xmlns="http://www.w3.org/2000/svg" xmlns:xlink="http://www.w3.org/1999/xlink"><path d="M10 2C8.347656 2 7 3.347656 7 5L7 11.03125L6 12.03125C3.476563 15.722656 2 20.191406 2 25C2 37.703125 12.296875 48 25 48C37.703125 48 48 37.703125 48 25C48 12.296875 37.703125 2 25 2C20.597656 2 16.496094 3.261719 13 5.40625L13 5C13 3.347656 11.652344 2 10 2 Z M 10 4C10.550781 4 11 4.449219 11 5L11 9.375C14.832031 5.9375 19.789063 4 25 4C36.578125 4 46 13.421875 46 25C46 36.578125 36.578125 46 25 46C13.421875 46 4 36.578125 4 25C4 21.65625 4.820313 18.328125 6.34375 15.375L8.09375 16.28125C6.695313 18.988281 6 21.929688 6 25C6 35.476563 14.523438 44 25 44C35.476563 44 44 35.476563 44 25C44 14.523438 35.476563 6 25 6C20.21875 6 15.671875 7.808594 12.1875 11L17 11C17.550781 11 18 11.449219 18 12C18 12.550781 17.550781 13 17 13L9 13L9 5C9 4.449219 9.449219 4 10 4 Z M 25 8C25.554688 8 26 8.449219 26 9C26 9.550781 25.554688 10 25 10C24.449219 10 24 9.550781 24 9C24 8.449219 24.449219 8 25 8 Z M 33.21875 10.1875C33.347656 10.203125 33.476563 10.242188 33.59375 10.3125C34.070313 10.589844 34.214844 11.210938 33.9375 11.6875C33.660156 12.164063 33.039063 12.339844 32.5625 12.0625C32.085938 11.785156 31.941406 11.164063 32.21875 10.6875C32.429688 10.328125 32.832031 10.136719 33.21875 10.1875 Z M 38.78125 16.0625C39.167969 16.015625 39.546875 16.203125 39.75 16.5625C40.023438 17.042969 39.855469 17.664063 39.375 17.9375C38.894531 18.210938 38.304688 18.042969 38.03125 17.5625C37.757813 17.082031 37.925781 16.460938 38.40625 16.1875C38.527344 16.117188 38.652344 16.078125 38.78125 16.0625 Z M 18.375 16.90625C21.050781 16.90625 23 18.613281 23 20.9375C23 22.429688 22.300781 23.640625 19.9375 26.03125L16.78125 29.21875L16.78125 29.375L23.25 29.375L23.25 31.34375L13.75 31.34375L13.75 29.75L18.5 24.8125C20.386719 22.847656 20.84375 22.097656 20.84375 21.0625C20.84375 19.773438 19.734375 18.8125 18.28125 18.8125C16.726563 18.8125 15.6875 19.808594 15.6875 21.3125L15.6875 21.34375L13.625 21.34375L13.625 21.3125C13.625 18.714844 15.601563 16.90625 18.375 16.90625 Z M 31.59375 17.25L34.6875 17.25L34.6875 26.65625L36.65625 26.65625L36.65625 28.625L34.6875 28.625L34.6875 31.34375L32.59375 31.34375L32.59375 28.625L25.71875 28.625L25.71875 26.59375C26.980469 24.289063 29.082031 21.011719 31.59375 17.25 Z M 32.5 19.1875C31.105469 21.207031 29.472656 23.679688 27.8125 26.5625L27.8125 26.71875L32.625 26.71875L32.625 19.1875 Z M 9 24C9.550781 24 10 24.449219 10 25C10 25.554688 9.550781 26 9 26C8.449219 26 8 25.554688 8 25C8 24.449219 8.449219 24 9 24 Z M 41 24C41.554688 24 42 24.449219 42 25C42 25.554688 41.554688 26 41 26C40.445313 26 40 25.554688 40 25C40 24.449219 40.445313 24 41 24 Z M 11 31.9375C11.386719 31.890625 11.761719 32.078125 11.96875 32.4375C12.242188 32.917969 12.074219 33.539063 11.59375 33.8125C11.113281 34.085938 10.523438 33.917969 10.25 33.4375C9.976563 32.957031 10.144531 32.335938 10.625 32.0625C10.746094 31.992188 10.871094 31.953125 11 31.9375 Z M 38.9375 32.09375C39.066406 32.109375 39.195313 32.148438 39.3125 32.21875C39.789063 32.496094 39.96875 33.117188 39.6875 33.59375C39.410156 34.070313 38.789063 34.214844 38.3125 33.9375C37.835938 33.660156 37.660156 33.039063 37.9375 32.5625C38.144531 32.203125 38.550781 32.042969 38.9375 32.09375 Z M 17.0625 37.8125C17.191406 37.828125 17.320313 37.867188 17.4375 37.9375C17.914063 38.214844 18.058594 38.835938 17.78125 39.3125C17.503906 39.789063 16.882813 39.96875 16.40625 39.6875C15.929688 39.410156 15.785156 38.789063 16.0625 38.3125C16.273438 37.953125 16.675781 37.761719 17.0625 37.8125 Z M 32.78125 37.9375C33.167969 37.890625 33.546875 38.078125 33.75 38.4375C34.019531 38.917969 33.855469 39.507813 33.375 39.78125C32.894531 40.054688 32.304688 39.886719 32.03125 39.40625C31.757813 38.925781 31.925781 38.335938 32.40625 38.0625C32.527344 37.996094 32.652344 37.953125 32.78125 37.9375 Z M 25 40C25.554688 40 26 40.445313 26 41C26 41.554688 25.554688 42 25 42C24.449219 42 24 41.554688 24 41C24 40.445313 24.449219 40 25 40Z"/></svg>