<?xml version="1.0" encoding="iso-8859-1"?>
<!-- Uploaded to: SVG Repo, www.svgrepo.com, Generator: SVG Repo Mixer Tools -->
<svg fill="#000000" height="800px" width="800px" version="1.1" id="Layer_1" xmlns="http://www.w3.org/2000/svg" xmlns:xlink="http://www.w3.org/1999/xlink" 
	 viewBox="0 0 512 512" xml:space="preserve">
<g>
	<g>
		<path d="M92.902,203.348V97.458c0-8.091,6.583-14.673,14.674-14.673c8.092,0,14.674,6.583,14.674,14.673h33.391
			c0-26.503-21.562-48.065-48.066-48.065S59.511,70.956,59.511,97.458v105.891H0v47.103h512v-47.103H92.902z"/>
	</g>
</g>
<g>
	<g>
		<path d="M25.036,283.843v7.262v56.456c0,39.342,29.685,71.861,67.829,76.388l-9.693,27.591l31.505,11.067l13.385-38.099h255.88
			l13.384,38.099l31.505-11.067l-9.692-27.592c38.144-4.527,67.828-37.047,67.828-76.387v-56.455v-7.263H25.036z"/>
	</g>
</g>
</svg>