<?xml version="1.0" encoding="utf-8"?>
<!-- Uploaded to: SVG Repo, www.svgrepo.com, Generator: SVG Repo Mixer Tools -->
<svg width="800px" height="800px" viewBox="0 0 24 24" fill="none" xmlns="http://www.w3.org/2000/svg">
<g id="style=stroke">
<g id="bookmark">
<path id="vector (Stroke)" fill-rule="evenodd" clip-rule="evenodd" d="M3.25 6C3.25 3.37665 5.37665 1.25 8 1.25H16C18.6234 1.25 20.75 3.37665 20.75 6V20.4648C20.75 21.7269 19.7269 22.75 18.4648 22.75C18.0137 22.75 17.5726 22.6165 17.1972 22.3662L12.6934 19.3636C12.2735 19.0837 11.7265 19.0837 11.3066 19.3636L6.80278 22.3662C6.42739 22.6165 5.98634 22.75 5.53518 22.75C4.27311 22.75 3.25 21.7269 3.25 20.4648V6ZM8 2.75C6.20507 2.75 4.75 4.20507 4.75 6V20.4648C4.75 20.8985 5.10154 21.25 5.53518 21.25C5.6902 21.25 5.84174 21.2041 5.97073 21.1181L10.4746 18.1156C11.3983 17.4997 12.6017 17.4997 13.5254 18.1156L18.0293 21.1181C18.1583 21.2041 18.3098 21.25 18.4648 21.25C18.8985 21.25 19.25 20.8985 19.25 20.4648V6C19.25 4.20507 17.7949 2.75 16 2.75H8Z" fill="#000000"/>
<path id="line (Stroke)" fill-rule="evenodd" clip-rule="evenodd" d="M8.25 7.5C8.25 7.08579 8.58579 6.75 9 6.75H15C15.4142 6.75 15.75 7.08579 15.75 7.5C15.75 7.91421 15.4142 8.25 15 8.25H9C8.58579 8.25 8.25 7.91421 8.25 7.5Z" fill="#000000"/>
</g>
</g>
</svg>