<!DOCTYPE svg PUBLIC "-//W3C//DTD SVG 1.1//EN" "http://www.w3.org/Graphics/SVG/1.1/DTD/svg11.dtd">
<!-- Uploaded to: SVG Repo, www.svgrepo.com, Transformed by: SVG Repo Mixer Tools -->
<svg width="800px" height="800px" viewBox="0 0 24 24" fill="none" xmlns="http://www.w3.org/2000/svg" stroke="#1AB65C">
<g id="SVGRepo_bgCarrier" stroke-width="0"/>
<g id="SVGRepo_tracerCarrier" stroke-linecap="round" stroke-linejoin="round"/>
<g id="SVGRepo_iconCarrier"> <g id="style=fill"> <g id="bookmark"> <path id="Subtract" fill-rule="evenodd" clip-rule="evenodd" d="M8 1.25C5.37665 1.25 3.25 3.37665 3.25 6V20.4648C3.25 21.7269 4.27311 22.75 5.53518 22.75C5.98634 22.75 6.42739 22.6165 6.80278 22.3662L11.3066 19.3636C11.7265 19.0837 12.2735 19.0837 12.6934 19.3636L17.1972 22.3662C17.5726 22.6165 18.0137 22.75 18.4648 22.75C19.7269 22.75 20.75 21.7269 20.75 20.4648V6C20.75 3.37665 18.6234 1.25 16 1.25H8ZM9 6.75C8.58579 6.75 8.25 7.08579 8.25 7.5C8.25 7.91421 8.58579 8.25 9 8.25H15C15.4142 8.25 15.75 7.91421 15.75 7.5C15.75 7.08579 15.4142 6.75 15 6.75H9Z" fill="#1AB65C"/> </g> </g> </g>
</svg>