<?xml version="1.0" encoding="iso-8859-1"?>
<!-- Uploaded to: SVG Repo, www.svgrepo.com, Generator: SVG Repo Mixer Tools -->
<svg fill="#000000" height="800px" width="800px" version="1.1" id="Layer_1" xmlns="http://www.w3.org/2000/svg" xmlns:xlink="http://www.w3.org/1999/xlink" 
	 viewBox="0 0 512.009 512.009" xml:space="preserve">
<g>
	<g>
		<g>
			<path d="M437.024,74.984c-8.331-8.331-21.839-8.331-30.17,0s-8.331,21.839,0,30.17c83.317,83.317,83.317,218.394,0.002,301.69
				c-8.332,8.33-8.334,21.838-0.003,30.17c8.33,8.332,21.838,8.334,30.17,0.003C537.004,337.059,537.004,174.964,437.024,74.984z"/>
			<path d="M105.153,105.165c8.332-8.33,8.334-21.838,0.003-30.17c-8.33-8.332-21.838-8.334-30.17-0.004
				c-99.981,99.958-99.981,262.054-0.002,362.033c8.331,8.331,21.839,8.331,30.17,0c8.331-8.331,8.331-21.839,0-30.17
				C21.838,323.538,21.838,188.46,105.153,105.165z"/>
			<path d="M256.004,85.338c-94.257,0-170.667,76.41-170.667,170.667s76.41,170.667,170.667,170.667s170.667-76.41,170.667-170.667
				S350.261,85.338,256.004,85.338z M256.004,384.004c-70.693,0-128-57.307-128-128s57.307-128,128-128s128,57.307,128,128
				S326.697,384.004,256.004,384.004z"/>
			<path d="M277.338,149.338h-42.667c-11.782,0-21.333,9.551-21.333,21.333v85.333v85.333c0,11.782,9.551,21.333,21.333,21.333
				c11.782,0,21.333-9.551,21.333-21.333v-64h21.333c35.355,0,64-28.645,64-64S312.693,149.338,277.338,149.338z M277.338,234.671
				h-21.333v-42.667h21.333c11.791,0,21.333,9.542,21.333,21.333S289.129,234.671,277.338,234.671z"/>
		</g>
	</g>
</g>
</svg>