<?xml version="1.0" encoding="utf-8"?>

<!-- Uploaded to: SVG Repo, www.svgrepo.com, Generator: SVG Repo Mixer Tools -->
<svg version="1.1" id="Icons" xmlns="http://www.w3.org/2000/svg" xmlns:xlink="http://www.w3.org/1999/xlink" 
	 viewBox="0 0 32 32" xml:space="preserve">
<style type="text/css">
	.st0{fill:none;stroke:#000000;stroke-width:2;stroke-linecap:round;stroke-linejoin:round;stroke-miterlimit:10;}
</style>
<g>
	<path d="M30.9,24.7c-0.2-0.5-0.7-0.8-1.3-0.6l-2.6,0.9c-2.7,0.9-5.7,0.6-8.2-0.6l0.2-0.2c1.7-1.7,1.7-4.5,0-6.2c0,0,0,0,0,0
		l-7.5-7.5C10.2,9,7.8,9,6.4,10.4L2,14.8c-0.3,0.3-0.5,0.7-0.5,1.2s0.2,0.9,0.5,1.2c0.6,0.6,1.5,0.7,2.1,0.2L9,14.2l2.8,2.8
		l-2.6,2.6c-1.6-0.1-3.3,0.1-4.9,0.6l-2.6,0.9c-0.5,0.2-0.8,0.7-0.6,1.3c0.2,0.5,0.7,0.8,1.3,0.6l2.6-0.9c3.6-1.2,7.6-0.4,10.4,2.2
		c2.3,2.1,5.3,3.2,8.4,3.2c1.3,0,2.7-0.2,4-0.6l2.6-0.9C30.8,25.8,31.1,25.2,30.9,24.7z"/>
	<path d="M23,17c2.8,0,5-2.2,5-5s-2.2-5-5-5s-5,2.2-5,5S20.2,17,23,17z"/>
</g>
</svg>