<svg width="21" height="20" viewBox="0 0 21 20" fill="none" xmlns="http://www.w3.org/2000/svg">
<path d="M1.57199 0.571289C1.34466 0.571289 1.12664 0.661595 0.965895 0.82234C0.80515 0.983086 0.714844 1.2011 0.714844 1.42843V6.57129C0.714844 6.79862 0.80515 7.01663 0.965895 7.17738C1.12664 7.33813 1.34466 7.42843 1.57199 7.42843H6.71484C6.94217 7.42843 7.16019 7.33813 7.32094 7.17738C7.48168 7.01663 7.57199 6.79862 7.57199 6.57129C7.57199 6.34396 7.48168 6.12594 7.32094 5.9652C7.16019 5.80445 6.94217 5.71415 6.71484 5.71415H3.02913C4.4717 3.74357 7.40227 2.28557 10.7863 2.28557C14.3006 2.28557 16.8788 3.93557 18.8486 7.03157C18.9706 7.22344 19.1639 7.35895 19.3859 7.4083C19.6079 7.45765 19.8404 7.41679 20.0323 7.29472C20.2241 7.17264 20.3597 6.97935 20.409 6.75736C20.4583 6.53537 20.4175 6.30287 20.2954 6.111C18.066 2.61129 14.9863 0.571289 10.7863 0.571289C7.47342 0.571289 4.38084 1.80729 2.42913 3.783V1.42843C2.42913 1.2011 2.33882 0.983086 2.17808 0.82234C2.01733 0.661595 1.79932 0.571289 1.57199 0.571289ZM7.80084 9.17358C7.98152 9.22363 8.14081 9.33155 8.25429 9.4808C8.36777 9.63004 8.42919 9.81237 8.42913 9.99986V18.5713C8.42913 18.7986 8.33882 19.0166 8.17808 19.1774C8.01733 19.3381 7.79931 19.4284 7.57199 19.4284C7.34466 19.4284 7.12664 19.3381 6.9659 19.1774C6.80515 19.0166 6.71484 18.7986 6.71484 18.5713V12.3441C6.32428 12.7073 5.8978 13.0298 5.44199 13.3067C5.24694 13.4238 5.01337 13.4586 4.79267 13.4035C4.57197 13.3483 4.3822 13.2078 4.26513 13.0127C4.14806 12.8177 4.11326 12.5841 4.16839 12.3634C4.22353 12.1427 4.36408 11.9529 4.55913 11.8359C5.25513 11.4193 5.8277 10.8501 6.23484 10.3701C6.44017 10.1273 6.63107 9.87254 6.80656 9.60729L6.83227 9.56615L6.83741 9.55843V9.55758C6.93399 9.3971 7.08048 9.27267 7.25446 9.20333C7.42845 9.13398 7.62036 9.12353 7.80084 9.17358ZM11.556 10.8116C12.1817 9.777 13.212 9.14272 14.6331 9.14272C16.056 9.14272 17.0846 9.777 17.7103 10.8116C18.2974 11.7827 18.4903 13.0376 18.4903 14.2856C18.4903 15.5336 18.2974 16.7884 17.7103 17.7596C17.0846 18.7941 16.056 19.4284 14.6331 19.4284C13.2111 19.4284 12.1817 18.7941 11.556 17.7596C10.9697 16.7884 10.776 15.5336 10.776 14.2856C10.776 13.0376 10.9697 11.7827 11.556 10.8116ZM13.0234 11.6987C12.672 12.279 12.4903 13.167 12.4903 14.2856C12.4903 15.4041 12.672 16.2921 13.0234 16.8724C13.3354 17.3884 13.8051 17.7141 14.6331 17.7141C15.4611 17.7141 15.9317 17.3884 16.2437 16.8724C16.5951 16.2921 16.776 15.4041 16.776 14.2856C16.776 13.167 16.5943 12.279 16.2437 11.6987C15.9317 11.1827 15.4611 10.857 14.6331 10.857C13.8051 10.857 13.3354 11.1827 13.0234 11.6987Z" fill="#F4E5F7"/>
</svg>
