<svg width="16" height="16" viewBox="0 0 16 16" fill="none" xmlns="http://www.w3.org/2000/svg">
<path d="M14.8777 0.544847C14.3401 0.452247 13.7957 0.404582 13.2502 0.402347C11.389 0.400821 9.56655 0.934527 8.00019 1.93985C6.4298 0.947727 4.60767 0.42712 2.75019 0.439847C2.20467 0.442082 1.66029 0.489747 1.12269 0.582347C0.94659 0.612706 0.787121 0.704941 0.672995 0.842442C0.55887 0.979942 0.497588 1.15367 0.500186 1.33235V10.3323C0.498579 10.4425 0.52128 10.5517 0.566673 10.6522C0.612066 10.7526 0.679035 10.8418 0.762815 10.9134C0.846596 10.985 0.945128 11.0373 1.0514 11.0665C1.15768 11.0957 1.26908 11.1011 1.37769 11.0823C2.45245 10.8963 3.55359 10.9271 4.61623 11.1732C5.67888 11.4192 6.68155 11.8754 7.56519 12.5148L7.65519 12.5673H7.73768C7.82086 12.602 7.91008 12.6198 8.00019 12.6198C8.09029 12.6198 8.17951 12.602 8.26269 12.5673H8.34519L8.43519 12.5148C9.31265 11.8611 10.3124 11.3901 11.3753 11.1299C12.4381 10.8696 13.5424 10.8254 14.6227 10.9998C14.7313 11.0186 14.8427 11.0132 14.949 10.984C15.0552 10.9548 15.1538 10.9025 15.2376 10.8309C15.3213 10.7593 15.3883 10.6701 15.4337 10.5697C15.4791 10.4692 15.5018 10.36 15.5002 10.2498V1.24985C15.4924 1.07896 15.4264 0.91588 15.3132 0.78765C15.1999 0.659421 15.0463 0.57375 14.8777 0.544847ZM7.25019 10.5123C5.8626 9.78236 4.31807 9.40138 2.75019 9.40235H2.00019V1.90235C2.24998 1.88795 2.50039 1.88795 2.75019 1.90235C4.35022 1.90058 5.91535 2.37012 7.25019 3.25235V10.5123ZM14.0002 9.43235H13.2502C11.6823 9.43138 10.1378 9.81236 8.75019 10.5423V3.25235C10.085 2.37012 11.6501 1.90058 13.2502 1.90235C13.5 1.88795 13.7504 1.88795 14.0002 1.90235V9.43235ZM14.8777 12.5448C14.3401 12.4522 13.7957 12.4046 13.2502 12.4023C11.389 12.4008 9.56655 12.9345 8.00019 13.9398C6.43382 12.9345 4.61141 12.4008 2.75019 12.4023C2.20467 12.4046 1.66029 12.4522 1.12269 12.5448C1.02506 12.5603 0.931452 12.595 0.847257 12.6468C0.763062 12.6986 0.689936 12.7665 0.632085 12.8467C0.574235 12.9268 0.5328 13.0176 0.510163 13.1138C0.487527 13.2101 0.484136 13.3098 0.500186 13.4073C0.5383 13.6021 0.652053 13.7738 0.816528 13.8849C0.981003 13.9959 1.18279 14.0373 1.37769 13.9998C2.45245 13.8138 3.55359 13.8446 4.61623 14.0907C5.67888 14.3367 6.68155 14.7929 7.56519 15.4323C7.69221 15.5228 7.84426 15.5714 8.00019 15.5714C8.15611 15.5714 8.30816 15.5228 8.43519 15.4323C9.31882 14.7929 10.3215 14.3367 11.3841 14.0907C12.4468 13.8446 13.5479 13.8138 14.6227 13.9998C14.8176 14.0373 15.0194 13.9959 15.1838 13.8849C15.3483 13.7738 15.4621 13.6021 15.5002 13.4073C15.5162 13.3098 15.5128 13.2101 15.4902 13.1138C15.4676 13.0176 15.4261 12.9268 15.3683 12.8467C15.3104 12.7665 15.2373 12.6986 15.1531 12.6468C15.0689 12.595 14.9753 12.5603 14.8777 12.5448Z" fill="#F4E5F7"/>
</svg>
