<svg width="15" height="20" viewBox="0 0 15 20" fill="none" xmlns="http://www.w3.org/2000/svg">
<path d="M11.7423 2.34977C10.9758 1.71943 10.0784 1.26813 9.11532 1.02881C8.15227 0.789488 7.14794 0.76818 6.1756 0.966439C4.88092 1.22796 3.69309 1.86817 2.76284 2.80584C1.83258 3.74351 1.20183 4.93638 0.950602 6.23311C0.767141 7.20537 0.800479 8.20615 1.04824 9.16405C1.296 10.122 1.75207 11.0134 2.38394 11.7748C2.97034 12.4365 3.30646 13.2827 3.33394 14.1664V16.6664C3.33394 17.3295 3.59733 17.9654 4.06617 18.4342C4.53501 18.903 5.17089 19.1664 5.83394 19.1664H9.16727C9.83031 19.1664 10.4662 18.903 10.935 18.4342C11.4039 17.9654 11.6673 17.3295 11.6673 16.6664V14.3248C11.6952 13.3491 12.0537 12.4118 12.6839 11.6664C13.7882 10.3004 14.3087 8.55379 14.1324 6.80613C13.9561 5.05847 13.0971 3.45101 11.7423 2.33311V2.34977ZM10.0006 16.6664C10.0006 16.8875 9.9128 17.0994 9.75652 17.2557C9.60024 17.412 9.38828 17.4998 9.16727 17.4998H5.83394C5.61292 17.4998 5.40096 17.412 5.24468 17.2557C5.0884 17.0994 5.0006 16.8875 5.0006 16.6664V15.8331H10.0006V16.6664ZM11.3923 10.6331C10.5544 11.6269 10.0655 12.8681 10.0006 14.1664H8.33394V11.6664C8.33394 11.4454 8.24614 11.2335 8.08986 11.0772C7.93358 10.9209 7.72162 10.8331 7.5006 10.8331C7.27959 10.8331 7.06763 10.9209 6.91135 11.0772C6.75507 11.2335 6.66727 11.4454 6.66727 11.6664V14.1664H5.0006C4.97862 12.8899 4.50639 11.6621 3.66727 10.6998C3.11364 10.0364 2.74135 9.24096 2.58669 8.3909C2.43204 7.54083 2.50031 6.6652 2.78484 5.84938C3.06937 5.03356 3.56045 4.30539 4.2102 3.73588C4.85995 3.16636 5.6462 2.77494 6.49227 2.59977C7.2194 2.45006 7.97074 2.46414 8.69174 2.641C9.41275 2.81785 10.0853 3.15304 10.6606 3.62223C11.236 4.09142 11.6996 4.68284 12.0178 5.35354C12.3361 6.02424 12.501 6.75739 12.5006 7.49977C12.5068 8.64132 12.1148 9.74933 11.3923 10.6331V10.6331Z" fill="#F4E5F7"/>
</svg>
