<svg width="20" height="15" viewBox="0 0 20 15" fill="none" xmlns="http://www.w3.org/2000/svg">
<path d="M5.41732 9.74967H8.16732C8.41043 9.74967 8.64359 9.6531 8.8155 9.48119C8.98741 9.30928 9.08398 9.07612 9.08398 8.83301C9.08398 8.58989 8.98741 8.35674 8.8155 8.18483C8.64359 8.01292 8.41043 7.91634 8.16732 7.91634H5.41732C5.1742 7.91634 4.94104 8.01292 4.76914 8.18483C4.59723 8.35674 4.50065 8.58989 4.50065 8.83301C4.50065 9.07612 4.59723 9.30928 4.76914 9.48119C4.94104 9.6531 5.1742 9.74967 5.41732 9.74967ZM16.4173 0.583008H3.58398C2.85464 0.583008 2.15517 0.872739 1.63944 1.38846C1.12372 1.90419 0.833984 2.60366 0.833984 3.33301V11.583C0.833984 12.3124 1.12372 13.0118 1.63944 13.5276C2.15517 14.0433 2.85464 14.333 3.58398 14.333H16.4173C17.1467 14.333 17.8461 14.0433 18.3619 13.5276C18.8776 13.0118 19.1673 12.3124 19.1673 11.583V3.33301C19.1673 2.60366 18.8776 1.90419 18.3619 1.38846C17.8461 0.872739 17.1467 0.583008 16.4173 0.583008ZM17.334 11.583C17.334 11.8261 17.2374 12.0593 17.0655 12.2312C16.8936 12.4031 16.6604 12.4997 16.4173 12.4997H3.58398C3.34087 12.4997 3.10771 12.4031 2.9358 12.2312C2.76389 12.0593 2.66732 11.8261 2.66732 11.583V6.08301H17.334V11.583ZM17.334 4.24967H2.66732V3.33301C2.66732 3.08989 2.76389 2.85674 2.9358 2.68483C3.10771 2.51292 3.34087 2.41634 3.58398 2.41634H16.4173C16.6604 2.41634 16.8936 2.51292 17.0655 2.68483C17.2374 2.85674 17.334 3.08989 17.334 3.33301V4.24967Z" fill="#CA7CD8"/>
</svg>
