<svg width="14" height="12" viewBox="0 0 14 12" fill="none" xmlns="http://www.w3.org/2000/svg">
<path d="M13.4763 11.1494C13.5129 11.046 13.5287 10.9364 13.5229 10.8268L13.3014 7.88889C13.2848 7.6676 13.1809 7.46199 13.0126 7.31731C12.8443 7.17263 12.6255 7.10071 12.4042 7.11739C12.1829 7.13407 11.9773 7.23797 11.8326 7.40624C11.6879 7.57451 11.616 7.79336 11.6327 8.01465L11.709 8.94848L8.80868 6.4547C8.64109 6.31061 8.42313 6.23899 8.20274 6.2556C7.98235 6.2722 7.77759 6.37568 7.6335 6.54327C7.4894 6.71085 7.41778 6.92881 7.43439 7.1492C7.451 7.36959 7.55448 7.57435 7.72206 7.71844L10.6224 10.2122L9.68765 10.2768C9.57792 10.2846 9.47082 10.314 9.37253 10.3635C9.27425 10.4129 9.18672 10.4813 9.11499 10.5647C9.04327 10.6481 8.98877 10.7449 8.95465 10.8495C8.92052 10.954 8.90744 11.0643 8.91615 11.174C8.92397 11.2837 8.95344 11.3908 9.00286 11.4891C9.05227 11.5874 9.12066 11.6749 9.20407 11.7467C9.28749 11.8184 9.38428 11.8729 9.48886 11.907C9.59344 11.9411 9.70375 11.9542 9.81341 11.9455L12.7514 11.7241C12.8606 11.7135 12.9666 11.6814 13.0633 11.6297C13.2588 11.5302 13.4072 11.3576 13.4763 11.1494ZM6.28119 4.28148L3.38089 1.7877L4.3156 1.72317C4.53689 1.70649 4.74249 1.60259 4.88718 1.43432C5.03186 1.26605 5.10377 1.0472 5.08709 0.825907C5.07042 0.604616 4.96652 0.399014 4.79825 0.254331C4.62998 0.109648 4.41113 0.0377344 4.18984 0.0544118L1.25189 0.275828C1.14269 0.286458 1.03667 0.318547 0.939905 0.370251C0.744432 0.469747 0.596068 0.642298 0.526992 0.850475C0.490374 0.953896 0.474539 1.06353 0.480394 1.17309L0.70181 4.11103C0.709628 4.22077 0.739095 4.32786 0.788512 4.42615C0.837928 4.52444 0.906316 4.61196 0.989731 4.68369C1.07315 4.75541 1.16994 4.80991 1.27452 4.84403C1.3791 4.87816 1.48941 4.89125 1.59907 4.88253C1.7088 4.87471 1.8159 4.84524 1.91419 4.79583C2.01247 4.74641 2.1 4.67802 2.17172 4.59461C2.24345 4.51119 2.29794 4.4144 2.33207 4.30982C2.3662 4.20524 2.37928 4.09493 2.37056 3.98527L2.29428 3.05144L5.19457 5.54522C5.36216 5.68931 5.58012 5.76093 5.8005 5.74432C6.02089 5.72771 6.22566 5.62424 6.36975 5.45665C6.51385 5.28907 6.58546 5.07111 6.56886 4.85072C6.55225 4.63033 6.44877 4.42557 6.28119 4.28148Z" fill="#2D3047"/>
</svg>
