<svg width="21" height="21" viewBox="0 0 21 21" fill="none" xmlns="http://www.w3.org/2000/svg">
<path fill-rule="evenodd" clip-rule="evenodd" d="M9.5 2C7.51088 2 5.60322 2.79018 4.1967 4.1967C2.79018 5.60322 2 7.51088 2 9.5C2 11.4891 2.79018 13.3968 4.1967 14.8033C5.60322 16.2098 7.51088 17 9.5 17C11.4801 17 13.3794 16.217 14.7841 14.8225C14.7917 14.8143 14.7995 14.8062 14.8075 14.7983C14.8148 14.791 14.8221 14.784 14.8295 14.777C16.2196 13.3731 17 11.4768 17 9.5C17 7.51088 16.2098 5.60322 14.8033 4.1967C13.3968 2.79018 11.4891 2 9.5 2ZM16.8904 15.4693C18.2491 13.7873 19 11.6823 19 9.5C19 6.98044 17.9991 4.56408 16.2175 2.78249C14.4359 1.00089 12.0196 0 9.5 0C6.98044 0 4.56408 1.00089 2.78249 2.78249C1.00089 4.56408 0 6.98044 0 9.5C0 12.0196 1.00089 14.4359 2.78249 16.2175C4.56408 17.9991 6.98044 19 9.5 19C11.6856 19 13.7936 18.2469 15.4769 16.8843L19.2923 20.7065C19.6824 21.0973 20.3156 21.0979 20.7065 20.7077C21.0973 20.3176 21.0979 19.6844 20.7077 19.2935L16.8904 15.4693Z" fill="#EDD1F2"/>
</svg>
