<svg width="16" height="16" viewBox="0 0 16 16" fill="none" xmlns="http://www.w3.org/2000/svg">
<path fill-rule="evenodd" clip-rule="evenodd" d="M4.66602 9.33336C5.01964 9.33336 5.35878 9.19288 5.60882 8.94283C5.85887 8.69279 5.99935 8.35365 5.99935 8.00002C5.99935 7.6464 5.85887 7.30726 5.60882 7.05722C5.35878 6.80717 5.01964 6.66669 4.66602 6.66669C4.31239 6.66669 3.97326 6.80717 3.72321 7.05722C3.47316 7.30726 3.33268 7.6464 3.33268 8.00002C3.33268 8.35365 3.47316 8.69279 3.72321 8.94283C3.97326 9.19288 4.31239 9.33336 4.66602 9.33336ZM6.97602 6.66669C6.71102 6.20829 6.31562 5.83911 5.84015 5.60614C5.36467 5.37316 4.83063 5.28693 4.306 5.35841C3.78136 5.4299 3.28986 5.65587 2.89406 6.00757C2.49825 6.35926 2.21604 6.82077 2.08335 7.33336H1.33268C1.15587 7.33336 0.986302 7.4036 0.861278 7.52862C0.736253 7.65364 0.666016 7.82321 0.666016 8.00002C0.666016 8.17684 0.736253 8.34641 0.861278 8.47143C0.986302 8.59645 1.15587 8.66669 1.33268 8.66669H2.08335C2.24717 9.29368 2.63359 9.83962 3.17046 10.2026C3.70734 10.5655 4.35795 10.7206 5.00083 10.639C5.64371 10.5573 6.23489 10.2445 6.664 9.75888C7.0931 9.27326 7.33079 8.64806 7.33268 8.00002H8.66602C8.66537 8.64953 8.9018 9.27695 9.33093 9.76451C9.76006 10.2521 10.3524 10.5662 10.9967 10.6481C11.641 10.7299 12.2931 10.5738 12.8305 10.209C13.3679 9.84414 13.7536 9.29574 13.9153 8.66669H14.666C14.8428 8.66669 15.0124 8.59645 15.1374 8.47143C15.2624 8.34641 15.3327 8.17684 15.3327 8.00002C15.3327 7.82321 15.2624 7.65364 15.1374 7.52862C15.0124 7.4036 14.8428 7.33336 14.666 7.33336H13.9153C13.7827 6.82077 13.5004 6.35926 13.1046 6.00757C12.7088 5.65587 12.2173 5.4299 11.6927 5.35841C11.1681 5.28693 10.634 5.37316 10.1586 5.60614C9.68308 5.83911 9.28768 6.20829 9.02268 6.66669H6.97602ZM9.99935 8.00002C9.99935 8.35365 10.1398 8.69279 10.3899 8.94283C10.6399 9.19288 10.9791 9.33336 11.3327 9.33336C11.6863 9.33336 12.0254 9.19288 12.2755 8.94283C12.5255 8.69279 12.666 8.35365 12.666 8.00002C12.666 7.6464 12.5255 7.30726 12.2755 7.05722C12.0254 6.80717 11.6863 6.66669 11.3327 6.66669C10.9791 6.66669 10.6399 6.80717 10.3899 7.05722C10.1398 7.30726 9.99935 7.6464 9.99935 8.00002Z" fill="#EDD1F2"/>
</svg>
