<svg width="16" height="6" viewBox="0 0 16 6" fill="none" xmlns="http://www.w3.org/2000/svg">
<path fill-rule="evenodd" clip-rule="evenodd" d="M4.66602 4.33336C5.01964 4.33336 5.35878 4.19288 5.60882 3.94283C5.85887 3.69279 5.99935 3.35365 5.99935 3.00002C5.99935 2.6464 5.85887 2.30726 5.60882 2.05722C5.35878 1.80717 5.01964 1.66669 4.66602 1.66669C4.31239 1.66669 3.97326 1.80717 3.72321 2.05722C3.47316 2.30726 3.33268 2.6464 3.33268 3.00002C3.33268 3.35365 3.47316 3.69279 3.72321 3.94283C3.97326 4.19288 4.31239 4.33336 4.66602 4.33336ZM6.97602 1.66669C6.71102 1.20829 6.31562 0.839113 5.84015 0.606137C5.36467 0.373161 4.83063 0.286929 4.306 0.358414C3.78136 0.4299 3.28986 0.655872 2.89406 1.00757C2.49825 1.35926 2.21604 1.82077 2.08335 2.33336H1.33268C1.15587 2.33336 0.986302 2.4036 0.861278 2.52862C0.736253 2.65364 0.666016 2.82321 0.666016 3.00002C0.666016 3.17684 0.736253 3.34641 0.861278 3.47143C0.986302 3.59645 1.15587 3.66669 1.33268 3.66669H2.08335C2.24717 4.29368 2.63359 4.83962 3.17046 5.20256C3.70734 5.5655 4.35795 5.72063 5.00083 5.63898C5.64371 5.55734 6.23489 5.2445 6.664 4.75888C7.0931 4.27326 7.33079 3.64806 7.33268 3.00002H8.66602C8.66537 3.64953 8.9018 4.27695 9.33093 4.76451C9.76006 5.25207 10.3524 5.56625 10.9967 5.64808C11.641 5.72991 12.2931 5.57376 12.8305 5.20895C13.3679 4.84414 13.7536 4.29574 13.9153 3.66669H14.666C14.8428 3.66669 15.0124 3.59645 15.1374 3.47143C15.2624 3.34641 15.3327 3.17684 15.3327 3.00002C15.3327 2.82321 15.2624 2.65364 15.1374 2.52862C15.0124 2.4036 14.8428 2.33336 14.666 2.33336H13.9153C13.7827 1.82077 13.5004 1.35926 13.1046 1.00757C12.7088 0.655872 12.2173 0.4299 11.6927 0.358414C11.1681 0.286929 10.634 0.373161 10.1586 0.606137C9.68308 0.839113 9.28768 1.20829 9.02268 1.66669H6.97602ZM9.99935 3.00002C9.99935 3.35365 10.1398 3.69279 10.3899 3.94283C10.6399 4.19288 10.9791 4.33336 11.3327 4.33336C11.6863 4.33336 12.0254 4.19288 12.2755 3.94283C12.5255 3.69279 12.666 3.35365 12.666 3.00002C12.666 2.6464 12.5255 2.30726 12.2755 2.05722C12.0254 1.80717 11.6863 1.66669 11.3327 1.66669C10.9791 1.66669 10.6399 1.80717 10.3899 2.05722C10.1398 2.30726 9.99935 2.6464 9.99935 3.00002Z" fill="#EDD1F2"/>
</svg>
