<svg width="20" height="20" viewBox="0 0 20 20" fill="none" xmlns="http://www.w3.org/2000/svg">
<path d="M9.34982 13.0155C9.3104 13.0591 9.27367 13.105 9.23982 13.153C9.20513 13.2041 9.17739 13.2596 9.15732 13.318C9.13089 13.37 9.11236 13.4256 9.10232 13.483C9.09782 13.544 9.09782 13.6053 9.10232 13.6663C9.09922 13.7866 9.12434 13.9059 9.17566 14.0147C9.21682 14.1284 9.28251 14.2317 9.36805 14.3173C9.45359 14.4028 9.5569 14.4685 9.67066 14.5097C9.78038 14.5582 9.89902 14.5832 10.019 14.5832C10.139 14.5832 10.2576 14.5582 10.3673 14.5097C10.4811 14.4685 10.5844 14.4028 10.6699 14.3173C10.7555 14.2317 10.8212 14.1284 10.8623 14.0147C10.903 13.9032 10.9217 13.7849 10.9173 13.6663C10.918 13.5457 10.8949 13.4261 10.8493 13.3144C10.8037 13.2027 10.7364 13.1012 10.6515 13.0155C10.5663 12.9296 10.4649 12.8614 10.3532 12.8149C10.2415 12.7683 10.1217 12.7444 10.0007 12.7444C9.87964 12.7444 9.75983 12.7683 9.64813 12.8149C9.53642 12.8614 9.43504 12.9296 9.34982 13.0155V13.0155ZM10.0007 0.833008C8.18766 0.833008 6.41538 1.37062 4.90793 2.37787C3.40048 3.38512 2.22556 4.81675 1.53176 6.49174C0.837956 8.16673 0.656426 10.0098 1.01012 11.788C1.36382 13.5662 2.23686 15.1995 3.51884 16.4815C4.80082 17.7635 6.43417 18.6365 8.21233 18.9902C9.99049 19.3439 11.8336 19.1624 13.5086 18.4686C15.1836 17.7748 16.6152 16.5999 17.6225 15.0924C18.6297 13.585 19.1673 11.8127 19.1673 9.99967C19.1673 8.79589 18.9302 7.60389 18.4696 6.49174C18.0089 5.37959 17.3337 4.36907 16.4825 3.51786C15.6313 2.66666 14.6207 1.99145 13.5086 1.53078C12.3964 1.07011 11.2044 0.833008 10.0007 0.833008V0.833008ZM10.0007 17.333C8.55026 17.333 7.13243 16.9029 5.92647 16.0971C4.72051 15.2913 3.78058 14.146 3.22554 12.806C2.6705 11.466 2.52527 9.99154 2.80823 8.56901C3.09119 7.14648 3.78962 5.83981 4.81521 4.81422C5.84079 3.78864 7.14747 3.09021 8.56999 2.80725C9.99252 2.52429 11.467 2.66952 12.807 3.22456C14.147 3.7796 15.2923 4.71953 16.0981 5.92549C16.9039 7.13145 17.334 8.54928 17.334 9.99967C17.334 11.9446 16.5614 13.8099 15.1861 15.1851C13.8108 16.5604 11.9456 17.333 10.0007 17.333V17.333ZM10.0007 5.41634C9.51763 5.41603 9.04304 5.54295 8.62465 5.78433C8.20627 6.02571 7.85883 6.37303 7.61732 6.79134C7.551 6.89567 7.50646 7.01234 7.4864 7.13434C7.46633 7.25633 7.47115 7.38112 7.50056 7.5012C7.52998 7.62128 7.58338 7.73416 7.65755 7.83307C7.73172 7.93198 7.82514 8.01486 7.93217 8.07673C8.0392 8.1386 8.15765 8.17818 8.28038 8.19309C8.4031 8.208 8.52758 8.19792 8.64631 8.16348C8.76505 8.12903 8.87559 8.07092 8.97128 7.99265C9.06698 7.91438 9.14585 7.81755 9.20316 7.70801C9.28392 7.56812 9.40021 7.45206 9.54026 7.37157C9.6803 7.29108 9.83913 7.24903 10.0007 7.24967C10.2438 7.24967 10.4769 7.34625 10.6488 7.51816C10.8207 7.69007 10.9173 7.92323 10.9173 8.16634C10.9173 8.40946 10.8207 8.64261 10.6488 8.81452C10.4769 8.98643 10.2438 9.08301 10.0007 9.08301C9.75754 9.08301 9.52438 9.17958 9.35247 9.35149C9.18057 9.5234 9.08399 9.75656 9.08399 9.99967V10.9163C9.08399 11.1595 9.18057 11.3926 9.35247 11.5645C9.52438 11.7364 9.75754 11.833 10.0007 11.833C10.2438 11.833 10.4769 11.7364 10.6488 11.5645C10.8207 11.3926 10.9173 11.1595 10.9173 10.9163V10.7513C11.5236 10.5314 12.0332 10.1053 12.3572 9.54764C12.6812 8.98998 12.7988 8.33619 12.6896 7.70057C12.5804 7.06496 12.2513 6.48794 11.7597 6.0704C11.2682 5.65285 10.6456 5.42134 10.0007 5.41634V5.41634Z" fill="#CA7CD8"/>
</svg>
