<svg width="20" height="21" viewBox="0 0 20 21" fill="none" xmlns="http://www.w3.org/2000/svg">
<path fill-rule="evenodd" clip-rule="evenodd" d="M7.93438 1.58465C8.49191 1.05505 9.23152 0.759766 10.0005 0.759766C10.7695 0.759766 11.5092 1.0551 12.0668 1.58477L18.4437 7.6417C18.9354 8.1088 19.327 8.67111 19.5945 9.2943C19.862 9.91748 20 10.5886 20 11.2668V17.9998C20 18.7954 19.6839 19.5585 19.1213 20.1211C18.5587 20.6837 17.7957 20.9998 17 20.9998H3C2.20435 20.9998 1.44129 20.6837 0.87868 20.1211C0.31607 19.5585 0 18.7954 0 17.9998V11.2668C-7.15253e-07 10.5886 0.137965 9.91748 0.405505 9.2943C0.673045 8.67111 1.06457 8.10887 1.55625 7.64177L7.93438 1.58465C7.93442 1.58461 7.93433 1.58469 7.93438 1.58465ZM8 18.9998H12V13.9998C12 13.7346 11.8946 13.4802 11.7071 13.2927C11.5196 13.1051 11.2652 12.9998 11 12.9998H9C8.73478 12.9998 8.48043 13.1051 8.29289 13.2927C8.10536 13.4802 8 13.7346 8 13.9998V18.9998ZM14 18.9998V13.9998C14 13.2041 13.6839 12.4411 13.1213 11.8784C12.5587 11.3158 11.7957 10.9998 11 10.9998H9C8.20435 10.9998 7.44129 11.3158 6.87868 11.8784C6.31607 12.4411 6 13.2041 6 13.9998V18.9998H3C2.73478 18.9998 2.48043 18.8944 2.29289 18.7069C2.10536 18.5193 2 18.265 2 17.9998V11.2668C2 10.8599 2.08278 10.4572 2.2433 10.0833C2.4038 9.70943 2.63867 9.37212 2.93362 9.09189C2.93358 9.09193 2.93367 9.09185 2.93362 9.09189L9.31162 3.03489C9.49747 2.85833 9.74415 2.75977 10.0005 2.75977C10.2568 2.75977 10.5034 2.85821 10.6892 3.03477L17.0662 9.09177C17.0662 9.09174 17.0663 9.09179 17.0662 9.09177C17.3612 9.37201 17.5962 9.7094 17.7567 10.0833C17.9172 10.4572 18 10.8599 18 11.2668V17.9998C18 18.265 17.8946 18.5193 17.7071 18.7069C17.5196 18.8944 17.2652 18.9998 17 18.9998H14Z" fill="#CA7CD8"/>
</svg>
