<svg width="24" height="24" viewBox="0 0 24 24" fill="none" xmlns="http://www.w3.org/2000/svg">
<path d="M2.52342 6.73781C2.35749 6.90339 2.22586 7.10007 2.13605 7.31659C2.04623 7.53311 2 7.76521 2 7.99962C2 8.23403 2.04623 8.46613 2.13605 8.68265C2.22586 8.89917 2.35749 9.09585 2.52342 9.26143L10.7386 17.4766C10.9042 17.6425 11.1008 17.7741 11.3174 17.864C11.5339 17.9538 11.766 18 12.0004 18C12.2348 18 12.4669 17.9538 12.6834 17.864C12.8999 17.7741 13.0966 17.6425 13.2622 17.4766L21.4773 9.26143C21.643 9.09572 21.7745 8.899 21.8642 8.6825C21.9538 8.466 22 8.23396 22 7.99962C22 7.76528 21.9538 7.53324 21.8642 7.31674C21.7745 7.10023 21.643 6.90352 21.4773 6.73781C21.3116 6.57211 21.1149 6.44067 20.8984 6.35099C20.6819 6.26131 20.4499 6.21516 20.2155 6.21516C19.9812 6.21516 19.7492 6.26131 19.5327 6.35099C19.3162 6.44067 19.1194 6.57211 18.9537 6.73781L11.9914 13.6822L5.04703 6.73781C4.34901 6.03979 3.20354 6.05769 2.52342 6.73781Z" fill="#F4E5F7"/>
</svg>
