<svg width="14" height="20" viewBox="0 0 14 20" fill="none" xmlns="http://www.w3.org/2000/svg">
<path fill-rule="evenodd" clip-rule="evenodd" d="M2 15.9999V3.99995L5.04689 2.68713V17.3127L2 15.9999ZM0 3.19056C0 2.57439 0.450962 2.05125 1.0602 1.96032L5 0.499946C5.75169 0.38768 7 0.483674 7 1.24367V18.7557C7 19.5157 6.25169 19.612 5.5 19.4997L1.0602 18.0391C0.450962 17.9482 0 17.425 0 16.8089V3.19056ZM9 18.4332L9.5342 18.5951C10.2859 18.7073 11 18.125 11 17.365V2.17125C11 1.41125 10.2517 0.887599 9.5 0.999718L9 1.10308V18.4332ZM12 17.4873L12.961 17.6679C14 17.6679 14 16.9997 14 16.3756V3.49972C14 2.99972 14 2.33161 12.961 2.33161L12 2.47506V17.4873Z" fill="#EDD1F2"/>
</svg>
