<svg width="55" height="66" viewBox="0 0 55 66" fill="none" xmlns="http://www.w3.org/2000/svg">
<path d="M6.05843 0.260696C4.69677 0.629745 3.58962 1.29148 2.40612 2.47498C1.57895 3.30216 1.27353 3.72211 0.853575 4.58747C0.573607 5.18558 0.268188 5.9873 0.179108 6.36908C0.0263979 6.94174 0.000946297 11.5739 0.000946297 32.5842C0.000946297 60.7846 -0.0626827 58.6339 0.853575 60.581C1.54077 62.0317 3.09332 63.597 4.51861 64.2969C6.3893 65.2132 4.56951 65.1623 30.4156 65.1623C53.5511 65.1623 53.7038 65.1623 54.1238 64.9078C54.8619 64.4496 54.9128 64.1697 54.9128 60.1992C54.9128 56.9414 54.8873 56.5851 54.671 56.1524C54.531 55.8979 54.251 55.5797 54.0474 55.4525C53.5257 55.1598 52.6603 55.1725 52.1385 55.4907C51.4386 55.9233 51.3496 56.3178 51.3496 59.1811V61.7263H30.0084C16.4045 61.7263 8.33635 61.6754 7.77641 61.599C6.59291 61.4209 5.6512 60.9246 4.83675 60.0465C3.93322 59.0793 3.58962 58.1885 3.58962 56.8269C3.58962 55.9997 3.65325 55.6816 3.90777 55.1089C4.53133 53.76 5.38396 52.9201 6.65654 52.411L7.38191 52.1183L30.5683 52.0547L53.7547 51.9911L54.111 51.7238C54.3019 51.5838 54.5692 51.2657 54.6837 51.0239C54.9 50.6167 54.9128 49.1659 54.9128 25.9923C54.9128 -1.07552 54.9637 0.782455 54.1238 0.260696C53.7038 0.00617981 53.5511 0.00617981 30.352 0.0189056C7.68733 0.0189056 6.97469 0.0316315 6.05843 0.260696ZM33.0753 7.20898C37.7838 7.99798 42.047 10.9631 44.5285 15.2135C45.7247 17.2624 46.4247 19.6039 46.6537 22.2763L46.781 23.8543L47.2518 24.2488C48.3335 25.1269 48.9953 26.1068 49.4025 27.4303C49.6061 28.1175 49.6316 28.7156 49.6316 33.475C49.6316 38.6417 49.6316 38.769 49.3389 39.5961C48.4226 42.2558 46.1574 43.9102 43.4596 43.9102C40.7108 43.9102 38.2929 42.0649 37.5548 39.3925C37.3639 38.7181 37.3384 37.9545 37.3766 33.0805L37.4148 27.5321L37.962 26.4504C38.382 25.585 38.6874 25.1778 39.3746 24.5415L40.2654 23.7143L40.1508 22.5181C39.7182 18.0386 36.6894 14.5899 32.3499 13.661C30.9628 13.3683 27.6668 13.4828 26.4706 13.8646C22.5765 15.1117 19.8023 18.5986 19.5732 22.5436L19.4969 23.7652L20.0823 24.3634C20.7695 25.0887 21.3676 26.1704 21.6348 27.1758C21.9148 28.2702 21.9148 37.6491 21.6348 38.7308C21.0367 41.0342 19.3314 42.7267 17.0281 43.3248C13.8593 44.152 10.4616 41.9886 9.67255 38.6799C9.39259 37.4964 9.39259 28.4356 9.67255 27.2521C10.0416 25.6868 11.1869 24.1088 12.5104 23.3326C13.0322 23.0144 13.0449 23.0017 13.0449 22.3145C13.0449 21.9327 13.1594 21.0292 13.3121 20.3293C14.5084 14.45 18.4406 9.8814 24.0654 7.858C26.5979 6.94174 29.9829 6.69995 33.0753 7.20898Z" fill="#2D3047"/>
</svg>
