<svg width="106" height="126" viewBox="0 0 106 126" fill="none" xmlns="http://www.w3.org/2000/svg">
<path d="M11.6408 0.472702C9.0245 1.1818 6.8972 2.45329 4.62319 4.72729C3.03383 6.31666 2.44699 7.12357 1.64008 8.78629C1.10215 9.93552 0.515304 11.476 0.344142 12.2095C0.0507217 13.3099 0.00181824 22.2103 0.00181824 62.5801C0.00181824 116.765 -0.12044 112.633 1.64008 116.374C2.96048 119.161 5.94359 122.169 8.68218 123.514C12.2766 125.274 8.77999 125.176 58.4414 125.176C102.895 125.176 103.188 125.176 103.995 124.687C105.413 123.807 105.511 123.269 105.511 115.64C105.511 109.381 105.462 108.696 105.046 107.865C104.777 107.376 104.239 106.764 103.848 106.52C102.846 105.957 101.183 105.982 100.18 106.593C98.8356 107.425 98.6645 108.183 98.6645 113.684V118.574H57.659C31.5201 118.574 16.0177 118.477 14.9418 118.33C12.6678 117.988 10.8584 117.034 9.29347 115.347C7.5574 113.489 6.8972 111.777 6.8972 109.161C6.8972 107.571 7.01946 106.96 7.5085 105.86C8.70663 103.268 10.3449 101.654 12.7901 100.676L14.1838 100.113L58.7348 99.9912L103.286 99.8689L103.971 99.3554C104.337 99.0865 104.851 98.4752 105.071 98.0106C105.487 97.2281 105.511 94.4406 105.511 49.9141C105.511 -2.09473 105.609 1.47522 103.995 0.472702C103.188 -0.0163345 102.895 -0.0163345 58.3192 0.00811768C14.7707 0.00811768 13.4014 0.0325699 11.6408 0.472702ZM63.5518 13.8233C72.599 15.3393 80.7903 21.0366 85.5584 29.2035C87.8568 33.1402 89.2017 37.6393 89.6418 42.7742L89.8863 45.8062L90.791 46.5642C92.8694 48.2514 94.1409 50.1341 94.9234 52.6771C95.3146 53.9975 95.3635 55.1467 95.3635 64.2917C95.3635 74.2191 95.3635 74.4636 94.8011 76.053C93.0406 81.1634 88.6882 84.3421 83.5044 84.3421C78.2229 84.3421 73.577 80.7966 72.1588 75.6617C71.7921 74.3658 71.7432 72.8987 71.8165 63.5337L71.8899 52.8727L72.9413 50.7943C73.7482 49.1316 74.335 48.3492 75.6554 47.1266L77.3671 45.5372L77.147 43.2387C76.3156 34.6317 70.4961 28.0053 62.1581 26.2204C59.4928 25.658 53.1599 25.878 50.8614 26.6116C43.3792 29.0079 38.0487 35.7076 37.6086 43.2877L37.4618 45.635L38.5866 46.7842C39.907 48.178 41.0562 50.2564 41.5697 52.1881C42.1077 54.2909 42.1077 72.3118 41.5697 74.3902C40.4205 78.816 37.144 82.0681 32.7182 83.2173C26.6297 84.8067 20.1011 80.6499 18.5851 74.2924C18.0472 72.0184 18.0472 54.6088 18.5851 52.3348C19.2942 49.3272 21.4949 46.2952 24.0379 44.8037C25.0404 44.1924 25.0648 44.1679 25.0648 42.8475C25.0648 42.114 25.2849 40.3779 25.5783 39.0331C27.8768 27.7364 35.4324 18.9582 46.24 15.0704C51.1059 13.3099 57.6101 12.8453 63.5518 13.8233Z" fill="#2D3047"/>
</svg>
