<svg width="24" height="24" viewBox="0 0 24 24" fill="none" xmlns="http://www.w3.org/2000/svg">
<path opacity="0.7" d="M15.7138 19.8754C14.1636 19.8756 12.6482 19.4162 11.3592 18.5551C10.0702 17.6941 9.06547 16.4702 8.47205 15.0382C7.87863 13.6061 7.72318 12.0303 8.02537 10.5099C8.32756 8.9895 9.07381 7.59287 10.1698 6.4966C11.2657 5.40033 12.6621 4.65366 14.1824 4.35102C15.7027 4.04838 17.2786 4.20336 18.7108 4.79635C20.1431 5.38935 21.3673 6.39373 22.2287 7.68249C23.0901 8.97124 23.5499 10.4865 23.5502 12.0366V12.0378C23.548 14.1156 22.7217 16.1077 21.2526 17.577C19.7835 19.0463 17.7915 19.8729 15.7138 19.8754Z" fill="#CA7CD8"/>
<path opacity="0.8" d="M8.58759 19.8754C7.03746 19.8754 5.52215 19.4157 4.23326 18.5545C2.94438 17.6933 1.93981 16.4692 1.3466 15.0371C0.753396 13.605 0.598186 12.0291 0.900601 10.5087C1.20302 8.98841 1.94947 7.59188 3.04558 6.49578C4.14169 5.39967 5.53821 4.65321 7.05855 4.3508C8.5789 4.04838 10.1548 4.20359 11.5869 4.7968C13.019 5.39001 14.2431 6.39457 15.1043 7.68346C15.9655 8.97234 16.4252 10.4877 16.4252 12.0378C16.423 14.1158 15.5966 16.108 14.1272 17.5774C12.6579 19.0468 10.6656 19.8732 8.58759 19.8754Z" fill="#CA7CD8"/>
</svg>
