<svg width="14" height="14" viewBox="0 0 14 14" fill="none" xmlns="http://www.w3.org/2000/svg">
<path fill-rule="evenodd" clip-rule="evenodd" d="M12.25 7.75C12.6478 7.75 13.0294 7.90804 13.3107 8.18934C13.592 8.47064 13.75 8.85218 13.75 9.25V12.25C13.75 12.6478 13.592 13.0294 13.3107 13.3107C13.0294 13.592 12.6478 13.75 12.25 13.75C11.8522 13.75 11.4706 13.592 11.1893 13.3107C10.908 13.0294 10.75 12.6478 10.75 12.25V5.5C10.75 4.50544 10.3549 3.55161 9.65165 2.84835C8.94839 2.14509 7.99456 1.75 7 1.75C6.00544 1.75 5.05161 2.14509 4.34835 2.84835C3.64509 3.55161 3.25 4.50544 3.25 5.5V12.25C3.25 12.6478 3.09196 13.0294 2.81066 13.3107C2.52936 13.592 2.14782 13.75 1.75 13.75C1.35218 13.75 0.970644 13.592 0.68934 13.3107C0.408035 13.0294 0.25 12.6478 0.25 12.25V9.25C0.25 8.85218 0.408035 8.47064 0.68934 8.18934C0.970644 7.90804 1.35218 7.75 1.75 7.75V5.5C1.75 4.81056 1.8858 4.12787 2.14963 3.49091C2.41347 2.85395 2.80018 2.2752 3.28769 1.78769C3.7752 1.30018 4.35395 0.91347 4.99091 0.649632C5.62787 0.385795 6.31056 0.25 7 0.25C7.68944 0.25 8.37213 0.385795 9.00909 0.649632C9.64605 0.91347 10.2248 1.30018 10.7123 1.78769C11.1998 2.2752 11.5865 2.85395 11.8504 3.49091C12.1142 4.12787 12.25 4.81056 12.25 5.5V7.75Z" fill="#F4E5F7"/>
</svg>
