<svg width="22" height="22" viewBox="0 0 22 22" fill="none" xmlns="http://www.w3.org/2000/svg">
<path d="M14.5551 19.8887C13.8479 19.8887 13.1696 19.6077 12.6695 19.1076C12.1694 18.6075 11.8885 17.9292 11.8885 17.222V4.77756C11.8885 4.07032 12.1694 3.39204 12.6695 2.89194C13.1696 2.39184 13.8479 2.11089 14.5551 2.11089C15.2624 2.11089 15.9406 2.39184 16.4407 2.89194C16.9408 3.39204 17.2218 4.07032 17.2218 4.77756V17.222C17.2218 17.9292 16.9408 18.6075 16.4407 19.1076C15.9406 19.6077 15.2624 19.8887 14.5551 19.8887ZM15.444 4.77756C15.444 4.54181 15.3504 4.31572 15.1837 4.14902C15.017 3.98232 14.7909 3.88867 14.5551 3.88867C14.3194 3.88867 14.0933 3.98232 13.9266 4.14902C13.7599 4.31572 13.6662 4.54181 13.6662 4.77756V17.222C13.6662 17.4578 13.7599 17.6838 13.9266 17.8505C14.0933 18.0172 14.3194 18.1109 14.5551 18.1109C14.7909 18.1109 15.017 18.0172 15.1837 17.8505C15.3504 17.6838 15.444 17.4578 15.444 17.222V4.77756ZM7.44401 19.8887C6.73677 19.8887 6.05849 19.6077 5.55839 19.1076C5.0583 18.6075 4.77734 17.9292 4.77734 17.222V4.77756C4.77734 4.07032 5.0583 3.39204 5.55839 2.89194C6.05849 2.39184 6.73677 2.11089 7.44401 2.11089C8.15125 2.11089 8.82953 2.39184 9.32963 2.89194C9.82973 3.39204 10.1107 4.07032 10.1107 4.77756V17.222C10.1107 17.9292 9.82973 18.6075 9.32963 19.1076C8.82953 19.6077 8.15125 19.8887 7.44401 19.8887ZM8.3329 4.77756C8.3329 4.54181 8.23925 4.31572 8.07255 4.14902C7.90585 3.98232 7.67976 3.88867 7.44401 3.88867C7.20826 3.88867 6.98217 3.98232 6.81547 4.14902C6.64877 4.31572 6.55512 4.54181 6.55512 4.77756V17.222C6.55512 17.4578 6.64877 17.6838 6.81547 17.8505C6.98217 18.0172 7.20826 18.1109 7.44401 18.1109C7.67976 18.1109 7.90585 18.0172 8.07255 17.8505C8.23925 17.6838 8.3329 17.4578 8.3329 17.222V4.77756Z" fill="#2D3047"/>
</svg>
