<svg width="24" height="24" viewBox="0 0 24 24" fill="none" xmlns="http://www.w3.org/2000/svg">
<path d="M19.0005 3C18.2048 3 17.4417 3.31607 16.8791 3.87868C16.3165 4.44129 16.0005 5.20435 16.0005 6V8.84L7.00046 3.47C6.50308 3.17318 5.93466 3.01646 5.35546 3.01646C4.77625 3.01646 4.20783 3.17318 3.71046 3.47C3.18954 3.76603 2.75668 4.1952 2.4562 4.71357C2.15573 5.23193 1.99844 5.82085 2.00046 6.42V17.58C1.99047 18.1886 2.145 18.7886 2.44775 19.3166C2.75049 19.8447 3.1902 20.2811 3.72046 20.58C4.21141 20.8578 4.76638 21.0025 5.33046 21C5.91922 20.9961 6.49606 20.8337 7.00046 20.53L16.0005 15.16V18C16.0005 18.7956 16.3165 19.5587 16.8791 20.1213C17.4417 20.6839 18.2048 21 19.0005 21C19.7961 21 20.5592 20.6839 21.1218 20.1213C21.6844 19.5587 22.0005 18.7956 22.0005 18V6C22.0005 5.20435 21.6844 4.44129 21.1218 3.87868C20.5592 3.31607 19.7961 3 19.0005 3ZM15.3205 13.23L6.00046 18.81C5.80765 18.9275 5.58623 18.9896 5.36046 18.9896C5.13468 18.9896 4.91326 18.9275 4.72045 18.81C4.5013 18.6882 4.31887 18.5098 4.19222 18.2935C4.06557 18.0771 3.99934 17.8307 4.00046 17.58V6.42C3.99473 6.16692 4.05774 5.91703 4.18276 5.69691C4.30779 5.4768 4.49016 5.2947 4.71046 5.17C4.89946 5.06192 5.11275 5.00344 5.33046 5C5.56743 4.99747 5.80009 5.06344 6.00046 5.19L15.3305 10.77C15.5392 10.9003 15.7113 11.0816 15.8306 11.2968C15.95 11.5119 16.0126 11.7539 16.0126 12C16.0126 12.2461 15.95 12.4881 15.8306 12.7032C15.7113 12.9184 15.5392 13.0997 15.3305 13.23H15.3205ZM20.0005 18C20.0005 18.2652 19.8951 18.5196 19.7076 18.7071C19.52 18.8946 19.2657 19 19.0005 19C18.7352 19 18.4809 18.8946 18.2933 18.7071C18.1058 18.5196 18.0005 18.2652 18.0005 18V6C18.0005 5.73478 18.1058 5.48043 18.2933 5.29289C18.4809 5.10536 18.7352 5 19.0005 5C19.2657 5 19.52 5.10536 19.7076 5.29289C19.8951 5.48043 20.0005 5.73478 20.0005 6V18Z" fill="#F4E5F7"/>
</svg>
