<svg width="22" height="22" viewBox="0 0 22 22" fill="none" xmlns="http://www.w3.org/2000/svg">
<path d="M3.66602 10.9997C3.66602 11.2428 3.76259 11.4759 3.9345 11.6479C4.10641 11.8198 4.33957 11.9163 4.58268 11.9163H11.5402L9.43185 14.0155C9.34593 14.1007 9.27774 14.2021 9.2312 14.3138C9.18466 14.4255 9.1607 14.5453 9.1607 14.6663C9.1607 14.7874 9.18466 14.9072 9.2312 15.0189C9.27774 15.1306 9.34593 15.232 9.43185 15.3172C9.51707 15.4031 9.61845 15.4713 9.73015 15.5178C9.84186 15.5644 9.96167 15.5883 10.0827 15.5883C10.2037 15.5883 10.3235 15.5644 10.4352 15.5178C10.5469 15.4713 10.6483 15.4031 10.7335 15.3172L14.4002 11.6505C14.4836 11.5633 14.5491 11.4605 14.5927 11.348C14.6844 11.1248 14.6844 10.8745 14.5927 10.6513C14.5491 10.5388 14.4836 10.436 14.4002 10.3488L10.7335 6.68217C10.648 6.59671 10.5466 6.52891 10.4349 6.48265C10.3232 6.4364 10.2036 6.41259 10.0827 6.41259C9.96181 6.41259 9.84212 6.4364 9.73045 6.48265C9.61878 6.52891 9.51732 6.59671 9.43185 6.68217C9.34638 6.76764 9.27858 6.86911 9.23233 6.98078C9.18607 7.09245 9.16227 7.21214 9.16227 7.33301C9.16227 7.45388 9.18607 7.57357 9.23233 7.68524C9.27858 7.79691 9.34638 7.89837 9.43185 7.98384L11.5402 10.083H4.58268C4.33957 10.083 4.10641 10.1796 3.9345 10.3515C3.76259 10.5234 3.66602 10.7566 3.66602 10.9997ZM15.5827 1.83301H6.41602C5.68667 1.83301 4.9872 2.12274 4.47147 2.63846C3.95575 3.15419 3.66602 3.85366 3.66602 4.58301V7.33301C3.66602 7.57612 3.76259 7.80928 3.9345 7.98119C4.10641 8.1531 4.33957 8.24967 4.58268 8.24967C4.8258 8.24967 5.05896 8.1531 5.23086 7.98119C5.40277 7.80928 5.49935 7.57612 5.49935 7.33301V4.58301C5.49935 4.33989 5.59593 4.10673 5.76783 3.93483C5.93974 3.76292 6.1729 3.66634 6.41602 3.66634H15.5827C15.8258 3.66634 16.059 3.76292 16.2309 3.93483C16.4028 4.10673 16.4993 4.33989 16.4993 4.58301V17.4163C16.4993 17.6595 16.4028 17.8926 16.2309 18.0645C16.059 18.2364 15.8258 18.333 15.5827 18.333H6.41602C6.1729 18.333 5.93974 18.2364 5.76783 18.0645C5.59593 17.8926 5.49935 17.6595 5.49935 17.4163V14.6663C5.49935 14.4232 5.40277 14.1901 5.23086 14.0182C5.05896 13.8463 4.8258 13.7497 4.58268 13.7497C4.33957 13.7497 4.10641 13.8463 3.9345 14.0182C3.76259 14.1901 3.66602 14.4232 3.66602 14.6663V17.4163C3.66602 18.1457 3.95575 18.8452 4.47147 19.3609C4.9872 19.8766 5.68667 20.1663 6.41602 20.1663H15.5827C16.312 20.1663 17.0115 19.8766 17.5272 19.3609C18.043 18.8452 18.3327 18.1457 18.3327 17.4163V4.58301C18.3327 3.85366 18.043 3.15419 17.5272 2.63846C17.0115 2.12274 16.312 1.83301 15.5827 1.83301Z" fill="#CA7CD8"/>
</svg>
