<svg width="24" height="24" viewBox="0 0 24 24" fill="none" xmlns="http://www.w3.org/2000/svg">
<path d="M12.0125 4.1257C15.0222 4.0807 17.8385 5.25295 19.6565 7.5007H16.6857C16.4371 7.5007 16.1986 7.59947 16.0228 7.77529C15.847 7.9511 15.7482 8.18956 15.7482 8.4382C15.7482 8.68684 15.847 8.9253 16.0228 9.10111C16.1986 9.27693 16.4371 9.3757 16.6857 9.3757H21.5607C22.0782 9.3757 22.4982 8.9557 22.4982 8.4382V3.1882C22.4982 2.93956 22.3995 2.7011 22.2236 2.52528C22.0478 2.34947 21.8094 2.2507 21.5607 2.2507C21.3121 2.2507 21.0736 2.34947 20.8978 2.52528C20.722 2.7011 20.6232 2.93956 20.6232 3.1882V5.75545C18.4107 3.38545 15.2442 2.2027 11.9847 2.25145C7.52823 2.31745 3.96123 4.70245 1.64598 8.30695C1.57797 8.41056 1.53117 8.52662 1.50829 8.64843C1.48542 8.77024 1.48692 8.89538 1.51272 9.0166C1.53852 9.13783 1.5881 9.25273 1.6586 9.35467C1.72909 9.45661 1.8191 9.54356 1.92341 9.6105C2.02772 9.67743 2.14427 9.72301 2.26632 9.74461C2.38836 9.76621 2.51347 9.76339 2.63442 9.73632C2.75537 9.70926 2.86975 9.65848 2.97095 9.58692C3.07214 9.51537 3.15815 9.42446 3.22398 9.31945C5.25873 6.1507 8.28723 4.18195 12.0117 4.1257H12.0125ZM15.8232 11.2507C14.3817 11.2507 13.3385 11.9107 12.7107 12.9742C12.1242 13.9657 11.9337 15.2414 11.9337 16.4999C11.9337 17.7599 12.1242 19.0349 12.71 20.0264C13.3385 21.0899 14.3832 21.7499 15.8232 21.7499C17.2655 21.7499 18.3087 21.0899 18.9372 20.0264C19.523 19.0349 19.7135 17.7592 19.7135 16.4999C19.7135 15.2414 19.523 13.9657 18.9372 12.9742C18.3087 11.9114 17.2647 11.2507 15.8232 11.2507ZM13.8087 16.5007C13.8087 15.3779 13.988 14.4974 14.324 13.9282C14.6187 13.4302 15.0515 13.1257 15.824 13.1257C16.5965 13.1257 17.0285 13.4302 17.3232 13.9282C17.6592 14.4974 17.8385 15.3779 17.8385 16.5007C17.8385 17.6227 17.6592 18.5032 17.3232 19.0732C17.0285 19.5704 16.5957 19.8757 15.8232 19.8757C15.0507 19.8757 14.618 19.5704 14.324 19.0732C13.988 18.5032 13.8087 17.6227 13.8087 16.5007ZM9.93573 12.1882C9.93564 12.0039 9.88122 11.8237 9.77928 11.6701C9.67734 11.5166 9.53239 11.3965 9.36257 11.3248C9.19274 11.2532 9.00556 11.2332 8.82444 11.2674C8.64332 11.3016 8.47629 11.3884 8.34423 11.5169C8.22873 11.6294 8.13048 11.7269 8.04048 11.8169C7.83123 12.0262 7.66548 12.1919 7.43298 12.3884C7.11573 12.6562 6.67548 12.9757 5.89098 13.4467C5.7854 13.51 5.69333 13.5935 5.62002 13.6924C5.54671 13.7914 5.4936 13.9037 5.46372 14.0232C5.43384 14.1426 5.42778 14.2668 5.44589 14.3886C5.46399 14.5103 5.5059 14.6274 5.56923 14.7329C5.63256 14.8385 5.71607 14.9306 5.81498 15.0039C5.9139 15.0772 6.02628 15.1303 6.14572 15.1602C6.26516 15.1901 6.38932 15.1961 6.5111 15.178C6.63288 15.1599 6.7499 15.118 6.85548 15.0547C7.26781 14.8106 7.6699 14.5496 8.06073 14.2724V20.6249C8.06073 20.8736 8.15951 21.112 8.33532 21.2879C8.51114 21.4637 8.74959 21.5624 8.99823 21.5624C9.24687 21.5624 9.48533 21.4637 9.66115 21.2879C9.83696 21.112 9.93573 20.8736 9.93573 20.6249V12.1874V12.1882Z" fill="#F4E5F7"/>
</svg>
