<svg width="24" height="24" viewBox="0 0 24 24" fill="none" xmlns="http://www.w3.org/2000/svg">
<path d="M4.99954 21C5.79519 21 6.55826 20.6839 7.12087 20.1213C7.68347 19.5587 7.99955 18.7956 7.99955 18V15.16L16.9995 20.53C17.4969 20.8268 18.0653 20.9835 18.6445 20.9835C19.2238 20.9835 19.7922 20.8268 20.2895 20.53C20.8105 20.234 21.2433 19.8048 21.5438 19.2864C21.8443 18.7681 22.0016 18.1792 21.9995 17.58V6.42C22.0095 5.81141 21.855 5.21142 21.5523 4.68338C21.2495 4.15534 20.8098 3.71885 20.2795 3.42C19.7886 3.14224 19.2336 2.99746 18.6695 3C18.0808 3.00394 17.5039 3.16629 16.9995 3.47L7.99955 8.84V6C7.99955 5.20435 7.68347 4.44129 7.12087 3.87868C6.55826 3.31607 5.79519 3 4.99954 3C4.2039 3 3.44083 3.31607 2.87822 3.87868C2.31561 4.44129 1.99954 5.20435 1.99954 6V18C1.99954 18.7956 2.31561 19.5587 2.87822 20.1213C3.44083 20.6839 4.2039 21 4.99954 21ZM8.67955 10.77L17.9995 5.19C18.1923 5.07252 18.4138 5.01038 18.6395 5.01038C18.8653 5.01038 19.0867 5.07252 19.2795 5.19C19.4987 5.31177 19.6811 5.49016 19.8078 5.70652C19.9344 5.92289 20.0007 6.16929 19.9995 6.42V17.58C20.0053 17.8331 19.9423 18.083 19.8172 18.3031C19.6922 18.5232 19.5098 18.7053 19.2895 18.83C19.1005 18.9381 18.8872 18.9966 18.6695 19C18.4326 19.0025 18.1999 18.9366 17.9995 18.81L8.66955 13.23C8.46082 13.0997 8.28869 12.9184 8.16935 12.7032C8.05001 12.4881 7.9874 12.2461 7.9874 12C7.9874 11.7539 8.05001 11.5119 8.16935 11.2968C8.28869 11.0816 8.46082 10.9003 8.66955 10.77H8.67955ZM3.99954 6C3.99954 5.73478 4.1049 5.48043 4.29244 5.29289C4.47997 5.10536 4.73433 5 4.99954 5C5.26476 5 5.51912 5.10536 5.70665 5.29289C5.89419 5.48043 5.99954 5.73478 5.99954 6V18C5.99954 18.2652 5.89419 18.5196 5.70665 18.7071C5.51912 18.8946 5.26476 19 4.99954 19C4.73433 19 4.47997 18.8946 4.29244 18.7071C4.1049 18.5196 3.99954 18.2652 3.99954 18V6Z" fill="#F4E5F7"/>
</svg>
