<svg width="20" height="18" viewBox="0 0 20 18" fill="none" xmlns="http://www.w3.org/2000/svg">
<path d="M19.1673 6.86369C19.1094 6.69602 19.0042 6.54875 18.8642 6.43973C18.7243 6.33072 18.5557 6.26464 18.379 6.24952L13.1632 5.48869L10.8257 0.749523C10.7506 0.594541 10.6334 0.463836 10.4875 0.372382C10.3416 0.280927 10.1729 0.232422 10.0007 0.232422C9.82847 0.232422 9.65975 0.280927 9.51384 0.372382C9.36793 0.463836 9.25073 0.594541 9.17567 0.749523L6.83817 5.47952L1.62234 6.24952C1.45268 6.27364 1.29318 6.34482 1.16194 6.455C1.0307 6.56518 0.932968 6.70994 0.879838 6.87286C0.831204 7.03206 0.82684 7.2015 0.867213 7.36299C0.907587 7.52449 0.991174 7.67194 1.109 7.78952L4.89484 11.4562L3.97817 16.6629C3.94545 16.8347 3.96258 17.0123 4.02755 17.1748C4.09253 17.3372 4.20262 17.4776 4.34484 17.5795C4.48345 17.6786 4.64695 17.7371 4.81696 17.7485C4.98698 17.7598 5.15679 17.7235 5.30734 17.6437L10.0007 15.1962L14.6757 17.6529C14.8043 17.7254 14.9496 17.7633 15.0973 17.7629C15.2915 17.7635 15.4809 17.7026 15.6382 17.5887C15.7804 17.4868 15.8905 17.3464 15.9555 17.1839C16.0204 17.0215 16.0376 16.8439 16.0048 16.672L15.0882 11.4654L18.874 7.79869C19.0064 7.68656 19.1042 7.53918 19.1561 7.37368C19.208 7.20817 19.2119 7.03132 19.1673 6.86369ZM13.5298 10.5304C13.4223 10.6343 13.3419 10.763 13.2956 10.9052C13.2492 11.0475 13.2384 11.1988 13.264 11.3462L13.924 15.187L10.4773 13.3537C10.3447 13.2831 10.1968 13.2461 10.0465 13.2461C9.89625 13.2461 9.7483 13.2831 9.61567 13.3537L6.169 15.187L6.829 11.3462C6.85461 11.1988 6.84377 11.0475 6.79744 10.9052C6.7511 10.763 6.67067 10.6343 6.56317 10.5304L3.81317 7.78036L7.67234 7.22119C7.82084 7.20053 7.962 7.14377 8.08346 7.05587C8.20492 6.96797 8.30297 6.85162 8.369 6.71702L10.0007 3.22452L11.724 6.72619C11.79 6.86079 11.8881 6.97714 12.0095 7.06504C12.131 7.15294 12.2722 7.2097 12.4207 7.23036L16.2798 7.78952L13.5298 10.5304Z" fill="#CA7CD8"/>
</svg>
