<svg width="12" height="10" viewBox="0 0 12 10" fill="none" xmlns="http://www.w3.org/2000/svg">
<path d="M11.7251 1.01429C11.6457 0.934258 11.5513 0.870735 11.4472 0.827386C11.3432 0.784037 11.2316 0.761719 11.1189 0.761719C11.0062 0.761719 10.8946 0.784037 10.7905 0.827386C10.6865 0.870735 10.592 0.934258 10.5126 1.01429L4.15139 7.38407L1.47882 4.70296C1.3964 4.62334 1.29911 4.56074 1.1925 4.51873C1.08589 4.47672 0.972054 4.45611 0.857483 4.4581C0.742911 4.46008 0.629852 4.48461 0.524761 4.53028C0.419669 4.57596 0.324603 4.64189 0.244991 4.7243C0.165378 4.80672 0.102779 4.90401 0.0607656 5.01062C0.0187524 5.11723 -0.00185163 5.23106 0.000130571 5.34564C0.00211277 5.46021 0.0266423 5.57327 0.0723181 5.67836C0.117994 5.78345 0.183922 5.87852 0.266338 5.95813L3.54515 9.23694C3.62453 9.31697 3.71897 9.3805 3.82302 9.42385C3.92707 9.46719 4.03867 9.48951 4.15139 9.48951C4.26411 9.48951 4.37572 9.46719 4.47977 9.42385C4.58382 9.3805 4.67826 9.31697 4.75763 9.23694L11.7251 2.26946C11.8118 2.1895 11.881 2.09246 11.9283 1.98445C11.9756 1.87644 12 1.75979 12 1.64187C12 1.52396 11.9756 1.40731 11.9283 1.2993C11.881 1.19129 11.8118 1.09425 11.7251 1.01429Z" fill="#F4E5F7"/>
</svg>
