<svg width="20" height="20" viewBox="0 0 20 20" fill="none" xmlns="http://www.w3.org/2000/svg">
<path d="M15.4502 12.5004L7.40018 17.1171C6.96458 17.3686 6.47017 17.5004 5.96717 17.499C5.46417 17.4976 4.97049 17.3631 4.53628 17.1092C4.10208 16.8553 3.74281 16.491 3.49497 16.0533C3.24713 15.6156 3.11954 15.1201 3.12518 14.6171V5.35043C3.12518 4.59456 3.42545 3.86965 3.95992 3.33517C4.4944 2.80069 5.21931 2.50042 5.97518 2.50042C6.47554 2.50127 6.96692 2.63346 7.40018 2.88376L15.4502 7.50043C15.8827 7.75077 16.2418 8.11045 16.4915 8.5434C16.7412 8.97634 16.8726 9.46732 16.8726 9.96709C16.8726 10.4669 16.7412 10.9578 16.4915 11.3908C16.2418 11.8237 15.8827 12.1834 15.4502 12.4338V12.5004ZM14.6168 9.00876L6.56685 4.32543C6.38642 4.22317 6.18257 4.16942 5.97518 4.16942C5.76779 4.16942 5.56394 4.22317 5.38351 4.32543C5.20359 4.4293 5.05419 4.57872 4.95033 4.75864C4.84647 4.93857 4.79181 5.14267 4.79185 5.35043V14.6504C4.79181 14.8582 4.84647 15.0623 4.95033 15.2422C5.05419 15.4221 5.20359 15.5715 5.38351 15.6754C5.56468 15.7761 5.76793 15.8305 5.97518 15.8338C6.18229 15.8295 6.38529 15.7752 6.56685 15.6754L14.6168 11.0254C14.7968 10.9216 14.9463 10.7722 15.0502 10.5923C15.1542 10.4123 15.2089 10.2082 15.2089 10.0004C15.2089 9.79264 15.1542 9.58851 15.0502 9.40858C14.9463 9.22865 14.7968 9.07926 14.6168 8.97543V9.00876Z" fill="#F4E5F7"/>
</svg>
