<svg width="20" height="20" viewBox="0 0 20 20" fill="none" xmlns="http://www.w3.org/2000/svg">
<path d="M17.2263 11.9257L11.668 15.134C11.33 15.3282 10.9469 15.4301 10.5571 15.4297C10.1673 15.4292 9.7845 15.3264 9.44695 15.1315C9.10939 14.9365 8.82898 14.6563 8.63377 14.3189C8.43856 13.9815 8.33542 13.5988 8.33467 13.209L5.00133 15.134C4.66334 15.3282 4.28026 15.4301 3.89047 15.4297C3.50067 15.4292 3.11783 15.3264 2.78028 15.1315C2.44273 14.9365 2.16231 14.6563 1.9671 14.3189C1.7719 13.9815 1.66875 13.5988 1.668 13.209V6.79233C1.66597 6.40322 1.76756 6.02059 1.96234 5.68375C2.15713 5.3469 2.43808 5.06799 2.77633 4.87566C3.11384 4.67382 3.49975 4.56726 3.893 4.56732C4.28222 4.56941 4.6642 4.6728 5.00133 4.86732L8.33467 6.79233C8.33288 6.40215 8.4345 6.01847 8.62919 5.68033C8.82387 5.34219 9.10467 5.06167 9.443 4.86732C9.78096 4.67122 10.1648 4.56794 10.5555 4.56794C10.9462 4.56794 11.33 4.67122 11.668 4.86732L17.2263 8.07566C17.5637 8.2712 17.8437 8.55196 18.0384 8.88981C18.2331 9.22766 18.3355 9.61073 18.3355 10.0007C18.3355 10.3906 18.2331 10.7737 18.0384 11.1115C17.8437 11.4494 17.5637 11.7301 17.2263 11.9257ZM8.33467 8.71732L4.168 6.31732C4.08386 6.26968 3.98879 6.24471 3.8921 6.24485C3.79541 6.24498 3.70041 6.27023 3.61641 6.31811C3.5324 6.36599 3.46227 6.43487 3.41289 6.518C3.3635 6.60112 3.33654 6.69565 3.33467 6.79233V13.209C3.33654 13.3057 3.3635 13.4002 3.41289 13.4833C3.46227 13.5664 3.5324 13.6353 3.61641 13.6832C3.70041 13.7311 3.79541 13.7563 3.8921 13.7565C3.98879 13.7566 4.08386 13.7316 4.168 13.684L8.33467 11.284V8.71732ZM16.393 9.55066L10.8347 6.30899C10.7493 6.26156 10.6532 6.23668 10.5555 6.23668C10.4578 6.23668 10.3617 6.26156 10.2763 6.30899C10.1917 6.35785 10.1216 6.42839 10.0732 6.51334C10.0249 6.5983 10.0001 6.69459 10.0013 6.79233V13.209C10.0001 13.3067 10.0249 13.403 10.0732 13.488C10.1216 13.5729 10.1917 13.6435 10.2763 13.6923C10.3638 13.7386 10.4607 13.7642 10.5597 13.7673C10.6565 13.7682 10.7517 13.7422 10.8347 13.6923L16.393 10.484C16.4778 10.435 16.5482 10.3645 16.5971 10.2797C16.6461 10.1948 16.6718 10.0986 16.6718 10.0007C16.6718 9.90272 16.6461 9.8065 16.5971 9.72166C16.5482 9.63683 16.4778 9.56635 16.393 9.51732V9.55066Z" fill="#F4E5F7"/>
</svg>
