<svg width="18" height="18" viewBox="0 0 18 18" fill="none" xmlns="http://www.w3.org/2000/svg">
<path d="M12 1.5H6.00001C5.40327 1.5 4.83097 1.73705 4.40902 2.15901C3.98706 2.58097 3.75001 3.15326 3.75001 3.75V15.75C3.74948 15.8822 3.78389 16.0121 3.84974 16.1267C3.91559 16.2413 4.01055 16.3364 4.12501 16.4025C4.23902 16.4683 4.36835 16.503 4.50001 16.503C4.63166 16.503 4.76099 16.4683 4.87501 16.4025L9.00001 14.0175L13.125 16.4025C13.2393 16.4673 13.3686 16.5009 13.5 16.5C13.6314 16.5009 13.7607 16.4673 13.875 16.4025C13.9895 16.3364 14.0844 16.2413 14.1503 16.1267C14.2161 16.0121 14.2505 15.8822 14.25 15.75V3.75C14.25 3.15326 14.013 2.58097 13.591 2.15901C13.169 1.73705 12.5967 1.5 12 1.5ZM12.75 14.4525L9.37501 12.5025C9.26099 12.4367 9.13166 12.402 9.00001 12.402C8.86835 12.402 8.73902 12.4367 8.62501 12.5025L5.25001 14.4525V3.75C5.25001 3.55109 5.32902 3.36032 5.46968 3.21967C5.61033 3.07902 5.80109 3 6.00001 3H12C12.1989 3 12.3897 3.07902 12.5303 3.21967C12.671 3.36032 12.75 3.55109 12.75 3.75V14.4525Z" fill="#F4E5F7"/>
</svg>
