<svg width="18" height="18" viewBox="0 0 18 18" fill="none" xmlns="http://www.w3.org/2000/svg">
<path d="M6.3512 6.29666L6.3497 6.29741L6.34745 6.29891L6.3512 6.29666ZM13.8167 6.15641C13.7645 6.10607 13.7066 6.06202 13.6442 6.02516C13.5558 5.97312 13.4577 5.93977 13.3559 5.92716C13.2541 5.91455 13.1508 5.92295 13.0524 5.95184C12.954 5.98073 12.8626 6.0295 12.7838 6.09513C12.7049 6.16076 12.6404 6.24186 12.5942 6.33341C12.3359 6.8426 11.9796 7.29577 11.5457 7.66691C11.6122 7.29307 11.6459 6.91412 11.6462 6.53441C11.6476 5.37951 11.343 4.24486 10.7633 3.24598C10.1837 2.2471 9.34964 1.41966 8.3462 0.84791C8.23562 0.785082 8.11088 0.751404 7.98371 0.750043C7.85654 0.748682 7.73111 0.779682 7.61921 0.84013C7.50732 0.900578 7.41263 0.988487 7.34406 1.09559C7.27548 1.2027 7.23527 1.32549 7.2272 1.45241C7.18521 2.16348 6.9993 2.85863 6.68075 3.49575C6.36219 4.13286 5.91761 4.69867 5.37395 5.15891L5.20145 5.29916C4.63266 5.68184 4.12921 6.15364 3.71045 6.69641C3.05965 7.51625 2.60884 8.47644 2.39376 9.50085C2.17868 10.5252 2.20525 11.5857 2.47137 12.598C2.73748 13.6104 3.23582 14.5468 3.92686 15.333C4.61789 16.1192 5.48262 16.7336 6.45245 17.1274C6.56631 17.1738 6.68982 17.1914 6.81211 17.1788C6.93439 17.1662 7.05171 17.1237 7.15372 17.0551C7.25573 16.9865 7.33932 16.8939 7.39712 16.7854C7.45493 16.6769 7.48517 16.5558 7.4852 16.4329C7.48457 16.3535 7.47193 16.2746 7.4477 16.1989C7.27989 15.5682 7.23156 14.9117 7.3052 14.2632C8.01505 15.6016 9.15436 16.6624 10.5399 17.2752C10.709 17.3507 10.9001 17.3609 11.0762 17.3037C12.1708 16.9503 13.1569 16.3229 13.9408 15.4812C14.7246 14.6394 15.2803 13.6112 15.5549 12.4942C15.8295 11.3773 15.8139 10.2086 15.5097 9.09936C15.2055 7.99009 14.6227 6.97702 13.8167 6.15641ZM10.8879 15.7797C10.2342 15.4484 9.65742 14.9832 9.19522 14.4144C8.73301 13.8456 8.39569 13.1859 8.2052 12.4782C8.14695 12.2398 8.10189 11.9985 8.0702 11.7552C8.04885 11.6002 7.97962 11.4559 7.87217 11.3422C7.76472 11.2286 7.62444 11.1514 7.47095 11.1214C7.42375 11.1122 7.37577 11.1077 7.3277 11.1079C7.19592 11.1078 7.06644 11.1424 6.95228 11.2082C6.83813 11.274 6.74333 11.3688 6.67745 11.4829C6.05528 12.5563 5.74248 13.7811 5.7737 15.0214C5.22631 14.5959 4.76883 14.066 4.42776 13.4624C4.08669 12.8589 3.86882 12.1936 3.78678 11.5051C3.70473 10.8167 3.76015 10.1189 3.94982 9.45202C4.13949 8.78517 4.45963 8.16261 4.8917 7.62041C5.21976 7.19429 5.61552 6.82488 6.0632 6.52691C6.08279 6.51434 6.10157 6.50057 6.11945 6.48566C6.11945 6.48566 6.34145 6.30191 6.34895 6.29816C7.41785 5.39444 8.17817 4.17976 8.52395 2.82341C9.34102 3.57894 9.88577 4.5831 10.0736 5.67998C10.2614 6.77686 10.0818 7.90507 9.5627 8.88941C9.49399 9.02079 9.46577 9.16959 9.4816 9.31701C9.49743 9.46442 9.55659 9.60384 9.65161 9.71765C9.74664 9.83145 9.87326 9.91454 10.0155 9.95641C10.1577 9.99829 10.3092 9.99707 10.4507 9.95291C11.5995 9.59263 12.6103 8.88906 13.3472 7.93691C13.7902 8.59108 14.0799 9.33681 14.1946 10.1185C14.3093 10.9002 14.2461 11.6977 14.0097 12.4516C13.7733 13.2055 13.3698 13.8963 12.8293 14.4725C12.2888 15.0488 11.6252 15.4956 10.8879 15.7797Z" fill="#F4E5F7"/>
</svg>
