<svg width="25" height="24" viewBox="0 0 25 24" fill="none" xmlns="http://www.w3.org/2000/svg">
<path d="M15.5 6H9.5C9.23478 6 8.98043 6.10536 8.79289 6.29289C8.60536 6.48043 8.5 6.73478 8.5 7V11C8.5 11.2652 8.60536 11.5196 8.79289 11.7071C8.98043 11.8946 9.23478 12 9.5 12H15.5C15.7652 12 16.0196 11.8946 16.2071 11.7071C16.3946 11.5196 16.5 11.2652 16.5 11V7C16.5 6.73478 16.3946 6.48043 16.2071 6.29289C16.0196 6.10536 15.7652 6 15.5 6ZM14.5 10H10.5V8H14.5V10ZM17.5 2H5.5C5.23478 2 4.98043 2.10536 4.79289 2.29289C4.60536 2.48043 4.5 2.73478 4.5 3V21C4.5 21.2652 4.60536 21.5196 4.79289 21.7071C4.98043 21.8946 5.23478 22 5.5 22H17.5C18.2956 22 19.0587 21.6839 19.6213 21.1213C20.1839 20.5587 20.5 19.7956 20.5 19V5C20.5 4.20435 20.1839 3.44129 19.6213 2.87868C19.0587 2.31607 18.2956 2 17.5 2ZM18.5 19C18.5 19.2652 18.3946 19.5196 18.2071 19.7071C18.0196 19.8946 17.7652 20 17.5 20H6.5V4H17.5C17.7652 4 18.0196 4.10536 18.2071 4.29289C18.3946 4.48043 18.5 4.73478 18.5 5V19Z" fill="#F4E5F7"/>
</svg>
