<svg width="21" height="20" viewBox="0 0 21 20" fill="none" xmlns="http://www.w3.org/2000/svg">
<path d="M13.081 10.5287L11.3327 9.51949V5.83366C11.3327 5.61265 11.2449 5.40068 11.0886 5.2444C10.9323 5.08812 10.7204 5.00033 10.4994 5.00033C10.2783 5.00033 10.0664 5.08812 9.9101 5.2444C9.75382 5.40068 9.66602 5.61265 9.66602 5.83366V10.0003C9.66602 10.1466 9.70453 10.2903 9.77767 10.417C9.85081 10.5437 9.95601 10.6489 10.0827 10.722L12.2477 11.972C12.3425 12.0276 12.4474 12.0639 12.5562 12.0787C12.6651 12.0936 12.7759 12.0868 12.8821 12.0587C12.9884 12.0307 13.088 11.9818 13.1753 11.9151C13.2626 11.8483 13.3359 11.7649 13.3908 11.6698C13.4458 11.5746 13.4814 11.4695 13.4955 11.3605C13.5097 11.2515 13.5022 11.1408 13.4734 11.0347C13.4446 10.9287 13.3951 10.8294 13.3277 10.7425C13.2604 10.6557 13.1766 10.583 13.081 10.5287ZM10.4994 1.66699C8.85118 1.66699 7.24001 2.15573 5.8696 3.07141C4.49919 3.98709 3.43109 5.28858 2.80036 6.8113C2.16963 8.33401 2.0046 10.0096 2.32614 11.6261C2.64769 13.2426 3.44136 14.7274 4.6068 15.8929C5.77223 17.0583 7.25709 17.852 8.8736 18.1735C10.4901 18.4951 12.1657 18.3301 13.6884 17.6993C15.2111 17.0686 16.5126 16.0005 17.4283 14.6301C18.3439 13.2597 18.8327 11.6485 18.8327 10.0003C18.8303 7.79093 17.9515 5.67273 16.3892 4.11045C14.827 2.54817 12.7087 1.66942 10.4994 1.66699ZM10.4994 16.667C9.18081 16.667 7.89188 16.276 6.79555 15.5435C5.69922 14.8109 4.84474 13.7697 4.34016 12.5515C3.83557 11.3334 3.70355 9.99293 3.96078 8.69972C4.21802 7.40652 4.85296 6.21863 5.78531 5.28628C6.71766 4.35393 7.90554 3.71899 9.19875 3.46176C10.492 3.20452 11.8324 3.33654 13.0506 3.84113C14.2687 4.34571 15.3099 5.2002 16.0425 6.29652C16.775 7.39285 17.166 8.68178 17.166 10.0003C17.1638 11.7678 16.4607 13.4622 15.211 14.7119C13.9612 15.9617 12.2668 16.6648 10.4994 16.667Z" fill="#F4E5F7"/>
</svg>
