<svg width="24" height="16" viewBox="0 0 24 16" fill="none" xmlns="http://www.w3.org/2000/svg">
<path d="M0.809609 0.463867C0.279521 0.463867 -0.150391 0.893659 -0.150391 1.42387V14.5759C-0.150391 15.1061 0.279737 15.5359 0.809609 15.5359H22.8896C23.4197 15.5359 23.8496 15.1061 23.8496 14.5759V1.42387C23.8496 0.893683 23.4195 0.463867 22.8896 0.463867H0.809609ZM14.1836 4.95561C14.7677 4.95561 15.2358 5.08464 15.5344 5.20461L15.3304 6.48787L15.1954 6.41961C14.9173 6.29964 14.5601 6.18417 14.0674 6.19236C13.4775 6.19236 13.2049 6.45547 13.2049 6.70164C13.2014 6.979 13.5235 7.16193 14.0501 7.43587C14.9193 7.85851 15.321 8.37096 15.3154 9.04461C15.3037 10.2738 14.2756 11.0681 12.6919 11.0681C12.0162 11.0607 11.3652 10.9176 11.0134 10.7524L11.2249 9.42636L11.4191 9.52087C11.9139 9.74195 12.2343 9.83138 12.8374 9.83138C13.2704 9.83138 13.7352 9.65006 13.7389 9.25312C13.7417 8.99392 13.5446 8.80912 12.9581 8.51887C12.3866 8.23557 11.629 7.76102 11.6374 6.91012C11.6463 5.75906 12.6949 4.95561 14.1836 4.95561ZM1.9721 5.14387H4.40435C4.73188 5.15625 4.99631 5.26171 5.08761 5.61712L5.61187 8.32312C5.61194 8.32336 5.61177 8.32435 5.61187 8.32461L5.76935 9.13538L7.2461 5.14387H8.84361L6.4691 10.9864L4.8731 10.9879L3.60261 6.27336C4.35856 6.67384 5.00215 7.13721 5.37487 7.77487C5.27877 7.5731 5.15215 7.34534 4.99012 7.12087C4.80143 6.85946 4.39394 6.52195 4.22361 6.37836C3.63009 5.87803 2.82405 5.47394 1.95335 5.26012L1.9721 5.14387ZM9.47887 5.15061H11.0411L10.0638 10.9841H8.50161L9.47887 5.15061ZM18.3026 5.15061H19.4861L20.7251 10.9841H19.3046C19.3046 10.9841 19.1637 10.3139 19.1179 10.1096C18.8946 10.1096 17.3331 10.1074 17.1574 10.1074C17.0979 10.2653 16.8349 10.9841 16.8349 10.9841H15.2276L17.5009 5.63512C17.6618 5.25501 17.9362 5.15061 18.3026 5.15061ZM18.4189 6.71961C18.342 6.9366 18.2081 7.287 18.2171 7.27161C18.2171 7.27161 17.7362 8.55417 17.6104 8.88712L18.8741 8.88636C18.7567 8.3301 18.6392 7.77387 18.5216 7.21766L18.4189 6.71966V6.71961Z" fill="#F4E5F7"/>
</svg>
