<svg width="34" height="26" viewBox="0 0 34 26" fill="none" xmlns="http://www.w3.org/2000/svg">
<path opacity="0.4" fill-rule="evenodd" clip-rule="evenodd" d="M13.4963 19.5592C13.0506 19.7948 13.0263 19.882 12.9866 21.3862C12.9475 22.8702 12.9058 23.0564 12.5222 23.4607C12.2626 23.7344 11.7484 23.9802 11.434 23.981C10.9297 23.9823 10.4746 24.3337 10.3895 24.7873C10.3273 25.1191 10.5118 25.5498 10.8 25.7457C11.2246 26.0342 12.2089 25.9254 13.0221 25.5C13.4956 25.2522 14.1783 24.5843 14.4529 24.1004C14.8168 23.4587 14.9126 22.9152 14.9126 21.4923C14.9126 20.3599 14.9001 20.2152 14.7806 19.9684C14.6847 19.7704 14.5739 19.6595 14.3758 19.5636C14.0406 19.4014 13.7973 19.4001 13.4963 19.5592ZM16.4893 19.5768C16.0003 19.8572 16.002 19.8464 16.0022 22.6669C16.0022 25.4551 16.0036 25.4644 16.4441 25.7587C16.9005 26.0635 17.5638 25.8849 17.8123 25.3902C17.9133 25.1893 17.9244 24.9194 17.9245 22.6669C17.9246 20.3551 17.9156 20.1497 17.8058 19.9433C17.6614 19.6719 17.2675 19.4337 16.9633 19.4337C16.84 19.4337 16.6267 19.4981 16.4893 19.5768ZM19.546 19.5649C19.3538 19.66 19.2393 19.7757 19.1455 19.9696C19.0267 20.2149 19.014 20.3617 19.014 21.4923C19.014 22.9152 19.1098 23.4587 19.4738 24.1004C19.7483 24.5843 20.4311 25.2522 20.9045 25.5C21.7177 25.9254 22.702 26.0342 23.1267 25.7457C23.4149 25.5498 23.5993 25.1191 23.5371 24.7873C23.452 24.3337 22.9969 23.9823 22.4927 23.981C22.1782 23.9802 21.664 23.7344 21.4045 23.4607C21.0208 23.0564 20.9791 22.8702 20.94 21.3862C20.9002 19.8742 20.8762 19.7905 20.4166 19.5561C20.1041 19.3966 19.8814 19.3989 19.546 19.5649Z" fill="#2C2B46"/>
<path fill-rule="evenodd" clip-rule="evenodd" d="M3.70907 1.00408C3.52137 1.04952 3.12084 1.20903 2.819 1.3586C1.86138 1.83315 1.13639 2.68265 0.740221 3.79439L0.591801 4.21094L0.57232 9.44217C0.550338 15.3294 0.541751 15.1987 1.01489 16.1627C1.51225 17.1761 2.51549 18.0011 3.63377 18.3162C3.84256 18.375 4.38459 18.43 4.96353 18.4512L5.94082 18.487L5.94178 17.0845C5.94287 15.4872 5.99946 15.1319 6.37467 14.3684C6.72047 13.6646 7.45629 12.9381 8.18378 12.582C9.15306 12.1075 8.76432 12.1276 16.9634 12.1276C25.1624 12.1276 24.7737 12.1075 25.743 12.582C26.4705 12.9381 27.2063 13.6646 27.5521 14.3684C27.9273 15.1319 27.9839 15.4872 27.985 17.0845L27.9859 18.487L28.9632 18.4512C29.5422 18.43 30.0842 18.375 30.293 18.3162C31.4113 18.0011 32.4145 17.1761 32.9119 16.1627C33.385 15.1987 33.3764 15.3294 33.3544 9.44217L33.335 4.21094L33.1865 3.79439C32.7788 2.6501 32.0569 1.81905 31.0514 1.33662C30.7224 1.17872 30.3004 1.01831 30.1136 0.980053C29.5802 0.870917 4.16382 0.894051 3.70907 1.00408ZM23.9242 4.7276C24.3818 5.06974 24.5095 5.56339 24.2547 6.00531C24.0083 6.43263 23.8095 6.49351 22.731 6.47224C21.9185 6.45621 21.7804 6.43782 21.6317 6.32574C21.1766 5.98282 21.1025 5.37133 21.4608 4.91575C21.7005 4.61103 21.9065 4.56187 22.8708 4.5795C23.6415 4.59353 23.7688 4.61141 23.9242 4.7276ZM28.4973 4.67569C28.62 4.73727 28.7883 4.88864 28.8715 5.012C29.0776 5.31788 29.049 5.88823 28.815 6.13867C28.5249 6.44923 28.3776 6.48595 27.4219 6.48595C26.6023 6.48595 26.5135 6.47429 26.3132 6.34048C25.6986 5.92989 25.7527 5.01867 26.411 4.6928C26.7717 4.51426 28.1535 4.50291 28.4973 4.67569ZM9.60076 14.1172C8.97439 14.2403 8.30843 14.7698 8.04312 15.3558C7.90597 15.6587 7.89393 15.7819 7.87489 17.0759L7.85439 18.4698H16.9634H26.0724L26.0519 17.0759C26.0328 15.7819 26.0208 15.6587 25.8836 15.3558C25.7146 14.9825 25.254 14.5045 24.8763 14.3107C24.7345 14.2379 24.4638 14.1489 24.2748 14.1131C23.8495 14.0325 10.0126 14.0363 9.60076 14.1172Z" fill="#2C2B46"/>
</svg>
