<svg width="24" height="25" viewBox="0 0 24 25" fill="none" xmlns="http://www.w3.org/2000/svg">
<path fill-rule="evenodd" clip-rule="evenodd" d="M5 22.127C3.34315 22.127 2 20.7838 2 19.127V11.463C2 10.6126 2.36096 9.80208 2.99311 9.23316L9.9931 2.93316C11.134 1.90633 12.866 1.90633 14.0069 2.93316L21.0069 9.23316C21.639 9.80208 22 10.6126 22 11.463V19.127C22 20.7838 20.6569 22.127 19 22.127H5ZM20 11.463V19.127C20 19.6792 19.5523 20.127 19 20.127H16V15.127C16 13.4701 14.6569 12.127 13 12.127H11C9.34315 12.127 8 13.4701 8 15.127V20.127H5C4.44772 20.127 4 19.6792 4 19.127V11.463C4 11.1796 4.12032 10.9094 4.33104 10.7197L11.331 4.41975C11.7113 4.07747 12.2887 4.07747 12.669 4.41975L19.669 10.7197C19.8797 10.9094 20 11.1796 20 11.463ZM10 20.127V15.127C10 14.5747 10.4477 14.127 11 14.127H13C13.5523 14.127 14 14.5747 14 15.127V20.127H10Z" fill="#6759FF"/>
</svg>
