<svg width="12" height="13" viewBox="0 0 12 13" fill="none" xmlns="http://www.w3.org/2000/svg">
<path d="M6.00003 0.986603C2.86398 0.986603 0.312531 3.53805 0.312531 6.6741C0.312531 9.81016 2.86398 12.3616 6.00003 12.3616C9.13609 12.3616 11.6875 9.81016 11.6875 6.6741C11.6875 3.53805 9.13609 0.986603 6.00003 0.986603ZM8.18753 7.1116H6.43753V8.8616C6.43753 8.97763 6.39144 9.08891 6.30939 9.17096C6.22734 9.25301 6.11606 9.2991 6.00003 9.2991C5.884 9.2991 5.77272 9.25301 5.69067 9.17096C5.60862 9.08891 5.56253 8.97763 5.56253 8.8616V7.1116H3.81253C3.6965 7.1116 3.58522 7.06551 3.50317 6.98346C3.42112 6.90142 3.37503 6.79013 3.37503 6.6741C3.37503 6.55807 3.42112 6.44679 3.50317 6.36474C3.58522 6.2827 3.6965 6.2366 3.81253 6.2366H5.56253V4.4866C5.56253 4.37057 5.60862 4.25929 5.69067 4.17724C5.77272 4.0952 5.884 4.0491 6.00003 4.0491C6.11606 4.0491 6.22734 4.0952 6.30939 4.17724C6.39144 4.25929 6.43753 4.37057 6.43753 4.4866V6.2366H8.18753C8.30356 6.2366 8.41484 6.2827 8.49689 6.36474C8.57894 6.44679 8.62503 6.55807 8.62503 6.6741C8.62503 6.79013 8.57894 6.90142 8.49689 6.98346C8.41484 7.06551 8.30356 7.1116 8.18753 7.1116Z" fill="#6759FF"/>
</svg>
