<svg width="25" height="25" viewBox="0 0 25 25" fill="none" xmlns="http://www.w3.org/2000/svg">
<path fill-rule="evenodd" clip-rule="evenodd" d="M16.9947 14.6786C17.8232 13.6451 18.3175 12.3369 18.3175 10.9078C18.3175 7.57491 15.6156 4.87305 12.2827 4.87305C8.94979 4.87305 6.24792 7.57491 6.24792 10.9078C6.24792 12.3368 6.74208 13.6449 7.57045 14.6783L7.57641 14.6858C7.7518 14.9043 7.91416 15.1343 8.08286 15.358C8.37584 15.7464 8.789 16.2919 9.26903 16.9193C10.1636 18.0884 11.281 19.5296 12.2834 20.7669C13.289 19.5269 14.409 18.0835 15.3053 16.9129C15.7862 16.2848 16.2 15.7388 16.4934 15.35C16.6612 15.1276 16.8205 14.896 16.9947 14.6786ZM18.5581 15.9319C18.5581 15.9319 18.5564 15.9342 18.5552 15.9358C18.504 16.0043 18.0338 16.6326 17.3524 17.5274C16.3415 18.855 14.8658 20.7692 13.6042 22.3123C12.914 23.1565 11.6516 23.1562 10.9619 22.3117C8.80554 19.6715 6.01669 15.9377 6.01669 15.9377L6.01018 15.9296C4.9075 14.554 4.24792 12.8079 4.24792 10.9078C4.24792 6.47034 7.84522 2.87305 12.2827 2.87305C16.7202 2.87305 20.3175 6.47034 20.3175 10.9078C20.3175 12.0901 20.0622 13.2127 19.6036 14.2235C19.3262 14.835 18.9745 15.4056 18.5599 15.9238L18.557 15.9274L18.5552 15.9296H18.5599L18.5581 15.9319Z" fill="#D1D3D4"/>
<path fill-rule="evenodd" clip-rule="evenodd" d="M12.2827 11.873C12.835 11.873 13.2827 11.4253 13.2827 10.873C13.2827 10.3208 12.835 9.87305 12.2827 9.87305C11.7304 9.87305 11.2827 10.3208 11.2827 10.873C11.2827 11.4253 11.7304 11.873 12.2827 11.873ZM15.2827 10.873C15.2827 12.5299 13.9396 13.873 12.2827 13.873C10.6259 13.873 9.28271 12.5299 9.28271 10.873C9.28271 9.21619 10.6259 7.87305 12.2827 7.87305C13.9396 7.87305 15.2827 9.21619 15.2827 10.873Z" fill="#D1D3D4"/>
</svg>
