<svg width="29" height="29" viewBox="0 0 29 29" fill="none" xmlns="http://www.w3.org/2000/svg">
<path opacity="0.4" fill-rule="evenodd" clip-rule="evenodd" d="M12.4977 6.36898C12.0412 6.48323 11.6994 6.67833 11.3551 7.02131C11.0005 7.37459 10.7862 7.7636 10.6874 8.23314C10.6508 8.40699 10.627 9.1514 10.627 10.1175V11.7145H19.5742H28.5214V10.1175C28.5214 9.13204 28.4978 8.41046 28.4599 8.23314C28.26 7.29916 27.509 6.54771 26.5801 6.35238C26.1454 6.26091 12.867 6.27658 12.4977 6.36898ZM21.5819 8.29897C21.8225 8.42174 22.0143 8.73413 22.0143 9.0032C22.0143 9.41764 21.6134 9.81658 21.1969 9.81658C20.9447 9.81658 20.6097 9.6057 20.4904 9.37182C20.2901 8.97928 20.4158 8.55074 20.7993 8.3186C21.0589 8.16146 21.3004 8.15538 21.5819 8.29897ZM24.8354 8.29897C25.076 8.42174 25.2678 8.73413 25.2678 9.0032C25.2678 9.41764 24.8669 9.81658 24.4504 9.81658C24.1982 9.81658 23.8632 9.6057 23.7439 9.37182C23.5437 8.97928 23.6694 8.55074 24.0528 8.3186C24.3124 8.16146 24.554 8.15538 24.8354 8.29897Z" fill="#2C2B46"/>
<path fill-rule="evenodd" clip-rule="evenodd" d="M2.6303 0.837442C2.17372 0.951695 1.83194 1.1468 1.48766 1.48977C1.13308 1.84305 0.918727 2.23207 0.819982 2.70161C0.778879 2.89703 0.759521 4.19422 0.759521 6.75496V10.521H4.88066H9.00179V9.43419C9.00179 8.23255 9.06746 7.76431 9.32096 7.15796C9.71339 6.21938 10.538 5.39363 11.4842 4.99166C12.2021 4.68669 12.4478 4.66462 15.127 4.66462H17.5694V3.82678C17.5694 3.36598 17.5418 2.85967 17.5079 2.70161C17.3081 1.76763 16.557 1.01617 15.6282 0.820849C15.1942 0.729533 2.9992 0.74515 2.6303 0.837442ZM5.20742 5.20758C5.34521 5.27786 5.46039 5.39303 5.53066 5.53082C5.63071 5.72701 5.63981 5.84902 5.63981 6.99632C5.63981 8.14362 5.63071 8.26563 5.53066 8.46182C5.40724 8.70372 5.09518 8.89421 4.82242 8.89421C4.57022 8.89421 4.23521 8.68333 4.11591 8.44945C4.02341 8.26812 4.01327 8.12063 4.01533 6.98493C4.01788 5.55376 4.03968 5.46033 4.42479 5.22721C4.68442 5.07007 4.92594 5.06399 5.20742 5.20758ZM0.759521 19.2215C0.759521 24.2899 0.776984 26.3767 0.821015 26.5826C1.0204 27.5142 1.76914 28.263 2.70074 28.4623C2.89768 28.5045 4.06174 28.5238 6.40098 28.5238H9.81382L9.62533 28.2292C9.43224 27.9273 9.27211 27.5662 9.11876 27.0869C9.04143 26.845 9.03026 26.0246 9.01562 19.4817L8.99914 12.1477H4.87935H0.759521V19.2215ZM10.6286 19.818C10.6286 24.4417 10.6462 26.3775 10.6901 26.5826C10.8894 27.5142 11.6382 28.263 12.5698 28.4623C12.9729 28.5486 26.1723 28.5495 26.5818 28.4633C27.502 28.2695 28.2704 27.5012 28.4628 26.5826C28.5049 26.3814 28.523 24.3539 28.523 19.818V13.3407H19.5758H10.6286V19.818ZM5.20742 13.8837C5.34521 13.9539 5.46039 14.0691 5.53066 14.2069C5.63505 14.4115 5.63981 14.5227 5.63981 16.7569C5.63981 18.9911 5.63505 19.1023 5.53066 19.3069C5.40724 19.5488 5.09518 19.7393 4.82242 19.7393C4.57022 19.7393 4.23521 19.5284 4.11591 19.2945C4.0195 19.1056 4.01321 18.9459 4.01533 16.7455C4.01788 14.1035 4.01061 14.154 4.42479 13.9033C4.68442 13.7461 4.92594 13.7401 5.20742 13.8837ZM20.8501 15.1266C22.6569 15.5978 24.073 17.0223 24.573 18.8717C24.6762 19.253 24.6977 19.4684 24.6977 20.1189C24.6977 20.7693 24.6762 20.9848 24.573 21.3661C24.0733 23.2142 22.6768 24.6207 20.8501 25.1156C20.2081 25.2896 18.975 25.2892 18.3286 25.115C16.4757 24.6155 15.0829 23.2297 14.5763 21.3815C14.4095 20.7731 14.4095 19.4647 14.5763 18.8563C15.1366 16.8122 16.7829 15.3441 18.8979 15.0027C19.2738 14.942 20.422 15.0149 20.8501 15.1266ZM18.8166 16.6785C17.8432 16.8876 16.8812 17.643 16.438 18.5463C16.1834 19.0652 16.053 19.5979 16.053 20.1189C16.053 21.4153 16.8439 22.6878 18.0032 23.2566C19.0474 23.769 20.1041 23.769 21.1483 23.2566C22.0636 22.8075 22.8107 21.8467 23.0191 20.8509C23.185 20.0579 23.085 19.3033 22.7135 18.5463C22.3962 17.8996 21.795 17.2985 21.1483 16.9811C20.3941 16.611 19.6067 16.5089 18.8166 16.6785Z" fill="#2C2B46"/>
</svg>
