<svg width="21" height="25" viewBox="0 0 21 25" fill="none" xmlns="http://www.w3.org/2000/svg">
<path d="M17.8103 12.8519C17.8329 15.2128 19.2053 16.5568 20.1852 17.2171C20.7062 17.5683 21.0185 18.188 20.7756 18.7564C20.4996 19.4025 20.0629 20.2832 19.4308 21.1789C18.3918 22.6511 17.3136 24.1179 15.615 24.1482C13.9459 24.178 13.4093 23.1887 11.5011 23.1887C9.59347 23.1887 8.99718 24.1179 7.41725 24.1781C5.77768 24.2383 4.52912 22.5862 3.4816 21.1193C1.34104 18.1189 -0.294792 12.6409 1.90172 8.94319C2.9929 7.10688 4.94292 5.94405 7.05949 5.91423C8.66951 5.88445 10.1891 6.96439 11.1734 6.96439C12.157 6.96439 14.0037 5.66567 15.9451 5.85641C16.6124 5.88333 18.2696 6.0806 19.6522 7.3009C20.1773 7.76433 19.9903 8.55193 19.4839 9.03449C18.7137 9.76842 17.7934 11.0275 17.8103 12.8519ZM14.6735 3.87139C15.3121 3.12199 15.7975 2.15705 15.9477 1.13748C16.0403 0.508805 15.4536 0.0265111 14.8313 0.224847C13.8857 0.526256 12.9366 1.12008 12.2981 1.84439C11.6803 2.53701 11.1212 3.5483 10.9791 4.60708C10.9032 5.17275 11.4035 5.63223 11.9787 5.51231C13.0273 5.29372 14.0117 4.64853 14.6735 3.87139Z" fill="#1A1D1F"/>
</svg>
