<svg width="24" height="25" viewBox="0 0 24 25" fill="none" xmlns="http://www.w3.org/2000/svg">
<path fill-rule="evenodd" clip-rule="evenodd" d="M21 19.873C21 21.5299 19.6569 22.873 18 22.873H6C4.34315 22.873 3 21.5299 3 19.873V5.87305C3 4.21619 4.34315 2.87305 6 2.87305H16L16.0107 2.88376C16.7136 2.9433 17.3761 3.24914 17.8787 3.75173L20.1213 5.99437C20.6239 6.49695 20.9297 7.1595 20.9893 7.86234L21 7.87305V19.873ZM18 20.873H6C5.44772 20.873 5 20.4253 5 19.873V5.87305C5 5.32076 5.44771 4.87305 6 4.87305H15V6.87305C15 7.97762 15.8954 8.87305 17 8.87305H19V19.873C19 20.4253 18.5523 20.873 18 20.873Z" fill="#6F767E"/>
<path d="M13 10.873C13 10.3208 12.5523 9.87305 12 9.87305C11.4477 9.87305 11 10.3208 11 10.873L11 12.873H9C8.44772 12.873 8 13.3208 8 13.873C8 14.4253 8.44772 14.873 9 14.873H11L11 16.873C11 17.4253 11.4477 17.873 12 17.873C12.5523 17.873 13 17.4253 13 16.873L13 14.873H15C15.5523 14.873 16 14.4253 16 13.873C16 13.3208 15.5523 12.873 15 12.873H13L13 10.873Z" fill="#6F767E"/>
</svg>
