<svg width="23" height="23" viewBox="0 0 23 23" fill="none" xmlns="http://www.w3.org/2000/svg">
<path opacity="0.4" fill-rule="evenodd" clip-rule="evenodd" d="M20.184 1.60791L18.4611 2.1798V5.85246V9.52517L20.1801 10.0966C21.6444 10.5834 21.9277 10.6648 22.0922 10.6463C22.3213 10.6204 22.4754 10.5156 22.5852 10.3108C22.6618 10.1681 22.6655 9.96294 22.6655 5.84332V1.52547L22.5679 1.38218C22.5143 1.30338 22.42 1.20152 22.3583 1.15587C22.1183 0.978162 22.0191 0.998794 20.184 1.60791Z" fill="#2C2B46"/>
<path fill-rule="evenodd" clip-rule="evenodd" d="M5.07127 0.495598C4.61524 0.575438 3.91601 0.807461 3.49973 1.01712C2.48599 1.52759 1.5234 2.48727 1.02507 3.48424C0.0146229 5.50582 0.432118 8.0107 2.04991 9.63347C3.01826 10.6048 4.23083 11.1621 5.59691 11.2636C6.37598 11.3214 5.89043 11.3965 14.1261 9.94473C15.6875 9.66945 17.009 9.43409 17.0626 9.42165L17.1602 9.39911V5.84569C17.1602 3.89129 17.1447 2.29227 17.1258 2.29227C17.1069 2.29227 14.7712 1.88097 11.9353 1.37831C6.95992 0.496421 6.75563 0.463783 6.10733 0.448092C5.64285 0.436823 5.32305 0.451517 5.07127 0.495598ZM6.39193 3.85614C6.76785 3.92458 7.17468 4.14017 7.45074 4.41727C8.25426 5.2237 8.25592 6.47891 7.45448 7.28035C6.64849 8.08634 5.39279 8.08634 4.5868 7.28035C4.07261 6.76615 3.88181 6.08807 4.05025 5.37349C4.22441 4.63464 4.83591 4.03627 5.5872 3.86949C5.89416 3.80135 6.0746 3.79836 6.39193 3.85614ZM5.78676 5.15465C5.62426 5.20328 5.41906 5.39746 5.34347 5.57422C5.14621 6.03523 5.50758 6.58072 6.01154 6.58267C6.48066 6.58445 6.82629 6.1618 6.73847 5.69377C6.69985 5.48788 6.44521 5.21 6.24396 5.15408C6.05935 5.10281 5.95957 5.10294 5.78676 5.15465ZM8.05783 12.3238L5.78225 12.7238L5.79612 12.8286C5.86907 13.3804 6.56474 17.2334 6.62209 17.4033C6.73665 17.7427 6.96936 18.0973 7.24659 18.355C7.52101 18.6099 8.01457 18.8715 8.31079 18.9188C8.5214 18.9524 8.51581 18.9435 8.66248 19.4783C8.98215 20.6438 9.90928 21.6834 11.0389 22.1429C11.618 22.3785 11.8795 22.4243 12.6307 22.4216C13.2548 22.4193 13.3623 22.4074 13.7048 22.303C15.162 21.8587 16.1976 20.7863 16.6038 19.301C16.6891 18.989 16.6998 18.816 16.7229 17.3761C16.7481 15.8133 16.7496 15.7921 16.85 15.6306C16.9847 15.4141 17.1811 15.2695 17.4318 15.2025C17.8007 15.1038 18.2048 15.2782 18.4239 15.6306L18.5255 15.7941L18.5472 18.9183L18.5689 22.0425L18.6876 22.1981C18.8273 22.3812 19.0489 22.4671 19.2962 22.434C19.51 22.4053 19.6609 22.2983 19.7673 22.0999C19.8432 21.9584 19.8475 21.7861 19.8475 18.9068C19.8475 16.8524 19.832 15.7887 19.7996 15.6336C19.714 15.2233 19.5128 14.8661 19.1797 14.5336C18.6183 13.9733 17.9007 13.7583 17.1678 13.9311C16.413 14.1091 15.8169 14.6367 15.5453 15.3672C15.4569 15.6049 15.4494 15.7202 15.425 17.2244C15.4004 18.7348 15.3931 18.8458 15.3004 19.1316C15.0091 20.0295 14.3462 20.7049 13.4445 21.0224C13.0509 21.161 12.4132 21.1805 11.9665 21.0675C10.9463 20.8095 10.1979 20.0999 9.90483 19.1129C9.80843 18.788 9.81129 18.777 10.0192 18.6711C10.1205 18.6195 10.3417 18.4387 10.5108 18.2693C10.8801 17.8993 11.0723 17.529 11.1621 17.0146C11.2368 16.5864 11.2464 16.6632 10.7878 14.0064C10.5975 12.904 10.4418 11.9824 10.4418 11.9584C10.4418 11.9006 10.6305 11.8716 8.05783 12.3238Z" fill="#2C2B46"/>
</svg>
