<svg width="26" height="26" viewBox="0 0 26 26" fill="none" xmlns="http://www.w3.org/2000/svg">
<path fill-rule="evenodd" clip-rule="evenodd" d="M9.28162 3.23002C9.28162 2.65472 8.81525 2.18835 8.23995 2.18835C7.66465 2.18835 7.19828 2.65472 7.19828 3.23002V4.27169H6.15662C4.43073 4.27169 3.03162 5.6708 3.03162 7.39669V19.8967C3.03162 21.6226 4.43073 23.0217 6.15662 23.0217H20.74C22.4658 23.0217 23.865 21.6226 23.865 19.8967V7.39669C23.865 5.6708 22.4658 4.27169 20.74 4.27169H19.6983V3.23002C19.6983 2.65472 19.2319 2.18835 18.6566 2.18835C18.0813 2.18835 17.615 2.65472 17.615 3.23002V4.27169H9.28162V3.23002ZM18.3515 12.2999C18.7583 11.8931 18.7583 11.2336 18.3515 10.8268C17.9447 10.42 17.2852 10.42 16.8784 10.8268L12.4066 15.2985L10.539 13.431C10.1322 13.0242 9.47268 13.0242 9.06588 13.431C8.65908 13.8377 8.65908 14.4973 9.06588 14.9041L11.67 17.5083C12.0768 17.9151 12.7364 17.9151 13.1432 17.5083L18.3515 12.2999Z" fill="#2C2B46"/>
</svg>
