<svg width="26" height="25" viewBox="0 0 26 25" fill="none" xmlns="http://www.w3.org/2000/svg">
<path fill-rule="evenodd" clip-rule="evenodd" d="M13 22.9167C18.753 22.9167 23.4167 18.253 23.4167 12.5C23.4167 6.74707 18.753 2.08337 13 2.08337C7.24707 2.08337 2.58337 6.74707 2.58337 12.5C2.58337 18.253 7.24707 22.9167 13 22.9167ZM14.0417 7.29171C14.0417 6.71641 13.5753 6.25004 13 6.25004C12.4247 6.25004 11.9584 6.71641 11.9584 7.29171V12.0686C11.9584 12.6211 12.1779 13.151 12.5686 13.5417L14.8676 15.8408C15.2744 16.2476 15.934 16.2476 16.3408 15.8408C16.7476 15.434 16.7476 14.7744 16.3408 14.3676L14.0417 12.0686V7.29171Z" fill="#2C2B46"/>
</svg>
