<svg width="20" height="20" viewBox="0 0 20 20" fill="none" xmlns="http://www.w3.org/2000/svg">
<path fill-rule="evenodd" clip-rule="evenodd" d="M6.57369 4.50226L5.06605 2.44639C4.96353 2.30659 4.76978 2.27096 4.62423 2.36514C2.6518 3.64142 2.10961 5.59101 2.90094 7.02821C3.76636 8.59999 5.10113 10.5276 7.14849 12.5749C9.19585 14.6223 11.1234 15.9571 12.6952 16.8225C14.1324 17.6138 16.082 17.0716 17.3583 15.0992C17.4525 14.9536 17.4168 14.7599 17.277 14.6574L15.2212 13.1497C14.9189 12.928 14.5179 12.8941 14.1826 13.0617L13.3631 13.4715C12.6662 13.8199 11.7107 13.9424 10.8063 13.4771C10.2017 13.166 9.2697 12.5748 8.20915 11.5143C7.1486 10.4537 6.55743 9.52179 6.24636 8.91712C5.78106 8.0127 5.90349 7.05727 6.25198 6.36029L6.66171 5.54083C6.82937 5.20551 6.79539 4.80458 6.57369 4.50226ZM3.53772 0.686C0.997213 2.32986 -0.310546 5.34214 1.14895 7.99286C2.10148 9.72283 3.54832 11.8032 5.73428 13.9892C7.92024 16.1751 10.0006 17.622 11.7306 18.5745C14.3813 20.034 17.3936 18.7262 19.0374 16.1857C19.707 15.1509 19.4537 13.7735 18.4598 13.0446L16.4039 11.5369C15.4969 10.8718 14.2941 10.7699 13.2882 11.2729L12.4687 11.6826C12.2315 11.8012 11.9571 11.82 11.7213 11.6986C11.2916 11.4776 10.5302 11.0069 9.62336 10.1001C8.71657 9.19328 8.24585 8.43184 8.0248 8.00218C7.90347 7.76634 7.92223 7.49193 8.04084 7.25472L8.45056 6.43526C8.95355 5.4293 8.85161 4.2265 8.1865 3.31953L6.67886 1.26367C5.94997 0.26972 4.57255 0.0164077 3.53772 0.686Z" fill="white"/>
</svg>
