<svg width="34" height="34" viewBox="0 0 34 34" fill="none" xmlns="http://www.w3.org/2000/svg">
<path opacity="0.4" fill-rule="evenodd" clip-rule="evenodd" d="M4.82169 1.0094C4.50066 1.17213 4.30686 1.49271 4.30686 1.86114C4.30686 2.22956 4.50066 2.55014 4.82169 2.71287C5.02749 2.81722 5.29344 2.8248 8.20195 2.8092C11.2766 2.79276 11.3634 2.78884 11.536 2.65989C11.8542 2.42215 11.9705 2.20837 11.9705 1.86114C11.9705 1.5139 11.8542 1.30012 11.536 1.06238C11.3634 0.933431 11.2766 0.929514 8.20195 0.913074C5.29344 0.897469 5.02749 0.905046 4.82169 1.0094ZM29.9211 1.0067C29.7982 1.07047 29.6321 1.22081 29.552 1.34083C29.4251 1.53079 29.4062 1.64086 29.4062 2.19173V2.82442L28.8125 2.82454C28.1239 2.82461 27.8547 2.92511 27.6262 3.2674C27.3208 3.7247 27.4997 4.38943 27.9953 4.63847C28.1597 4.72118 28.3753 4.75079 28.8125 4.75085L29.4062 4.75098V5.38366C29.4062 5.93453 29.4251 6.0446 29.552 6.23456C29.9426 6.81966 30.7178 6.80604 31.1654 6.20624C31.2701 6.06579 31.3005 5.90814 31.321 5.39721L31.3465 4.76254L31.9766 4.7407C32.4909 4.72292 32.6394 4.69453 32.7839 4.58645C33.1021 4.34858 33.2183 4.13486 33.2183 3.7877C33.2183 3.44053 33.1021 3.22681 32.7839 2.98894C32.6394 2.88086 32.4909 2.85248 31.9766 2.83469L31.3465 2.81286L31.321 2.17818C31.2938 1.50003 31.2281 1.33884 30.87 1.07137C30.6325 0.894001 30.1957 0.864267 29.9211 1.0067ZM0.905929 4.86253C0.584901 5.02526 0.391113 5.34584 0.391113 5.71426C0.391113 6.08268 0.584901 6.40326 0.905929 6.56599C1.1118 6.67035 1.37922 6.67793 4.31829 6.66232C7.42534 6.64588 7.51175 6.64203 7.68442 6.51301C8.00263 6.27528 8.11895 6.06149 8.11895 5.71426C8.11895 5.36703 8.00263 5.15325 7.68442 4.91551C7.51175 4.78649 7.42534 4.78264 4.31829 4.7662C1.37922 4.75059 1.1118 4.75817 0.905929 4.86253ZM24.0795 28.107C23.9567 28.1708 23.7905 28.3211 23.7104 28.4411C23.5836 28.6311 23.5647 28.7412 23.5647 29.292V29.9247L22.9709 29.9249C22.2824 29.9249 22.0132 30.0254 21.7846 30.3677C21.4793 30.825 21.6582 31.4897 22.1537 31.7388C22.3182 31.8215 22.5338 31.8511 22.9709 31.8512L23.5647 31.8513V32.484C23.5647 33.0348 23.5836 33.1449 23.7104 33.3349C24.1011 33.92 24.8762 33.9064 25.3238 33.3066C25.4286 33.1661 25.459 33.0084 25.4794 32.4975L25.5049 31.8629L26.1351 31.841C26.6493 31.8232 26.7979 31.7948 26.9424 31.6868C27.2605 31.4489 27.3768 31.2352 27.3768 30.888C27.3768 30.5408 27.2605 30.3271 26.9424 30.0893C26.7979 29.9812 26.6493 29.9528 26.1351 29.935L25.5049 29.9132L25.4794 29.2785C25.4522 28.6003 25.3865 28.4392 25.0284 28.1717C24.791 27.9943 24.3542 27.9646 24.0795 28.107Z" fill="#2C2B46"/>
<path fill-rule="evenodd" clip-rule="evenodd" d="M17.2416 2.42036C16.4089 2.53307 15.2526 2.98292 14.4975 3.48807C13.7077 4.01633 10.3264 7.43566 9.9884 8.04773C9.59233 8.76511 9.43249 9.35676 9.39577 10.2419L9.36374 11.0125L12.0509 8.34384C14.8975 5.51693 15.0092 5.42388 15.8571 5.17471C16.3098 5.04171 17.2105 5.04171 17.6632 5.17471C18.5749 5.44263 19.3598 6.10016 19.7667 6.93668L20.0025 7.4214L20.4516 7.26586C21.0894 7.04489 21.9394 7.04623 22.5761 7.26927C24.5093 7.9462 25.3799 9.95849 24.5708 11.8795C24.5405 11.9513 24.6563 12.0355 25.0263 12.2106C26.6509 12.9793 27.3455 14.9116 26.6182 16.6389C26.5841 16.7201 26.6817 16.7934 27.0695 16.9776C27.6701 17.2629 28.3199 17.8897 28.5872 18.4415C29.0915 19.4828 29.0808 20.5979 28.5566 21.6034C28.3936 21.9161 27.9531 22.3973 26.344 24.0199C25.239 25.1341 24.3349 26.0699 24.3349 26.0993C24.3349 26.1287 24.7177 26.1388 25.1854 26.1217C25.886 26.0961 26.1266 26.0601 26.5495 25.917C27.5308 25.5851 27.808 25.3709 29.7481 23.4456C31.6665 21.5418 32.0114 21.139 32.4489 20.2921C33.3787 18.4919 33.4424 16.2298 32.6149 14.4039C32.1091 13.288 32.1043 13.2826 27.262 8.42328C22.2924 3.43624 22.2208 3.3726 21.0258 2.88434C20.1285 2.51766 19.3363 2.37297 18.2907 2.38472C17.8196 2.38999 17.3475 2.40604 17.2416 2.42036ZM16.1428 7.11392C16.0327 7.17422 13.7218 9.42772 11.0073 12.1216C6.29711 16.7963 6.07001 17.0116 6.0277 16.8417C6.00331 16.7438 5.90997 15.3344 5.82036 13.7097L5.65744 10.7556L5.44746 10.3407C4.84231 9.14432 3.23551 8.91532 2.3474 9.89877C1.95775 10.3303 1.88142 10.5842 1.76992 11.8207C1.58331 13.8895 1.45922 14.9144 0.935089 18.7188C0.437916 22.3273 0.427396 22.4403 0.425149 24.2095C0.423416 25.5733 0.443378 25.9436 0.544289 26.425C0.908134 28.1605 1.68807 29.548 3.08305 30.941C4.43835 32.2945 6.08925 33.1797 8.02993 33.5936C8.91264 33.7818 10.6967 33.8009 11.607 33.6318C12.8935 33.3928 14.1945 32.8654 15.3111 32.1304C15.8968 31.7447 16.467 31.1961 21.3654 26.3052C24.5128 23.1627 26.8188 20.8111 26.8825 20.6792C26.9426 20.5546 27.0031 20.2793 27.017 20.0674C27.0678 19.292 26.4991 18.6366 25.7194 18.572C25.0675 18.5179 25.0631 18.5212 22.7622 20.8083C20.4856 23.0711 20.4928 23.0656 19.9442 22.9627C19.3347 22.8483 19.025 22.1634 19.3235 21.59C19.3917 21.459 20.6368 20.1669 22.0904 18.7188C23.8467 16.9689 24.7736 15.9996 24.8536 15.8289C25.0995 15.3043 24.9644 14.5659 24.5516 14.1787C24.1655 13.8164 23.498 13.6987 23.0008 13.9051C22.8384 13.9725 21.8801 14.8842 20.0019 16.7579C17.5884 19.1655 17.2114 19.5171 17.0009 19.5558C16.2426 19.6951 15.6883 19.1406 15.827 18.3816C15.8657 18.1699 16.2849 17.7254 19.2939 14.7051C21.1766 12.8155 22.759 11.1827 22.8106 11.0767C22.959 10.7717 22.99 10.4882 22.9144 10.1273C22.8568 9.85189 22.7844 9.73372 22.5071 9.4624C22.012 8.97793 21.4594 8.88514 20.8685 9.18722C20.7449 9.25041 19.1561 10.7942 17.3379 12.618C15.5196 14.4417 13.9248 15.9897 13.7938 16.058C13.2206 16.3567 12.536 16.0469 12.4217 15.4371C12.3165 14.8762 12.2557 14.9514 15.2217 11.9758C17.0947 10.0968 18.0059 9.1381 18.0733 8.97562C18.37 8.26067 18.0226 7.39051 17.3239 7.09857C17.0068 6.96609 16.398 6.97399 16.1428 7.11392Z" fill="#2C2B46"/>
</svg>
