<svg width="12" height="12" viewBox="0 0 12 12" fill="none" xmlns="http://www.w3.org/2000/svg">
<path d="M1.58922 0.410749C1.26378 0.0853126 0.736141 0.0853125 0.410704 0.410749C0.0852668 0.736186 0.0852666 1.26382 0.410704 1.58926L4.82146 6.00002L0.410728 10.4107C0.0852909 10.7362 0.0852909 11.2638 0.410728 11.5893C0.736165 11.9147 1.2638 11.9147 1.58924 11.5893L5.99997 7.17853L10.4107 11.5893C10.7361 11.9147 11.2638 11.9147 11.5892 11.5893C11.9147 11.2638 11.9147 10.7362 11.5892 10.4108L7.17848 6.00002L11.5892 1.58926C11.9147 1.26382 11.9147 0.736187 11.5892 0.41075C11.2638 0.0853136 10.7362 0.0853139 10.4107 0.41075L5.99997 4.82151L1.58922 0.410749Z" fill="#33383F"/>
</svg>
