<svg width="24" height="25" viewBox="0 0 24 25" fill="none" xmlns="http://www.w3.org/2000/svg">
<path fill-rule="evenodd" clip-rule="evenodd" d="M12 2.87305C12.5523 2.87305 13 3.32076 13 3.87305V4.93494C16.6187 5.38619 19.4869 8.25433 19.9381 11.873H21C21.5523 11.873 22 12.3208 22 12.873C22 13.4253 21.5523 13.873 21 13.873H19.9381C19.4869 17.4918 16.6187 20.3599 13 20.8112V21.873C13 22.4253 12.5523 22.873 12 22.873C11.4477 22.873 11 22.4253 11 21.873V20.8112C7.38128 20.3599 4.51314 17.4918 4.06189 13.873H3C2.44772 13.873 2 13.4253 2 12.873C2 12.3208 2.44772 11.873 3 11.873H4.06189C4.51314 8.25433 7.38128 5.38619 11 4.93494V3.87305C11 3.32076 11.4477 2.87305 12 2.87305ZM12 18.873C15.3137 18.873 18 16.1868 18 12.873C18 9.55934 15.3137 6.87305 12 6.87305C8.68629 6.87305 6 9.55934 6 12.873C6 16.1868 8.68629 18.873 12 18.873Z" fill="#643EFF"/>
<path d="M15 12.873C15 14.5299 13.6569 15.873 12 15.873C10.3431 15.873 9 14.5299 9 12.873C9 11.2162 10.3431 9.87305 12 9.87305C13.6569 9.87305 15 11.2162 15 12.873Z" fill="#643EFF"/>
</svg>
