<svg width="14" height="15" viewBox="0 0 14 15" fill="none" xmlns="http://www.w3.org/2000/svg">
<path fill-rule="evenodd" clip-rule="evenodd" d="M8.47907 2.72106C9.16248 2.03764 10.2705 2.03764 10.9539 2.72106L11.7789 3.54602C12.4623 4.22943 12.4623 5.33747 11.7789 6.02089L5.7166 12.0832C5.63517 12.1646 5.53145 12.2201 5.41852 12.2427L2.32493 12.8614C1.91676 12.9431 1.55689 12.5832 1.63853 12.175L2.25724 9.08143C2.27983 8.9685 2.33534 8.86479 2.41677 8.78335L8.47907 2.72106ZM10.129 3.54602L10.9539 4.37097C11.1817 4.59878 11.1817 4.96813 10.9539 5.19593L10.129 6.02089L8.47906 4.37098L9.30402 3.54602C9.53183 3.31821 9.90118 3.31821 10.129 3.54602ZM7.65411 5.19593L3.36662 9.48342L2.95414 11.5458L5.01653 11.1333L9.30402 6.84585L7.65411 5.19593Z" fill="#6759FF"/>
</svg>
