<svg width="22" height="34" viewBox="0 0 22 34" fill="none" xmlns="http://www.w3.org/2000/svg">
<path fill-rule="evenodd" clip-rule="evenodd" d="M4.52427 0.982411C4.2865 1.09248 4.07332 1.31905 3.98293 1.55768C3.93864 1.67462 3.91444 2.63206 3.91444 4.26778V6.7971L2.31418 6.8163C0.553499 6.83743 0.556324 6.83678 0.227336 7.27765C0.099592 7.44885 0.0949707 7.53279 0.0949707 9.69323C0.0949707 11.8537 0.099592 11.9376 0.227336 12.1088C0.507345 12.4841 0.664549 12.5492 1.34576 12.5729L1.97774 12.5948L2.00593 15.559C2.03205 18.3026 2.04451 18.5699 2.17315 19.1491C2.55715 20.8781 3.31251 22.2585 4.55509 23.5015C5.56471 24.5116 6.63827 25.1822 7.93714 25.6143C8.49485 25.7999 9.37609 26.0048 9.61611 26.0048C9.71894 26.0048 9.75111 26.0839 9.81838 26.5025C10.0205 27.76 10.6711 29.278 11.4517 30.3134C12.9715 32.3292 15.3372 33.5981 17.8641 33.7528C18.42 33.7868 18.5632 33.7752 18.7638 33.68C19.4165 33.3701 19.5032 32.4457 18.9185 32.0292C18.7652 31.92 18.5803 31.8799 18.0345 31.8375C15.511 31.6412 13.417 30.2614 12.3505 28.0919C12.0694 27.52 11.6818 26.3475 11.6818 26.0689C11.6818 26.0426 11.9373 25.9744 12.2496 25.9172C13.9243 25.6107 15.4011 24.8397 16.6671 23.6108C18.0734 22.2458 18.9397 20.5787 19.2273 18.6839C19.297 18.225 19.3201 17.3948 19.3203 15.3343L19.3207 12.5948L19.9787 12.5729C20.535 12.5544 20.6677 12.5288 20.8374 12.4078C21.2355 12.1237 21.2465 12.0508 21.2465 9.69323C21.2465 7.3357 21.2355 7.26281 20.8374 6.97871C20.6444 6.84102 20.5739 6.83473 19.0158 6.81636L17.3949 6.79723V4.2252C17.3949 1.38249 17.3921 1.36053 16.9858 1.07058C16.8403 0.966742 16.6937 0.927375 16.4528 0.927375C16.0938 0.927375 15.8759 1.04496 15.6336 1.36946C15.5057 1.54073 15.5006 1.63532 15.4831 4.17505L15.465 6.80339H10.6526H5.84022V4.22828C5.84022 1.39213 5.83605 1.35931 5.44127 1.0781C5.2042 0.909202 4.77847 0.864762 4.52427 0.982411ZM11.0796 12.6873C11.4785 12.8767 11.7035 13.388 11.5889 13.8448C11.5641 13.9435 11.2863 14.2856 10.9642 14.6143L10.3841 15.206L11.7994 15.9185C13.263 16.6552 13.4429 16.7875 13.5167 17.1812C13.6125 17.6918 13.5425 17.8019 12.3662 18.9926C11.7603 19.606 11.1865 20.1488 11.0912 20.1987C10.5416 20.4862 9.79944 20.0624 9.71214 19.4112C9.66457 19.0564 9.79989 18.8216 10.4181 18.1865C10.7016 17.8953 10.9213 17.646 10.9064 17.6325C10.8916 17.6191 10.2392 17.2865 9.45672 16.8936C8.08004 16.2022 8.02978 16.1701 7.90004 15.9021C7.61265 15.3081 7.74553 15.0645 9.07227 13.7524C9.64956 13.1816 10.1912 12.6868 10.2759 12.6529C10.5124 12.5582 10.8369 12.5722 11.0796 12.6873Z" fill="#2C2B46"/>
</svg>
