<svg width="24" height="25" viewBox="0 0 24 25" fill="none" xmlns="http://www.w3.org/2000/svg">
<path fill-rule="evenodd" clip-rule="evenodd" d="M12 20.873C16.4183 20.873 20 17.2913 20 12.873C20 8.45477 16.4183 4.87305 12 4.87305C7.58172 4.87305 4 8.45477 4 12.873C4 17.2913 7.58172 20.873 12 20.873ZM12 22.873C17.5228 22.873 22 18.3959 22 12.873C22 7.3502 17.5228 2.87305 12 2.87305C6.47715 2.87305 2 7.3502 2 12.873C2 18.3959 6.47715 22.873 12 22.873Z" fill="#6F767E"/>
<path fill-rule="evenodd" clip-rule="evenodd" d="M7.01565 13.9567C7.52174 13.7356 8.11126 13.9666 8.33238 14.4727C8.95054 15.8875 10.3613 16.8731 12 16.8731C13.6387 16.8731 15.0494 15.8875 15.6676 14.4727C15.8887 13.9666 16.4782 13.7356 16.9843 13.9567C17.4904 14.1778 17.7214 14.7673 17.5003 15.2734C16.5753 17.3904 14.4619 18.8731 12 18.8731C9.53804 18.8731 7.42463 17.3904 6.49967 15.2734C6.27855 14.7673 6.50957 14.1778 7.01565 13.9567Z" fill="#6F767E"/>
<path d="M9 9.87305C9 10.4253 8.55228 10.873 8 10.873C7.44772 10.873 7 10.4253 7 9.87305C7 9.32076 7.44772 8.87305 8 8.87305C8.55228 8.87305 9 9.32076 9 9.87305Z" fill="#6F767E"/>
<path d="M17 9.87305C17 10.4253 16.5523 10.873 16 10.873C15.4477 10.873 15 10.4253 15 9.87305C15 9.32076 15.4477 8.87305 16 8.87305C16.5523 8.87305 17 9.32076 17 9.87305Z" fill="#6F767E"/>
</svg>
