<svg width="26" height="26" viewBox="0 0 26 26" fill="none" xmlns="http://www.w3.org/2000/svg">
<path fill-rule="evenodd" clip-rule="evenodd" d="M12.1748 1.64124C12.0843 1.68583 11.9599 1.80136 11.8983 1.89794C11.8367 1.99452 10.3021 5.30052 8.48815 9.24457L5.19002 16.4156L4.83816 16.3538C3.66455 16.1477 2.51473 16.5242 1.64915 17.398C1.12889 17.9232 0.810797 18.5182 0.661985 19.2444C0.182221 21.5856 2.08336 23.7843 4.46083 23.6379C5.39955 23.5801 6.16045 23.2333 6.8464 22.5504C7.22378 22.1748 7.32744 22.0349 7.52097 21.6401C8.02125 20.6197 8.06861 19.8046 7.69118 18.7123L7.53633 18.2641L10.5838 11.5682C12.2599 7.88542 13.6709 4.73969 13.7194 4.57766C13.8576 4.11567 13.8388 3.35073 13.678 2.89704C13.3096 1.85719 12.726 1.36962 12.1748 1.64124ZM18.6568 1.63962C18.4015 1.76552 18.278 1.97901 18.278 2.29448C18.278 2.4952 18.3062 2.60396 18.3875 2.71807C18.597 3.01179 18.6997 3.03099 20.0646 3.03099H21.2965V3.7675V4.50401H20.0646C18.6997 4.50401 18.597 4.5232 18.3875 4.81692C18.2347 5.0312 18.2347 5.44983 18.3875 5.66411C18.597 5.95783 18.6997 5.97702 20.0646 5.97702H21.2965V6.71353V7.45004H20.0646C18.6997 7.45004 18.597 7.46924 18.3875 7.76296C18.2347 7.97723 18.2347 8.39587 18.3875 8.61014C18.597 8.90386 18.6997 8.92306 20.0646 8.92306H21.2965V9.65957V10.3961H20.0646C18.6997 10.3961 18.597 10.4153 18.3875 10.709C18.3062 10.8231 18.278 10.9319 18.278 11.1326C18.278 11.3333 18.3062 11.4421 18.3875 11.5562C18.597 11.8499 18.6997 11.8691 20.0646 11.8691H21.2965V12.6056V13.3421H20.0646C18.6997 13.3421 18.597 13.3613 18.3875 13.655C18.2347 13.8693 18.2347 14.2879 18.3875 14.5022C18.597 14.7959 18.6997 14.8151 20.0646 14.8151H21.2965V15.5516V16.2881H20.0646C18.6997 16.2881 18.597 16.3073 18.3875 16.6011C18.2347 16.8153 18.2347 17.234 18.3875 17.4482C18.597 17.742 18.6997 17.7612 20.0646 17.7612H21.2965V18.4977V19.2342H20.0646C18.6997 19.2342 18.597 19.2534 18.3875 19.5471C18.2347 19.7614 18.2347 20.18 18.3875 20.3943C18.597 20.688 18.6997 20.7072 20.0646 20.7072H21.2965V21.4437V22.1802H20.0646C18.6997 22.1802 18.597 22.1994 18.3875 22.4931C18.2347 22.7074 18.2347 23.126 18.3875 23.3403C18.6132 23.6569 18.5803 23.6532 21.2359 23.6532C22.6652 23.6532 23.746 23.6329 23.9031 23.6031C24.7926 23.4343 25.5209 22.692 25.6659 21.8064C25.7299 21.4155 25.7299 3.79568 25.6659 3.40479C25.5209 2.51916 24.7926 1.77686 23.9031 1.6081C23.7454 1.57815 22.6679 1.55841 21.2285 1.5591C19.1085 1.56008 18.7985 1.5698 18.6568 1.63962ZM4.66349 17.8113C5.81325 18.0294 6.60978 19.1482 6.43142 20.2943C6.246 21.486 5.10374 22.3337 3.94264 22.1412C3.04966 21.9932 2.35071 21.3576 2.13509 20.4975C2.03629 20.1033 2.03629 19.8381 2.13509 19.4439C2.41795 18.3157 3.53159 17.5965 4.66349 17.8113Z" fill="#2C2B46"/>
<path opacity="0.4" fill-rule="evenodd" clip-rule="evenodd" d="M10.2874 15.7754C9.86378 16.7091 9.51718 17.5027 9.51718 17.5389C9.51718 17.5751 9.58343 17.7447 9.66437 17.916C9.74535 18.0872 9.81161 18.2511 9.81161 18.2802C9.81166 18.3093 9.756 18.4701 9.68798 18.6376C9.14244 19.9807 9.45239 21.5018 10.4837 22.543C11.2473 23.3138 12.245 23.7022 13.2954 23.6376C14.2341 23.5798 14.995 23.2329 15.681 22.5501C16.0581 22.1747 16.1622 22.0343 16.3558 21.6397C16.673 20.9932 16.7538 20.6546 16.7538 19.9703C16.7538 19.286 16.673 18.9474 16.3558 18.3009C16.1622 17.9064 16.0581 17.766 15.681 17.3906C15.1926 16.9044 14.7449 16.6336 14.1065 16.4379C13.6492 16.2978 12.979 16.2602 12.526 16.3494L12.1727 16.419L11.6503 15.2854C11.363 14.662 11.1122 14.1352 11.0928 14.1148C11.0735 14.0944 10.7111 14.8416 10.2874 15.7754ZM13.4981 17.8109C14.6478 18.029 15.4444 19.1478 15.266 20.2939C15.1184 21.2424 14.3802 21.9822 13.4229 22.1409C12.5646 22.2831 11.6055 21.8133 11.1763 21.0403C11.0236 20.7654 10.8914 20.269 10.8914 19.9703C10.8914 19.8522 10.9266 19.6152 10.9697 19.4435C11.2525 18.3153 12.3662 17.5962 13.4981 17.8109Z" fill="#2C2B46"/>
<path opacity="0.4" fill-rule="evenodd" clip-rule="evenodd" d="M4.53313 1.65595C4.02701 1.90661 3.53439 2.95741 3.53188 3.79158C3.53012 4.39685 3.62685 4.65413 4.95886 7.5877C5.66616 9.14556 6.25783 10.4353 6.27368 10.4537C6.2964 10.4803 7.70041 7.48812 7.82787 7.14142C7.84907 7.08373 7.46457 6.19442 6.69214 4.51454C6.04982 3.11773 5.48431 1.91663 5.43548 1.84543C5.34232 1.70977 5.02796 1.55746 4.84126 1.55756C4.78104 1.55756 4.64238 1.60185 4.53313 1.65595Z" fill="#2C2B46"/>
</svg>
