<svg width="25" height="25" viewBox="0 0 25 25" fill="none" xmlns="http://www.w3.org/2000/svg">
<g clip-path="url(#clip0_3778_8241)">
<g clip-path="url(#clip1_3778_8241)">
<path d="M23.8858 12.4497C23.8858 11.6597 23.8158 10.9097 23.6958 10.1797H12.3958V14.6897H18.8658C18.5758 16.1697 17.7258 17.4197 16.4658 18.2697V21.2697H20.3258C22.5858 19.1797 23.8858 16.0997 23.8858 12.4497Z" fill="#4285F4"/>
<path d="M12.3958 24.1797C15.6358 24.1797 18.3458 23.0997 20.3258 21.2697L16.4658 18.2697C15.3858 18.9897 14.0158 19.4297 12.3958 19.4297C9.26579 19.4297 6.61579 17.3197 5.66579 14.4697H1.68579V17.5597C3.65579 21.4797 7.70579 24.1797 12.3958 24.1797Z" fill="#34A853"/>
<path d="M5.66575 14.4697C5.41575 13.7497 5.28575 12.9797 5.28575 12.1797C5.28575 11.3797 5.42575 10.6097 5.66575 9.88968V6.79968H1.68575C0.865751 8.41968 0.395752 10.2397 0.395752 12.1797C0.395752 14.1197 0.865751 15.9397 1.68575 17.5597L5.66575 14.4697Z" fill="#FBBC05"/>
<path d="M12.3958 4.92969C14.1658 4.92969 15.7458 5.53969 16.9958 6.72969L20.4158 3.30969C18.3458 1.36969 15.6358 0.179688 12.3958 0.179688C7.70579 0.179688 3.65579 2.87969 1.68579 6.79969L5.66579 9.88969C6.61579 7.03969 9.26579 4.92969 12.3958 4.92969Z" fill="#EA4335"/>
</g>
</g>
<defs>
<clipPath id="clip0_3778_8241">
<rect width="24" height="24" fill="white" transform="translate(0.140869 0.179688)"/>
</clipPath>
<clipPath id="clip1_3778_8241">
<rect width="24" height="24" fill="white" transform="translate(0.140869 0.179688)"/>
</clipPath>
</defs>
</svg>
