<svg width="20" height="20" viewBox="0 0 20 20" fill="none" xmlns="http://www.w3.org/2000/svg">
<path fill-rule="evenodd" clip-rule="evenodd" d="M4.16675 1.66669C2.78604 1.66669 1.66675 2.78597 1.66675 4.16669V15.8334C1.66675 17.2141 2.78604 18.3334 4.16675 18.3334H15.8334C17.2141 18.3334 18.3334 17.2141 18.3334 15.8334V4.16669C18.3334 2.78598 17.2141 1.66669 15.8334 1.66669H4.16675ZM11.6667 3.33335H8.33342V6.66669H11.6667V3.33335ZM13.3334 3.33335V6.66669H16.6667V4.16669C16.6667 3.70645 16.2937 3.33335 15.8334 3.33335H13.3334ZM11.6667 8.33335H8.33342V11.6667H11.6667V8.33335ZM13.3334 11.6667V8.33335H16.6667V11.6667H13.3334ZM11.6667 13.3334H8.33342V16.6667H11.6667V13.3334ZM13.3334 16.6667V13.3334H16.6667V15.8334C16.6667 16.2936 16.2937 16.6667 15.8334 16.6667H13.3334ZM4.16675 3.33335H6.66675V6.66669H3.33341V4.16669C3.33341 3.70645 3.70651 3.33335 4.16675 3.33335ZM3.33341 8.33335H6.66675V11.6667H3.33341V8.33335ZM3.33341 13.3334H6.66675V16.6667H4.16675C3.70651 16.6667 3.33341 16.2936 3.33341 15.8334V13.3334Z" fill="#9A9FA5"/>
</svg>
