<svg width="20" height="21" viewBox="0 0 20 21" fill="none" xmlns="http://www.w3.org/2000/svg">
<path fill-rule="evenodd" clip-rule="evenodd" d="M3 20.1269C1.34315 20.1269 0 18.7838 0 17.1269V9.46302C0 8.61256 0.360964 7.80207 0.993106 7.23314L7.9931 0.933143C9.13402 -0.0936803 10.866 -0.0936816 12.0069 0.933142L19.0069 7.23314C19.639 7.80207 20 8.61257 20 9.46302V17.1269C20 18.7838 18.6569 20.1269 17 20.1269H3ZM18 9.46302V17.1269C18 17.6792 17.5523 18.1269 17 18.1269H14V13.1269C14 11.4701 12.6569 10.1269 11 10.1269H9C7.34315 10.1269 6 11.4701 6 13.1269V18.1269H3C2.44772 18.1269 2 17.6792 2 17.1269V9.46302C2 9.17954 2.12032 8.90937 2.33104 8.71973L9.33103 2.41973C9.71134 2.07746 10.2887 2.07746 10.669 2.41973L17.669 8.71973C17.8797 8.90937 18 9.17954 18 9.46302ZM8 18.1269V13.1269C8 12.5747 8.44772 12.1269 9 12.1269H11C11.5523 12.1269 12 12.5747 12 13.1269V18.1269H8Z" fill="#6F767E"/>
</svg>
