<svg width="14" height="15" viewBox="0 0 14 15" fill="none" xmlns="http://www.w3.org/2000/svg">
<path fill-rule="evenodd" clip-rule="evenodd" d="M13.6666 7.50001C13.6666 11.1819 10.6818 14.1667 6.99992 14.1667C3.31802 14.1667 0.333252 11.1819 0.333252 7.50001C0.333252 3.81811 3.31802 0.833344 6.99992 0.833344C10.6818 0.833344 13.6666 3.81811 13.6666 7.50001ZM6.99992 6.83334C7.36811 6.83334 7.66659 7.13182 7.66659 7.50001V10.8339C7.66659 11.2021 7.36811 11.5006 6.99992 11.5006C6.63173 11.5006 6.33325 11.2021 6.33325 10.8339V7.50001C6.33325 7.13182 6.63173 6.83334 6.99992 6.83334ZM6.99992 5.50001C7.36811 5.50001 7.66659 5.20153 7.66659 4.83334C7.66659 4.46515 7.36811 4.16668 6.99992 4.16668C6.63173 4.16668 6.33325 4.46515 6.33325 4.83334C6.33325 5.20153 6.63173 5.50001 6.99992 5.50001Z" fill="#33383F"/>
</svg>
