<svg width="25" height="25" viewBox="0 0 25 25" fill="none" xmlns="http://www.w3.org/2000/svg">
<path fill-rule="evenodd" clip-rule="evenodd" d="M12.5327 18.873C15.8464 18.873 18.5327 16.1868 18.5327 12.873C18.5327 9.55934 15.8464 6.87305 12.5327 6.87305C9.21901 6.87305 6.53271 9.55934 6.53271 12.873C6.53271 16.1868 9.21901 18.873 12.5327 18.873Z" fill="#1A1D1F"/>
<path fill-rule="evenodd" clip-rule="evenodd" d="M12.5278 2.37305C13.0801 2.37305 13.5278 2.82076 13.5278 3.37305V4.37305C13.5278 4.92533 13.0801 5.37305 12.5278 5.37305C11.9755 5.37305 11.5278 4.92533 11.5278 4.37305V3.37305C11.5278 2.82076 11.9755 2.37305 12.5278 2.37305Z" fill="#1A1D1F"/>
<path fill-rule="evenodd" clip-rule="evenodd" d="M12.5278 20.373C13.0801 20.373 13.5278 20.8208 13.5278 21.373V22.3698C13.5278 22.9221 13.0801 23.3698 12.5278 23.3698C11.9755 23.3698 11.5278 22.9221 11.5278 22.3698V21.373C11.5278 20.8208 11.9755 20.373 12.5278 20.373Z" fill="#1A1D1F"/>
<path fill-rule="evenodd" clip-rule="evenodd" d="M2.02942 12.8714C2.02942 12.3191 2.47713 11.8714 3.02942 11.8714H4.02942C4.5817 11.8714 5.02942 12.3191 5.02942 12.8714C5.02942 13.4237 4.5817 13.8714 4.02942 13.8714H3.02942C2.47713 13.8714 2.02942 13.4237 2.02942 12.8714Z" fill="#1A1D1F"/>
<path fill-rule="evenodd" clip-rule="evenodd" d="M20.0294 12.8714C20.0294 12.3191 20.4771 11.8714 21.0294 11.8714H22.0262C22.5785 11.8714 23.0262 12.3191 23.0262 12.8714C23.0262 13.4237 22.5785 13.8714 22.0262 13.8714H21.0294C20.4771 13.8714 20.0294 13.4237 20.0294 12.8714Z" fill="#1A1D1F"/>
<path fill-rule="evenodd" clip-rule="evenodd" d="M5.10442 20.2949C4.7139 19.9044 4.7139 19.2712 5.10442 18.8807L5.81153 18.1736C6.20205 17.7831 6.83522 17.7831 7.22574 18.1736C7.61627 18.5641 7.61627 19.1973 7.22574 19.5878L6.51864 20.2949C6.12811 20.6854 5.49495 20.6854 5.10442 20.2949Z" fill="#1A1D1F"/>
<path fill-rule="evenodd" clip-rule="evenodd" d="M17.8323 7.56699C17.4418 7.17647 17.4418 6.5433 17.8323 6.15278L18.5372 5.44795C18.9277 5.05742 19.5609 5.05742 19.9514 5.44795C20.3419 5.83847 20.3419 6.47164 19.9514 6.86216L19.2466 7.56699C18.856 7.95751 18.2229 7.95751 17.8323 7.56699Z" fill="#1A1D1F"/>
<path fill-rule="evenodd" clip-rule="evenodd" d="M5.10442 5.44795C5.49495 5.05742 6.12811 5.05742 6.51864 5.44795L7.22574 6.15506C7.61627 6.54558 7.61627 7.17874 7.22574 7.56927C6.83522 7.95979 6.20205 7.95979 5.81153 7.56927L5.10442 6.86216C4.7139 6.47164 4.7139 5.83847 5.10442 5.44795Z" fill="#1A1D1F"/>
<path fill-rule="evenodd" clip-rule="evenodd" d="M17.8323 18.1759C18.2229 17.7853 18.856 17.7853 19.2466 18.1759L19.9514 18.8807C20.3419 19.2712 20.3419 19.9044 19.9514 20.2949C19.5609 20.6854 18.9277 20.6854 18.5372 20.2949L17.8323 19.5901C17.4418 19.1996 17.4418 18.5664 17.8323 18.1759Z" fill="#1A1D1F"/>
</svg>
