<svg width="20" height="20" viewBox="0 0 20 20" fill="none" xmlns="http://www.w3.org/2000/svg">
<path fill-rule="evenodd" clip-rule="evenodd" d="M5.83325 5.83333C5.83325 5.3731 6.20635 5 6.66659 5H16.6666C17.1268 5 17.4999 5.3731 17.4999 5.83333C17.4999 6.29357 17.1268 6.66667 16.6666 6.66667H6.66659C6.20635 6.66667 5.83325 6.29357 5.83325 5.83333Z" fill="#6759FF"/>
<path fill-rule="evenodd" clip-rule="evenodd" d="M5.83325 10C5.83325 9.53978 6.20635 9.16669 6.66659 9.16669H16.6666C17.1268 9.16669 17.4999 9.53978 17.4999 10C17.4999 10.4603 17.1268 10.8334 16.6666 10.8334H6.66659C6.20635 10.8334 5.83325 10.4603 5.83325 10Z" fill="#6759FF"/>
<path fill-rule="evenodd" clip-rule="evenodd" d="M5.83325 14.1666C5.83325 13.7064 6.20635 13.3333 6.66659 13.3333H16.6666C17.1268 13.3333 17.4999 13.7064 17.4999 14.1666C17.4999 14.6269 17.1268 15 16.6666 15H6.66659C6.20635 15 5.83325 14.6269 5.83325 14.1666Z" fill="#6759FF"/>
<path d="M4.16667 5.83333C4.16667 6.29357 3.79357 6.66667 3.33333 6.66667C2.8731 6.66667 2.5 6.29357 2.5 5.83333C2.5 5.3731 2.8731 5 3.33333 5C3.79357 5 4.16667 5.3731 4.16667 5.83333Z" fill="#6759FF"/>
<path d="M4.16667 10C4.16667 10.4603 3.79357 10.8334 3.33333 10.8334C2.8731 10.8334 2.5 10.4603 2.5 10C2.5 9.53978 2.8731 9.16669 3.33333 9.16669C3.79357 9.16669 4.16667 9.53978 4.16667 10Z" fill="#6759FF"/>
<path d="M4.16667 14.1666C4.16667 14.6269 3.79357 15 3.33333 15C2.8731 15 2.5 14.6269 2.5 14.1666C2.5 13.7064 2.8731 13.3333 3.33333 13.3333C3.79357 13.3333 4.16667 13.7064 4.16667 14.1666Z" fill="#6759FF"/>
</svg>
