<svg width="32" height="32" viewBox="0 0 32 32" fill="none" xmlns="http://www.w3.org/2000/svg">
<path fill-rule="evenodd" clip-rule="evenodd" d="M5.33325 8.00002C5.33325 7.26364 5.93021 6.66669 6.66659 6.66669H26.6666C27.403 6.66669 27.9999 7.26364 27.9999 8.00002C27.9999 8.7364 27.403 9.33335 26.6666 9.33335H6.66659C5.93021 9.33335 5.33325 8.7364 5.33325 8.00002Z" fill="#25283C"/>
<path fill-rule="evenodd" clip-rule="evenodd" d="M5.3335 16.3333C5.3335 15.597 5.93045 15 6.66683 15H26.6668C27.4032 15 28.0002 15.597 28.0002 16.3333C28.0002 17.0697 27.4032 17.6667 26.6668 17.6667H6.66683C5.93045 17.6667 5.3335 17.0697 5.3335 16.3333Z" fill="#25283C"/>
<path fill-rule="evenodd" clip-rule="evenodd" d="M5.3335 24.3333C5.3335 23.597 5.93045 23 6.66683 23H26.6668C27.4032 23 28.0002 23.597 28.0002 24.3333C28.0002 25.0697 27.4032 25.6667 26.6668 25.6667H6.66683C5.93045 25.6667 5.3335 25.0697 5.3335 24.3333Z" fill="#25283C"/>
</svg>
