<svg width="25" height="25" viewBox="0 0 25 25" fill="none" xmlns="http://www.w3.org/2000/svg">
<path fill-rule="evenodd" clip-rule="evenodd" d="M10.3369 3.21739C11.4582 2.26185 13.1073 2.26185 14.2286 3.21739L15.5001 4.30092C15.6602 4.43742 15.8594 4.5199 16.0691 4.53664L17.7344 4.66953C19.2029 4.78672 20.369 5.95285 20.4862 7.42138L20.6191 9.08662C20.6358 9.29639 20.7183 9.49552 20.8548 9.65569L21.9384 10.9272C22.8939 12.0484 22.8939 13.6976 21.9384 14.8189L20.8548 16.0903C20.7183 16.2505 20.6358 16.4496 20.6191 16.6594L20.4862 18.3246C20.369 19.7932 19.2029 20.9593 17.7344 21.0765L16.0691 21.2094C15.8594 21.2261 15.6602 21.3086 15.5001 21.4451L14.2286 22.5286C13.1073 23.4842 11.4582 23.4842 10.3369 22.5286L9.06542 21.4451C8.90525 21.3086 8.70611 21.2261 8.49635 21.2094L6.83111 21.0765C5.36258 20.9593 4.19645 19.7932 4.07926 18.3246L3.94637 16.6594C3.92963 16.4496 3.84714 16.2505 3.71065 16.0903L2.62712 14.8189C1.67158 13.6976 1.67158 12.0484 2.62712 10.9272L3.71065 9.65569C3.84714 9.49552 3.92963 9.29639 3.94637 9.08662L4.07926 7.42138C4.19645 5.95285 5.36258 4.78672 6.83111 4.66953L8.49635 4.53664C8.70611 4.5199 8.90525 4.43742 9.06542 4.30093L10.3369 3.21739ZM12.9314 4.73962C12.5576 4.4211 12.0079 4.4211 11.6341 4.73962L10.3627 5.82315C9.88216 6.23263 9.28474 6.48009 8.65544 6.5303L6.9902 6.66319C6.50069 6.70225 6.11198 7.09096 6.07292 7.58047L5.94003 9.24571C5.88981 9.87501 5.64235 10.4724 5.23288 10.9529L4.14935 12.2244C3.83083 12.5981 3.83083 13.1479 4.14935 13.5216L5.23288 14.7931C5.64236 15.2736 5.88981 15.871 5.94003 16.5003L6.07292 18.1655C6.11198 18.6551 6.50069 19.0438 6.9902 19.0828L8.65544 19.2157C9.28474 19.2659 9.88216 19.5134 10.3627 19.9229L11.6341 21.0064C12.0079 21.3249 12.5576 21.3249 12.9314 21.0064L14.2028 19.9229C14.6833 19.5134 15.2807 19.2659 15.91 19.2157L17.5753 19.0828C18.0648 19.0438 18.4535 18.6551 18.4926 18.1655L18.6254 16.5003C18.6757 15.871 18.9231 15.2736 19.3326 14.7931L20.4161 13.5216C20.7346 13.1479 20.7346 12.5981 20.4161 12.2244L19.3326 10.9529C18.9231 10.4724 18.6757 9.87501 18.6254 9.24571L18.4926 7.58047C18.4535 7.09096 18.0648 6.70225 17.5753 6.66319L15.91 6.5303C15.2807 6.48009 14.6833 6.23263 14.2028 5.82315L12.9314 4.73962Z" fill="#D1D3D4"/>
<path d="M11.2827 10.373C11.2827 11.2015 10.6111 11.873 9.78271 11.873C8.95429 11.873 8.28271 11.2015 8.28271 10.373C8.28271 9.54462 8.95429 8.87305 9.78271 8.87305C10.6111 8.87305 11.2827 9.54462 11.2827 10.373Z" fill="#D1D3D4"/>
<path d="M16.2827 15.373C16.2827 16.2015 15.6111 16.873 14.7827 16.873C13.9543 16.873 13.2827 16.2015 13.2827 15.373C13.2827 14.5446 13.9543 13.873 14.7827 13.873C15.6111 13.873 16.2827 14.5446 16.2827 15.373Z" fill="#D1D3D4"/>
<path fill-rule="evenodd" clip-rule="evenodd" d="M15.4229 9.10485C15.8472 9.45841 15.9045 10.089 15.551 10.5133L10.551 16.5133C10.1974 16.9375 9.56683 16.9949 9.14256 16.6413C8.71828 16.2877 8.66095 15.6572 9.01452 15.2329L14.0145 9.23289C14.3681 8.80861 14.9986 8.75129 15.4229 9.10485Z" fill="#D1D3D4"/>
</svg>
