<svg width="27" height="28" viewBox="0 0 27 28" fill="none" xmlns="http://www.w3.org/2000/svg">
<path fill-rule="evenodd" clip-rule="evenodd" d="M14.2565 5.81753L7.55145 7.49378C7.05398 7.61815 6.70499 8.06513 6.70499 8.57792V22.7229H15.645V11.5479V9.31287V6.90167C15.645 6.17465 14.9618 5.64121 14.2565 5.81753ZM17.88 11.5479V22.7229H20.115V12.6654C20.115 12.0482 19.6147 11.5479 18.9975 11.5479H17.88ZM22.35 24.9579H23.4675C24.0847 24.9579 24.585 24.4575 24.585 23.8404C24.585 23.2232 24.0847 22.7229 23.4675 22.7229H22.35V12.6654C22.35 10.8138 20.849 9.31287 18.9975 9.31287H17.88V6.90167C17.88 4.72063 15.8303 3.12028 13.7144 3.64926L7.00938 5.32552C5.51696 5.69862 4.46999 7.03956 4.46999 8.57792V22.7229H3.35249C2.73531 22.7229 2.23499 23.2232 2.23499 23.8404C2.23499 24.4575 2.73531 24.9579 3.35249 24.9579H4.46999H6.70499H15.645H17.88H20.115H22.35Z" fill="#1A1D1F"/>
<path fill-rule="evenodd" clip-rule="evenodd" d="M8.94 19.3703C8.94 18.7532 9.44032 18.2528 10.0575 18.2528H12.2925C12.9097 18.2528 13.41 18.7532 13.41 19.3703C13.41 19.9875 12.9097 20.4878 12.2925 20.4878H10.0575C9.44032 20.4878 8.94 19.9875 8.94 19.3703Z" fill="#1A1D1F"/>
<path fill-rule="evenodd" clip-rule="evenodd" d="M8.94 14.9007C8.94 14.2835 9.44032 13.7832 10.0575 13.7832H12.2925C12.9097 13.7832 13.41 14.2835 13.41 14.9007C13.41 15.5179 12.9097 16.0182 12.2925 16.0182H10.0575C9.44032 16.0182 8.94 15.5179 8.94 14.9007Z" fill="#1A1D1F"/>
<path fill-rule="evenodd" clip-rule="evenodd" d="M8.94 10.4304C8.94 9.81325 9.44032 9.31293 10.0575 9.31293H12.2925C12.9097 9.31293 13.41 9.81325 13.41 10.4304C13.41 11.0476 12.9097 11.5479 12.2925 11.5479H10.0575C9.44032 11.5479 8.94 11.0476 8.94 10.4304Z" fill="#1A1D1F"/>
</svg>
