<svg width="26" height="26" viewBox="0 0 26 26" fill="none" xmlns="http://www.w3.org/2000/svg">
<path d="M7.48659 6.01341C7.07979 5.60661 6.42024 5.60661 6.01345 6.01341C5.60665 6.42021 5.60665 7.07975 6.01345 7.48655L11.5268 12.9999L6.01335 18.5134C5.60655 18.9202 5.60655 19.5798 6.01335 19.9865C6.42015 20.3933 7.07969 20.3933 7.48649 19.9865L13 14.4731L18.5135 19.9866C18.9202 20.3934 19.5798 20.3934 19.9866 19.9866C20.3934 19.5798 20.3934 18.9202 19.9866 18.5134L14.4731 12.9999L19.9865 7.48655C20.3933 7.07975 20.3933 6.42021 19.9865 6.01341C19.5797 5.60662 18.9201 5.60662 18.5134 6.01341L13 11.5268L7.48659 6.01341Z" fill="#2C2B46"/>
</svg>
