<svg width="26" height="26" viewBox="0 0 26 26" fill="none" xmlns="http://www.w3.org/2000/svg">
<path fill-rule="evenodd" clip-rule="evenodd" d="M3.62504 10.9166C3.04974 10.9166 2.58337 11.383 2.58337 11.9583V18.2083C2.58337 19.9342 3.98248 21.3333 5.70837 21.3333H20.2917C22.0176 21.3333 23.4167 19.9342 23.4167 18.2083V11.9583C23.4167 11.383 22.9503 10.9166 22.375 10.9166H3.62504ZM5.70837 15.0833C5.13308 15.0833 4.66671 15.5497 4.66671 16.125C4.66671 16.7003 5.13308 17.1666 5.70837 17.1666H11.9584C12.5337 17.1666 13 16.7003 13 16.125C13 15.5497 12.5337 15.0833 11.9584 15.0833H5.70837Z" fill="#2C2B46"/>
<path d="M2.58337 7.79163C2.58337 6.06574 3.98248 4.66663 5.70837 4.66663H20.2917C22.0176 4.66663 23.4167 6.06574 23.4167 7.79163C23.4167 8.36692 22.9503 8.83329 22.375 8.83329H3.62504C3.04974 8.83329 2.58337 8.36692 2.58337 7.79163Z" fill="#2C2B46"/>
</svg>
