<svg width="26" height="26" viewBox="0 0 26 26" fill="none" xmlns="http://www.w3.org/2000/svg">
<path fill-rule="evenodd" clip-rule="evenodd" d="M3.85167 0.488526C3.1167 0.634707 2.47179 1.20537 2.21246 1.93907C2.12028 2.19982 2.10945 2.36556 2.09049 3.80718C2.07735 4.80507 2.0896 5.5373 2.12366 5.79036C2.19438 6.31584 2.39221 6.73518 2.72617 7.06762C3.20956 7.54875 3.72264 7.73826 4.54205 7.73826H5.01431L5.02901 9.39217C5.04322 10.9968 5.047 11.0528 5.15476 11.2715C5.66574 12.3085 7.05365 12.4068 7.69669 11.4515C7.91491 11.1272 7.95946 10.783 7.95946 9.41991C7.95946 8.2777 7.96274 8.23786 8.0707 8.07629C8.36306 7.63868 8.97699 7.63868 9.26935 8.07629C9.36482 8.21919 9.3806 8.30657 9.3806 8.69209C9.3806 9.4866 9.48792 9.86051 9.81479 10.2049C10.5561 10.9859 11.8419 10.7129 12.2298 9.69213C12.306 9.49165 12.3209 9.31205 12.3209 8.5953V7.73826H15.7409C19.489 7.73826 19.4758 7.73919 19.9875 7.44516C20.2839 7.27482 20.6408 6.91478 20.815 6.61046C20.9949 6.29599 21.0912 5.82961 21.092 5.2691L21.0928 4.78459L21.5539 4.80875C22.0583 4.83511 22.2526 4.9118 22.4353 5.15668C22.5317 5.28595 22.5393 5.36534 22.5525 6.3818C22.566 7.43173 22.5627 7.47618 22.4545 7.68813C22.3928 7.80882 22.2762 7.94525 22.1954 7.99137C22.1145 8.03748 20.1866 8.6052 17.911 9.25295C15.6355 9.90065 13.6581 10.4891 13.5168 10.5606C13.3755 10.6321 13.1464 10.8035 13.0077 10.9414C12.5006 11.4459 12.3228 11.946 12.3216 12.8715L12.3209 13.4228H13.0518H13.7829L13.7992 12.8381C13.8167 12.2118 13.8559 12.1023 14.1371 11.8952C14.2028 11.8468 16.12 11.2769 18.3975 10.6287C20.675 9.98057 22.6564 9.3931 22.8005 9.32332C23.3849 9.04046 23.8771 8.35993 23.9823 7.68925C24.043 7.3027 24.0462 5.73327 23.9872 5.27615C23.9078 4.66006 23.5362 4.06637 23.0132 3.71991C22.6472 3.47753 22.2402 3.37682 21.6267 3.37682H21.0928L21.092 2.89903C21.0916 2.63626 21.058 2.2798 21.0172 2.10701C20.8524 1.40756 20.2905 0.796178 19.5806 0.543803C19.3732 0.4701 18.6761 0.46221 11.7083 0.454663C7.50371 0.450106 3.96821 0.465346 3.85167 0.488526Z" fill="#2C2B46"/>
<path opacity="0.4" fill-rule="evenodd" clip-rule="evenodd" d="M9.64428 15.0122C9.45816 15.0932 9.3796 15.2912 9.38259 15.672C9.38729 16.281 9.40435 16.312 10.1347 17.0438L10.8019 17.7123L10.378 19.7942C9.99735 21.6638 9.95414 21.931 9.95414 22.4151C9.95419 22.8729 9.97428 23.0133 10.0874 23.3462C10.3054 23.9876 10.6504 24.4854 11.1349 24.8575C11.7423 25.3241 12.2725 25.502 13.0558 25.502C13.8391 25.502 14.3693 25.3241 14.9767 24.8575C15.4657 24.4819 15.829 23.9604 16.0295 23.3462C16.136 23.02 16.1575 22.8637 16.1574 22.4151C16.1573 21.9314 16.1139 21.6627 15.7337 19.7954L15.3102 17.7147L15.9962 17.0228L16.6822 16.3309V15.8798C16.6822 15.384 16.6136 15.1494 16.4314 15.0218C16.3286 14.9498 15.9938 14.9421 13.0571 14.9438C10.4239 14.9454 9.76762 14.9585 9.64428 15.0122Z" fill="#2C2B46"/>
</svg>
