<svg width="33" height="33" viewBox="0 0 33 33" fill="none" xmlns="http://www.w3.org/2000/svg">
<path fill-rule="evenodd" clip-rule="evenodd" d="M1.3144 0.130986C0.906261 0.257818 0.359472 0.765981 0.162913 1.20113C0.0170675 1.52395 0.0100098 1.60333 0.0100098 2.92026C0.0100098 4.2372 0.0170675 4.31657 0.162913 4.6394C0.371733 5.10165 0.906973 5.58534 1.35324 5.71513C1.64551 5.80015 2.27325 5.8112 5.92229 5.79585L10.1525 5.778L10.4813 5.60441C10.891 5.38825 11.2987 4.93269 11.4315 4.54281C11.5774 4.11441 11.5774 1.72612 11.4315 1.29771C11.2987 0.90784 10.891 0.452272 10.4813 0.236112L10.1525 0.0625288L5.88364 0.0500704C2.30368 0.0396027 1.56635 0.0526391 1.3144 0.130986ZM27.9544 0.579169C27.5459 0.707991 26.9988 1.21705 26.8029 1.65066L26.65 1.98909V6.25964V10.5302L26.8029 10.8686C26.8974 11.0777 27.0893 11.3291 27.3051 11.5265C27.8283 12.0048 28.0579 12.0532 29.6834 12.0279C30.9876 12.0077 31.0219 12.0036 31.344 11.8336C31.5249 11.7382 31.7899 11.5271 31.933 11.3645C32.41 10.8224 32.3953 10.9847 32.3953 6.25964C32.3953 1.53462 32.41 1.6969 31.933 1.15476C31.7899 0.992224 31.5249 0.781072 31.344 0.685643C31.0191 0.514179 30.9984 0.511867 29.635 0.498253C28.5662 0.487528 28.187 0.505767 27.9544 0.579169ZM22.8305 1.48786C19.0993 1.88763 15.978 4.62476 15.0922 8.27386C14.8446 9.29397 14.7984 10.366 14.8193 14.6081L14.8385 18.4933L19.637 18.5097L24.4354 18.5263V14.8011V11.076H24.627H24.8185L24.7714 10.6747C24.7099 10.1516 24.7099 2.36766 24.7714 1.8446L24.8185 1.44323L23.9369 1.45351C23.452 1.45916 22.9541 1.47463 22.8305 1.48786ZM2.56892 16.3094C2.42282 16.3626 2.00397 16.5352 1.63813 16.6928L0.972899 16.9795L0.953897 19.1813C0.927449 22.246 1.05115 23.3608 1.59339 24.9422C2.6111 27.9104 4.79756 30.3839 7.58475 31.7201C8.47774 32.1482 8.88041 32.2962 9.79555 32.5323C13.0354 33.3684 16.4478 32.7763 19.2679 30.8889C22.4786 28.7399 24.4354 25.107 24.4354 21.2947V20.452H19.6267H14.8181L14.7942 21.1102C14.7663 21.8764 14.6388 22.2091 14.206 22.6445C13.79 23.063 13.339 23.2454 12.7202 23.2454C11.8455 23.2454 11.1927 22.8432 10.8118 22.0696L10.6018 21.6432L10.5697 19.3025L10.5376 16.9618L9.71936 16.6168C8.5332 16.1166 8.44525 16.1145 7.48993 16.5634C6.45675 17.0489 5.9298 17.1603 5.28659 17.0291C5.01306 16.9733 4.52559 16.7923 4.11591 16.5947C3.33802 16.2193 2.99176 16.1555 2.56892 16.3094Z" fill="#2C2B46"/>
<path opacity="0.4" fill-rule="evenodd" clip-rule="evenodd" d="M0.941162 11.2298C0.941162 13.2291 0.956501 14.865 0.97531 14.865C0.994118 14.865 1.11686 14.8187 1.24813 14.7622C1.89301 14.4845 2.42183 14.3418 2.93114 14.3078C3.40879 14.276 3.53892 14.2925 3.97581 14.4399C4.2503 14.5325 4.71236 14.7277 5.00264 14.8737C5.29805 15.0223 5.62954 15.1418 5.75568 15.145C5.90576 15.149 6.23835 15.0289 6.75099 14.7856C7.17447 14.5847 7.65091 14.391 7.80979 14.3552C8.4632 14.2081 9.32455 14.3345 10.1447 14.6979C10.3521 14.7898 10.5327 14.865 10.5459 14.865C10.5592 14.865 10.5701 13.2361 10.5701 11.2454V7.62579L10.2512 7.68378C9.85066 7.75661 1.20641 7.72443 1.0535 7.64955C0.947195 7.59747 0.941162 7.78949 0.941162 11.2298Z" fill="#2C2B46"/>
</svg>
