<svg width="24" height="25" viewBox="0 0 24 25" fill="none" xmlns="http://www.w3.org/2000/svg">
<path fill-rule="evenodd" clip-rule="evenodd" d="M7 9.50031C8.10457 9.50031 9 8.60487 9 7.50031C9 6.39574 8.10457 5.50031 7 5.50031C5.89543 5.50031 5 6.39574 5 7.50031C5 8.60487 5.89543 9.50031 7 9.50031ZM7 11.5003C9.20914 11.5003 11 9.70944 11 7.50031C11 5.29117 9.20914 3.50031 7 3.50031C4.79086 3.50031 3 5.29117 3 7.50031C3 9.70944 4.79086 11.5003 7 11.5003Z" fill="#172B4D"/>
<path fill-rule="evenodd" clip-rule="evenodd" d="M17 19.5002C18.1046 19.5002 19 18.6048 19 17.5002C19 16.3956 18.1046 15.5002 17 15.5002C15.8954 15.5002 15 16.3956 15 17.5002C15 18.6048 15.8954 19.5002 17 19.5002ZM17 21.5002C19.2091 21.5002 21 19.7094 21 17.5002C21 15.2911 19.2091 13.5002 17 13.5002C14.7909 13.5002 13 15.2911 13 17.5002C13 19.7094 14.7909 21.5002 17 21.5002Z" fill="#172B4D"/>
<path fill-rule="evenodd" clip-rule="evenodd" d="M18.6001 3.70036C19.0419 4.03173 19.1314 4.65854 18.8001 5.10036L6.80006 21.1004C6.46869 21.5422 5.84189 21.6317 5.40006 21.3004C4.95823 20.969 4.86869 20.3422 5.20006 19.9004L17.2001 3.90036C17.5314 3.45854 18.1582 3.36899 18.6001 3.70036Z" fill="#172B4D"/>
</svg>
