<svg width="14" height="15" viewBox="0 0 14 15" fill="none" xmlns="http://www.w3.org/2000/svg">
<path fill-rule="evenodd" clip-rule="evenodd" d="M8.16658 5.16667H5.83325C5.51109 5.16667 5.24992 5.42783 5.24992 5.75V9.25C5.24992 9.57217 5.51109 9.83333 5.83325 9.83333H8.16658C8.48875 9.83333 8.74992 9.57217 8.74992 9.25V5.75C8.74992 5.42783 8.48875 5.16667 8.16658 5.16667ZM5.83325 4C4.86675 4 4.08325 4.7835 4.08325 5.75V9.25C4.08325 10.2165 4.86675 11 5.83325 11H8.16658C9.13308 11 9.91658 10.2165 9.91658 9.25V5.75C9.91658 4.7835 9.13308 4 8.16658 4H5.83325Z" fill="#6759FF"/>
<path fill-rule="evenodd" clip-rule="evenodd" d="M1.16675 3.41669C1.16675 2.45019 1.95025 1.66669 2.91675 1.66669H4.08342C4.40558 1.66669 4.66675 1.92785 4.66675 2.25002C4.66675 2.57219 4.40558 2.83335 4.08342 2.83335H2.91675C2.59458 2.83335 2.33341 3.09452 2.33341 3.41669V4.58335C2.33341 4.90552 2.07225 5.16669 1.75008 5.16669C1.42792 5.16669 1.16675 4.90552 1.16675 4.58335V3.41669Z" fill="#6759FF"/>
<path fill-rule="evenodd" clip-rule="evenodd" d="M1.16675 11.5833C1.16675 12.5498 1.95025 13.3333 2.91675 13.3333H4.08342C4.40558 13.3333 4.66675 13.0721 4.66675 12.75C4.66675 12.4278 4.40558 12.1666 4.08342 12.1666H2.91675C2.59458 12.1666 2.33341 11.9055 2.33341 11.5833V10.4166C2.33341 10.0945 2.07225 9.83331 1.75008 9.83331C1.42792 9.83331 1.16675 10.0945 1.16675 10.4166V11.5833Z" fill="#6759FF"/>
<path fill-rule="evenodd" clip-rule="evenodd" d="M12.8333 11.5833C12.8333 12.5498 12.0498 13.3333 11.0833 13.3333H9.91659C9.59442 13.3333 9.33325 13.0721 9.33325 12.75C9.33325 12.4278 9.59442 12.1666 9.91659 12.1666H11.0833C11.4054 12.1666 11.6666 11.9055 11.6666 11.5833V10.4166C11.6666 10.0945 11.9278 9.83331 12.2499 9.83331C12.5721 9.83331 12.8333 10.0945 12.8333 10.4166V11.5833Z" fill="#6759FF"/>
<path fill-rule="evenodd" clip-rule="evenodd" d="M12.8333 3.41669C12.8333 2.45019 12.0498 1.66669 11.0833 1.66669H9.91659C9.59442 1.66669 9.33325 1.92785 9.33325 2.25002C9.33325 2.57219 9.59442 2.83335 9.91659 2.83335H11.0833C11.4054 2.83335 11.6666 3.09452 11.6666 3.41669V4.58335C11.6666 4.90552 11.9278 5.16669 12.2499 5.16669C12.5721 5.16669 12.8333 4.90552 12.8333 4.58335V3.41669Z" fill="#6759FF"/>
<path fill-rule="evenodd" clip-rule="evenodd" d="M1.16675 7.50002C1.16675 7.17785 1.42792 6.91669 1.75008 6.91669H12.2501C12.5722 6.91669 12.8334 7.17785 12.8334 7.50002C12.8334 7.82219 12.5722 8.08335 12.2501 8.08335H1.75008C1.42792 8.08335 1.16675 7.82219 1.16675 7.50002Z" fill="#6759FF"/>
</svg>
