<svg width="18" height="16" viewBox="0 0 18 16" fill="none" xmlns="http://www.w3.org/2000/svg">
<path fill-rule="evenodd" clip-rule="evenodd" d="M0.827411 3.35512C0.134937 1.27769 2.25852 -0.623001 4.24677 0.294655L15.7486 5.60323C17.6851 6.49699 17.6851 9.24927 15.7486 10.143L4.24677 15.4516C2.25852 16.3692 0.134941 14.4685 0.827419 12.3911L2.06988 8.6637C2.24094 8.15053 2.24094 7.59573 2.06989 7.08256L0.827411 3.35512ZM3.54833 1.80792L15.0502 7.11649C15.6957 7.41441 15.6957 8.33184 15.0502 8.62976L3.54834 13.9383C2.88559 14.2442 2.17773 13.6106 2.40856 12.9181L3.65102 9.19075C3.70413 9.03142 3.74735 8.86968 3.78067 8.70643H10.6667C11.127 8.70643 11.5001 8.33333 11.5001 7.8731C11.5001 7.41286 11.127 7.03976 10.6667 7.03976L3.78066 7.03976C3.74734 6.87654 3.70413 6.71482 3.65103 6.55552L2.40855 2.82808C2.17772 2.1356 2.88559 1.50204 3.54833 1.80792Z" fill="white"/>
</svg>
