<svg width="34" height="33" viewBox="0 0 34 33" fill="none" xmlns="http://www.w3.org/2000/svg">
<path fill-rule="evenodd" clip-rule="evenodd" d="M0.831391 4.74704C0.713341 4.82667 0.557417 4.99281 0.484879 5.1163C0.353476 5.34017 0.353027 5.37234 0.353027 14.9416C0.353027 24.4284 0.354565 24.5448 0.48141 24.7554C0.639324 25.0176 0.922222 25.1984 1.2195 25.227L1.44404 25.2487L1.48776 24.8075C1.57551 23.922 1.81752 23.226 2.2937 22.4895C2.80076 21.7054 3.49552 21.1059 4.38151 20.6879C5.01605 20.3885 5.50045 20.2697 6.26139 20.2268C7.73763 20.1435 9.12535 20.7037 10.1526 21.7974C10.9211 22.6157 11.3432 23.5107 11.5075 24.6707L11.5894 25.2487H15.5038H19.4183L19.435 15.4874C19.4464 8.8512 19.4302 5.62132 19.3843 5.3986C19.3167 5.07025 19.133 4.83078 18.8287 4.67441C18.7271 4.6222 16.2623 4.60236 9.86729 4.60236H1.04605L0.831391 4.74704ZM10.1818 7.49496C10.4066 7.58044 16.051 11.1093 16.305 11.3232C16.6697 11.6301 16.7148 12.2452 16.3999 12.6195C16.1851 12.8749 15.9168 12.973 15.5338 12.9362L15.2137 12.9055V15.1462C15.2137 17.2653 15.2067 17.4008 15.0844 17.6404C15.0012 17.8036 14.8649 17.94 14.7018 18.0232C14.4549 18.1492 14.332 18.1525 9.8809 18.1525C5.34755 18.1525 5.31153 18.1515 5.07145 18.0165C4.93838 17.9417 4.76839 17.7716 4.69361 17.6385C4.56234 17.4049 4.55765 17.3191 4.55765 15.1535V12.9105L4.18854 12.9363C3.88061 12.9579 3.7822 12.9371 3.59476 12.8107C3.15151 12.5119 3.02223 11.888 3.31957 11.4825C3.43762 11.3214 8.92918 7.81297 9.4684 7.55411C9.76131 7.41347 9.93065 7.39947 10.1818 7.49496ZM22.5156 17.3657L21.3762 17.3848V21.336V25.2872L21.7449 25.268L22.1137 25.2487L22.1626 24.8955C22.365 23.4371 22.8312 22.4655 23.7402 21.6076C24.7877 20.619 26.0487 20.1484 27.4397 20.2268C28.2522 20.2726 28.7044 20.3912 29.4323 20.7495C30.9968 21.5196 32.0777 23.0618 32.2043 24.7044C32.2421 25.1942 32.2506 25.2166 32.4009 25.2166C32.6295 25.2166 32.9192 25.0247 33.0797 24.767C33.2087 24.5599 33.2215 24.4443 33.2415 23.29C33.288 20.6161 33.019 19.6521 31.9213 18.5578C31.3498 17.9881 30.5421 17.5594 29.7637 17.4126C29.2744 17.3203 26.3514 17.3014 22.5156 17.3657ZM5.72031 22.2356C4.65144 22.5232 3.77739 23.4018 3.48955 24.4781C3.44237 24.6547 3.40372 25.0014 3.40372 25.2487C3.40372 27.5916 5.91546 29.0955 7.98715 27.9931C8.46153 27.7406 9.06565 27.1051 9.30169 26.6103C9.87551 25.4076 9.64268 24.019 8.70823 23.0704C7.92033 22.2707 6.77718 21.9512 5.72031 22.2356ZM26.4689 22.2255C24.9304 22.5987 23.8586 24.1997 24.13 25.7191C24.574 28.2047 27.5088 29.2213 29.3129 27.5143C29.9952 26.8688 30.299 26.1708 30.299 25.2487C30.299 24.3266 29.9952 23.6286 29.3129 22.983C28.5555 22.2664 27.4804 21.98 26.4689 22.2255Z" fill="#2C2B46"/>
<path opacity="0.4" fill-rule="evenodd" clip-rule="evenodd" d="M21.3762 12.6076V15.4757L23.0235 15.4332C23.9295 15.4099 25.6025 15.3908 26.7411 15.3908H28.8112L27.9101 13.4482C27.4146 12.3798 26.9277 11.3872 26.8282 11.2424C26.5519 10.8405 25.9751 10.3456 25.531 10.1295C24.8216 9.78421 24.5173 9.73958 22.8713 9.73958H21.3762V12.6076Z" fill="#2C2B46"/>
<path opacity="0.4" fill-rule="evenodd" clip-rule="evenodd" d="M8.1687 10.6152L6.48364 11.6773V13.9515V16.2257H9.8867H13.2897L13.2729 13.9363L13.256 11.6469L11.587 10.5992C10.669 10.0229 9.90351 9.55175 9.88586 9.55226C9.86821 9.55278 9.09552 10.0311 8.1687 10.6152Z" fill="#2C2B46"/>
</svg>
