<svg width="16" height="16" viewBox="0 0 16 16" fill="none" xmlns="http://www.w3.org/2000/svg">
<path d="M6.75736 2.56225C7.17242 1.36817 8.86113 1.36817 9.2762 2.56225L9.90655 4.37569C10.0896 4.90245 10.5812 5.25961 11.1388 5.27097L13.0583 5.31008C14.3222 5.33584 14.844 6.9419 13.8366 7.70564L12.3067 8.86552C11.8623 9.20244 11.6746 9.78034 11.8361 10.3141L12.392 12.1517C12.7581 13.3617 11.3919 14.3543 10.3542 13.6323L8.77835 12.5357C8.3206 12.2171 7.71296 12.2171 7.2552 12.5357L5.67933 13.6323C4.64167 14.3543 3.27548 13.3617 3.64155 12.1517L4.19749 10.3141C4.35898 9.78034 4.17121 9.20244 3.72682 8.86552L2.19692 7.70564C1.18955 6.9419 1.71139 5.33584 2.97528 5.31008L4.89476 5.27097C5.45232 5.25961 5.94391 4.90245 6.12701 4.37569L6.75736 2.56225Z" fill="#FFC554"/>
</svg>
