<svg width="25" height="25" viewBox="0 0 25 25" fill="none" xmlns="http://www.w3.org/2000/svg">
<path fill-rule="evenodd" clip-rule="evenodd" d="M8.60738 7.87146L7.09975 5.81559C6.99722 5.67579 6.80348 5.64016 6.65792 5.73434C4.68549 7.01062 4.1433 8.96021 4.93463 10.3974C5.80006 11.9692 7.13482 13.8968 9.18218 15.9441C11.2295 17.9915 13.1571 19.3263 14.7289 20.1917C16.1661 20.983 18.1157 20.4408 19.392 18.4684C19.4862 18.3229 19.4505 18.1291 19.3107 18.0266L17.2549 16.5189C16.9525 16.2972 16.5516 16.2633 16.2163 16.4309L15.3968 16.8407C14.6999 17.1891 13.7444 17.3116 12.84 16.8463C12.2353 16.5352 11.3034 15.944 10.2428 14.8835C9.18229 13.8229 8.59113 12.891 8.28005 12.2863C7.81475 11.3819 7.93719 10.4265 8.28567 9.72949L8.6954 8.91004C8.86306 8.57471 8.82908 8.17378 8.60738 7.87146ZM5.57142 4.0552C3.0309 5.69906 1.72315 8.71134 3.18264 11.3621C4.13517 13.092 5.58201 15.1724 7.76797 17.3584C9.95393 19.5443 12.0343 20.9912 13.7643 21.9437C16.415 23.4032 19.4273 22.0954 21.0711 19.5549C21.7407 18.5201 21.4874 17.1427 20.4935 16.4138L18.4376 14.9061C17.5306 14.241 16.3278 14.1391 15.3219 14.6421L14.5024 15.0518C14.2652 15.1704 13.9908 15.1892 13.755 15.0678C13.3253 14.8468 12.5638 14.3761 11.6571 13.4693C10.7503 12.5625 10.2795 11.801 10.0585 11.3714C9.93716 11.1355 9.95592 10.8611 10.0745 10.6239L10.4843 9.80446C10.9872 8.7985 10.8853 7.5957 10.2202 6.68873L8.71256 4.63287C7.98366 3.63892 6.60624 3.38561 5.57142 4.0552Z" fill="#D1D3D4"/>
</svg>
