<svg width="27" height="27" viewBox="0 0 27 27" fill="none" xmlns="http://www.w3.org/2000/svg">
<path fill-rule="evenodd" clip-rule="evenodd" d="M9.97825 2.64226C9.96443 2.64199 9.95065 2.64199 9.93691 2.64226H7.84851C6.50816 2.64226 5.3053 3.4651 4.81949 4.71431L2.88256 9.69501C2.41197 10.9051 2.92899 12.2322 4.00028 12.8387V21.0589C4.00028 22.8538 5.45536 24.3089 7.25029 24.3089H20.2503C22.0452 24.3089 23.5003 22.8538 23.5003 21.0589V12.8387C24.5716 12.2322 25.0886 10.9051 24.618 9.69501L22.6811 4.71431C22.1953 3.4651 20.9924 2.64226 19.6521 2.64226H17.5637C17.55 2.64199 17.5362 2.64199 17.5224 2.64226H9.97825ZM21.3336 13.1922C20.8477 13.1353 20.3715 12.9945 19.927 12.7723L19.1675 12.3925L19.1663 12.3925L18.4703 12.6709C17.1789 13.1875 15.7383 13.1875 14.4469 12.6709L13.7503 12.3923L13.0537 12.6709C11.7623 13.1875 10.3217 13.1875 9.03026 12.6709L8.33425 12.3925L8.33313 12.3925L7.57359 12.7723C7.12911 12.9945 6.65287 13.1353 6.16695 13.1922V21.0589C6.16695 21.6572 6.65198 22.1422 7.25029 22.1422H9.41695V18.8923C9.41695 17.0973 10.872 15.6423 12.667 15.6423H14.8336C16.6285 15.6423 18.0836 17.0973 18.0836 18.8923V22.1422H20.2503C20.8486 22.1422 21.3336 21.6572 21.3336 21.0589V13.1922ZM20.1359 10.4543C20.1196 10.4462 20.1032 10.4382 20.0867 10.4305L18.882 4.80892H19.6521C20.0989 4.80892 20.4998 5.0832 20.6617 5.49961L22.5987 10.4803C22.6825 10.6959 22.5582 10.9361 22.3338 10.9922C21.8511 11.1129 21.341 11.0569 20.896 10.8343L20.1359 10.4543ZM17.8998 10.5656L16.6662 4.80892H14.8336V10.492L15.2516 10.6592C16.0264 10.9691 16.8908 10.9691 17.6656 10.6592L17.8998 10.5656ZM12.667 4.80892H10.8344L9.60086 10.5656L9.83494 10.6592C10.6098 10.9691 11.4741 10.9691 12.249 10.6592L12.667 10.492V4.80892ZM7.41397 10.4305L8.61858 4.80892H7.84851C7.40173 4.80892 7.00077 5.0832 6.83884 5.49961L4.9019 10.4803C4.81807 10.6959 4.94236 10.9361 5.16674 10.9922C5.64951 11.1129 6.15954 11.0569 6.60463 10.8343L7.36466 10.4543C7.38102 10.4462 7.39745 10.4382 7.41397 10.4305ZM15.917 18.8923V22.1422H11.5836V18.8923C11.5836 18.294 12.0686 17.8089 12.667 17.8089H14.8336C15.4319 17.8089 15.917 18.294 15.917 18.8923Z" fill="#D1D3D4"/>
</svg>
