<svg width="24" height="25" viewBox="0 0 24 25" fill="none" xmlns="http://www.w3.org/2000/svg">
<path fill-rule="evenodd" clip-rule="evenodd" d="M16.0555 0.731796C16.0539 0.647946 16.0523 0.563963 16.0523 0.47998C13.2854 0.706562 11.1355 3.17661 11.3828 5.68716C11.6812 5.75509 12.1755 5.69933 12.573 5.56656C14.2879 4.99281 15.9063 3.26003 16.0496 1.27235C16.0625 1.09368 16.059 0.913051 16.0555 0.731796ZM7.6261 22.5631H8.21001C8.61916 22.5016 9.02045 22.3972 9.40703 22.2516C9.50245 22.2161 9.59745 22.1796 9.69239 22.1432C9.91791 22.0567 10.1431 21.9702 10.3727 21.8975C11.3789 21.5785 12.3821 21.6167 13.3761 21.9559C13.5355 22.0104 13.6936 22.0691 13.8516 22.1278C14.1232 22.2287 14.3946 22.3295 14.6724 22.4087C15.4056 22.6178 16.1384 22.6078 16.8283 22.246C17.0768 22.1116 17.3101 21.9516 17.5245 21.769C18.4718 20.981 19.1784 20.0054 19.7623 18.9367C20.1308 18.2618 20.4416 17.5613 20.7242 16.8481C20.7334 16.8251 20.7444 16.8029 20.7556 16.7806C20.7607 16.7703 20.7659 16.7599 20.7709 16.7494V16.6609C20.2343 16.4621 19.7429 16.1605 19.3252 15.7736C18.1327 14.6799 17.5724 13.3215 17.6858 11.7244C17.7835 10.3425 18.446 9.2355 19.5352 8.37121C19.6379 8.29045 19.7423 8.21367 19.8496 8.13888C19.9203 8.08966 19.9922 8.04409 20.0721 7.99346C20.1136 7.96715 20.1573 7.93947 20.204 7.9092C20.1353 7.8333 20.0684 7.75682 20.0018 7.68077C19.86 7.5187 19.7199 7.35862 19.568 7.21042C18.7177 6.38154 17.6689 5.96754 16.5043 5.77725C15.5029 5.61351 14.5522 5.79053 13.609 6.10031C12.9467 6.31737 12.2812 6.52493 11.6102 6.71057C11.4539 6.75372 11.2587 6.71876 11.0963 6.67074C10.6641 6.54306 10.2381 6.39448 9.81248 6.24604L9.78163 6.23528C9.21412 6.03724 8.63919 5.87085 8.04045 5.79053C7.64182 5.73698 7.24992 5.78632 6.85915 5.85049C6.04639 5.98458 5.28843 6.26095 4.60053 6.71345C3.68918 7.31287 3.03565 8.12516 2.58267 9.10008C2.17325 9.9803 1.96349 10.9107 1.90578 11.8739C1.79708 13.6904 2.15843 15.4256 2.86003 17.0979C3.49222 18.6052 4.37169 19.9605 5.46967 21.1797C5.79172 21.5362 6.1241 21.8772 6.53283 22.1389C6.85623 22.3463 7.20142 22.4954 7.5868 22.5454C7.60073 22.5493 7.61398 22.5553 7.6261 22.5631Z" fill="black"/>
</svg>
