<svg width="106" height="126" viewBox="0 0 106 126" fill="none" xmlns="http://www.w3.org/2000/svg">
<path d="M11.6408 0.472519C9.0245 1.18162 6.8972 2.4531 4.62319 4.72711C3.03383 6.31647 2.44699 7.12338 1.64008 8.7861C1.10215 9.93533 0.515304 11.4758 0.344142 12.2093C0.0507217 13.3097 0.00181824 22.2101 0.00181824 62.5799C0.00181824 116.765 -0.12044 112.633 1.64008 116.374C2.96048 119.161 5.94359 122.169 8.68218 123.514C12.2766 125.274 8.77999 125.176 58.4414 125.176C102.895 125.176 103.188 125.176 103.995 124.687C105.413 123.807 105.511 123.269 105.511 115.64C105.511 109.38 105.462 108.696 105.046 107.864C104.777 107.375 104.239 106.764 103.848 106.52C102.846 105.957 101.183 105.982 100.18 106.593C98.8356 107.424 98.6645 108.182 98.6645 113.684V118.574H57.659C31.5201 118.574 16.0177 118.476 14.9418 118.33C12.6678 117.987 10.8584 117.034 9.29347 115.347C7.5574 113.488 6.8972 111.777 6.8972 109.16C6.8972 107.571 7.01946 106.96 7.5085 105.859C8.70663 103.268 10.3449 101.654 12.7901 100.676L14.1838 100.113L58.7348 99.991L103.286 99.8687L103.971 99.3553C104.337 99.0863 104.851 98.475 105.071 98.0104C105.487 97.228 105.511 94.4405 105.511 49.9139C105.511 -2.09492 105.609 1.47504 103.995 0.472519C103.188 -0.0165176 102.895 -0.0165176 58.3192 0.00793457C14.7707 0.00793457 13.4014 0.0323868 11.6408 0.472519ZM63.5518 13.8232C72.599 15.3392 80.7903 21.0364 85.5584 29.2033C87.8568 33.14 89.2017 37.6391 89.6418 42.774L89.8863 45.806L90.791 46.564C92.8694 48.2512 94.1409 50.1339 94.9234 52.6769C95.3146 53.9973 95.3635 55.1466 95.3635 64.2915C95.3635 74.2189 95.3635 74.4634 94.8011 76.0528C93.0406 81.1632 88.6882 84.3419 83.5044 84.3419C78.2229 84.3419 73.577 80.7964 72.1588 75.6615C71.7921 74.3656 71.7432 72.8985 71.8165 63.5335L71.8899 52.8725L72.9413 50.7941C73.7482 49.1314 74.335 48.349 75.6554 47.1264L77.3671 45.537L77.147 43.2386C76.3156 34.6316 70.4961 28.0051 62.1581 26.2202C59.4928 25.6578 53.1599 25.8778 50.8614 26.6114C43.3792 29.0077 38.0487 35.7074 37.6086 43.2875L37.4618 45.6348L38.5866 46.7841C39.907 48.1778 41.0562 50.2562 41.5697 52.1879C42.1077 54.2907 42.1077 72.3117 41.5697 74.3901C40.4205 78.8158 37.144 82.0679 32.7182 83.2171C26.6297 84.8065 20.1011 80.6497 18.5851 74.2922C18.0472 72.0182 18.0472 54.6086 18.5851 52.3346C19.2942 49.327 21.4949 46.295 24.0379 44.8035C25.0404 44.1922 25.0648 44.1677 25.0648 42.8473C25.0648 42.1138 25.2849 40.3777 25.5783 39.0329C27.8768 27.7362 35.4324 18.958 46.24 15.0702C51.1059 13.3097 57.6101 12.8451 63.5518 13.8232Z" fill="#CA7CD8"/>
</svg>
