<svg width="25" height="24" viewBox="0 0 25 24" fill="none" xmlns="http://www.w3.org/2000/svg">
<path d="M24.756 12.0704C24.756 5.66918 19.4162 0.47998 12.8292 0.47998C6.24216 0.47998 0.902344 5.66918 0.902344 12.0704C0.902344 17.8554 5.26379 22.6505 10.9656 23.52V15.4207H7.93731V12.0704H10.9656V9.51687C10.9656 6.61203 12.7462 5.00748 15.4705 5.00748C16.775 5.00748 18.1403 5.23386 18.1403 5.23386V8.08618H16.6364C15.1549 8.08618 14.6927 8.97968 14.6927 9.89718V12.0704H18.0006L17.4718 15.4207H14.6927V23.52C20.3946 22.6505 24.756 17.8554 24.756 12.0704Z" fill="#1877F2"/>
<path d="M17.472 15.33L18.0008 12H14.6929V9.83998C14.6929 8.92896 15.1551 8.03998 16.6366 8.03998H18.1405V5.20498C18.1405 5.20498 16.7757 4.97998 15.4707 4.97998C12.7464 4.97998 10.9658 6.57478 10.9658 9.46198V12H7.9375V15.33H10.9658V23.38C12.2007 23.5666 13.4581 23.5666 14.6929 23.38V15.33H17.472Z" fill="white"/>
</svg>
