<svg width="287" height="309" viewBox="0 0 287 309" fill="none" xmlns="http://www.w3.org/2000/svg">
<path d="M286.2 116.8C286.2 181.4 233.9 233.7 169.4 233.7C104.9 233.7 52.5996 181.4 52.5996 116.8C52.5996 52.3 104.9 0 169.4 0C233.9 0 286.2 52.3 286.2 116.8Z" fill="#CA7CD8"/>
<path d="M61.4008 108.5V90.4C61.4008 89.2 62.1008 88.1 63.3008 87.8L67.6008 86.3C69.4008 85.6 70.6008 83.9 70.6008 82V78L58.3008 82.3V110C58.0341 110.2 57.7341 110.433 57.4008 110.7C54.4008 113.2 52.3008 116.7 52.6008 118.5C52.9008 120.3 55.6008 119.8 58.5008 117.3C61.5008 114.8 63.7008 111.3 63.3008 109.5C63.2008 108.6 62.5008 108.3 61.4008 108.5Z" fill="white"/>
<path d="M37.1009 90.2998C36.9009 89.2998 36.1009 88.9998 35.0009 89.1998V59.7998L7.20086 69.2998V99.1998C6.86753 99.4665 6.53419 99.7331 6.20086 99.9998C3.00086 102.7 0.700907 106.5 1.00091 108.4C1.30091 110.4 4.20087 109.8 7.40087 107.1C10.6009 104.4 12.9009 100.6 12.6009 98.6998C12.4009 97.6998 11.6009 97.3998 10.5009 97.5998V77.7998C10.5009 76.6998 11.2009 75.6998 12.3009 75.2998L30.1009 69.1998C30.9009 68.8998 31.7009 69.4998 31.7009 70.2998V90.7998C31.3675 91.0665 31.0342 91.3331 30.7009 91.5998C27.5009 94.2998 25.2009 97.9998 25.5009 99.9998C25.8009 102 28.7009 101.4 31.9009 98.6998C35.1009 95.9998 37.4009 92.1998 37.1009 90.2998Z" fill="#FF5E00"/>
<path d="M124 150.6C119.5 150.6 117.2 149.4 115.2 148.4C113.4 147.5 112 146.8 109 146.8C105.9 146.8 104.6 147.5 102.8 148.4C100.8 149.4 98.4 150.6 94 150.6C89.5 150.6 87.2 149.4 85.1 148.4C83.4 147.5 82 146.8 79 146.8C75.9 146.8 74.6 147.5 72.8 148.4C70.8 149.4 68.4 150.6 64 150.6C59.5 150.6 57.2 149.4 55.1 148.4C53.4 147.5 52 146.8 49 146.8C45.9 146.8 44.6 147.5 42.8 148.4C40.8 149.4 38.4 150.6 34 150.6C29.5 150.6 27.2 149.4 25.1 148.4C23.4 147.5 22 146.8 19 146.8V140.8C23.4 140.8 25.8 142 27.8 143C29.6 143.9 30.9 144.6 34 144.6C37 144.6 38.4 143.9 40.1 143C42.2 142 44.5 140.8 49 140.8C53.4 140.8 55.8 142 57.8 143C59.6 143.9 60.9 144.6 64 144.6C67 144.6 68.4 143.9 70.1 143C72.2 142 74.5 140.8 79 140.8C83.4 140.8 85.8 142 87.8 143C89.6 143.9 90.9 144.6 94 144.6C97 144.6 98.4 143.9 100.1 143C102.2 142 104.5 140.8 109 140.8C113.5 140.8 115.8 142 117.8 143C119.6 143.9 121 144.6 124 144.6C127.1 144.6 128.4 143.9 130.2 143C132.2 142 134.6 140.8 139 140.8V146.8C136 146.8 134.6 147.5 132.9 148.4C130.8 149.4 128.5 150.6 124 150.6Z" fill="#3465D9"/>
<path d="M124 164.2C119.5 164.2 117.2 163 115.2 162C113.4 161.1 112 160.4 109 160.4C105.9 160.4 104.6 161.1 102.8 162C100.8 163 98.4 164.2 94 164.2C89.5 164.2 87.2 163 85.1 162C83.4 161.1 82 160.4 79 160.4C75.9 160.4 74.6 161.1 72.8 162C70.8 163 68.4 164.2 64 164.2C59.5 164.2 57.2 163 55.1 162C53.4 161.1 52 160.4 49 160.4C45.9 160.4 44.6 161.1 42.8 162C40.8 163 38.4 164.2 34 164.2C29.5 164.2 27.2 163 25.1 162C23.4 161.1 22 160.4 19 160.4V154.4C23.4 154.4 25.8 155.6 27.8 156.6C29.6 157.5 30.9 158.2 34 158.2C37 158.2 38.4 157.5 40.1 156.6C42.2 155.6 44.5 154.4 49 154.4C53.4 154.4 55.8 155.6 57.8 156.6C59.6 157.5 60.9 158.2 64 158.2C67 158.2 68.4 157.5 70.1 156.6C72.2 155.6 74.5 154.4 79 154.4C83.4 154.4 85.8 155.6 87.8 156.6C89.6 157.5 90.9 158.2 94 158.2C97 158.2 98.4 157.5 100.1 156.6C102.2 155.6 104.5 154.4 109 154.4C113.5 154.4 115.8 155.6 117.8 156.6C119.6 157.5 121 158.2 124 158.2C127.1 158.2 128.4 157.5 130.2 156.6C132.2 155.6 134.6 154.4 139 154.4V160.4C136 160.4 134.6 161.1 132.9 162C130.8 163 128.5 164.2 124 164.2Z" fill="#3465D9"/>
<path d="M124 177.7C119.5 177.7 117.2 176.6 115.2 175.5C113.4 174.7 112 174 109 174C105.9 174 104.6 174.7 102.8 175.5C100.8 176.6 98.4 177.7 94 177.7C89.5 177.7 87.2 176.6 85.1 175.5C83.4 174.7 82 174 79 174C75.9 174 74.6 174.7 72.8 175.5C70.8 176.6 68.4 177.7 64 177.7C59.5 177.7 57.2 176.6 55.1 175.5C53.4 174.7 52 174 49 174C45.9 174 44.6 174.7 42.8 175.5C40.8 176.6 38.4 177.7 34 177.7C29.5 177.7 27.2 176.6 25.1 175.5C23.4 174.7 22 174 19 174V168C23.4 168 25.8 169.2 27.8 170.2C29.6 171.1 30.9 171.7 34 171.7C37 171.7 38.4 171.1 40.1 170.2C42.2 169.2 44.5 168 49 168C53.4 168 55.8 169.2 57.8 170.2C59.6 171.1 60.9 171.7 64 171.7C67 171.7 68.4 171.1 70.1 170.2C72.2 169.2 74.5 168 79 168C83.4 168 85.8 169.2 87.8 170.2C89.6 171.1 90.9 171.7 94 171.7C97 171.7 98.4 171.1 100.1 170.2C102.2 169.2 104.5 168 109 168C113.5 168 115.8 169.2 117.8 170.2C119.6 171.1 121 171.7 124 171.7C127.1 171.7 128.4 171.1 130.2 170.2C132.2 169.2 134.6 168 139 168V174C136 174 134.6 174.7 132.9 175.5C130.8 176.6 128.5 177.7 124 177.7Z" fill="#3465D9"/>
<path d="M124 191.3C119.5 191.3 117.2 190.2 115.2 189.1C113.4 188.3 112 187.6 109 187.6C105.9 187.6 104.6 188.3 102.8 189.1C100.8 190.2 98.4 191.3 94 191.3C89.5 191.3 87.2 190.2 85.1 189.1C83.4 188.3 82 187.6 79 187.6C75.9 187.6 74.6 188.3 72.8 189.1C70.8 190.2 68.4 191.3 64 191.3C59.5 191.3 57.2 190.2 55.1 189.1C53.4 188.3 52 187.6 49 187.6C45.9 187.6 44.6 188.3 42.8 189.1C40.8 190.2 38.4 191.3 34 191.3C29.5 191.3 27.2 190.2 25.1 189.1C23.4 188.3 22 187.6 19 187.6V181.6C23.4 181.6 25.8 182.7 27.8 183.8C29.6 184.6 30.9 185.3 34 185.3C37 185.3 38.4 184.6 40.1 183.8C42.2 182.7 44.5 181.6 49 181.6C53.4 181.6 55.8 182.7 57.8 183.8C59.6 184.6 60.9 185.3 64 185.3C67 185.3 68.4 184.6 70.1 183.8C72.2 182.7 74.5 181.6 79 181.6C83.4 181.6 85.8 182.7 87.8 183.8C89.6 184.6 90.9 185.3 94 185.3C97 185.3 98.4 184.6 100.1 183.8C102.2 182.7 104.5 181.6 109 181.6C113.5 181.6 115.8 182.7 117.8 183.8C119.6 184.6 121 185.3 124 185.3C127.1 185.3 128.4 184.6 130.2 183.8C132.2 182.7 134.6 181.6 139 181.6V187.6C136 187.6 134.6 188.3 132.9 189.1C130.8 190.2 128.5 191.3 124 191.3Z" fill="#3465D9"/>
<path d="M113.2 33.0998C108 37.9998 103.1 42.2998 103.7 53.7998C104.3 65.2998 106.9 69.7998 105 76.3998C103.1 82.9998 98.0999 96.8998 112.1 101.9C121.6 105.3 160.6 103.1 160.6 103.1C167.1 102.6 176 83.2998 161.8 68.4998C147.6 53.5998 118.2 28.3998 113.2 33.0998Z" fill="black"/>
<path d="M114.799 43.8997C114.799 43.8997 110.799 61.7996 112.399 85.5996C112.599 89.6996 115.799 92.9997 119.899 93.2997C122.299 93.4997 125.099 93.6997 128.299 93.7997C130.099 93.7997 131.599 95.0997 131.899 96.8997L133.999 108.8C134.599 112.1 137.499 114.6 140.899 114.6H151.999C156.399 114.6 159.699 110.6 158.899 106.2L154.299 81.8997C154.299 81.8997 161.999 58.6996 155.299 47.6996C146.099 32.4996 118.199 31.6997 114.799 43.8997Z" fill="#FF9C91"/>
<path d="M158.9 106.2L154.3 81.8998C154.3 81.8998 155.5 78.0998 156.6 72.7998C153.2 71.4998 150.5 71.8997 149.1 75.0997C142.6 89.5997 122.2 93.3997 122.1 93.4997C123.966 93.5664 126.066 93.6664 128.4 93.7998C130.1 93.7998 131.6 95.0998 131.9 96.8998L134 108.8C134.6 112.1 137.5 114.6 140.9 114.6H152C156.4 114.6 159.7 110.6 158.9 106.2Z" fill="url(#paint0_linear_2_2774)"/>
<path d="M90.3001 157.3C90.3001 157.3 70.4001 193 79.0001 201.6C87.5001 210.2 98.5001 195.4 101.9 190.3C110.1 177.8 119.4 155.2 119.4 155.2L105.5 122.5L90.3001 157.3Z" fill="#FF9C91"/>
<path d="M105.5 122.5L90.3004 157.3C90.3004 157.3 85.7004 165.7 81.9004 175.2C85.1004 182.2 90.2004 190 98.2004 195.2C99.8004 193.3 101 191.5 101.9 190.3C110.1 177.8 119.4 155.2 119.4 155.2L105.5 122.5Z" fill="url(#paint1_linear_2_2774)"/>
<path d="M118.4 220.7L94 308H211.8C211.8 308 200.8 285.8 199.8 271.7C198.8 257.6 194.8 235.8 182.9 220.7H118.4Z" fill="#203E87"/>
<path d="M179 223.8C179 223.8 186.9 242.9 188.7 260.7C190.6 280.2 195.7 298.1 202.2 308" stroke="white" stroke-width="1.1"/>
<path style="mix-blend-mode:multiply" opacity="0.6" d="M182.899 220.7H118.399L113.199 239.4L196.499 250.8C193.999 240.4 189.799 229.4 182.899 220.7Z" fill="url(#paint2_linear_2_2774)"/>
<path d="M133.5 106.1C132.2 106.2 105.5 122.5 105.5 122.5C105.5 122.5 98.6997 145.2 108.9 164C119.2 182.8 120.2 200.1 118.1 207.4C116 214.6 108.4 228.5 120.1 228.5C131.8 228.5 191 228.5 191 228.5L186.3 216.8L194.9 149.4L182.9 108.6C182.9 108.6 170.6 104.2 154.3 103.8C147.2 108.1 139 108.1 133.5 106.1Z" fill="#FF5E00"/>
<path d="M119 199C119 199.667 119 200.333 119 201L189.1 194.5L189.4 192.5L119 199Z" fill="#FFD363"/>
<path d="M114.3 218.8C114.167 219.467 114.034 220.133 113.9 220.8L186.7 214.1L186.9 212.1L114.3 218.8Z" fill="#FFD363"/>
<path d="M115.701 179.9C115.901 180.567 116.101 181.233 116.301 181.9L191.601 174.9L191.901 172.9L115.701 179.9Z" fill="#FFD363"/>
<path d="M105.4 122.8C105.3 123.2 105.1 123.9 104.9 124.9L185.5 117.4L184.9 115.5L105.4 122.8Z" fill="#FFD363"/>
<path d="M103.301 142.4C103.367 143 103.401 143.666 103.401 144.4L191.001 136.3L190.401 134.3L103.301 142.4Z" fill="#FFD363"/>
<path d="M107.602 161.3C107.868 161.966 108.168 162.6 108.502 163.2L194.102 155.4L194.402 153.3L107.602 161.3Z" fill="#FFD363"/>
<g style="mix-blend-mode:multiply" opacity="0.4">
<path d="M135 169H110.3C109.1 169 108.1 168.2 107.9 167L99.4005 115.3C99.2005 113.9 100.3 112.6 101.8 112.6H126.5C127.6 112.6 128.6 113.4 128.8 114.6L137.3 166.3C137.6 167.7 136.4 169 135 169Z" fill="url(#paint3_linear_2_2774)"/>
</g>
<path d="M181.2 106.2C193.2 105 199.9 120.2 203.1 132C206.3 143.8 216.5 171 216.5 171L241.8 111.7C241.8 111.7 237.6 101.1 241.8 93.3999C246 85.6999 251.1 86.3999 251.1 86.3999L252.7 90.8999C252.7 90.8999 257.2 89.5999 261.1 93.0999C262.5 94.4999 263.8 97.7998 264.7 101.5C266.7 109 262.6 116.8 255.3 119.5C254.767 119.7 254.233 119.867 253.7 120C251.5 120.8 250 122.6 249.5 124.9C244.2 149.9 235.6 173.7 227.5 193.8C223.3 204.3 208.7 204.6 204.1 194.3C193.9 171.9 180.6 142.1 177.4 133.5C172.8 121.1 170.9 107.3 181.2 106.2Z" fill="#FF9C91"/>
<path d="M130.001 166.1H105.301C104.101 166.1 103.101 165.2 102.901 164.1L94.4005 112.4C94.2005 110.9 95.3005 109.6 96.7005 109.6H121.501C122.601 109.6 123.601 110.5 123.801 111.6L132.301 163.3C132.601 164.8 131.401 166.1 130.001 166.1Z" fill="white"/>
<path d="M124.301 111.6C124.101 110.5 123.101 109.6 122.001 109.6C120.401 109.6 119.201 111.1 119.401 112.6L128.001 164C128.201 165.2 129.301 166.1 130.501 166.1C132.001 166.1 133.101 164.8 132.801 163.3L124.301 111.6Z" fill="#9D9D9D"/>
<path d="M102.2 115.7C102.4 117.1 101.9 118.4 101 118.5C100.1 118.7 99.0996 117.7 98.7996 116.4C98.5996 115 99.0996 113.8 99.9996 113.6C101 113.4 101.9 114.4 102.2 115.7Z" fill="#747E96"/>
<path d="M125.301 93.5C125.801 112.7 132.601 139.5 152.601 147.6" stroke="white"/>
<path d="M87.8995 151.7C87.8995 151.7 96.7995 134 105.6 132C103.4 136.2 99.4995 143.5 99.4995 143.5C99.4995 143.5 108.3 137.9 110.5 139.3C112.8 140.7 111.6 158 111.6 158L103.3 166.1H110C110 166.1 102.699 172.6 96.8995 170.6C91.1995 168.6 84.2995 157.8 87.8995 151.7Z" fill="#FF9C91"/>
<path d="M114.3 50.3998C116.3 58.5998 123.3 69.9998 139.5 75.1998C143.4 76.4998 146.1 79.8998 146.4 83.9998C147.1 91.6998 149.1 103.4 155.5 107C165.3 112.6 189.3 108.2 194.3 97.5998C199.3 87.0998 188.3 81.4998 180.7 70.0998C173.1 58.6998 163.9 39.5998 152.5 30.8998C142 22.8998 121.4 24.8998 113.2 33.0998C113.2 33.0998 112.3 41.7998 114.3 50.3998Z" fill="black"/>
<path d="M132.5 24.4999C138.2 27.7999 153.2 38.4999 155.3 62.1999H163.2C163.2 62.1999 162.8 41.7999 145.6 25.3999C145.467 25.2666 145.3 25.1666 145.1 25.0999C143.9 24.7999 139 23.6999 132.8 23.3999C132.2 23.3999 132 24.1999 132.5 24.4999Z" fill="white"/>
<path d="M162.6 80.2998C166.7 102 149.7 128.9 152.9 149.2C157.7 180.3 175.6 192.5 175.5 214.3C175.4 250.8 128 253 136.2 214.3C142.2 186.5 119 181.9 115.9 163.4" stroke="white"/>
<path d="M172.601 68.0002C172.601 77.5002 166.501 85.3002 158.901 85.3002C151.401 85.3002 145.301 77.5002 145.301 68.0002C145.301 58.4002 151.401 50.7002 158.901 50.7002C166.501 50.7002 172.601 58.4002 172.601 68.0002Z" fill="#3465D9"/>
<path style="mix-blend-mode:multiply" opacity="0.2" d="M172.601 68.0002C172.601 77.5002 166.501 85.3002 158.901 85.3002C151.401 85.3002 145.301 77.5002 145.301 68.0002C145.301 58.4002 151.401 50.7002 158.901 50.7002C166.501 50.7002 172.601 58.4002 172.601 68.0002Z" fill="url(#paint4_linear_2_2774)"/>
<path d="M161.3 51C154.9 52.4 150 59.5 150 68C150 76.5 154.9 83.6 161.3 85C167.7 83.6 172.6 76.5 172.6 68C172.6 59.5 167.7 52.4 161.3 51Z" fill="#3465D9"/>
<path d="M27.7992 270.4V252.3C27.7992 251.1 28.5992 250 29.6992 249.6L33.9992 248.2C35.7992 247.5 37.0992 245.8 37.0992 243.8V239.9L24.7992 244.1V271.9C24.4659 272.1 24.1325 272.333 23.7992 272.6C20.7992 275.1 18.6992 278.6 18.9992 280.4C19.2992 282.2 21.9992 281.7 24.8992 279.2C27.8992 276.7 30.0992 273.2 29.7992 271.4C29.5992 270.5 28.8992 270.2 27.7992 270.4Z" fill="white"/>
<path d="M265.2 255.8C265 254.8 264.2 254.5 263.1 254.7V225.3L235.3 234.9V264.8C234.967 265 234.634 265.233 234.3 265.5C231.1 268.2 228.7 272 229.1 274C229.4 275.9 232.3 275.3 235.5 272.6C238.7 270 241 266.2 240.7 264.2C240.5 263.3 239.7 262.9 238.6 263.1V243.4C238.6 242.2 239.3 241.2 240.4 240.9L258.2 234.7C259 234.5 259.8 235 259.8 235.9V256.3C259.467 256.566 259.134 256.833 258.8 257.1C255.6 259.8 253.2 263.6 253.6 265.5C253.9 267.5 256.8 266.9 260 264.2C263.2 261.5 265.5 257.8 265.2 255.8Z" fill="#FF5E00"/>
<defs>
<linearGradient id="paint0_linear_2_2774" x1="119.7" y1="121" x2="101.3" y2="88.0997" gradientUnits="userSpaceOnUse">
<stop offset="0.194" stop-color="#FF9C91"/>
<stop offset="1" stop-color="#F27C6F"/>
</linearGradient>
<linearGradient id="paint1_linear_2_2774" x1="-7.19961" y1="189.9" x2="38.7004" y2="107" gradientUnits="userSpaceOnUse">
<stop offset="0.194" stop-color="#FF9C91"/>
<stop offset="1" stop-color="#F27C6F"/>
</linearGradient>
<linearGradient id="paint2_linear_2_2774" x1="160.299" y1="172.8" x2="160.299" y2="264.8" gradientUnits="userSpaceOnUse">
<stop offset="0.129"/>
<stop offset="1" stop-color="white"/>
</linearGradient>
<linearGradient id="paint3_linear_2_2774" x1="161.3" y1="125.6" x2="167.3" y2="208.1" gradientUnits="userSpaceOnUse">
<stop offset="0.129"/>
<stop offset="1" stop-color="white"/>
</linearGradient>
<linearGradient id="paint4_linear_2_2774" x1="182.001" y1="64.0002" x2="180.401" y2="92.2002" gradientUnits="userSpaceOnUse">
<stop offset="0.129"/>
<stop offset="1" stop-color="white"/>
</linearGradient>
</defs>
</svg>
