<svg width="286" height="298" viewBox="0 0 286 298" fill="none" xmlns="http://www.w3.org/2000/svg">
<path d="M217.354 109.165C217.354 168.965 168.854 217.465 108.954 217.465C49.1543 217.465 0.654297 168.965 0.654297 109.165C0.654297 49.2647 49.1543 0.764648 108.954 0.764648C168.854 0.764648 217.354 49.2647 217.354 109.165Z" fill="#CA7CD8"/>
<path d="M285.254 220.765H173.754L145.854 284.065H257.354L285.254 220.765Z" fill="#3465D9"/>
<path d="M257.354 297.365H145.854V284.065H257.354V297.365Z" fill="#203E87"/>
<path d="M257.354 297.265L285.254 234.665V221.265L257.354 283.865V297.265Z" fill="#203E87"/>
<path d="M152.754 284.065H257.354V293.365" stroke="white" stroke-width="0.5"/>
<path d="M257.354 284.065L282.954 225.965" stroke="white" stroke-width="0.5"/>
<path d="M285.254 201.165H173.754L145.854 264.465H257.354L285.254 201.165Z" fill="#3465D9"/>
<path d="M257.354 277.865H145.854V264.465H257.354V277.865Z" fill="#203E87"/>
<path d="M257.354 277.765L285.254 215.065V201.765L257.354 264.365V277.765Z" fill="#203E87"/>
<path d="M152.754 264.465H257.354V273.865" stroke="white" stroke-width="0.5"/>
<path d="M257.354 264.465L282.954 206.465" stroke="white" stroke-width="0.5"/>
<path d="M220.854 230.465C220.854 232.665 218.454 234.465 215.554 234.465C212.654 234.465 210.254 232.665 210.254 230.465C210.254 228.365 212.654 226.565 215.554 226.565C218.454 226.565 220.854 228.365 220.854 230.465Z" fill="white"/>
<path d="M241.854 248.165H198.254C196.154 248.165 194.154 247.065 193.054 245.165L181.154 224.565" stroke="#F9C546" stroke-width="1.1"/>
<path d="M185.954 225.165C185.954 226.565 183.854 227.565 181.354 227.565C178.854 227.565 176.754 226.565 176.754 225.165C176.754 223.865 178.854 222.765 181.354 222.765C183.854 222.765 185.954 223.865 185.954 225.165Z" fill="#F9C546"/>
<path d="M239.654 241.365V255.765C239.654 256.565 240.954 257.165 242.554 257.165C244.254 257.165 245.554 256.565 245.554 255.765V241.365H239.654Z" fill="#203E87"/>
<path d="M245.554 241.365C245.554 242.165 244.254 242.765 242.554 242.765C240.954 242.765 239.654 242.165 239.654 241.365C239.654 240.665 240.954 239.965 242.554 239.965C244.254 239.965 245.554 240.665 245.554 241.365Z" fill="white"/>
<g style="mix-blend-mode:multiply" opacity="0.6">
<path fill-rule="evenodd" clip-rule="evenodd" d="M225.552 177.765C225.552 203.065 204.952 223.665 179.552 223.665C154.152 223.665 133.652 203.065 133.652 177.765C133.652 152.365 154.152 131.765 179.552 131.765C204.952 131.765 225.552 152.365 225.552 177.765ZM190.152 177.765C190.152 171.865 185.452 167.165 179.552 167.165C173.752 167.165 169.052 171.865 169.052 177.765C169.052 183.565 173.752 188.265 179.552 188.265C185.452 188.265 190.152 183.565 190.152 177.765Z" fill="url(#paint0_linear_2_2655)"/>
</g>
<path d="M130.252 237.565L145.852 297.365H101.252L95.1523 275.265V297.365H45.6523V237.565H130.252Z" fill="#203E87"/>
<path d="M55.9531 234.565V297.365" stroke="white" stroke-width="1.1"/>
<path style="mix-blend-mode:multiply" opacity="0.6" d="M45.6523 249.265L137.152 263.965L130.252 237.565H45.6523V249.265Z" fill="url(#paint1_linear_2_2655)"/>
<path d="M138.053 112.565L155.353 159.765H125.553L138.053 112.565Z" fill="#FF5E00"/>
<path style="mix-blend-mode:multiply" opacity="0.6" d="M138.053 112.565L155.353 159.765H125.553L138.053 112.565Z" fill="url(#paint2_linear_2_2655)"/>
<path d="M144.652 62.5654C152.452 59.0654 162.352 43.4654 148.352 32.4654C135.152 22.0654 113.752 18.4654 105.252 34.8654C105.252 34.8654 74.7523 43.6654 99.3523 88.3654L144.652 62.5654Z" fill="black"/>
<path d="M144.654 62.5652L135.254 94.8652C134.654 96.7652 132.954 98.0652 130.954 98.0652H124.954C123.254 98.0652 121.754 99.1652 121.254 100.865L119.754 106.365H94.3535L104.254 71.0652C104.254 71.0652 110.453 70.6652 118.553 61.3652C118.553 61.3652 127.854 68.2652 144.654 62.5652Z" fill="#FF9C91"/>
<path d="M105.954 82.5651C105.954 82.5651 103.954 81.9651 101.354 81.2651L94.3535 106.365H119.754L121.254 100.865C121.654 99.5651 122.654 98.5651 123.954 98.2651V98.0651C110.154 97.7651 105.954 82.5651 105.954 82.5651Z" fill="url(#paint3_linear_2_2655)"/>
<path style="mix-blend-mode:multiply" opacity="0.6" d="M115.553 79.365C113.353 86.765 106.853 91.4651 100.953 89.7651C95.0528 87.9651 92.0528 80.5651 94.2528 73.0651C96.4528 65.5651 103.053 60.8651 108.953 62.6651C114.853 64.3651 117.753 71.865 115.553 79.365Z" fill="url(#paint4_linear_2_2655)"/>
<path d="M135.453 23.6652C107.053 33.2652 101.153 66.0652 101.053 66.3652L106.953 67.3652C107.053 67.0652 113.153 33.4652 143.253 27.7652C143.953 27.6652 144.153 26.7652 143.553 26.3652L139.953 24.1652C138.653 23.3652 136.953 23.1652 135.453 23.6652Z" fill="#747E96"/>
<path d="M108.652 103.265C79.1524 103.265 66.8524 113.665 66.8524 113.665L47.5524 217.365C45.4524 228.665 31.7524 237.565 47.1524 237.565H130.752L138.052 112.565C131.252 107.265 120.652 103.265 108.652 103.265Z" fill="#FF5E00"/>
<path fill-rule="evenodd" clip-rule="evenodd" d="M222.853 174.365C222.853 199.765 202.253 220.365 176.853 220.365C151.453 220.365 130.953 199.765 130.953 174.365C130.953 148.965 151.453 128.465 176.853 128.465C202.253 128.465 222.853 148.965 222.853 174.365ZM187.453 174.365C187.453 168.565 182.653 163.865 176.853 163.865C171.053 163.865 166.353 168.565 166.353 174.365C166.353 180.165 171.053 184.965 176.853 184.965C182.653 184.965 187.453 180.165 187.453 174.365Z" fill="black"/>
<path fill-rule="evenodd" clip-rule="evenodd" d="M197.653 174.365C197.653 185.865 188.353 195.165 176.853 195.165C165.353 195.165 156.053 185.865 156.053 174.365C156.053 162.865 165.353 153.565 176.853 153.565C188.353 153.565 197.653 162.865 197.653 174.365ZM187.453 174.365C187.453 168.565 182.653 163.865 176.853 163.865C171.053 163.865 166.353 168.565 166.353 174.365C166.353 180.165 171.053 184.965 176.853 184.965C182.653 184.965 187.453 180.165 187.453 174.365Z" fill="#FF5E00"/>
<path d="M206.854 174.365C206.854 190.965 193.454 204.365 176.854 204.365C160.254 204.365 146.854 190.965 146.854 174.365C146.854 157.765 160.254 144.365 176.854 144.365C193.454 144.365 206.854 157.765 206.854 174.365Z" stroke="white" stroke-width="1.1"/>
<path d="M214.354 174.365C214.354 195.065 197.554 211.865 176.854 211.865C156.154 211.865 139.354 195.065 139.354 174.365C139.354 153.665 156.154 136.865 176.854 136.865C197.554 136.865 214.354 153.665 214.354 174.365Z" stroke="white" stroke-width="1.1"/>
<path d="M97.8536 80.0654L92.0536 104.965C90.0536 113.265 91.2536 122.065 95.2536 129.565L105.954 149.465L94.6536 215.865C93.4536 223.265 99.1536 229.965 106.554 229.965H161.154" stroke="white" stroke-width="1.1"/>
<path d="M130.953 98.0649L126.653 113.565C124.653 120.865 121.353 127.765 116.953 133.965L105.953 149.465" stroke="white" stroke-width="1.1"/>
<path d="M113.553 77.5651C111.353 85.0651 104.853 89.7651 98.9528 87.9651C93.0528 86.2651 90.0528 78.7651 92.2528 71.2651C94.4528 63.7651 101.053 59.1651 106.953 60.8651C112.853 62.6651 115.753 70.0651 113.553 77.5651Z" fill="#203E87"/>
<path d="M66.4529 163.565L58.8529 202.165L122.553 192.665L139.553 175.865L155.353 174.365L152.853 182.865L143.853 186.065C143.853 186.065 136.453 204.065 125.653 202.165L52.1529 225.465C41.2529 228.865 30.5529 219.665 32.4529 208.365L39.9529 162.365L66.4529 163.565Z" fill="#FF9C91"/>
<path d="M62.5531 183.465L66.4531 163.565L39.9531 162.365L34.9531 193.065L62.5531 183.465Z" fill="url(#paint5_linear_2_2655)"/>
<path d="M78.5524 107.865L67.4523 174.365L34.1523 173.265C34.1523 173.265 45.2524 115.465 78.5524 107.865Z" fill="#FF5E00"/>
<path d="M75.5531 125.365L67.4531 174.365" stroke="#A83E00" stroke-width="2"/>
<path d="M268.355 124.665C268.255 123.665 267.355 123.265 266.055 123.465V91.3652L235.755 101.765V134.465C235.355 134.732 234.988 135.032 234.655 135.365C231.155 138.265 228.555 142.365 228.955 144.565C229.355 146.665 232.455 146.065 235.955 143.065C239.455 140.165 241.955 136.065 241.655 133.865C241.455 132.865 240.555 132.465 239.355 132.665V111.065C239.355 109.865 240.055 108.765 241.255 108.365L260.755 101.665C261.655 101.365 262.555 101.965 262.555 102.865V125.265C262.155 125.532 261.755 125.832 261.355 126.165C257.855 129.065 255.355 133.165 255.755 135.365C256.055 137.465 259.255 136.865 262.755 133.865C266.255 130.965 268.755 126.865 268.355 124.665Z" fill="#FF5E00"/>
<path d="M265.055 63.1653C264.955 62.6653 264.455 62.4652 263.855 62.5652V45.3652L247.555 50.9652V68.4652C247.355 68.5986 247.155 68.7319 246.955 68.8652C245.155 70.4652 243.755 72.6653 243.955 73.7653C244.155 74.9653 245.855 74.5652 247.655 73.0652C249.555 71.4652 250.955 69.2652 250.755 68.0652C250.655 67.5652 250.155 67.3652 249.455 67.4652V55.9652C249.455 55.2652 249.955 54.6652 250.555 54.4652L260.955 50.8652C261.455 50.7652 261.855 51.0652 261.855 51.5652V63.4652C261.655 63.5986 261.455 63.7652 261.255 63.9652C259.455 65.5652 258.055 67.7652 258.255 68.8652C258.455 70.0652 260.155 69.6652 262.055 68.0652C263.855 66.5652 265.255 64.3653 265.055 63.1653Z" fill="#FF5E00"/>
<path d="M215.854 106.365V91.3651C215.854 90.4651 216.554 89.5651 217.454 89.2651L220.954 88.0651C222.454 87.4651 223.554 86.0651 223.554 84.4651V81.2651L213.354 84.6651V107.565C213.087 107.765 212.82 107.965 212.554 108.165C210.154 110.265 208.354 113.065 208.654 114.565C208.854 116.065 211.054 115.665 213.554 113.565C215.954 111.565 217.754 108.665 217.454 107.165C217.354 106.365 216.754 106.165 215.854 106.365Z" fill="white"/>
<defs>
<linearGradient id="paint0_linear_2_2655" x1="227.852" y1="117.265" x2="225.352" y2="233.265" gradientUnits="userSpaceOnUse">
<stop offset="0.129"/>
<stop offset="1" stop-color="white"/>
</linearGradient>
<linearGradient id="paint1_linear_2_2655" x1="92.7523" y1="214.865" x2="99.2523" y2="276.565" gradientUnits="userSpaceOnUse">
<stop offset="0.129"/>
<stop offset="1" stop-color="white"/>
</linearGradient>
<linearGradient id="paint2_linear_2_2655" x1="125.553" y1="112.565" x2="155.353" y2="112.565" gradientUnits="userSpaceOnUse">
<stop offset="0.129"/>
<stop offset="1" stop-color="white"/>
</linearGradient>
<linearGradient id="paint3_linear_2_2655" x1="94.3535" y1="81.2651" x2="123.954" y2="81.2651" gradientUnits="userSpaceOnUse">
<stop offset="0.194" stop-color="#FF9C91"/>
<stop offset="1" stop-color="#F27C6F"/>
</linearGradient>
<linearGradient id="paint4_linear_2_2655" x1="96.1528" y1="48.9651" x2="138.253" y2="70.765" gradientUnits="userSpaceOnUse">
<stop offset="0.129"/>
<stop offset="1" stop-color="white"/>
</linearGradient>
<linearGradient id="paint5_linear_2_2655" x1="29.1531" y1="213.865" x2="36.0531" y2="160.065" gradientUnits="userSpaceOnUse">
<stop offset="0.194" stop-color="#FF9C91"/>
<stop offset="1" stop-color="#F27C6F"/>
</linearGradient>
</defs>
</svg>
