<svg width="301" height="308" viewBox="0 0 301 308" fill="none" xmlns="http://www.w3.org/2000/svg">
<path d="M201.15 106C201.15 161.5 156.15 206.5 100.65 206.5C45.1504 206.5 0.150391 161.5 0.150391 106C0.150391 50.5 45.1504 5.5 100.65 5.5C156.15 5.5 201.15 50.5 201.15 106Z" fill="#CA7CD8"/>
<path d="M216.451 280.5V262.4C216.451 261.3 217.15 260.2 218.25 259.8L222.551 258.3C224.451 257.7 225.651 256 225.651 254V250.1L213.35 254.3V282C213.084 282.267 212.784 282.533 212.451 282.8C209.451 285.3 207.251 288.8 207.651 290.6C207.951 292.4 210.551 291.8 213.551 289.4C216.551 286.9 218.65 283.4 218.35 281.5C218.25 280.6 217.451 280.3 216.451 280.5Z" fill="white"/>
<path d="M169.851 267.5C169.651 266.3 168.751 266 167.451 266.2V232.6L135.651 243.5V277.7C135.251 277.967 134.851 278.267 134.451 278.6C130.851 281.7 128.151 286 128.551 288.2C128.951 290.5 132.251 289.8 135.851 286.7C139.551 283.6 142.251 279.3 141.851 277.1C141.651 276 140.751 275.6 139.451 275.8V253.2C139.451 251.9 140.251 250.8 141.451 250.4L161.851 243.4C162.751 243.1 163.651 243.7 163.651 244.6V268.1C163.251 268.367 162.884 268.667 162.551 269C158.851 272 156.151 276.3 156.551 278.6C156.951 280.8 160.251 280.2 163.951 277.1C167.551 274 170.251 269.7 169.851 267.5Z" fill="#FF5E00"/>
<path d="M110.25 250.1V307H9.65039L22.6504 250.1H110.25Z" fill="#203E87"/>
<path d="M31.1504 253.8L18.1504 307" stroke="white" stroke-width="1.1"/>
<path style="mix-blend-mode:multiply" opacity="0.6" d="M13.9492 288.2C38.8492 283.9 90.6491 272.7 110.249 268.5V250.1H22.6492L13.9492 288.2Z" fill="url(#paint0_linear_2_2824)"/>
<path d="M114.051 155.9L137.951 171.5C146.651 177 158.051 173.8 162.651 164.7L195.651 99.3998C195.651 99.3998 199.251 95.1998 199.851 87.6998C200.451 80.3998 199.051 76.0998 198.051 74.0998C197.551 73.0998 197.451 71.8998 197.851 70.6998L198.651 68.3998C199.451 65.9998 198.151 63.4998 195.751 62.8998L195.451 62.7998L189.051 76.3998L185.751 94.2998L149.351 149.9L126.551 134.1L114.051 155.9Z" fill="#FF9C91"/>
<path d="M114.051 155.9L128.151 165.1L146.651 148L126.551 134.1L114.051 155.9Z" fill="url(#paint1_linear_2_2824)"/>
<path d="M87.85 112.2C98.95 109 108.05 110 136.55 136.5L118.65 163.7L83.25 143.4L87.85 112.2Z" fill="#FF5E00"/>
<path style="mix-blend-mode:multiply" opacity="0.3" d="M87.85 112.2C98.95 109 108.05 110 136.55 136.5L118.65 163.7L83.25 143.4L87.85 112.2Z" fill="url(#paint2_linear_2_2824)"/>
<path d="M87.8494 112.2L28.1494 129.3C23.6494 130.6 20.4495 134.8 20.4495 139.5V189.6C20.4495 199.6 16.0494 201.8 17.3494 215.1C17.6494 218.6 15.5495 224.1 14.9495 230.2C14.4495 236.3 17.4494 239.5 13.5494 248.5C10.9494 254.3 9.84947 259.5 20.4495 259.5H110.249V132.1C110.249 111.5 100.649 108.8 87.8494 112.2Z" fill="#FF5E00"/>
<path d="M15.1492 228.4C15.0825 229 15.0159 229.6 14.9492 230.2C14.9492 230.267 14.9492 230.367 14.9492 230.5L110.249 214.4V212.4L15.1492 228.4Z" fill="#A83E00"/>
<path d="M110.249 228.4V226.4L15.3491 242.3C15.2825 242.967 15.1492 243.667 14.9492 244.4L110.249 228.4Z" fill="#A83E00"/>
<path d="M17.25 214.1C17.25 214.4 17.25 214.8 17.35 215.1C17.35 215.433 17.35 215.767 17.35 216.1L110.25 200.5V198.4L17.25 214.1Z" fill="#A83E00"/>
<path d="M20.4492 185.6V187.6L110.249 172.5V170.5L20.4492 185.6Z" fill="#A83E00"/>
<path d="M20.4492 171.6V173.7L110.249 158.6V156.5L20.4492 171.6Z" fill="#A83E00"/>
<path d="M18.7484 199.9C18.5484 200.567 18.3484 201.267 18.1484 202L110.248 186.5V184.5L18.7484 199.9Z" fill="#A83E00"/>
<g style="mix-blend-mode:multiply" opacity="0.6">
<path d="M115.05 212L86.1504 215L94.4504 158.5L123.35 155.5L115.05 212Z" fill="url(#paint3_linear_2_2824)"/>
</g>
<path d="M118.449 209.3L89.4492 212.3L97.7491 155.7L126.649 152.7L118.449 209.3Z" fill="white"/>
<path d="M94.0492 211.8L89.4492 212.3L97.7491 155.7L102.249 155.3L94.0492 211.8Z" fill="#9D9D9D"/>
<path d="M106.649 159.8C106.549 161.1 105.549 162.1 104.449 162C103.449 161.8 102.649 160.7 102.849 159.3C102.949 158 103.949 157 105.049 157.1C106.049 157.2 106.849 158.4 106.649 159.8Z" fill="#9D9D9D"/>
<path style="mix-blend-mode:multiply" opacity="0.6" d="M105.451 183.8L100.651 189.8C100.651 189.8 95.1508 207.5 90.0508 208.2L92.4508 189.2L105.451 179.1V183.8Z" fill="url(#paint4_linear_2_2824)"/>
<path d="M9.65039 184.4V226.6C9.65039 236.1 20.0504 242 28.2504 237.1L86.5504 201.9C86.5504 201.9 90.9503 202.9 93.3503 198.3C95.7503 193.7 98.9504 186.7 98.9504 186.7L104.65 184.3C105.65 183.9 106.45 182.8 106.45 181.6V179.4C106.45 178.4 105.55 177.5 104.45 177.5H97.6504C95.7504 177.5 93.9504 178.4 92.7504 179.8L81.3503 194.2L33.1504 214.1V184.4H9.65039Z" fill="#FF9C91"/>
<path d="M33.1504 199.4V184.4H9.65039V204.7L33.1504 199.4Z" fill="url(#paint5_linear_2_2824)"/>
<path d="M39.9492 40.2C50.7492 30.6 67.9491 36 73.8491 44.3C78.1491 50.3 86.3492 68.2 90.4492 77.4C91.9492 80.7 91.0491 84.6 88.2491 87L80.4492 93.7C78.9492 94.9 78.1491 96.7 78.1491 98.5V119.1C78.1491 119.1 78.8491 128.4 66.6491 128.2C54.4491 128 49.7491 122.8 49.7491 122.8V94.3C49.7491 94.3 33.2492 88.8 29.4492 68.2C27.5492 57.6 33.1492 46.2 39.9492 40.2Z" fill="#FF9C91"/>
<path d="M80.4504 93.7001L88.2504 87.0001C88.6504 86.6668 89.017 86.3001 89.3503 85.9001L74.2504 90.4001C69.5504 91.8001 64.5504 91.0001 60.4504 88.3001L50.2504 81.6001C50.2504 81.6001 44.1504 85.3001 39.6504 87.7001C44.7504 92.6001 49.6504 94.3001 49.6504 94.3001V122.8C49.6504 122.8 54.4504 128 66.6504 128.2C78.8504 128.4 78.1504 119.1 78.1504 119.1V98.5001C78.1504 96.7001 78.9504 94.9001 80.4504 93.7001Z" fill="url(#paint6_linear_2_2824)"/>
<path d="M71.8491 42.1C64.7491 35.2 49.7492 31.5 39.9492 40.2C33.1492 46.2 27.5492 57.6 29.4492 68.2C33.2492 88.8 49.7491 94.3 49.7491 94.3C54.8491 87.2 47.3491 81.3 51.7491 71.9C56.1491 62.5 49.1491 56.4 49.1491 56.4C59.0491 42.2 71.6491 42.1 71.8491 42.1Z" fill="black"/>
<path d="M50.2508 75.2999L43.6508 76.9999L35.1508 43.6999C34.9508 43.1999 35.1509 42.6999 35.4509 42.3999L38.6508 39.0999C39.4508 38.2999 40.8508 38.6999 41.0508 39.6999L50.2508 75.2999Z" fill="white"/>
<path d="M55.7493 93.6998L47.7493 95.6998C44.6493 96.4998 41.5493 94.6998 40.7493 91.5998L37.4494 78.4998C36.6494 75.3998 38.4494 72.2998 41.5494 71.4998L49.5494 69.3998C52.5494 68.6998 55.6494 70.4998 56.4494 73.4998L59.8493 86.6998C60.6493 89.7998 58.8493 92.8998 55.7493 93.6998Z" fill="#203E87"/>
<path d="M55.3506 90.8999L46.7507 93.1999C43.8507 93.8999 40.9507 92.1999 40.1507 89.2999L37.3506 78.0999C36.5506 75.2999 38.3507 72.2999 41.2507 71.5999L49.8506 69.3999C52.7506 68.5999 55.6506 70.3999 56.3506 73.1999L59.2507 84.3999C59.9507 87.2999 58.2506 90.1999 55.3506 90.8999Z" fill="#3465D9"/>
<path d="M33.25 131.2C32.55 129.2 30.9501 128.5 28.4501 129.2C18.4501 131.9 6.25 140.2 6.25 154.2C6.25 170 6.25 190.5 6.25 190.5H37.35C37.35 190.5 37.35 161.4 37.35 152.4C37.35 144.3 34.95 135.9 33.25 131.2Z" fill="#FF5E00"/>
<path d="M37.35 159.7V190.5H6.25" stroke="#A83E00" stroke-width="2"/>
<path style="mix-blend-mode:multiply" opacity="0.3" d="M288.75 230.9H191.15C184.55 230.9 179.25 225.6 179.25 219V68.2002C179.25 61.6002 184.55 56.2002 191.15 56.2002H288.75C295.35 56.2002 300.75 61.6002 300.75 68.2002V219C300.75 225.6 295.35 230.9 288.75 230.9Z" fill="url(#paint7_linear_2_2824)"/>
<path d="M283.45 224.7H185.85C179.25 224.7 173.85 219.3 173.85 212.7V61.9004C173.85 55.3004 179.25 49.9004 185.85 49.9004H283.45C290.05 49.9004 295.35 55.3004 295.35 61.9004V212.7C295.35 219.3 290.05 224.7 283.45 224.7Z" fill="#3465D9"/>
<path d="M276.25 102.9H193.05C191.55 102.9 190.25 101.6 190.25 100V99.7004C190.25 98.1004 191.55 96.9004 193.05 96.9004H276.25C277.75 96.9004 279.05 98.1004 279.05 99.7004V100C279.05 101.6 277.75 102.9 276.25 102.9Z" fill="#96B4FF"/>
<g style="mix-blend-mode:multiply" opacity="0.3">
<path d="M238.15 99.9002C238.15 103.3 235.35 106 232.05 106C228.65 106 225.85 103.3 225.85 99.9002C225.85 96.5002 228.65 93.7002 232.05 93.7002C235.35 93.7002 238.15 96.5002 238.15 99.9002Z" fill="url(#paint8_linear_2_2824)"/>
</g>
<path d="M276.25 129.6H193.05C191.55 129.6 190.25 128.3 190.25 126.7V126.4C190.25 124.8 191.55 123.5 193.05 123.5H276.25C277.75 123.5 279.05 124.8 279.05 126.4V126.7C279.05 128.3 277.75 129.6 276.25 129.6Z" fill="#96B4FF"/>
<path d="M276.25 156.2H193.05C191.55 156.2 190.25 155 190.25 153.4V153C190.25 151.5 191.55 150.2 193.05 150.2H276.25C277.75 150.2 279.05 151.5 279.05 153V153.4C279.05 155 277.75 156.2 276.25 156.2Z" fill="#96B4FF"/>
<path d="M276.25 182.9H193.05C191.55 182.9 190.25 181.6 190.25 180.1V179.7C190.25 178.2 191.55 176.9 193.05 176.9H276.25C277.75 176.9 279.05 178.2 279.05 179.7V180.1C279.05 181.6 277.75 182.9 276.25 182.9Z" fill="#96B4FF"/>
<path d="M239.95 99.9002C239.95 103.3 237.25 106 233.85 106C230.45 106 227.75 103.3 227.75 99.9002C227.75 96.5002 230.45 93.7002 233.85 93.7002C237.25 93.7002 239.95 96.5002 239.95 99.9002Z" fill="#FFD363"/>
<path d="M227.25 196.6V210C227.25 211.3 228.65 212.1 229.75 211.5L241.15 204.8C242.25 204.1 242.25 202.5 241.15 201.9L229.75 195.2C228.65 194.5 227.25 195.3 227.25 196.6Z" fill="#FFD363"/>
<path d="M263.85 49.9002C263.85 66.1002 250.75 79.2002 234.65 79.2002C218.45 79.2002 205.35 66.1002 205.35 49.9002C205.35 33.8002 218.45 20.7002 234.65 20.7002C250.75 20.7002 263.85 33.8002 263.85 49.9002Z" fill="#203E87"/>
<path d="M247.25 54.1004C247.15 53.4004 246.55 53.1004 245.75 53.3004V31.4004L225.05 38.5004V60.8004C224.784 60.9337 224.517 61.1337 224.25 61.4004C221.85 63.4004 220.15 66.2004 220.45 67.6004C220.65 69.1004 222.85 68.6004 225.15 66.6004C227.55 64.6004 229.35 61.8004 229.05 60.4004C228.95 59.6004 228.35 59.4004 227.45 59.6004V44.9004C227.45 44.0004 228.05 43.3004 228.85 43.0004L242.05 38.4004C242.65 38.2004 243.25 38.7004 243.25 39.3004V54.5004C242.984 54.7004 242.717 54.9004 242.45 55.1004C240.15 57.1004 238.35 59.9004 238.65 61.3004C238.85 62.8004 241.05 62.4004 243.45 60.4004C245.75 58.4004 247.55 55.6004 247.25 54.1004Z" fill="white"/>
<path style="mix-blend-mode:multiply" opacity="0.3" d="M152.05 64.6998H113.55C107.35 64.6998 102.35 59.6998 102.35 53.4998V14.9998C102.35 8.79982 107.35 3.7998 113.55 3.7998H152.05C158.25 3.7998 163.25 8.79982 163.25 14.9998V53.4998C163.25 59.6998 158.25 64.6998 152.05 64.6998Z" fill="url(#paint9_linear_2_2824)"/>
<path d="M148.65 60.9H110.15C103.95 60.9 98.8496 55.9 98.8496 49.7V11.2C98.8496 5 103.95 0 110.15 0H148.65C154.75 0 159.85 5 159.85 11.2V49.7C159.85 55.9 154.75 60.9 148.65 60.9Z" fill="#3465D9"/>
<path d="M140.249 40.8001C139.249 40.8001 138.249 41.2001 137.549 41.9001L122.249 31.7001C122.382 31.3001 122.449 30.8668 122.449 30.4001C122.449 30.0001 122.382 29.6001 122.249 29.2001L137.549 19.0001C138.249 19.7001 139.249 20.0001 140.249 20.0001C142.349 20.0001 144.149 18.3001 144.149 16.1001C144.149 13.9001 142.349 12.1001 140.249 12.1001C138.049 12.1001 136.249 13.9001 136.249 16.1001C136.249 16.5668 136.316 17.0001 136.449 17.4001L121.149 27.5001C120.449 26.9001 119.549 26.5001 118.449 26.5001C116.349 26.5001 114.549 28.3001 114.549 30.4001C114.549 32.6001 116.349 34.4001 118.449 34.4001C119.549 34.4001 120.449 34.0001 121.149 33.4001L136.449 43.5001C136.316 43.9001 136.249 44.3334 136.249 44.8001C136.249 47.0001 138.049 48.7001 140.249 48.7001C142.349 48.7001 144.149 47.0001 144.149 44.8001C144.149 42.6001 142.349 40.8001 140.249 40.8001Z" fill="white"/>
<defs>
<linearGradient id="paint0_linear_2_2824" x1="69.6492" y1="233.2" x2="69.6492" y2="295.9" gradientUnits="userSpaceOnUse">
<stop offset="0.129"/>
<stop offset="1" stop-color="white"/>
</linearGradient>
<linearGradient id="paint1_linear_2_2824" x1="168.351" y1="202.5" x2="103.651" y2="156.7" gradientUnits="userSpaceOnUse">
<stop offset="0.194" stop-color="#FF9C91"/>
<stop offset="1" stop-color="#F27C6F"/>
</linearGradient>
<linearGradient id="paint2_linear_2_2824" x1="106.25" y1="110.9" x2="142.95" y2="110.9" gradientUnits="userSpaceOnUse">
<stop offset="0.129"/>
<stop offset="1" stop-color="white"/>
</linearGradient>
<linearGradient id="paint3_linear_2_2824" x1="161.85" y1="205.9" x2="98.9503" y2="267.2" gradientUnits="userSpaceOnUse">
<stop/>
<stop offset="1" stop-color="white"/>
</linearGradient>
<linearGradient id="paint4_linear_2_2824" x1="85.0508" y1="179.1" x2="112.751" y2="179.1" gradientUnits="userSpaceOnUse">
<stop/>
<stop offset="1" stop-color="white"/>
</linearGradient>
<linearGradient id="paint5_linear_2_2824" x1="48.6504" y1="230.2" x2="3.65041" y2="198.3" gradientUnits="userSpaceOnUse">
<stop offset="0.194" stop-color="#FF9C91"/>
<stop offset="1" stop-color="#F27C6F"/>
</linearGradient>
<linearGradient id="paint6_linear_2_2824" x1="39.7504" y1="116.4" x2="42.7504" y2="80.9001" gradientUnits="userSpaceOnUse">
<stop offset="0.194" stop-color="#FF9C91"/>
<stop offset="1" stop-color="#F27C6F"/>
</linearGradient>
<linearGradient id="paint7_linear_2_2824" x1="365.55" y1="95.3002" x2="365.55" y2="298.4" gradientUnits="userSpaceOnUse">
<stop offset="0.129"/>
<stop offset="1" stop-color="white"/>
</linearGradient>
<linearGradient id="paint8_linear_2_2824" x1="225.85" y1="93.7002" x2="238.15" y2="93.7002" gradientUnits="userSpaceOnUse">
<stop offset="0.129"/>
<stop offset="1" stop-color="white"/>
</linearGradient>
<linearGradient id="paint9_linear_2_2824" x1="163.25" y1="-7.80019" x2="163.25" y2="97.4998" gradientUnits="userSpaceOnUse">
<stop offset="0.129"/>
<stop offset="1" stop-color="white"/>
</linearGradient>
</defs>
</svg>
