<svg width="108" height="108" viewBox="0 0 108 108" fill="none" xmlns="http://www.w3.org/2000/svg">
<path d="M68.506 36.8803L45.626 59.8137L36.826 51.0137C36.3479 50.4554 35.7596 50.0019 35.0979 49.6818C34.4362 49.3617 33.7155 49.1818 32.981 49.1534C32.2465 49.125 31.514 49.2488 30.8296 49.5169C30.1452 49.7851 29.5237 50.1918 29.0039 50.7115C28.4841 51.2313 28.0774 51.8529 27.8093 52.5373C27.5412 53.2217 27.4174 53.9541 27.4458 54.6886C27.4742 55.4231 27.654 56.1438 27.9742 56.8055C28.2943 57.4672 28.7477 58.0555 29.306 58.5337L41.8394 71.1203C42.3377 71.6146 42.9287 72.0057 43.5785 72.2711C44.2283 72.5365 44.9241 72.671 45.626 72.667C47.0252 72.6611 48.366 72.1056 49.3594 71.1203L76.026 44.4537C76.5259 43.9579 76.9227 43.368 77.1935 42.7181C77.4642 42.0681 77.6036 41.3711 77.6036 40.667C77.6036 39.9629 77.4642 39.2658 77.1935 38.6159C76.9227 37.966 76.5259 37.3761 76.026 36.8803C75.0268 35.887 73.675 35.3294 72.266 35.3294C70.8571 35.3294 69.5053 35.887 68.506 36.8803ZM53.9994 0.666992C43.451 0.666992 33.1396 3.79494 24.369 9.65528C15.5983 15.5156 8.76247 23.8451 4.7258 33.5905C0.689124 43.3359 -0.367054 54.0595 1.69082 64.4051C3.7487 74.7508 8.82821 84.2539 16.287 91.7127C23.7458 99.1715 33.2489 104.251 43.5946 106.309C53.9402 108.367 64.6638 107.311 74.4092 103.274C84.1546 99.2372 92.4841 92.4014 98.3444 83.6307C104.205 74.8601 107.333 64.5487 107.333 54.0003C107.333 46.9965 105.953 40.0612 103.273 33.5905C100.593 27.1198 96.6642 21.2404 91.7117 16.288C86.7593 11.3355 80.8799 7.407 74.4092 4.72675C67.9385 2.0465 61.0032 0.666992 53.9994 0.666992ZM53.9994 96.667C45.5607 96.667 37.3115 94.1646 30.295 89.4764C23.2785 84.7881 17.8099 78.1245 14.5805 70.3281C11.3512 62.5318 10.5062 53.953 12.1525 45.6765C13.7988 37.3999 17.8624 29.7975 23.8295 23.8304C29.7965 17.8634 37.399 13.7998 45.6755 12.1535C53.952 10.5072 62.5309 11.3521 70.3272 14.5815C78.1235 17.8108 84.7871 23.2795 89.4754 30.296C94.1637 37.3125 96.666 45.5617 96.666 54.0003C96.666 65.3162 92.1708 76.1687 84.1693 84.1702C76.1677 92.1718 65.3153 96.667 53.9994 96.667Z" fill="#F4E5F7"/>
</svg>
