<svg width="54" height="54" viewBox="0 0 54 54" fill="none" xmlns="http://www.w3.org/2000/svg">
<path d="M34.254 18.4402L22.814 29.9068L18.414 25.5068C18.1749 25.2277 17.8808 25.001 17.5499 24.8409C17.2191 24.6808 16.8587 24.5909 16.4915 24.5767C16.1242 24.5625 15.758 24.6244 15.4158 24.7585C15.0736 24.8925 14.7628 25.0959 14.5029 25.3558C14.243 25.6156 14.0397 25.9264 13.9056 26.2686C13.7716 26.6108 13.7097 26.9771 13.7239 27.3443C13.7381 27.7116 13.828 28.0719 13.9881 28.4028C14.1481 28.7336 14.3748 29.0278 14.654 29.2668L20.9207 35.5602C21.1698 35.8073 21.4653 36.0028 21.7902 36.1356C22.1151 36.2683 22.463 36.3355 22.814 36.3335C23.5136 36.3306 24.184 36.0528 24.6807 35.5602L38.014 22.2268C38.2639 21.9789 38.4623 21.684 38.5977 21.359C38.7331 21.0341 38.8028 20.6855 38.8028 20.3335C38.8028 19.9815 38.7331 19.6329 38.5977 19.308C38.4623 18.983 38.2639 18.6881 38.014 18.4402C37.5144 17.9435 36.8385 17.6647 36.134 17.6647C35.4295 17.6647 34.7536 17.9435 34.254 18.4402V18.4402ZM27.0007 0.333496C21.7265 0.333496 16.5708 1.89747 12.1855 4.82764C7.80015 7.75781 4.38221 11.9226 2.36388 16.7953C0.345539 21.668 -0.18255 27.0297 0.846389 32.2026C1.87533 37.3754 4.41508 42.1269 8.14448 45.8563C11.8739 49.5857 16.6254 52.1255 21.7983 53.1544C26.9711 54.1834 32.3329 53.6553 37.2056 51.637C42.0783 49.6186 46.243 46.2007 49.1732 41.8154C52.1034 37.4301 53.6673 32.2743 53.6673 27.0002C53.6673 23.4982 52.9776 20.0306 51.6375 16.7953C50.2973 13.5599 48.3331 10.6202 45.8568 8.14398C43.3806 5.66775 40.4409 3.7035 37.2056 2.36338C33.9702 1.02325 30.5026 0.333496 27.0007 0.333496V0.333496ZM27.0007 48.3335C22.7813 48.3335 18.6567 47.0823 15.1485 44.7382C11.6402 42.394 8.9059 39.0622 7.29123 35.1641C5.67656 31.2659 5.25409 26.9765 6.07724 22.8382C6.9004 18.7 8.9322 14.8987 11.9157 11.9152C14.8992 8.9317 18.7005 6.8999 22.8387 6.07674C26.977 5.25359 31.2664 5.67606 35.1646 7.29073C39.0627 8.9054 42.3945 11.6397 44.7387 15.148C47.0828 18.6562 48.334 22.7808 48.334 27.0002C48.334 32.6581 46.0864 38.0843 42.0856 42.0851C38.0848 46.0859 32.6586 48.3335 27.0007 48.3335V48.3335Z" fill="#CA7CD8"/>
</svg>
