<svg xmlns="http://www.w3.org/2000/svg" width="25" height="24" fill="none" viewBox="0 0 25 24"><path fill="#1D2445" fill-opacity=".3" d="M15.3847 16C14.8324 16 14.3847 16.4477 14.3847 17C14.3847 17.5523 14.8324 18 15.3847 18V16ZM20.1924 17V18C20.5933 18 20.9554 17.7606 21.1124 17.3917C21.2695 17.0229 21.1911 16.5959 20.9132 16.3069L20.1924 17ZM18.8414 15.595L18.1205 16.288L18.1206 16.2881L18.8414 15.595ZM18.2693 14.158L19.2693 14.1582V14.158H18.2693ZM18.2693 11L17.2693 10.9999V11H18.2693ZM14.4231 5.341H13.4231C13.4231 5.76011 13.6845 6.13475 14.0778 6.27948L14.4231 5.341ZM10.577 5.341L10.9222 6.27953C11.3156 6.13484 11.577 5.76016 11.577 5.341H10.577ZM6.1587 15.595L6.87953 16.2881L6.87953 16.2881L6.1587 15.595ZM4.80774 17L4.08691 16.3069C3.80904 16.5959 3.73062 17.0229 3.88766 17.3917C4.0447 17.7606 4.40684 18 4.80774 18V17ZM9.61543 18C10.1677 18 10.6154 17.5523 10.6154 17C10.6154 16.4477 10.1677 16 9.61543 16V18ZM16.3847 17C16.3847 16.4477 15.9369 16 15.3847 16C14.8324 16 14.3847 16.4477 14.3847 17H16.3847ZM10.6154 17C10.6154 16.4477 10.1677 16 9.61543 16C9.06315 16 8.61543 16.4477 8.61543 17H10.6154ZM15.3847 18C15.9369 18 16.3847 17.5523 16.3847 17C16.3847 16.4477 15.9369 16 15.3847 16V18ZM9.61543 16C9.06315 16 8.61543 16.4477 8.61543 17C8.61543 17.5523 9.06315 18 9.61543 18V16ZM15.3847 18H20.1924V16H15.3847V18ZM20.9132 16.3069L19.5622 14.9019L18.1206 16.2881L19.4715 17.6931L20.9132 16.3069ZM19.5623 14.902C19.3789 14.7111 19.2692 14.4443 19.2693 14.1582L17.2693 14.1578C17.2692 14.9497 17.5711 15.7166 18.1205 16.288L19.5623 14.902ZM19.2693 14.158V11H17.2693V14.158H19.2693ZM19.2693 11.0001C19.2696 8.05752 17.4856 5.40233 14.7685 4.40252L14.0778 6.27948C15.9715 6.97633 17.2695 8.85589 17.2693 10.9999L19.2693 11.0001ZM15.4231 5.341V5H13.4231V5.341H15.4231ZM15.4231 5C15.4231 3.38047 14.151 2 12.5 2V4C12.9732 4 13.4231 4.41039 13.4231 5H15.4231ZM12.5 2C10.8491 2 9.57697 3.38047 9.57697 5H11.577C11.577 4.41039 12.0268 4 12.5 4V2ZM9.57697 5V5.341H11.577V5H9.57697ZM10.2318 4.40247C7.59184 5.37342 5.73082 7.97544 5.73082 11H7.73082C7.73082 8.80056 9.08133 6.95658 10.9222 6.27953L10.2318 4.40247ZM5.73082 11V14.159H7.73082V11H5.73082ZM5.73082 14.159C5.73082 14.4441 5.62127 14.7112 5.43787 14.9019L6.87953 16.2881C7.42882 15.7169 7.73082 14.9499 7.73082 14.159H5.73082ZM5.43787 14.9019L4.08691 16.3069L5.52857 17.6931L6.87953 16.2881L5.43787 14.9019ZM4.80774 18H9.61543V16H4.80774V18ZM14.3847 17V18H16.3847V17H14.3847ZM14.3847 18C14.3847 19.1419 13.5043 20 12.5 20V22C14.6821 22 16.3847 20.1718 16.3847 18H14.3847ZM12.5 20C11.4958 20 10.6154 19.1419 10.6154 18H8.61543C8.61543 20.1718 10.318 22 12.5 22V20ZM10.6154 18V17H8.61543V18H10.6154ZM15.3847 16H9.61543V18H15.3847V16Z"/></svg>