<svg xmlns="http://www.w3.org/2000/svg" width="25" height="24" fill="none" viewBox="0 0 25 24"><path fill="#1D2445" d="M12.5 2.3999C8.67651 2.3999 5.57694 5.62345 5.57694 9.5999V13.9031L4.76117 14.7515C4.43128 15.0947 4.33261 15.6107 4.51116 16.0591C4.68971 16.5074 5.11033 16.7998 5.57694 16.7999H19.4231C19.8897 16.7998 20.3103 16.5074 20.4889 16.0591C20.6674 15.6107 20.5688 15.0947 20.2389 14.7515L19.4231 13.9031V9.5999C19.4231 5.62345 16.3235 2.3999 12.5 2.3999Z"/><path fill="#1D2445" d="M12.5 21.6C10.5883 21.6 9.03848 19.9882 9.03848 18H15.9616C15.9616 19.9882 14.4118 21.6 12.5 21.6Z"/></svg>