<svg xmlns="http://www.w3.org/2000/svg" width="24" height="24" fill="none" viewBox="0 0 24 24"><path fill="#329494" fill-rule="evenodd" d="M12 24C18.6274 24 24 18.6274 24 12C24 5.37258 18.6274 0 12 0C5.37258 0 0 5.37258 0 12C0 18.6274 5.37258 24 12 24ZM12 22.5C17.799 22.5 22.5 17.799 22.5 12C22.5 6.20101 17.799 1.5 12 1.5C6.20101 1.5 1.5 6.20101 1.5 12C1.5 17.799 6.20101 22.5 12 22.5ZM7.452 18.375C7.24489 18.7337 6.78621 18.8566 6.4275 18.6495C6.0688 18.4424 5.9459 17.9837 6.153 17.625C7.35901 15.5361 9.58798 14.2495 12 14.25C14.4122 14.2489 16.6414 15.5357 17.847 17.625C18.0508 17.9834 17.9271 18.4391 17.57 18.6452C17.213 18.8513 16.7565 18.7307 16.548 18.375C15.639 16.8045 13.9425 15.75 12 15.75C10.1237 15.7489 8.38961 16.7498 7.452 18.375ZM9 12C9.828 12 10.5 10.992 10.5 9.75C10.5 9.38892 10.4432 9.04762 10.3423 8.74512C10.4669 8.59793 10.5321 8.40577 10.5181 8.20772C10.4989 7.93491 10.3328 7.69419 10.0845 7.5795L7.0845 6.0795C6.71456 5.89496 6.26506 6.04457 6.0795 6.414V6.4155C5.89496 6.78544 6.04457 7.23494 6.414 7.4205L7.9276 8.1773C7.6631 8.58304 7.5 9.13812 7.5 9.75C7.5 10.992 8.172 12 9 12ZM15 12C15.828 12 16.5 10.992 16.5 9.75C16.5 9.13812 16.3369 8.58304 16.0724 8.1773L17.586 7.4205C17.9554 7.23494 18.105 6.78544 17.9205 6.4155V6.414C17.7349 6.04457 17.2854 5.89496 16.9155 6.0795L13.9155 7.5795C13.6672 7.69419 13.5011 7.93491 13.4819 8.20772C13.4679 8.40577 13.5331 8.59793 13.6577 8.74512C13.5568 9.04762 13.5 9.38892 13.5 9.75C13.5 10.992 14.172 12 15 12Z" clip-rule="evenodd"/></svg>