<svg xmlns="http://www.w3.org/2000/svg" width="24" height="24" fill="none" viewBox="0 0 24 24"><g clip-path="url(#clip0_51_266)"><path fill="#EEB8D8" fill-rule="evenodd" d="M4.20577 7.5C2.59808 10.2846 2.59808 13.7154 4.20577 16.5C5.81347 19.2846 8.78461 21 12 21C12.5547 21.0507 13.0801 20.7424 13.3064 20.2334C13.5326 19.7244 13.4094 19.1278 13 18.75C12.1965 18.3057 11.7987 17.3715 12.0353 16.4844C12.2719 15.5973 13.082 14.9852 14 15H16.5C17.6935 15 18.8381 14.5786 19.682 13.8284C20.5259 13.0783 21 12.0609 21 11C21 6.58172 16.9706 3 12 3C8.78461 3 5.81347 4.71539 4.20577 7.5ZM7.5 12C8.32843 12 9 11.3284 9 10.5C9 9.67157 8.32843 9 7.5 9C6.67157 9 6 9.67157 6 10.5C6 11.3284 6.67157 12 7.5 12ZM13.5 7.5C13.5 8.32843 12.8284 9 12 9C11.1716 9 10.5 8.32843 10.5 7.5C10.5 6.67157 11.1716 6 12 6C12.8284 6 13.5 6.67157 13.5 7.5ZM16.5 12C17.3284 12 18 11.3284 18 10.5C18 9.67157 17.3284 9 16.5 9C15.6716 9 15 9.67157 15 10.5C15 11.3284 15.6716 12 16.5 12Z" clip-rule="evenodd"/></g><defs><clipPath id="clip0_51_266"><rect width="24" height="24" fill="#fff"/></clipPath></defs></svg>