<svg xmlns="http://www.w3.org/2000/svg" width="25" height="24" fill="none" viewBox="0 0 25 24"><path fill="#1D2445" fill-opacity=".3" d="M13.5 6.253C13.5 5.70072 13.0523 5.253 12.5 5.253C11.9478 5.253 11.5 5.70072 11.5 6.253H13.5ZM11.5 19.253C11.5 19.8053 11.9478 20.253 12.5 20.253C13.0523 20.253 13.5 19.8053 13.5 19.253H11.5ZM11.9316 7.07571C12.3859 7.38966 13.0088 7.27583 13.3227 6.82146C13.6367 6.36709 13.5229 5.74424 13.0685 5.43029L11.9316 7.07571ZM3.84619 6.253L3.27773 5.43029C3.0075 5.61701 2.84619 5.92453 2.84619 6.253H3.84619ZM3.84619 19.253H2.84619C2.84619 19.6248 3.05244 19.9659 3.38168 20.1386C3.71092 20.3113 4.10878 20.2871 4.41465 20.0757L3.84619 19.253ZM11.9316 20.0757C12.3859 20.3897 13.0088 20.2758 13.3227 19.8215C13.6367 19.3671 13.5229 18.7442 13.0685 18.4303L11.9316 20.0757ZM11.9316 5.43029C11.4772 5.74424 11.3634 6.36709 11.6773 6.82146C11.9913 7.27583 12.6141 7.38966 13.0685 7.07571L11.9316 5.43029ZM21.1539 6.253H22.1539C22.1539 5.92453 21.9926 5.61701 21.7223 5.43029L21.1539 6.253ZM21.1539 19.253L20.5854 20.0757C20.8913 20.2871 21.2892 20.3113 21.6184 20.1386C21.9476 19.9659 22.1539 19.6248 22.1539 19.253H21.1539ZM11.9316 18.4303C11.4772 18.7442 11.3634 19.3671 11.6773 19.8215C11.9913 20.2758 12.6141 20.3897 13.0685 20.0757L11.9316 18.4303ZM11.5 6.253V19.253H13.5V6.253H11.5ZM13.0685 5.43029C11.7617 4.52731 10.0338 4 8.17311 4V6C9.67014 6 10.9923 6.42669 11.9316 7.07571L13.0685 5.43029ZM8.17311 4C6.31244 4 4.58458 4.52731 3.27773 5.43029L4.41465 7.07571C5.35396 6.42669 6.67609 6 8.17311 6V4ZM2.84619 6.253V19.253H4.84619V6.253H2.84619ZM4.41465 20.0757C5.35396 19.4267 6.67609 19 8.17311 19V17C6.31244 17 4.58458 17.5273 3.27773 18.4303L4.41465 20.0757ZM8.17311 19C9.67014 19 10.9923 19.4267 11.9316 20.0757L13.0685 18.4303C11.7617 17.5273 10.0338 17 8.17311 17V19ZM13.0685 7.07571C14.0078 6.42669 15.3299 6 16.827 6V4C14.9663 4 13.2384 4.52731 11.9316 5.43029L13.0685 7.07571ZM16.827 6C18.3249 6 19.6461 6.42665 20.5854 7.07571L21.7223 5.43029C20.4155 4.52735 18.6887 4 16.827 4V6ZM20.1539 6.253V19.253H22.1539V6.253H20.1539ZM21.7223 18.4303C20.4155 17.5273 18.6887 17 16.827 17V19C18.3249 19 19.6461 19.4267 20.5854 20.0757L21.7223 18.4303ZM16.827 17C14.9663 17 13.2384 17.5273 11.9316 18.4303L13.0685 20.0757C14.0078 19.4267 15.3299 19 16.827 19V17Z"/></svg>