<svg xmlns="http://www.w3.org/2000/svg" width="19" height="15" fill="none" viewBox="0 0 19 15"><path fill="#1D2445" d="M8.34621 1.7648C7.08819 1.12779 5.70696 0.79781 4.30775 0.799999C2.85967 0.799999 1.4889 1.148 0.269287 1.7648V13.7648C1.52732 13.1278 2.90854 12.7979 4.30775 12.8C6.23352 12.8 8.02083 13.412 9.50006 14.462C11.0301 13.3763 12.8401 12.7969 14.6924 12.8C16.1404 12.8 17.5112 13.148 18.7308 13.7648V1.7648C17.4728 1.12779 16.0916 0.79781 14.6924 0.799999C13.2443 0.799999 11.8735 1.148 10.6539 1.7648V10.4C10.6539 11.0627 10.1373 11.6 9.50006 11.6C8.8628 11.6 8.34621 11.0627 8.34621 10.4V1.7648Z"/></svg>