<svg xmlns="http://www.w3.org/2000/svg" width="20" height="20" fill="none" viewBox="0 0 20 20"><path fill="#B9C2FC" fill-rule="evenodd" d="M3.40008 4.90002L10.0001 2.10002L16.6001 4.90002C16.7001 5.00002 16.9001 5.00002 17.0001 5.00002C17.4001 5.00002 17.8001 4.80002 17.9001 4.40002C18.1001 3.90002 17.9001 3.30002 17.4001 3.10002L10.4001 0.100024C10.1001 2.44156e-05 9.90008 2.44156e-05 9.60008 0.100024L2.60008 3.10002C2.10008 3.30002 1.90008 3.90002 2.10008 4.40002C2.30008 4.90002 2.90008 5.10002 3.40008 4.90002Z" clip-rule="evenodd"/><path fill="#B9C2FC" fill-rule="evenodd" d="M19 18V9C19.6 9 20 8.6 20 8C20 7.4 19.6 7 19 7H1C0.4 7 0 7.4 0 8C0 8.6 0.4 9 1 9V18C0.4 18 0 18.4 0 19C0 19.6 0.4 20 1 20H19C19.6 20 20 19.6 20 19C20 18.4 19.6 18 19 18ZM7 15C7 15.6 6.6 16 6 16C5.4 16 5 15.6 5 15V12C5 11.4 5.4 11 6 11C6.6 11 7 11.4 7 12V15ZM11 15C11 15.6 10.6 16 10 16C9.4 16 9 15.6 9 15V12C9 11.4 9.4 11 10 11C10.6 11 11 11.4 11 12V15ZM15 15C15 15.6 14.6 16 14 16C13.4 16 13 15.6 13 15V12C13 11.4 13.4 11 14 11C14.6 11 15 11.4 15 12V15Z" clip-rule="evenodd"/></svg>