<svg xmlns="http://www.w3.org/2000/svg" width="20" height="20" fill="none" viewBox="0 0 20 20"><path fill="#329494" d="M5.66667 5.83333C5.66667 6.38562 6.11438 6.83333 6.66667 6.83333C7.21895 6.83333 7.66667 6.38562 7.66667 5.83333H5.66667ZM7.66667 2.5C7.66667 1.94772 7.21895 1.5 6.66667 1.5C6.11438 1.5 5.66667 1.94772 5.66667 2.5H7.66667ZM12.3333 5.83333C12.3333 6.38562 12.781 6.83333 13.3333 6.83333C13.8856 6.83333 14.3333 6.38562 14.3333 5.83333H12.3333ZM14.3333 2.5C14.3333 1.94772 13.8856 1.5 13.3333 1.5C12.781 1.5 12.3333 1.94772 12.3333 2.5H14.3333ZM5.83333 8.16667C5.28105 8.16667 4.83333 8.61438 4.83333 9.16667C4.83333 9.71895 5.28105 10.1667 5.83333 10.1667V8.16667ZM14.1667 10.1667C14.719 10.1667 15.1667 9.71895 15.1667 9.16667C15.1667 8.61438 14.719 8.16667 14.1667 8.16667V10.1667ZM7.66667 5.83333V2.5H5.66667V5.83333H7.66667ZM14.3333 5.83333V2.5H12.3333V5.83333H14.3333ZM5.83333 10.1667H14.1667V8.16667H5.83333V10.1667ZM4.16667 18.5H15.8333V16.5H4.16667V18.5ZM15.8333 18.5C17.3061 18.5 18.5 17.3061 18.5 15.8333H16.5C16.5 16.2015 16.2015 16.5 15.8333 16.5V18.5ZM18.5 15.8333V5.83333H16.5V15.8333H18.5ZM18.5 5.83333C18.5 4.36057 17.3061 3.16667 15.8333 3.16667V5.16667C16.2015 5.16667 16.5 5.46514 16.5 5.83333H18.5ZM15.8333 3.16667H4.16667V5.16667H15.8333V3.16667ZM4.16667 3.16667C2.69391 3.16667 1.5 4.36057 1.5 5.83333H3.5C3.5 5.46514 3.79848 5.16667 4.16667 5.16667V3.16667ZM1.5 5.83333V15.8333H3.5V5.83333H1.5ZM1.5 15.8333C1.5 17.3061 2.69391 18.5 4.16667 18.5V16.5C3.79848 16.5 3.5 16.2015 3.5 15.8333H1.5Z"/></svg>