<svg width="24" height="24" viewBox="0 0 24 24" fill="none" xmlns="http://www.w3.org/2000/svg">
<path fill-rule="evenodd" clip-rule="evenodd" d="M6.7 7.3C6.3 6.9 5.7 6.9 5.3 7.3L1.3 11.3C0.9 11.7 0.9 12.3 1.3 12.7L5.3 16.7C5.5 16.9 5.7 17 6 17C6.3 17 6.5 16.9 6.7 16.7C7.1 16.3 7.1 15.7 6.7 15.3L3.4 12L6.7 8.7C7.1 8.3 7.1 7.7 6.7 7.3Z" fill="#6AC6C5"/>
<path fill-rule="evenodd" clip-rule="evenodd" d="M22.7 11.3L18.7 7.3C18.3 6.9 17.7 6.9 17.3 7.3C16.9 7.7 16.9 8.3 17.3 8.7L20.6 12L17.3 15.3C16.9 15.7 16.9 16.3 17.3 16.7C17.5 16.9 17.8 17 18 17C18.2 17 18.5 16.9 18.7 16.7L22.7 12.7C23.1 12.3 23.1 11.7 22.7 11.3Z" fill="#6AC6C5"/>
<path fill-rule="evenodd" clip-rule="evenodd" d="M14.2001 3C13.7001 2.9 13.1001 3.2 13.0001 3.7L9.00012 19.7C8.90012 20.2 9.20012 20.8 9.70012 20.9C9.80012 20.9 9.90012 20.9 9.90012 20.9C10.3001 20.9 10.8001 20.6 10.9001 20.1L14.9001 4.1C15.1001 3.7 14.8001 3.2 14.2001 3Z" fill="#6AC6C5"/>
</svg>
