<svg xmlns="http://www.w3.org/2000/svg" width="24" height="24" fill="none" viewBox="0 0 24 24"><path fill="#FCCBB9" fill-rule="evenodd" d="M21 10C22.1 10 23 9.1 23 8C23 6.9 22.1 6 21 6C20.3 6 19.6 6.4 19.3 7H15C15 5.9 14.1 5 13 5H11C9.9 5 9 5.9 9 7H4.7C4.4 6.4 3.7 6 3 6C1.9 6 1 6.9 1 8C1 9.1 1.9 10 3 10C3.7 10 4.4 9.6 4.7 9H6.5C5.3 10 4.4 11.4 4.1 13H4C2.9 13 2 13.9 2 15V17C2 18.1 2.9 19 4 19H6C7.1 19 8 18.1 8 17V15C8 14 7.2 13.1 6.2 13C6.6 11.5 7.7 10.3 9.2 9.8C9.5 10.5 10.2 11 11 11H13C13.8 11 14.5 10.5 14.8 9.8C16.2 10.4 17.3 11.6 17.8 13C16.8 13.1 16 13.9 16 15V17C16 18.1 16.9 19 18 19H20C21.1 19 22 18.1 22 17V15C22 13.9 21.1 13 20 13H19.9C19.6 11.4 18.7 10 17.5 9H19.3C19.6 9.6 20.3 10 21 10ZM6 17H4V15H6V17ZM13 9H11V8V7H13V9ZM20 17H18V15H20V17Z" clip-rule="evenodd"/></svg>