<svg xmlns="http://www.w3.org/2000/svg" width="48" height="48" fill="none" viewBox="0 0 48 48"><g clip-path="url(#clip0_152_1189)"><rect width="48" height="48" fill="#fff" rx="12"/><path fill="#329494" d="M19.0011 29.0001C19.5534 28.9995 20.0006 28.5512 20 27.999C19.9993 27.4467 19.5511 26.9995 18.9988 27.0001L19.0011 29.0001ZM18.12 20.0971L18.3388 21.0728C18.8741 20.9527 19.2127 20.4238 19.0977 19.8874L18.12 20.0971ZM27.9 18.0001L26.9222 18.2097C27.021 18.6707 27.4285 19.0001 27.9 19.0001V18.0001ZM28 18.0001V19.0001L28.001 19.0001L28 18.0001ZM28.801 26.9201C28.2597 27.03 27.9101 27.5578 28.02 28.0991C28.1299 28.6403 28.6577 28.99 29.199 28.8801L28.801 26.9201ZM21.7071 30.293C21.3165 29.9024 20.6834 29.9024 20.2928 30.293C19.9023 30.6835 19.9023 31.3166 20.2928 31.7072L21.7071 30.293ZM23.2928 34.7072C23.6834 35.0977 24.3165 35.0977 24.7071 34.7072C25.0976 34.3166 25.0976 33.6835 24.7071 33.293L23.2928 34.7072ZM23.2928 33.293C22.9023 33.6835 22.9023 34.3166 23.2928 34.7072C23.6834 35.0977 24.3165 35.0977 24.7071 34.7072L23.2928 33.293ZM27.7071 31.7072C28.0976 31.3166 28.0976 30.6835 27.7071 30.293C27.3165 29.9024 26.6834 29.9024 26.2928 30.293L27.7071 31.7072ZM23 34.0001C23 34.5524 23.4477 35.0001 24 35.0001C24.5522 35.0001 25 34.5524 25 34.0001H23ZM25 22.0001C25 21.4478 24.5522 21.0001 24 21.0001C23.4477 21.0001 23 21.4478 23 22.0001H25ZM18.9988 27.0001C17.4692 27.0018 16.1832 25.8523 16.0139 24.3321L14.0262 24.5534C14.3083 27.0872 16.4516 29.0029 19.0011 29.0001L18.9988 27.0001ZM16.0139 24.3321C15.8446 22.8118 16.8463 21.4076 18.3388 21.0728L17.9011 19.1213C15.4135 19.6793 13.7441 22.0196 14.0262 24.5534L16.0139 24.3321ZM19.0977 19.8874C18.6344 17.7268 20.0104 15.5996 22.1711 15.1363L21.7518 13.1808C18.5111 13.8756 16.4473 17.066 17.1422 20.3067L19.0977 19.8874ZM22.1711 15.1363C24.3318 14.6731 26.4589 16.0491 26.9222 18.2097L28.8777 17.7904C28.1829 14.5497 24.9925 12.4859 21.7518 13.1808L22.1711 15.1363ZM27.9 19.0001H28V17.0001H27.9V19.0001ZM28.001 19.0001C30.056 18.998 31.7782 20.5535 31.9847 22.5981L33.9746 22.3971C33.6648 19.3302 31.0815 16.997 27.999 17.0001L28.001 19.0001ZM31.9847 22.5981C32.1913 24.6427 30.8149 26.5111 28.801 26.9201L29.199 28.8801C32.2198 28.2667 34.2844 25.464 33.9746 22.3971L31.9847 22.5981ZM20.2928 31.7072L23.2928 34.7072L24.7071 33.293L21.7071 30.293L20.2928 31.7072ZM24.7071 34.7072L27.7071 31.7072L26.2928 30.293L23.2928 33.293L24.7071 34.7072ZM25 34.0001V22.0001H23V34.0001H25Z"/></g><defs><clipPath id="clip0_152_1189"><rect width="48" height="48" fill="#fff"/></clipPath></defs></svg>