<svg xmlns="http://www.w3.org/2000/svg" width="24" height="24" fill="none" viewBox="0 0 24 24"><mask id="mask0_51_1084" style="mask-type:luminance" width="24" height="24" x="0" y="0" maskUnits="userSpaceOnUse"><path fill="#fff" fill-rule="evenodd" d="M0.00146484 0.000915527H24.0001V23.9948H0.00146484V0.000915527Z" clip-rule="evenodd"/></mask><g mask="url(#mask0_51_1084)"><path fill="#1877F2" fill-rule="evenodd" d="M24 12.0733C24 5.40541 18.6274 0 12 0C5.37258 0 0 5.40541 0 12.0733C0 18.0995 4.38823 23.0943 10.125 24V15.5633H7.07812V12.0733H10.125V9.41343C10.125 6.38755 11.9165 4.71615 14.6576 4.71615C15.9705 4.71615 17.3438 4.95195 17.3438 4.95195V7.92313H15.8306C14.3399 7.92313 13.875 8.85379 13.875 9.80857V12.0733H17.2031L16.6711 15.5633H13.875V24C19.6118 23.0943 24 18.0995 24 12.0733Z" clip-rule="evenodd"/></g><path fill="#fff" fill-rule="evenodd" d="M16.5881 15.5184L17.1354 12.0699H13.7119V9.832C13.7119 8.88854 14.1901 7.96892 15.7235 7.96892H17.2801V5.033C17.2801 5.033 15.8674 4.79999 14.5169 4.79999C11.6972 4.79999 9.85434 6.45156 9.85434 9.44154V12.0699H6.72009V15.5184H9.85434V23.8551C10.4828 23.9504 11.1269 24 11.7831 24C12.4393 24 13.0834 23.9504 13.7119 23.8551V15.5184H16.5881Z" clip-rule="evenodd"/></svg>