<svg xmlns="http://www.w3.org/2000/svg" width="20" height="20" fill="none" viewBox="0 0 20 20"><path fill="#329494" d="M15 9C14.4477 9 14 9.44771 14 10C14 10.5523 14.4477 11 15 11V9ZM16.6666 11C17.2189 11 17.6666 10.5523 17.6666 10C17.6666 9.44771 17.2189 9 16.6666 9V11ZM14 10C14 10.5523 14.4477 11 15 11C15.5522 11 16 10.5523 16 10L14 10ZM10.6666 10C10.6666 10.5523 11.1143 11 11.6666 11C12.2189 11 12.6666 10.5523 12.6666 10H10.6666ZM16 10C16 9.44772 15.5522 9 15 9C14.4477 9 14 9.44772 14 10L16 10ZM12.6666 10C12.6666 9.44772 12.2189 9 11.6666 9C11.1143 9 10.6666 9.44772 10.6666 10H12.6666ZM5.99996 5C5.99996 4.44772 5.55224 4 4.99996 4C4.44768 4 3.99996 4.44772 3.99996 5H5.99996ZM9.33329 5C9.33329 4.44772 8.88558 4 8.33329 4C7.78101 4 7.33329 4.44772 7.33329 5H9.33329ZM3.99996 5C3.99996 5.55228 4.44768 6 4.99996 6C5.55224 6 5.99996 5.55228 5.99996 5H3.99996ZM7.33329 5C7.33329 5.55228 7.78101 6 8.33329 6C8.88558 6 9.33329 5.55228 9.33329 5H7.33329ZM4.99996 6C5.55224 6 5.99996 5.55228 5.99996 5C5.99996 4.44772 5.55224 4 4.99996 4V6ZM3.33329 4C2.78101 4 2.33329 4.44772 2.33329 5C2.33329 5.55228 2.78101 6 3.33329 6V4ZM8.33329 4C7.78101 4 7.33329 4.44772 7.33329 5C7.33329 5.55228 7.78101 6 8.33329 6V4ZM16.6666 6C17.2189 6 17.6666 5.55228 17.6666 5C17.6666 4.44772 17.2189 4 16.6666 4V6ZM11.6666 11C12.2189 11 12.6666 10.5523 12.6666 10C12.6666 9.44772 12.2189 9 11.6666 9L11.6666 11ZM3.33329 9C2.78101 9 2.33329 9.44772 2.33329 10C2.33329 10.5523 2.78101 11 3.33329 11V9ZM5.99996 15C5.99996 14.4477 5.55224 14 4.99996 14C4.44768 14 3.99996 14.4477 3.99996 15H5.99996ZM9.33329 15C9.33329 14.4477 8.88558 14 8.33329 14C7.78101 14 7.33329 14.4477 7.33329 15H9.33329ZM3.99996 15C3.99996 15.5523 4.44768 16 4.99996 16C5.55224 16 5.99996 15.5523 5.99996 15H3.99996ZM7.33329 15C7.33329 15.5523 7.78101 16 8.33329 16C8.88558 16 9.33329 15.5523 9.33329 15H7.33329ZM4.99996 16C5.55224 16 5.99996 15.5523 5.99996 15C5.99996 14.4477 5.55224 14 4.99996 14V16ZM3.33329 14C2.78101 14 2.33329 14.4477 2.33329 15C2.33329 15.5523 2.78101 16 3.33329 16V14ZM8.33329 14C7.78101 14 7.33329 14.4477 7.33329 15C7.33329 15.5523 7.78101 16 8.33329 16V14ZM16.6666 16C17.2189 16 17.6666 15.5523 17.6666 15C17.6666 14.4477 17.2189 14 16.6666 14V16ZM15 11H16.6666V9H15V11ZM16 10C16 8.52724 14.8061 7.33333 13.3333 7.33333V9.33333C13.7015 9.33333 14 9.63181 14 10L16 10ZM13.3333 7.33333C11.8605 7.33333 10.6666 8.52724 10.6666 10H12.6666C12.6666 9.63181 12.9651 9.33333 13.3333 9.33333V7.33333ZM14 10C14 10.3682 13.7015 10.6667 13.3333 10.6667V12.6667C14.8061 12.6667 16 11.4728 16 10L14 10ZM13.3333 10.6667C12.9651 10.6667 12.6666 10.3682 12.6666 10H10.6666C10.6666 11.4728 11.8605 12.6667 13.3333 12.6667V10.6667ZM3.99996 5C3.99996 6.47276 5.19387 7.66667 6.66663 7.66667V5.66667C6.29844 5.66667 5.99996 5.36819 5.99996 5H3.99996ZM6.66663 7.66667C8.13939 7.66667 9.33329 6.47276 9.33329 5H7.33329C7.33329 5.36819 7.03482 5.66667 6.66663 5.66667V7.66667ZM5.99996 5C5.99996 4.63181 6.29844 4.33333 6.66663 4.33333V2.33333C5.19387 2.33333 3.99996 3.52724 3.99996 5H5.99996ZM6.66663 4.33333C7.03482 4.33333 7.33329 4.63181 7.33329 5H9.33329C9.33329 3.52724 8.13939 2.33333 6.66663 2.33333V4.33333ZM4.99996 4L3.33329 4V6L4.99996 6V4ZM8.33329 6L16.6666 6V4L8.33329 4V6ZM11.6666 9L3.33329 9V11L11.6666 11L11.6666 9ZM3.99996 15C3.99996 16.4728 5.19387 17.6667 6.66663 17.6667V15.6667C6.29844 15.6667 5.99996 15.3682 5.99996 15H3.99996ZM6.66663 17.6667C8.13939 17.6667 9.33329 16.4728 9.33329 15H7.33329C7.33329 15.3682 7.03482 15.6667 6.66663 15.6667V17.6667ZM5.99996 15C5.99996 14.6318 6.29844 14.3333 6.66663 14.3333V12.3333C5.19387 12.3333 3.99996 13.5272 3.99996 15H5.99996ZM6.66663 14.3333C7.03482 14.3333 7.33329 14.6318 7.33329 15H9.33329C9.33329 13.5272 8.13939 12.3333 6.66663 12.3333V14.3333ZM4.99996 14H3.33329V16H4.99996V14ZM8.33329 16L16.6666 16V14L8.33329 14V16Z"/></svg>