<svg xmlns="http://www.w3.org/2000/svg" width="25" height="24" fill="none" viewBox="0 0 25 24"><path fill="#329494" fill-rule="evenodd" d="M24.7461 12C24.7461 18.6274 19.3735 24 12.7461 24C6.11868 24 0.746094 18.6274 0.746094 12C0.746094 5.37258 6.11868 0 12.7461 0C19.3735 0 24.7461 5.37258 24.7461 12ZM23.2461 12C23.2461 17.799 18.5451 22.5 12.7461 22.5C6.9471 22.5 2.24609 17.799 2.24609 12C2.24609 6.20101 6.9471 1.5 12.7461 1.5C18.5451 1.5 23.2461 6.20101 23.2461 12ZM7.17359 18.6495C7.5323 18.8566 7.99098 18.7337 8.19809 18.375C9.13571 16.7498 10.8698 15.7489 12.7461 15.75C14.6886 15.75 16.3851 16.8045 17.2941 18.375C17.5026 18.7307 17.9591 18.8513 18.3161 18.6452C18.6731 18.4391 18.7969 17.9834 18.5931 17.625C17.3875 15.5357 15.1583 14.2489 12.7461 14.25C10.3341 14.2495 8.1051 15.5361 6.89909 17.625C6.692 17.9837 6.81489 18.4424 7.17359 18.6495ZM11.2461 9.75C11.2461 10.992 10.5741 12 9.74609 12C8.91809 12 8.24609 10.992 8.24609 9.75C8.24609 8.508 8.91809 7.5 9.74609 7.5C10.5741 7.5 11.2461 8.508 11.2461 9.75ZM17.2461 9.75C17.2461 10.992 16.5741 12 15.7461 12C14.9181 12 14.2461 10.992 14.2461 9.75C14.2461 8.508 14.9181 7.5 15.7461 7.5C16.5741 7.5 17.2461 8.508 17.2461 9.75Z" clip-rule="evenodd"/></svg>