<svg width="24" height="24" viewBox="0 0 24 24" fill="none" xmlns="http://www.w3.org/2000/svg">
<path fill-rule="evenodd" clip-rule="evenodd" d="M12.9863 6.8341C14.1586 6.42616 15 5.31133 15 4C15 2.34315 13.6568 1 12 1C10.3431 1 8.99997 2.34315 8.99997 4C8.99997 5.31133 9.84133 6.42616 11.0137 6.8341C11.0047 6.88806 11 6.94348 11 7V8.87068C10.5994 8.94204 10.2047 9.05664 9.82284 9.21447L3.48505 11.8374V11.8363C3.19658 11.9524 3.00509 12.2293 2.99824 12.5402C2.99243 12.8034 3.11995 13.0481 3.33102 13.195L3.03032 13.3215L9.72686 16.4889L9.72721 16.489L9.72733 16.4891C11.1699 17.1703 12.8335 17.1703 14.276 16.4891L14.2765 16.4889L20.973 13.3215L20.6689 13.1936C20.8778 13.0461 21.0036 12.8025 20.9979 12.5408C20.991 12.2309 20.801 11.9547 20.5141 11.8374L14.1763 9.21447C13.7947 9.05675 13.4002 8.9422 13 8.87083V7C13 6.94348 12.9953 6.88806 12.9863 6.8341ZM15.1312 18.2971L20.9985 15.5218V18.5883C21.0059 18.719 20.9848 18.8497 20.9367 18.9706C20.8616 19.1598 20.7221 19.3133 20.5452 19.4012L14.401 22.4365C12.8804 23.1878 11.1182 23.1878 9.59763 22.4365L3.4534 19.4012C3.15657 19.2541 2.97718 18.9308 3.00231 18.5883L3.00108 15.5201L8.87219 18.2971L8.87266 18.2973C10.8563 19.2342 13.1471 19.2342 15.1307 18.2973L15.1312 18.2971Z" fill="#B9C2FC"/>
</svg>
