<svg xmlns="http://www.w3.org/2000/svg" width="25" height="24" fill="none" viewBox="0 0 25 24"><path fill="#fff" fill-rule="evenodd" d="M24.9834 12C24.9834 18.6274 19.6108 24 12.9834 24C6.35598 24 0.983398 18.6274 0.983398 12C0.983398 5.37258 6.35598 0 12.9834 0C19.6108 0 24.9834 5.37258 24.9834 12ZM23.4834 12C23.4834 17.799 18.7824 22.5 12.9834 22.5C7.18441 22.5 2.4834 17.799 2.4834 12C2.4834 6.20101 7.18441 1.5 12.9834 1.5C18.7824 1.5 23.4834 6.20101 23.4834 12ZM19.4799 14.25C19.7478 14.7141 19.7478 15.2859 19.4799 15.75C18.1404 18.0714 15.6635 19.5011 12.9834 19.5C10.3038 19.5006 7.82766 18.0709 6.4884 15.75C6.22059 15.2861 6.22044 14.7147 6.48801 14.2507C6.75559 13.7867 7.25027 13.5005 7.7859 13.5H18.1809C18.7168 13.5 19.212 13.7859 19.4799 14.25ZM11.4834 9.75C11.4834 10.5012 11.2376 10.3437 10.8601 10.102C10.6135 9.94398 10.3106 9.75 9.9834 9.75C9.65617 9.75 9.3533 9.94398 9.10666 10.102C8.7292 10.3437 8.4834 10.5012 8.4834 9.75C8.4834 8.508 9.1554 7.5 9.9834 7.5C10.8114 7.5 11.4834 8.508 11.4834 9.75ZM17.4834 9.75C17.4834 10.5012 17.2376 10.3437 16.8601 10.102C16.6135 9.94398 16.3106 9.75 15.9834 9.75C15.6562 9.75 15.3533 9.94398 15.1067 10.102C14.7292 10.3437 14.4834 10.5012 14.4834 9.75C14.4834 8.508 15.1554 7.5 15.9834 7.5C16.8114 7.5 17.4834 8.508 17.4834 9.75Z" clip-rule="evenodd"/></svg>