<svg xmlns="http://www.w3.org/2000/svg" width="48" height="48" fill="none" viewBox="0 0 48 48"><g clip-path="url(#clip0_152_1228)"><rect width="48" height="48" fill="#fff" rx="12"/><circle cx="24" cy="29" r="1" fill="#329494"/><path fill="#329494" d="M19.3234 20.5737C19.088 21.0733 19.3021 21.6692 19.8017 21.9046C20.3013 22.14 20.8972 21.9259 21.1326 21.4263L19.3234 20.5737ZM24.994 24.907L25.1824 25.8891L25.1827 25.889L24.994 24.907ZM23 26C23 26.5523 23.4477 27 24 27C24.5523 27 25 26.5523 25 26H23ZM15 24H14H15ZM21.1326 21.4263C21.4719 20.7063 22.5281 20 24 20V18C21.9879 18 20.0821 18.9637 19.3234 20.5737L21.1326 21.4263ZM24 20C24.9096 20 25.6942 20.2776 26.2287 20.6786C26.7629 21.0793 27 21.5566 27 22H29C29 20.7864 28.3421 19.7637 27.4288 19.0787C26.5158 18.3939 25.3004 18 24 18V20ZM27 22C27 22.7299 26.2787 23.6419 24.8053 23.925L25.1827 25.889C27.1653 25.5081 29 24.0701 29 22H27ZM24.8056 23.9249C23.9107 24.0966 23 24.8564 23 26H25C25 25.9993 25 25.9997 24.9999 26.0006C24.9997 26.0013 24.9996 26.0012 25.0002 25.9999C25.0013 25.9974 25.0062 25.9872 25.0203 25.9722C25.0516 25.9391 25.1095 25.9031 25.1824 25.8891L24.8056 23.9249ZM32 24C32 26.8581 30.4752 29.4991 28 30.9282L29 32.6603C32.094 30.8739 34 27.5727 34 24H32ZM28 30.9282C25.5248 32.3573 22.4752 32.3573 20 30.9282L19 32.6603C22.094 34.4466 25.906 34.4466 29 32.6603L28 30.9282ZM20 30.9282C17.5248 29.4991 16 26.8581 16 24H14C14 27.5727 15.906 30.8739 19 32.6603L20 30.9282ZM16 24C16 19.5817 19.5817 16 24 16V14C18.4772 14 14 18.4772 14 24H16ZM24 16C28.4183 16 32 19.5817 32 24H34C34 18.4772 29.5228 14 24 14V16Z"/></g><defs><clipPath id="clip0_152_1228"><rect width="48" height="48" fill="#fff"/></clipPath></defs></svg>