<svg xmlns="http://www.w3.org/2000/svg" width="21" height="20" fill="none" viewBox="0 0 21 20"><path fill="#1D2445" fill-opacity=".3" d="M1.12536 9.30689C0.742565 9.705 0.754978 10.338 1.15308 10.7208C1.55119 11.1036 2.18423 11.0912 2.56702 10.6931L1.12536 9.30689ZM4.4901 8.69311C4.87289 8.295 4.86048 7.66196 4.46238 7.27917C4.06427 6.89637 3.43123 6.90879 3.04844 7.30689L4.4901 8.69311ZM3.04844 7.30689C2.66564 7.705 2.67805 8.33804 3.07616 8.72083C3.47426 9.10363 4.10731 9.09121 4.4901 8.69311L3.04844 7.30689ZM10.5 1L11.2209 0.306891C11.0323 0.110813 10.7721 0 10.5 0C10.228 0 9.96774 0.110813 9.7792 0.306891L10.5 1ZM16.51 8.69311C16.8928 9.09121 17.5258 9.10363 17.9239 8.72083C18.322 8.33804 18.3344 7.705 17.9516 7.30689L16.51 8.69311ZM4.76927 8C4.76927 7.44772 4.32155 7 3.76927 7C3.21698 7 2.76927 7.44772 2.76927 8H4.76927ZM7.61542 20C8.16771 20 8.61542 19.5523 8.61542 19C8.61542 18.4477 8.16771 18 7.61542 18V20ZM17.9516 7.30689C17.5688 6.90879 16.9358 6.89637 16.5377 7.27917C16.1396 7.66196 16.1272 8.295 16.51 8.69311L17.9516 7.30689ZM18.4331 10.6931C18.8158 11.0912 19.4489 11.1036 19.847 10.7208C20.2451 10.338 20.2575 9.705 19.8747 9.30689L18.4331 10.6931ZM18.2308 8C18.2308 7.44772 17.7831 7 17.2308 7C16.6785 7 16.2308 7.44772 16.2308 8H18.2308ZM13.3847 18C12.8324 18 12.3847 18.4477 12.3847 19C12.3847 19.5523 12.8324 20 13.3847 20V18ZM7.61542 18C7.06314 18 6.61542 18.4477 6.61542 19C6.61542 19.5523 7.06314 20 7.61542 20V18ZM13.3847 20C13.9369 20 14.3847 19.5523 14.3847 19C14.3847 18.4477 13.9369 18 13.3847 18V20ZM7.61542 18C7.06314 18 6.61542 18.4477 6.61542 19C6.61542 19.5523 7.06314 20 7.61542 20V18ZM13.3847 20C13.9369 20 14.3847 19.5523 14.3847 19C14.3847 18.4477 13.9369 18 13.3847 18V20ZM2.56702 10.6931L4.4901 8.69311L3.04844 7.30689L1.12536 9.30689L2.56702 10.6931ZM4.4901 8.69311L11.2209 1.69311L9.7792 0.306891L3.04844 7.30689L4.4901 8.69311ZM9.7792 1.69311L16.51 8.69311L17.9516 7.30689L11.2209 0.306891L9.7792 1.69311ZM2.76927 8V18H4.76927V8H2.76927ZM2.76927 18C2.76927 19.0672 3.61088 20 4.73081 20V18C4.74004 18 4.75043 18.0022 4.75918 18.0061C4.76712 18.0096 4.77083 18.0131 4.77173 18.014C4.77261 18.0149 4.77197 18.0145 4.77115 18.0125C4.77057 18.0111 4.76927 18.0074 4.76927 18H2.76927ZM4.73081 20H7.61542V18H4.73081V20ZM16.51 8.69311L18.4331 10.6931L19.8747 9.30689L17.9516 7.30689L16.51 8.69311ZM16.2308 8V18H18.2308V8H16.2308ZM16.2308 18C16.2308 18.0074 16.2295 18.0111 16.2289 18.0125C16.2281 18.0145 16.2275 18.0149 16.2283 18.014C16.2292 18.0131 16.233 18.0096 16.2409 18.0061C16.2496 18.0022 16.26 18 16.2693 18V20C17.3892 20 18.2308 19.0672 18.2308 18H16.2308ZM16.2693 18H13.3847V20H16.2693V18ZM7.61542 20C8.73535 20 9.57696 19.0672 9.57696 18H7.57696C7.57696 18.0074 7.57566 18.0111 7.57508 18.0125C7.57426 18.0145 7.57362 18.0149 7.5745 18.014C7.5754 18.0131 7.5791 18.0096 7.58705 18.0061C7.59579 18.0022 7.60619 18 7.61542 18V20ZM9.57696 18V14H7.57696V18H9.57696ZM9.57696 14C9.57696 13.9926 9.57826 13.9889 9.57885 13.9875C9.57966 13.9855 9.58031 13.9851 9.57942 13.986C9.57852 13.9869 9.57482 13.9904 9.56687 13.9939C9.55813 13.9978 9.54773 14 9.5385 14V12C8.41857 12 7.57696 12.9328 7.57696 14H9.57696ZM9.5385 14H11.4616V12H9.5385V14ZM11.4616 14C11.4523 14 11.4419 13.9978 11.4332 13.9939C11.4253 13.9904 11.4216 13.9869 11.4207 13.986C11.4198 13.9851 11.4204 13.9855 11.4212 13.9875C11.4218 13.9889 11.4231 13.9926 11.4231 14H13.4231C13.4231 12.9328 12.5815 12 11.4616 12V14ZM11.4231 14V18H13.4231V14H11.4231ZM11.4231 18C11.4231 19.0672 12.2647 20 13.3847 20V18C13.3939 18 13.4043 18.0022 13.413 18.0061C13.421 18.0096 13.4247 18.0131 13.4256 18.014C13.4265 18.0149 13.4258 18.0145 13.425 18.0125C13.4244 18.0111 13.4231 18.0074 13.4231 18H11.4231ZM7.61542 20H13.3847V18H7.61542V20Z"/></svg>