<svg xmlns="http://www.w3.org/2000/svg" width="16" height="21" fill="none" viewBox="0 0 16 21"><path fill="#EEB8D8" fill-rule="evenodd" d="M8 13C10.2 13 12 11.2 12 9V4C12 1.8 10.2 0 8 0C5.8 0 4 1.8 4 4V9C4 11.2 5.8 13 8 13Z" clip-rule="evenodd"/><path fill="#EEB8D8" fill-rule="evenodd" d="M16 9C16 8.4 15.6 8 15 8C14.4 8 14 8.4 14 9C14 12.3 11.3 15 8 15C4.7 15 2 12.3 2 9C2 8.4 1.6 8 1 8C0.4 8 0 8.4 0 9C0 13.1 3.1 16.4 7 16.9V19H4C3.4 19 3 19.4 3 20C3 20.6 3.4 21 4 21H12C12.6 21 13 20.6 13 20C13 19.4 12.6 19 12 19H9V16.9C12.9 16.4 16 13.1 16 9Z" clip-rule="evenodd"/></svg>