<svg xmlns="http://www.w3.org/2000/svg" width="20" height="20" fill="none" viewBox="0 0 20 20"><path fill="#329494" d="M20 10C20 9.44771 19.5523 9 19 9C18.4477 9 18 9.44771 18 10H20ZM10 18C9.44771 18 9 18.4477 9 19C9 19.5523 9.44771 20 10 20V18ZM18 10C18 10.5523 18.4477 11 19 11C19.5523 11 20 10.5523 20 10H18ZM10 0C9.44771 0 9 0.447715 9 1C9 1.55228 9.44771 2 10 2V0ZM19 11C19.5523 11 20 10.5523 20 10C20 9.44771 19.5523 9 19 9V11ZM1 9C0.447715 9 0 9.44771 0 10C0 10.5523 0.447715 11 1 11V9ZM10 20C10.5523 20 11 19.5523 11 19C11 18.4477 10.5523 18 10 18V20ZM2 10C2 9.44771 1.55228 9 1 9C0.447715 9 0 9.44771 0 10H2ZM10 18C9.44771 18 9 18.4477 9 19C9 19.5523 9.44771 20 10 20V18ZM10 0C9.44771 0 9 0.447715 9 1C9 1.55228 9.44771 2 10 2V0ZM10 20C10.5523 20 11 19.5523 11 19C11 18.4477 10.5523 18 10 18V20ZM10 2C10.5523 2 11 1.55228 11 1C11 0.447715 10.5523 0 10 0V2ZM0 10C0 10.5523 0.447715 11 1 11C1.55228 11 2 10.5523 2 10H0ZM10 2C10.5523 2 11 1.55228 11 1C11 0.447715 10.5523 0 10 0V2ZM18 10C18 14.4183 14.4183 18 10 18V20C15.5228 20 20 15.5228 20 10H18ZM20 10C20 4.47715 15.5228 0 10 0V2C14.4183 2 18 5.58172 18 10H20ZM19 9H1V11H19V9ZM10 18C5.58172 18 2 14.4183 2 10H0C0 15.5228 4.47715 20 10 20V18ZM10 20C10.852 20 11.5045 19.481 11.9532 18.9116C12.4109 18.3309 12.7792 17.5526 13.0701 16.68C13.6552 14.9243 14 12.5626 14 10H12C12 12.4074 11.6733 14.5457 11.1727 16.0475C10.9207 16.8037 10.6426 17.3435 10.3824 17.6737C10.2546 17.8359 10.1506 17.9225 10.0814 17.9649C10.0485 17.9852 10.0264 17.9935 10.0153 17.9969C10.0049 18.0001 10.0007 18 10 18V20ZM14 10C14 7.43743 13.6552 5.07571 13.0701 3.32004C12.7792 2.44744 12.4109 1.66912 11.9532 1.0884C11.5045 0.518961 10.852 0 10 0V2C10.0007 2 10.0049 1.9999 10.0153 2.00306C10.0264 2.00645 10.0485 2.01483 10.0814 2.03508C10.1506 2.07753 10.2546 2.16411 10.3824 2.32629C10.6426 2.65651 10.9207 3.19631 11.1727 3.95246C11.6733 5.4543 12 7.59257 12 10H14ZM10 18C9.99927 18 9.99505 18.0001 9.9847 17.9969C9.97355 17.9935 9.95154 17.9852 9.91855 17.9649C9.8494 17.9225 9.74544 17.8359 9.61764 17.6737C9.35742 17.3435 9.07935 16.8037 8.82732 16.0475C8.32674 14.5457 8 12.4074 8 10H6C6 12.5626 6.34476 14.9243 6.92993 16.68C7.22078 17.5526 7.58915 18.3309 8.04677 18.9116C8.4955 19.481 9.14799 20 10 20V18ZM8 10C8 7.59257 8.32674 5.4543 8.82732 3.95246C9.07935 3.19631 9.35742 2.65651 9.61764 2.32629C9.74544 2.16411 9.8494 2.07753 9.91855 2.03508C9.95154 2.01483 9.97355 2.00645 9.9847 2.00306C9.99505 1.9999 9.99927 2 10 2V0C9.14799 0 8.4955 0.518961 8.04677 1.0884C7.58915 1.66912 7.22078 2.44744 6.92993 3.32004C6.34476 5.07571 6 7.43743 6 10H8ZM2 10C2 5.58172 5.58172 2 10 2V0C4.47715 0 0 4.47715 0 10H2Z"/></svg>