<svg xmlns="http://www.w3.org/2000/svg" width="20" height="20" fill="none" viewBox="0 0 20 20"><path fill="#fff" fill-rule="evenodd" d="M10 6.66671C10.9167 6.66671 11.6667 5.91671 11.6667 5.00004C11.6667 4.08337 10.9167 3.33337 10 3.33337C9.08337 3.33337 8.33337 4.08337 8.33337 5.00004C8.33337 5.91671 9.08337 6.66671 10 6.66671ZM10 8.33337C9.08337 8.33337 8.33337 9.08337 8.33337 10C8.33337 10.9167 9.08337 11.6667 10 11.6667C10.9167 11.6667 11.6667 10.9167 11.6667 10C11.6667 9.08337 10.9167 8.33337 10 8.33337ZM10 13.3334C9.08337 13.3334 8.33337 14.0834 8.33337 15C8.33337 15.9167 9.08337 16.6667 10 16.6667C10.9167 16.6667 11.6667 15.9167 11.6667 15C11.6667 14.0834 10.9167 13.3334 10 13.3334Z" clip-rule="evenodd"/></svg>