<svg xmlns="http://www.w3.org/2000/svg" width="25" height="24" fill="none" viewBox="0 0 25 24"><path fill="#FCCBB9" fill-rule="evenodd" d="M20.0454 3H10.0454C9.44541 3 9.04541 3.4 9.04541 4V13.6C8.44541 13.2 7.74541 13 7.04541 13C4.84541 13 3.04541 14.8 3.04541 17C3.04541 19.2 4.84541 21 7.04541 21C9.24541 21 11.0454 19.2 11.0454 17V9H19.0454V13.6C18.4454 13.3 17.7454 13 17.0454 13C14.8454 13 13.0454 14.8 13.0454 17C13.0454 19.2 14.8454 21 17.0454 21C19.2454 21 21.0454 19.2 21.0454 17V4C21.0454 3.4 20.6454 3 20.0454 3Z" clip-rule="evenodd"/></svg>