<svg xmlns="http://www.w3.org/2000/svg" width="25" height="24" fill="none" viewBox="0 0 25 24"><path fill="#329494" fill-rule="evenodd" d="M24.4917 12C24.4917 18.6274 19.1191 24 12.4917 24C5.86428 24 0.491699 18.6274 0.491699 12C0.491699 5.37258 5.86428 0 12.4917 0C19.1191 0 24.4917 5.37258 24.4917 12ZM22.9917 12C22.9917 17.799 18.2907 22.5 12.4917 22.5C6.69271 22.5 1.9917 17.799 1.9917 12C1.9917 6.20101 6.69271 1.5 12.4917 1.5C18.2907 1.5 22.9917 6.20101 22.9917 12ZM6.4917 15.75C6.4917 15.3358 6.82749 15 7.2417 15H17.7417C18.1559 15 18.4917 15.3358 18.4917 15.75C18.4917 16.1642 18.1559 16.5 17.7417 16.5H7.2417C6.82749 16.5 6.4917 16.1642 6.4917 15.75ZM10.9917 9.75C10.9917 10.992 10.3197 12 9.4917 12C8.6637 12 7.9917 10.992 7.9917 9.75C7.9917 8.508 8.6637 7.5 9.4917 7.5C10.3197 7.5 10.9917 8.508 10.9917 9.75ZM16.9917 9.75C16.9917 10.992 16.3197 12 15.4917 12C14.6637 12 13.9917 10.992 13.9917 9.75C13.9917 8.508 14.6637 7.5 15.4917 7.5C16.3197 7.5 16.9917 8.508 16.9917 9.75Z" clip-rule="evenodd"/></svg>