<svg xmlns="http://www.w3.org/2000/svg" width="48" height="48" fill="none" viewBox="0 0 48 48"><g clip-path="url(#clip0_152_1635)"><rect width="48" height="48" fill="#fff" rx="12"/><path fill="#329494" d="M27 28C26.4477 28 26 28.4477 26 29C26 29.5523 26.4477 30 27 30V28ZM32 29V30C32.4045 30 32.7691 29.7564 32.9239 29.3827C33.0787 29.009 32.9931 28.5789 32.7071 28.2929L32 29ZM30.595 27.595L29.8878 28.302L29.8879 28.3021L30.595 27.595ZM30 26.158L31 26.1582V26.158H30ZM30 23L29 22.9999V23H30ZM26 17.341H25C25 17.7647 25.267 18.1424 25.6664 18.2837L26 17.341ZM22 17.341L22.3334 18.2838C22.7329 18.1425 23 17.7648 23 17.341H22ZM17.405 27.595L18.1121 28.3021L17.405 27.595ZM16 29L15.2929 28.2929C15.0069 28.5789 14.9213 29.009 15.0761 29.3827C15.2309 29.7564 15.5955 30 16 30V29ZM21 30C21.5523 30 22 29.5523 22 29C22 28.4477 21.5523 28 21 28V30ZM28 29C28 28.4477 27.5523 28 27 28C26.4477 28 26 28.4477 26 29H28ZM22 29C22 28.4477 21.5523 28 21 28C20.4477 28 20 28.4477 20 29H22ZM27 30C27.5523 30 28 29.5523 28 29C28 28.4477 27.5523 28 27 28V30ZM21 28C20.4477 28 20 28.4477 20 29C20 29.5523 20.4477 30 21 30V28ZM27 30H32V28H27V30ZM32.7071 28.2929L31.3021 26.8879L29.8879 28.3021L31.2929 29.7071L32.7071 28.2929ZM31.3022 26.888C31.1087 26.6944 31 26.4319 31 26.1582L29 26.1578C28.9999 26.962 29.3192 27.7333 29.8878 28.302L31.3022 26.888ZM31 26.158V23H29V26.158H31ZM31 23.0001C31.0004 20.0331 29.1307 17.3879 26.3336 16.3983L25.6664 18.2837C27.6646 18.9907 29.0003 20.8803 29 22.9999L31 23.0001ZM27 17.341V17H25V17.341H27ZM27 17C27 15.3431 25.6569 14 24 14V16C24.5523 16 25 16.4477 25 17H27ZM24 14C22.3431 14 21 15.3431 21 17H23C23 16.4477 23.4477 16 24 16V14ZM21 17V17.341H23V17H21ZM21.6666 16.3982C18.9497 17.359 17 19.951 17 23H19C19 20.825 20.3903 18.971 22.3334 18.2838L21.6666 16.3982ZM17 23V26.159H19V23H17ZM17 26.159C17 26.4318 16.8914 26.6944 16.6979 26.8879L18.1121 28.3021C18.6806 27.7336 19 26.9622 19 26.159H17ZM16.6979 26.8879L15.2929 28.2929L16.7071 29.7071L18.1121 28.3021L16.6979 26.8879ZM16 30H21V28H16V30ZM26 29V30H28V29H26ZM26 30C26 31.1046 25.1046 32 24 32V34C26.2091 34 28 32.2091 28 30H26ZM24 32C22.8954 32 22 31.1046 22 30H20C20 32.2091 21.7909 34 24 34V32ZM22 30V29H20V30H22ZM27 28H21V30H27V28Z"/></g><defs><clipPath id="clip0_152_1635"><rect width="48" height="48" fill="#fff"/></clipPath></defs></svg>