<svg xmlns="http://www.w3.org/2000/svg" width="48" height="48" fill="none" viewBox="0 0 48 48"><g clip-path="url(#clip0_152_1241)"><rect width="48" height="48" fill="#fff" rx="12"/><path fill="#329494" d="M27 17.9999C26.4477 17.9999 26 18.4476 26 18.9999C26 19.5522 26.4477 19.9999 27 19.9999V17.9999ZM28 20.9999C28 21.5522 28.4477 21.9999 29 21.9999C29.5523 21.9999 30 21.5522 30 20.9999H28ZM33 20.9999L34 20.9996V20.999L33 20.9999ZM25.257 26.7429L25.5475 25.7861C25.1944 25.6788 24.8109 25.7749 24.5499 26.0358L25.257 26.7429ZM23 28.9999V29.9999C23.2652 29.9999 23.5196 29.8946 23.7071 29.707L23 28.9999ZM21 28.9999V27.9999C20.4477 27.9999 20 28.4476 20 28.9999H21ZM21 30.9999V31.9999C21.5523 31.9999 22 31.5522 22 30.9999H21ZM19 30.9999V29.9999C18.4477 29.9999 18 30.4476 18 30.9999H19ZM19 32.9999V33.9999C19.5523 33.9999 20 33.5522 20 32.9999H19ZM15 29.4139L14 29.4137V29.4139H15ZM15.293 28.7069L16 29.4141L16.0001 29.414L15.293 28.7069ZM21.257 22.7429L21.9641 23.45C22.2248 23.1893 22.3209 22.8063 22.2142 22.4534L21.257 22.7429ZM27 19.9999C27.5523 19.9999 28 20.4476 28 20.9999H30C30 19.3431 28.6569 17.9999 27 17.9999V19.9999ZM32 21.0002C32.0005 22.5839 31.2506 24.0742 29.9786 25.0176L31.1701 26.624C32.9509 25.3032 34.0006 23.2168 34 20.9996L32 21.0002ZM29.9786 25.0176C28.7066 25.9611 27.0629 26.2461 25.5475 25.7861L24.9665 27.6998C27.088 28.3439 29.3893 27.9448 31.1701 26.624L29.9786 25.0176ZM24.5499 26.0358L22.2929 28.2928L23.7071 29.707L25.9641 27.45L24.5499 26.0358ZM23 27.9999H21V29.9999H23V27.9999ZM20 28.9999V30.9999H22V28.9999H20ZM21 29.9999H19V31.9999H21V29.9999ZM18 30.9999V32.9999H20V30.9999H18ZM19 31.9999H16V33.9999H19V31.9999ZM16 31.9999H14C14 33.1045 14.8954 33.9999 16 33.9999V31.9999ZM16 31.9999V29.4139H14V31.9999H16ZM16 29.4141V29.4141L14.586 27.9997C14.2109 28.3747 14.0001 28.8833 14 29.4137L16 29.4141ZM16.0001 29.414L21.9641 23.45L20.5499 22.0358L14.5859 27.9998L16.0001 29.414ZM22.2142 22.4534C21.6461 20.5756 22.2288 18.5391 23.704 17.2459L22.3856 15.7419C20.3203 17.5524 19.5046 20.4035 20.2998 23.0325L22.2142 22.4534ZM23.704 17.2459C25.1793 15.9526 27.2745 15.6416 29.0618 16.4506L29.8865 14.6286C27.3843 13.496 24.451 13.9314 22.3856 15.7419L23.704 17.2459ZM29.0618 16.4506C30.8491 17.2596 31.9981 19.0391 32 21.0009L34 20.999C33.9974 18.2524 32.3887 15.7611 29.8865 14.6286L29.0618 16.4506Z"/></g><defs><clipPath id="clip0_152_1241"><rect width="48" height="48" fill="#fff"/></clipPath></defs></svg>