<svg xmlns="http://www.w3.org/2000/svg" width="18" height="20" fill="none" viewBox="0 0 18 20"><path fill-rule="evenodd" stroke="#329494" stroke-linecap="round" stroke-linejoin="round" stroke-width="2" d="M14.657 16.657C11.5327 19.7813 6.46727 19.7813 3.34299 16.657C0.218718 13.5327 0.218718 8.46727 3.34299 5.343C3.34299 5.343 3.99999 7 5.99999 8C5.99999 6 6.49999 3 8.98599 1C11 3 13.09 3.777 14.656 5.343C16.159 6.84162 17.0026 8.87755 17 11C17.0028 13.1223 16.1596 15.1582 14.657 16.657V16.657Z" clip-rule="evenodd"/><path fill-rule="evenodd" stroke="#329494" stroke-linecap="round" stroke-linejoin="round" stroke-width="2" d="M6.879 14.121C7.83777 15.08 9.32067 15.2766 10.4962 14.6006C11.6718 13.9245 12.2476 12.5439 11.9009 11.2329C11.5542 9.9219 10.3711 9.00651 9.015 9L8 12H6C6 12.768 6.293 13.536 6.879 14.121Z" clip-rule="evenodd"/></svg>