<svg xmlns="http://www.w3.org/2000/svg" width="48" height="48" fill="none" viewBox="0 0 48 48"><rect width="48" height="48" fill="#fff" rx="12"/><path fill="#329494" d="M21.7071 23.293C21.3166 22.9025 20.6834 22.9025 20.2929 23.293C19.9024 23.6835 19.9024 24.3167 20.2929 24.7072L21.7071 23.293ZM23 26.0001L22.2929 26.7072C22.6834 27.0977 23.3166 27.0977 23.7071 26.7072L23 26.0001ZM27.7071 22.7072C28.0976 22.3167 28.0976 21.6835 27.7071 21.293C27.3166 20.9025 26.6834 20.9025 26.2929 21.293L27.7071 22.7072ZM24 14.9441L24.6678 14.1998C24.2879 13.8589 23.7121 13.8589 23.3321 14.1998L24 14.9441ZM15.382 17.9841L15.435 16.9855C14.9599 16.9603 14.5328 17.2733 14.4138 17.734L15.382 17.9841ZM15 21.0001H16L16 20.9993L15 21.0001ZM24 32.6221L23.7508 33.5905C23.9142 33.6326 24.0857 33.6326 24.2492 33.5905L24 32.6221ZM20.2929 24.7072L22.2929 26.7072L23.7071 25.293L21.7071 23.293L20.2929 24.7072ZM23.7071 26.7072L27.7071 22.7072L26.2929 21.293L22.2929 25.293L23.7071 26.7072ZM32.565 16.9855C29.6675 17.1394 26.8274 16.1375 24.6678 14.1998L23.3321 15.6884C25.886 17.9799 29.2446 19.1646 32.671 18.9827L32.565 16.9855ZM23.3321 14.1998C21.1725 16.1375 18.3324 17.1394 15.435 16.9855L15.329 18.9827C18.7553 19.1646 22.114 17.9799 24.6678 15.6884L23.3321 14.1998ZM14.4138 17.734C14.1381 18.8011 13.9991 19.8988 14 21.0009L16 20.9993C15.9992 20.0665 16.1169 19.1374 16.3502 18.2342L14.4138 17.734ZM14 21.0001C14 27.0583 18.1436 32.1476 23.7508 33.5905L24.2492 31.6536C19.5044 30.4326 16 26.1238 16 21.0001H14ZM24.2492 33.5905C29.8564 32.1476 34 27.0594 34 21.0001H32C32 26.1248 28.4956 30.4326 23.7508 31.6536L24.2492 33.5905ZM34 21.0001C34 19.8726 33.856 18.7786 33.5862 17.734L31.6498 18.2342C31.8779 19.1176 32 20.0436 32 21.0001H34Z"/></svg>