<svg xmlns="http://www.w3.org/2000/svg" width="16" height="20" fill="none" viewBox="0 0 16 20"><path fill="#329494" d="M4.29289 11.2929C3.90237 11.6834 3.90237 12.3166 4.29289 12.7071C4.68342 13.0976 5.31658 13.0976 5.70711 12.7071L4.29289 11.2929ZM11.7071 6.70711C12.0976 6.31658 12.0976 5.68342 11.7071 5.29289C11.3166 4.90237 10.6834 4.90237 10.2929 5.29289L11.7071 6.70711ZM9.79289 11.7929C9.40237 12.1834 9.40237 12.8166 9.79289 13.2071C10.1834 13.5976 10.8166 13.5976 11.2071 13.2071L9.79289 11.7929ZM12.2071 12.2071C12.5976 11.8166 12.5976 11.1834 12.2071 10.7929C11.8166 10.4024 11.1834 10.4024 10.7929 10.7929L12.2071 12.2071ZM3.79289 5.79289C3.40237 6.18342 3.40237 6.81658 3.79289 7.20711C4.18342 7.59763 4.81658 7.59763 5.20711 7.20711L3.79289 5.79289ZM6.20711 6.20711C6.59763 5.81658 6.59763 5.18342 6.20711 4.79289C5.81658 4.40237 5.18342 4.40237 4.79289 4.79289L6.20711 6.20711ZM15 19L14.5039 19.8682C14.8134 20.0451 15.1936 20.0438 15.5019 19.8649C15.8102 19.686 16 19.3565 16 19H15ZM1 19H0C0 19.3565 0.189758 19.686 0.498073 19.8649C0.806388 20.0438 1.18664 20.0451 1.49614 19.8682L1 19ZM4.5 17L4.99614 16.1318C4.68871 15.9561 4.31129 15.9561 4.00386 16.1318L4.5 17ZM8 19L7.50386 19.8682C7.81129 20.0439 8.18871 20.0439 8.49614 19.8682L8 19ZM11.5 17L11.9961 16.1318C11.6887 15.9561 11.3113 15.9561 11.0039 16.1318L11.5 17ZM5.70711 12.7071L11.7071 6.70711L10.2929 5.29289L4.29289 11.2929L5.70711 12.7071ZM11.2071 13.2071L12.2071 12.2071L10.7929 10.7929L9.79289 11.7929L11.2071 13.2071ZM5.20711 7.20711L6.20711 6.20711L4.79289 4.79289L3.79289 5.79289L5.20711 7.20711ZM16 19V3H14V19H16ZM16 3C16 1.34315 14.6569 0 13 0V2C13.5523 2 14 2.44772 14 3H16ZM13 0H3V2H13V0ZM3 0C1.34315 0 0 1.34315 0 3H2C2 2.44772 2.44772 2 3 2V0ZM0 3V19H2V3H0ZM1.49614 19.8682L4.99614 17.8682L4.00386 16.1318L0.503861 18.1318L1.49614 19.8682ZM4.00386 17.8682L7.50386 19.8682L8.49614 18.1318L4.99614 16.1318L4.00386 17.8682ZM8.49614 19.8682L11.9961 17.8682L11.0039 16.1318L7.50386 18.1318L8.49614 19.8682ZM11.0039 17.8682L14.5039 19.8682L15.4961 18.1318L11.9961 16.1318L11.0039 17.8682Z"/></svg>