<svg xmlns="http://www.w3.org/2000/svg" width="25" height="24" fill="none" viewBox="0 0 25 24"><path fill="#329494" fill-rule="evenodd" d="M24.2378 12C24.2378 18.6274 18.8652 24 12.2378 24C5.61038 24 0.237793 18.6274 0.237793 12C0.237793 5.37258 5.61038 0 12.2378 0C18.8652 0 24.2378 5.37258 24.2378 12ZM22.7378 12C22.7378 17.799 18.0368 22.5 12.2378 22.5C6.4388 22.5 1.73779 17.799 1.73779 12C1.73779 6.20101 6.4388 1.5 12.2378 1.5C18.0368 1.5 22.7378 6.20101 22.7378 12ZM6.66529 14.3505C7.024 14.1434 7.48268 14.2663 7.68979 14.625C8.62741 16.2502 10.3615 17.2511 12.2378 17.25C14.1141 17.2511 15.8482 16.2502 16.7858 14.625C16.9188 14.391 17.167 14.2463 17.4361 14.2457C17.7053 14.2451 17.9541 14.3888 18.0881 14.6221C18.2222 14.8555 18.2209 15.1428 18.0848 15.375C16.8792 17.4643 14.65 18.7511 12.2378 18.75C9.82561 18.7511 7.59635 17.4643 6.39079 15.375C6.1837 15.0163 6.30659 14.5576 6.66529 14.3505ZM10.7378 9.75C10.7378 10.992 10.0658 12 9.23779 12C8.40979 12 7.73779 10.992 7.73779 9.75C7.73779 8.508 8.40979 7.5 9.23779 7.5C10.0658 7.5 10.7378 8.508 10.7378 9.75ZM16.7378 9.75C16.7378 10.992 16.0658 12 15.2378 12C14.4098 12 13.7378 10.992 13.7378 9.75C13.7378 8.508 14.4098 7.5 15.2378 7.5C16.0658 7.5 16.7378 8.508 16.7378 9.75Z" clip-rule="evenodd"/></svg>