<svg xmlns="http://www.w3.org/2000/svg" width="23" height="21" fill="none" viewBox="0 0 23 21"><path fill="#329494" d="M11.5 13L11.0039 13.8682C11.3113 14.0439 11.6887 14.0439 11.9961 13.8682L11.5 13ZM22 7L22.4961 7.86824C22.8077 7.6902 23 7.35886 23 7C23 6.64114 22.8077 6.3098 22.4961 6.13176L22 7ZM11.5 1L11.9961 0.131757C11.6887 -0.043919 11.3113 -0.043919 11.0039 0.131757L11.5 1ZM1 7L0.503861 6.13176C0.192286 6.3098 0 6.64114 0 7C0 7.35886 0.192286 7.6902 0.503861 7.86824L1 7ZM11.9995 12.9719L11.5081 13.8428C11.8131 14.0149 12.1859 14.015 12.4909 13.8429L11.9995 12.9719ZM19.0395 9L19.9719 8.63846C19.867 8.36788 19.6497 8.15622 19.3764 8.05845C19.1031 7.96068 18.8009 7.98645 18.5481 8.12906L19.0395 9ZM19.7995 16.5202L19.8976 17.5154C20.3464 17.4711 20.71 17.132 20.7854 16.6874L19.7995 16.5202ZM11.9995 20L11.3262 20.7393C11.7078 21.0869 12.2913 21.0869 12.6729 20.7393L11.9995 20ZM4.20067 16.5202L3.21478 16.6876C3.29023 17.1321 3.6538 17.4711 4.10248 17.5154L4.20067 16.5202ZM4.96067 9L5.45212 8.12909C5.19937 7.98647 4.89713 7.96068 4.62388 8.05842C4.35062 8.15616 4.13331 8.36779 4.02835 8.63836L4.96067 9ZM6 20C6 20.5523 6.44772 21 7 21C7.55228 21 8 20.5523 8 20H6ZM7 10.7426L6.51907 9.86589C6.19897 10.0415 6 10.3775 6 10.7426H7ZM12.4809 8.87676C12.9651 8.61115 13.1424 8.00329 12.8768 7.51907C12.6112 7.03485 12.0033 6.85763 11.5191 7.12324L12.4809 8.87676ZM11.9961 13.8682L22.4961 7.86824L21.5039 6.13176L11.0039 12.1318L11.9961 13.8682ZM22.4961 6.13176L11.9961 0.131757L11.0039 1.86824L21.5039 7.86824L22.4961 6.13176ZM11.0039 0.131757L0.503861 6.13176L1.49614 7.86824L11.9961 1.86824L11.0039 0.131757ZM0.503861 7.86824L11.0039 13.8682L11.9961 12.1318L1.49614 6.13176L0.503861 7.86824ZM12.4909 13.8429L19.5309 9.87094L18.5481 8.12906L11.5081 12.101L12.4909 13.8429ZM18.1072 9.36154C18.9681 11.5819 19.2127 14.0004 18.8136 16.353L20.7854 16.6874C21.2447 13.9798 20.9635 11.1958 19.9719 8.63846L18.1072 9.36154ZM19.7014 15.525C16.5868 15.8321 13.6524 17.142 11.3262 19.2607L12.6729 20.7393C14.6831 18.9084 17.2147 17.7798 19.8976 17.5154L19.7014 15.525ZM12.6729 19.2607C10.3469 17.1422 7.41309 15.8323 4.29887 15.525L4.10248 17.5154C6.78501 17.7801 9.31622 18.9086 11.3262 20.7393L12.6729 19.2607ZM5.18657 16.3529C4.78724 14.0004 5.03178 11.5819 5.89299 9.36164L4.02835 8.63836C3.03638 11.1957 2.75514 13.9798 3.21478 16.6876L5.18657 16.3529ZM4.46923 9.87091L11.5081 13.8428L12.491 12.101L5.45212 8.12909L4.46923 9.87091ZM8 20V10.7426H6V20H8ZM7.48093 11.6194L12.4809 8.87676L11.5191 7.12324L6.51907 9.86589L7.48093 11.6194Z"/></svg>