<svg xmlns="http://www.w3.org/2000/svg" width="48" height="48" fill="none" viewBox="0 0 48 48"><rect width="48" height="48" fill="#fff" rx="12"/><path fill="#329494" d="M25 13C25 12.4477 24.5523 12 24 12C23.4477 12 23 12.4477 23 13H25ZM23 14.2222C23 14.7745 23.4477 15.2222 24 15.2222C24.5523 15.2222 25 14.7745 25 14.2222H23ZM25 33.7778C25 33.2255 24.5523 32.7778 24 32.7778C23.4477 32.7778 23 33.2255 23 33.7778H25ZM23 35C23 35.5523 23.4477 36 24 36C24.5523 36 25 35.5523 25 35H23ZM35 25C35.5523 25 36 24.5523 36 24C36 23.4477 35.5523 23 35 23V25ZM33.7778 23C33.2255 23 32.7778 23.4477 32.7778 24C32.7778 24.5523 33.2255 25 33.7778 25V23ZM14.2222 25C14.7745 25 15.2222 24.5523 15.2222 24C15.2222 23.4477 14.7745 23 14.2222 23V25ZM13 23C12.4477 23 12 23.4477 12 24C12 24.5523 12.4477 25 13 25V23ZM31.0711 32.4853C31.4616 32.8759 32.0948 32.8759 32.4853 32.4853C32.8759 32.0948 32.8759 31.4616 32.4853 31.0711L31.0711 32.4853ZM31.6212 30.207C31.2307 29.8165 30.5975 29.8165 30.207 30.207C29.8165 30.5975 29.8165 31.2307 30.207 31.6212L31.6212 30.207ZM16.3788 17.793C16.7693 18.1835 17.4025 18.1835 17.793 17.793C18.1835 17.4025 18.1835 16.7693 17.793 16.3788L16.3788 17.793ZM16.9289 15.5147C16.5384 15.1241 15.9052 15.1241 15.5147 15.5147C15.1241 15.9052 15.1241 16.5384 15.5147 16.9289L16.9289 15.5147ZM32.4853 16.9289C32.8759 16.5384 32.8759 15.9052 32.4853 15.5147C32.0948 15.1241 31.4616 15.1241 31.0711 15.5147L32.4853 16.9289ZM30.207 16.3788C29.8165 16.7693 29.8165 17.4025 30.207 17.793C30.5975 18.1835 31.2307 18.1835 31.6212 17.793L30.207 16.3788ZM17.793 31.6212C18.1835 31.2307 18.1835 30.5975 17.793 30.207C17.4025 29.8165 16.7693 29.8165 16.3788 30.207L17.793 31.6212ZM15.5147 31.0711C15.1241 31.4616 15.1241 32.0948 15.5147 32.4853C15.9052 32.8759 16.5384 32.8759 16.9289 32.4853L15.5147 31.0711ZM23 13V14.2222H25V13H23ZM23 33.7778V35H25V33.7778H23ZM35 23H33.7778V25H35V23ZM14.2222 23H13V25H14.2222V23ZM32.4853 31.0711L31.6212 30.207L30.207 31.6212L31.0711 32.4853L32.4853 31.0711ZM17.793 16.3788L16.9289 15.5147L15.5147 16.9289L16.3788 17.793L17.793 16.3788ZM31.0711 15.5147L30.207 16.3788L31.6212 17.793L32.4853 16.9289L31.0711 15.5147ZM16.3788 30.207L15.5147 31.0711L16.9289 32.4853L17.793 31.6212L16.3788 30.207ZM27.8889 24C27.8889 26.1478 26.1478 27.8889 24 27.8889V29.8889C27.2523 29.8889 29.8889 27.2523 29.8889 24H27.8889ZM24 27.8889C21.8522 27.8889 20.1111 26.1478 20.1111 24H18.1111C18.1111 27.2523 20.7477 29.8889 24 29.8889V27.8889ZM20.1111 24C20.1111 21.8522 21.8522 20.1111 24 20.1111V18.1111C20.7477 18.1111 18.1111 20.7477 18.1111 24H20.1111ZM24 20.1111C26.1478 20.1111 27.8889 21.8522 27.8889 24H29.8889C29.8889 20.7477 27.2523 18.1111 24 18.1111V20.1111Z"/></svg>