<svg xmlns="http://www.w3.org/2000/svg" width="18" height="22" fill="none" viewBox="0 0 18 22"><path fill="#329494" fill-rule="evenodd" d="M10.5 9.07434H14.073C14.5928 9.07436 15.0755 9.38833 15.3488 9.90416C15.6222 10.42 15.6471 11.0641 15.4147 11.6066L12.7898 17.7316C12.5356 18.3249 12.0158 18.6996 11.4472 18.6993H8.4345C8.31225 18.6993 8.19 18.6818 8.07075 18.6468L5.25 17.8243M10.5 9.07434V4.69934C10.5 3.73284 9.82843 2.94934 9 2.94934H8.92875C8.55375 2.94934 8.25 3.30372 8.25 3.74122C8.25 4.36597 8.09175 4.97672 7.794 5.49647L5.25 9.94934V17.8243M10.5 9.07434H9H10.5ZM5.25 17.8243H3.75C2.92157 17.8243 2.25 17.0408 2.25 16.0743V10.8243C2.25 9.85784 2.92157 9.07434 3.75 9.07434H5.625" clip-rule="evenodd"/></svg>