<svg width="18" height="16" viewBox="0 0 18 16" fill="none" xmlns="http://www.w3.org/2000/svg">
<path d="M11.4661 15.531C9.31228 14.4589 7.36523 13.0139 5.71514 11.263C3.96209 9.6175 2.52508 7.665 1.47515 5.50201L1.39513 5.31201C1.12163 4.82369 0.984987 4.27057 0.999595 3.71106C1.0142 3.15155 1.17953 2.60638 1.47814 2.133C2.00014 1.263 3.43913 -0.000976562 4.50713 -0.000976562H4.59014C5.01556 0.0510555 5.40845 0.25312 5.69814 0.56897L5.79815 0.669006C6.56808 1.48831 7.22613 2.40595 7.75515 3.39801L7.77514 3.46802C7.82345 3.73439 7.81577 4.00788 7.75259 4.27112C7.6894 4.53436 7.57209 4.78159 7.40813 4.99701L7.32116 5.151C7.16116 5.451 7.13014 5.57298 7.18114 5.72198C7.5361 6.63783 8.07651 7.47043 8.76846 8.16754C9.4604 8.86465 10.289 9.41125 11.2021 9.77301C11.2499 9.79177 11.3008 9.80159 11.3521 9.802C11.5489 9.77561 11.736 9.70032 11.8961 9.58301L12.0962 9.46997C12.395 9.27615 12.7403 9.16573 13.0962 9.15002C13.2196 9.15082 13.3426 9.16452 13.4632 9.19098C14.4123 9.66371 15.287 10.2732 16.0591 11L16.2782 11.2L16.3581 11.28C16.6798 11.5789 16.8811 11.985 16.9242 12.422C16.9612 13.475 15.6861 15.011 14.8441 15.494C14.3903 15.821 13.8435 15.9937 13.2841 15.987C12.6522 15.9693 12.0317 15.8137 11.4661 15.531ZM4.50014 1.16901H4.43114C3.62125 1.49109 2.92928 2.05327 2.44814 2.78003L2.38213 2.88C2.22832 3.22629 2.16245 3.60522 2.19036 3.98309C2.21827 4.36097 2.33912 4.7261 2.54214 5.04602L2.62215 5.24597C3.64996 7.23392 5.01139 9.03069 6.64715 10.558C8.16894 12.1596 9.95714 13.4849 11.9322 14.475L12.1021 14.55C12.4647 14.7184 12.8576 14.8119 13.2571 14.825C13.5991 14.8303 13.9337 14.7251 14.2111 14.525L14.2512 14.499C14.5633 14.2544 14.8507 13.9798 15.1092 13.679C15.4389 13.3621 15.666 12.9534 15.7611 12.506C15.728 12.3561 15.6478 12.2209 15.5322 12.12L15.4672 12.056C14.7722 11.4243 14.0225 10.8554 13.2271 10.356C13.1942 10.3493 13.1607 10.3459 13.1272 10.346C12.9095 10.377 12.7032 10.4623 12.5272 10.594L12.3271 10.705C12.0382 10.8858 11.7076 10.9891 11.3671 11.005C11.1666 11.0017 10.9683 10.9631 10.7811 10.891C9.71596 10.4689 8.74971 9.83079 7.94323 9.01691C7.13675 8.20303 6.50752 7.23099 6.09515 6.16199C5.99814 5.88121 5.97256 5.58072 6.02074 5.2876C6.06893 4.99447 6.18936 4.71792 6.37115 4.48297L6.46014 4.323C6.62814 4.023 6.66715 3.88402 6.63415 3.72302C6.15762 2.95996 5.61806 2.23808 5.02114 1.565L4.88213 1.41901L4.80816 1.35101C4.73158 1.27976 4.64097 1.22523 4.54214 1.19098L4.50014 1.16901ZM13.1002 6.38098C12.994 5.82093 12.7222 5.30564 12.32 4.90167C11.9178 4.49771 11.4037 4.22366 10.8441 4.11499C10.7039 4.08907 10.578 4.01282 10.49 3.90057C10.402 3.78833 10.3581 3.64785 10.3665 3.50549C10.3748 3.36313 10.4349 3.22869 10.5354 3.1275C10.6358 3.02632 10.7698 2.96534 10.9121 2.95599H11.0001L11.0801 2.966C11.8666 3.11958 12.5891 3.50524 13.1543 4.0733C13.7195 4.64136 14.1015 5.36576 14.2512 6.15302C14.2661 6.228 14.2662 6.30518 14.2513 6.38019C14.2364 6.45519 14.2069 6.52654 14.1645 6.59015C14.1221 6.65376 14.0675 6.70839 14.004 6.75092C13.9404 6.79344 13.8691 6.82304 13.7942 6.83801C13.7192 6.85298 13.642 6.853 13.5669 6.83813C13.4919 6.82327 13.4206 6.79378 13.357 6.75134C13.2934 6.70891 13.2387 6.65437 13.1962 6.59082C13.1537 6.52727 13.1241 6.45597 13.1092 6.38098H13.1002ZM15.8431 6.32703C15.7046 5.05979 15.1391 3.87734 14.2395 2.97412C13.3399 2.0709 12.1598 1.50062 10.8931 1.35699C10.7525 1.34133 10.6223 1.2752 10.5267 1.1709C10.4311 1.06659 10.3765 0.931195 10.3731 0.789734C10.3697 0.648273 10.4176 0.51035 10.5081 0.40155C10.5986 0.29275 10.7254 0.220438 10.8651 0.197998L10.9452 0.190979H11.0251C12.5548 0.363901 13.9801 1.05215 15.0667 2.14258C16.1533 3.23301 16.8366 4.66072 17.0041 6.19098C17.0129 6.26722 17.0066 6.34449 16.9855 6.41827C16.9644 6.49206 16.929 6.56094 16.8812 6.62103C16.8335 6.68112 16.7744 6.7312 16.7073 6.76843C16.6402 6.80566 16.5664 6.82932 16.4901 6.83801H16.4251C16.2833 6.83788 16.1465 6.78598 16.0402 6.69208C15.934 6.59817 15.8657 6.46871 15.8481 6.328L15.8431 6.32703Z" fill="#3F2D20"/>
</svg>
