<svg width="16" height="14" viewBox="0 0 16 14" fill="none" xmlns="http://www.w3.org/2000/svg">
<path d="M3.50023 14C2.58843 14.0123 1.70899 13.6624 1.05489 13.027C0.400783 12.3917 0.0254495 11.5228 0.0112305 10.611V6C0.0202077 5.0939 0.388298 4.22837 1.03473 3.59338C1.68116 2.95838 2.55312 2.60581 3.45923 2.613H3.52122C3.54909 2.60967 3.5757 2.59954 3.59872 2.58349C3.62174 2.56745 3.64046 2.54598 3.65323 2.52099L4.04623 1.714L4.35423 1.1C4.5146 0.767478 4.76629 0.487461 5.0799 0.292675C5.3935 0.0978881 5.75607 -0.00362924 6.12523 -4.18015e-06H9.88924C10.258 -0.0045633 10.6203 0.0960057 10.934 0.289928C11.2476 0.48385 11.4995 0.763103 11.6602 1.095C11.7062 1.183 11.7602 1.29499 11.8472 1.46299L12.3622 2.515C12.3784 2.54531 12.4029 2.57037 12.4328 2.5872C12.4628 2.60403 12.4969 2.61194 12.5312 2.61H12.7012C13.5812 2.64357 14.4145 3.01427 15.0286 3.64534C15.6427 4.2764 15.9906 5.11949 16.0002 6V10.61C15.9863 11.5218 15.6112 12.3908 14.9573 13.0263C14.3034 13.6618 13.424 14.012 12.5122 14H3.50023ZM5.42422 1.628C5.37622 1.72 5.31722 1.835 5.24522 1.981L4.73824 3.01699C4.63376 3.22556 4.478 3.40417 4.2856 3.53605C4.09319 3.66794 3.87044 3.74877 3.63823 3.77099L3.50223 3.778C2.90325 3.76837 2.32498 3.99706 1.89459 4.41375C1.46421 4.83045 1.21696 5.40102 1.20723 6V10.61C1.21697 11.2079 1.46339 11.7776 1.89247 12.1941C2.32155 12.6106 2.89829 12.84 3.49623 12.832H12.5122C13.11 12.8398 13.6865 12.6102 14.1153 12.1937C14.5442 11.7772 14.7905 11.2077 14.8002 10.61V6C14.7946 5.42478 14.5682 4.8737 14.1679 4.46057C13.7676 4.04744 13.224 3.80381 12.6492 3.77999L12.3902 3.772C12.1543 3.7528 11.9274 3.67302 11.7313 3.5404C11.5353 3.40778 11.3768 3.22681 11.2712 3.015L10.7112 1.876L10.5832 1.626C10.5259 1.48707 10.4277 1.36884 10.3016 1.28704C10.1755 1.20524 10.0275 1.16373 9.87723 1.168H6.13023C5.97917 1.16349 5.83032 1.20508 5.70349 1.28726C5.57666 1.36943 5.47785 1.48829 5.42023 1.628H5.42422ZM8.00822 11.088C7.18752 11.0974 6.39647 10.7815 5.80792 10.2095C5.21937 9.63739 4.88119 8.85564 4.86723 8.035C4.86499 7.63395 4.94432 7.23663 5.10042 6.8672C5.25651 6.49777 5.48609 6.16394 5.77522 5.886C6.37036 5.30069 7.17251 4.97402 8.00723 4.977H8.17223C8.57322 4.98751 8.96821 5.07689 9.33466 5.24005C9.7011 5.40321 10.0318 5.63694 10.308 5.92791C10.5841 6.21889 10.8002 6.56139 10.9439 6.93588C11.0877 7.31037 11.1562 7.70951 11.1457 8.1105C11.1352 8.51149 11.0458 8.90648 10.8827 9.27293C10.7195 9.63938 10.4858 9.9701 10.1948 10.2462C9.90384 10.5223 9.56133 10.7384 9.18684 10.8822C8.81236 11.0259 8.41321 11.0945 8.01222 11.084L8.00822 11.088ZM7.88322 6.14799C7.38155 6.18448 6.91432 6.4167 6.58229 6.79455C6.25026 7.1724 6.08004 7.66561 6.10834 8.16781C6.13664 8.67002 6.3612 9.14097 6.73358 9.47912C7.10596 9.81727 7.59632 9.99552 8.09892 9.97541C8.60152 9.95531 9.07609 9.73847 9.42027 9.37165C9.76445 9.00484 9.95067 8.51745 9.93877 8.01458C9.92687 7.51172 9.71781 7.03369 9.35666 6.68357C8.99551 6.33345 8.51121 6.13931 8.00822 6.143L7.88322 6.14799ZM11.9292 6.216C11.8468 6.20697 11.766 6.18644 11.6892 6.15499C11.5934 6.11506 11.5061 6.057 11.4322 5.98399C11.2894 5.83948 11.2084 5.64514 11.2062 5.442C11.2064 5.3368 11.2289 5.23283 11.2722 5.13699C11.3166 5.03643 11.3809 4.94594 11.4612 4.871C11.5329 4.80855 11.6139 4.75761 11.7012 4.72C11.8467 4.66455 12.0047 4.6508 12.1575 4.68031C12.3103 4.70981 12.4519 4.78139 12.5662 4.88699C12.628 4.94445 12.6794 5.01212 12.7182 5.087L12.7362 5.132C12.7804 5.22969 12.8029 5.33577 12.8022 5.44299C12.7988 5.64803 12.7147 5.84347 12.5682 5.987C12.4362 6.11514 12.2644 6.1945 12.0812 6.212H12.0012L11.9292 6.216Z" fill="white"/>
</svg>
