<svg width="20" height="21" viewBox="0 0 20 21" fill="none" xmlns="http://www.w3.org/2000/svg">
<path d="M15.1379 19.3C15.1438 19.0023 15.2375 18.713 15.4071 18.4684C15.5768 18.2237 15.8149 18.0346 16.0916 17.9247C16.3683 17.8149 16.6712 17.7891 16.9625 17.8507C17.2538 17.9123 17.5204 18.0586 17.7289 18.2711C17.9374 18.4836 18.0785 18.7529 18.1346 19.0453C18.1906 19.3377 18.1591 19.6401 18.044 19.9147C17.9289 20.1892 17.7353 20.4237 17.4875 20.5886C17.2397 20.7536 16.9486 20.8417 16.6509 20.842C16.2459 20.8378 15.8592 20.673 15.5755 20.3839C15.2918 20.0948 15.1345 19.705 15.1379 19.3ZM3.91094 19.3C3.91705 19.0025 4.01081 18.7135 4.1805 18.4692C4.3502 18.2248 4.58828 18.036 4.86486 17.9263C5.14144 17.8167 5.44422 17.7911 5.73525 17.8529C6.02629 17.9147 6.29262 18.0609 6.50085 18.2734C6.70907 18.4859 6.84992 18.7552 6.90575 19.0474C6.96159 19.3397 6.92991 19.6418 6.81469 19.9161C6.69947 20.1904 6.50585 20.4247 6.25808 20.5894C6.01031 20.7541 5.71944 20.8419 5.42193 20.842C5.01711 20.8378 4.63053 20.6729 4.34719 20.3838C4.06385 20.0946 3.90694 19.7048 3.91094 19.3ZM5.58794 16.143C4.97265 16.1348 4.38051 15.907 3.91842 15.5007C3.45632 15.0943 3.15469 14.5362 3.06792 13.927L3.04894 13.76L2.13692 2.65997L0.629936 2.39899C0.449988 2.36526 0.288189 2.26786 0.174156 2.12463C0.0601225 1.9814 0.00147595 1.80195 0.00893375 1.61902L0.0189435 1.51898C0.046686 1.34282 0.136112 1.18229 0.271293 1.06598C0.406475 0.949664 0.578589 0.885121 0.75692 0.883972H0.783928L0.883934 0.893982L2.95992 1.26099C3.10553 1.28765 3.24007 1.35656 3.34676 1.45917C3.45346 1.56177 3.5276 1.69356 3.55993 1.83801L3.57793 1.95099L3.81194 4.80298H17.8809C18.169 4.80205 18.454 4.86198 18.7173 4.97882C18.9807 5.09566 19.2163 5.26681 19.4089 5.48102C19.6038 5.69692 19.7532 5.94984 19.8482 6.22473C19.9432 6.49962 19.9819 6.79083 19.9619 7.08099L19.9459 7.23499L18.9999 13.917C18.9199 14.501 18.6422 15.04 18.2132 15.4443C17.7842 15.8485 17.2297 16.0937 16.6419 16.139L16.4779 16.144L5.58794 16.143ZM4.54092 13.632C4.55938 13.8773 4.66222 14.1087 4.83193 14.2868C5.00165 14.4649 5.22777 14.5787 5.47192 14.609L5.58794 14.615H16.4739C16.7082 14.6133 16.9352 14.5339 17.1193 14.389C17.3034 14.2442 17.4341 14.0423 17.4909 13.815L17.5139 13.696L18.4619 7.01703C18.4852 6.86052 18.4457 6.70115 18.3521 6.57361C18.2585 6.44606 18.1182 6.36065 17.9619 6.336L17.8739 6.32898H3.93993L4.54092 13.632ZM12.1099 10.092C11.9185 10.088 11.7356 10.0124 11.5972 9.88007C11.4588 9.74776 11.3751 9.56842 11.3625 9.37738C11.35 9.18634 11.4095 8.99749 11.5294 8.84821C11.6492 8.69892 11.8207 8.6 12.0099 8.57098L12.1099 8.56403H14.8779C15.0686 8.56938 15.2504 8.64569 15.3878 8.77802C15.5252 8.91034 15.6083 9.08914 15.6208 9.27948C15.6333 9.46982 15.5743 9.65796 15.4554 9.80713C15.3365 9.95629 15.1663 10.0557 14.9779 10.086L14.8779 10.092H12.1099Z" fill="#3F2D20"/>
</svg>
