<svg width="16" height="16" viewBox="0 0 16 16" fill="none" xmlns="http://www.w3.org/2000/svg">
<path d="M4.25408 15.068L4.21706 15.0551C4.21498 15.0542 4.21315 15.0529 4.21175 15.0511C4.21035 15.0493 4.20942 15.0473 4.20907 15.0451L3.66405 14.736C3.59407 14.708 3.51944 14.6934 3.44405 14.693C3.41376 14.6927 3.38354 14.696 3.35406 14.703C2.78665 14.9065 2.2068 15.0736 1.61806 15.203L1.51006 15.216H1.47707C1.34579 15.2231 1.21455 15.2014 1.09258 15.1523C0.970608 15.1032 0.860871 15.0281 0.771078 14.932C0.60454 14.7239 0.519234 14.4624 0.531057 14.1961L0.547079 14.065C0.690558 13.468 0.871229 12.8805 1.08806 12.306C1.11933 12.1991 1.10712 12.0841 1.05407 11.986L0.907064 11.7C0.270442 10.4796 -0.0405328 9.11563 0.00423235 7.73988C0.0489975 6.36413 0.448005 5.0232 1.16262 3.84675C1.87723 2.67031 2.8833 1.69811 4.08355 1.02424C5.28379 0.350375 6.63758 -0.00240547 8.01406 1.23448e-05H8.04506C9.25776 0.00722688 10.4529 0.290052 11.5402 0.8271C12.6276 1.36415 13.5786 2.14136 14.3213 3.09999C15.0641 4.05862 15.5792 5.17357 15.8277 6.36055C16.0762 7.54753 16.0516 8.77548 15.7558 9.95155C15.4599 11.1276 14.9006 12.2211 14.12 13.1492C13.3394 14.0773 12.358 14.8158 11.2501 15.3089C10.1421 15.8019 8.93658 16.0366 7.72457 15.9953C6.51256 15.9539 5.32584 15.6375 4.25408 15.07V15.068ZM4.11706 13.718C4.19106 13.753 4.28407 13.8041 4.41707 13.8781L4.75408 14.072L4.98305 14.189C6.16856 14.7617 7.49318 14.9832 8.8005 14.8275C10.1078 14.6717 11.3433 14.1451 12.3611 13.31L12.5371 13.16C13.5829 12.2387 14.3243 11.0214 14.6631 9.66932C15.0019 8.31728 14.9221 6.8942 14.4342 5.58851C13.9464 4.28283 13.0735 3.15609 11.9312 2.35743C10.7888 1.55878 9.43088 1.12589 8.03707 1.11604H7.81206C6.64449 1.14662 5.50394 1.47413 4.49801 2.06764C3.49207 2.66115 2.65391 3.50111 2.06255 4.50831C1.4712 5.51552 1.14614 6.65678 1.11806 7.82441C1.08999 8.99205 1.3598 10.1476 1.90206 11.182L2.04708 11.4641C2.14274 11.6474 2.20084 11.8479 2.21801 12.054C2.23518 12.26 2.21106 12.4674 2.14705 12.664C1.9425 13.2073 1.77152 13.7627 1.63506 14.327L1.71007 14.033L2.03008 13.953C2.25808 13.89 2.47206 13.8251 2.68606 13.7531L3.02007 13.638C3.16117 13.5995 3.30678 13.58 3.45305 13.58C3.68121 13.5819 3.9068 13.6284 4.11706 13.7171V13.718ZM10.6751 7.99305C10.6751 7.81268 10.7285 7.63632 10.8288 7.48634C10.929 7.33636 11.0714 7.21949 11.2381 7.15046C11.4047 7.08144 11.5881 7.06339 11.765 7.09858C11.9419 7.13377 12.1044 7.22061 12.232 7.34816C12.3595 7.4757 12.4464 7.63823 12.4816 7.81514C12.5167 7.99205 12.4987 8.17541 12.4296 8.34205C12.3606 8.5087 12.2437 8.65114 12.0937 8.75136C11.9438 8.85157 11.7674 8.90504 11.5871 8.90504C11.3454 8.90478 11.1136 8.80859 10.9428 8.63759C10.772 8.46658 10.6761 8.23476 10.6761 7.99305H10.6751ZM7.12807 7.99305C7.12787 7.81244 7.18125 7.63582 7.28145 7.48555C7.38166 7.33527 7.52416 7.21807 7.69097 7.14882C7.85778 7.07956 8.04139 7.06133 8.21856 7.09645C8.39573 7.13156 8.55851 7.21844 8.6863 7.34608C8.81409 7.47373 8.90114 7.63642 8.93645 7.81355C8.97176 7.99068 8.95374 8.17431 8.88466 8.3412C8.81559 8.50809 8.69855 8.65075 8.54839 8.75111C8.39823 8.85148 8.22168 8.90504 8.04107 8.90504C7.9213 8.90517 7.80268 8.88172 7.69198 8.83601C7.58128 8.7903 7.48067 8.72322 7.3959 8.63862C7.31112 8.55403 7.24382 8.45357 7.19787 8.34297C7.15191 8.23237 7.1282 8.1138 7.12807 7.99403V7.99305ZM3.58007 7.99305C3.57987 7.81244 3.63325 7.63582 3.73345 7.48555C3.83365 7.33527 3.97618 7.21807 4.143 7.14882C4.30981 7.07956 4.49341 7.06133 4.67058 7.09645C4.84775 7.13156 5.01051 7.21844 5.1383 7.34608C5.26608 7.47373 5.35314 7.63642 5.38845 7.81355C5.42376 7.99068 5.40573 8.17431 5.33666 8.3412C5.26759 8.50809 5.15058 8.65075 5.00042 8.75111C4.85025 8.85148 4.67368 8.90504 4.49306 8.90504C4.3733 8.90517 4.25467 8.88172 4.14397 8.83601C4.03327 8.7903 3.93267 8.72322 3.84789 8.63862C3.76311 8.55403 3.69582 8.45357 3.64986 8.34297C3.60391 8.23237 3.5802 8.1138 3.58007 7.99403V7.99305Z" fill="#3F2D20"/>
</svg>
