<svg width="17" height="18" viewBox="0 0 17 18" fill="none" xmlns="http://www.w3.org/2000/svg">
<path d="M4.55485 16.965C3.89134 16.9859 3.24596 16.7466 2.75645 16.2982C2.26694 15.8498 1.9721 15.2278 1.93486 14.565L1.82087 13.495L1.62086 11.418L1.42088 9.14002L1.18986 6.40602C1.18375 6.32148 1.19446 6.23657 1.22139 6.1562C1.24831 6.07583 1.29092 6.00161 1.34672 5.93782C1.40252 5.87402 1.47042 5.82194 1.54649 5.78456C1.62256 5.74717 1.70527 5.72524 1.78987 5.72004C1.94548 5.70683 2.10066 5.75005 2.227 5.84187C2.35334 5.93368 2.44237 6.06795 2.47785 6.22004L2.50486 6.47004L2.72288 9.03504L2.95988 11.692C3.06788 12.843 3.15986 13.774 3.23286 14.427C3.23167 14.5928 3.2632 14.7571 3.3256 14.9107C3.38801 15.0643 3.48007 15.2041 3.59654 15.322C3.71301 15.44 3.8516 15.5338 4.00437 15.5982C4.15715 15.6625 4.32109 15.6961 4.48686 15.697C4.51952 15.697 4.55286 15.697 4.58686 15.697C6.76886 15.742 9.01487 15.743 11.3549 15.697C11.6947 15.7272 12.0328 15.6227 12.2962 15.4058C12.5596 15.189 12.7272 14.8773 12.7629 14.538C12.7649 14.4974 12.7649 14.4567 12.7629 14.416L12.8759 13.351C12.9089 13.023 12.9439 12.66 12.9819 12.268L13.2189 9.654L13.5049 6.30104C13.5196 6.14627 13.5895 6.00197 13.7019 5.89454C13.8143 5.78712 13.9616 5.72373 14.1169 5.71601H14.2059C14.3617 5.72613 14.5085 5.79262 14.6189 5.90303C14.7293 6.01343 14.7957 6.16018 14.8059 6.31599L14.7969 6.49104L14.5179 9.76301L14.2289 12.957C14.1679 13.595 14.1119 14.132 14.0639 14.557C14.0246 15.2317 13.7208 15.8636 13.2185 16.3157C12.7163 16.7679 12.0559 17.0037 11.3809 16.972C10.2315 16.9927 9.10452 17.003 7.99986 17.003C6.83052 17.001 5.68218 16.9884 4.55485 16.965ZM12.5169 4.24501H0.637858C0.47658 4.24548 0.321147 4.1847 0.203013 4.0749C0.0848798 3.9651 0.0128769 3.81452 0.00156684 3.65364C-0.00974319 3.49275 0.0404902 3.33357 0.1421 3.20832C0.24371 3.08308 0.389111 3.00111 0.548869 2.97901L0.637858 2.97401H3.47288C3.63445 2.97499 3.79229 2.92566 3.92454 2.83283C4.05679 2.74001 4.15686 2.60829 4.21086 2.456L4.23686 2.36201L4.45686 1.28901C4.5522 0.9405 4.75302 0.630036 5.03178 0.400156C5.31054 0.170277 5.65358 0.0322416 6.01387 0.00501478L6.15388 9.89693e-06H9.82588C10.1925 -0.00121906 10.5503 0.112035 10.8495 0.323923C11.1487 0.535812 11.3743 0.835777 11.4949 1.18202L11.5379 1.32002L11.7499 2.352C11.783 2.50992 11.8647 2.65353 11.9837 2.76258C12.1026 2.87164 12.2527 2.94068 12.4129 2.96003L12.5129 2.96601H15.3479C15.4312 2.96017 15.5148 2.97078 15.5941 2.99726C15.6733 3.02375 15.7465 3.06558 15.8096 3.12037C15.8726 3.17516 15.9242 3.24185 15.9615 3.3166C15.9988 3.39134 16.021 3.47272 16.0269 3.55604C16.0327 3.63936 16.0221 3.72298 15.9956 3.8022C15.9691 3.88141 15.9273 3.95466 15.8725 4.01771C15.8177 4.08076 15.751 4.1324 15.6763 4.16969C15.6015 4.20697 15.5202 4.22915 15.4369 4.235L15.3479 4.24104L12.5169 4.24501ZM10.5879 2.97004C10.5579 2.89728 10.5321 2.8228 10.5109 2.74702L10.4769 2.60603L10.2769 1.61299C10.2534 1.52906 10.2064 1.45367 10.1413 1.3957C10.0763 1.33773 9.99592 1.29966 9.90986 1.28602L9.83287 1.279H6.15986C6.07627 1.27815 5.99398 1.2996 5.9214 1.34107C5.84882 1.38255 5.78857 1.44258 5.74687 1.51502L5.72386 1.57203L5.51387 2.607C5.4887 2.7312 5.45188 2.85277 5.40388 2.97004H10.5879Z" fill="#3F2D20"/>
</svg>
