<svg width="21" height="21" viewBox="0 0 21 21" fill="none" xmlns="http://www.w3.org/2000/svg">
<path d="M8.42501 19.918L8.26802 19.775L7.53801 19.069C7.28436 18.8256 6.95593 18.6752 6.60601 18.642L6.45501 18.634H5.40602C4.63542 18.6443 3.88989 18.3605 3.32133 17.8402C2.75277 17.32 2.40396 16.6025 2.346 15.834L2.34101 15.66V14.644C2.34027 14.3001 2.21808 13.9676 1.99601 13.705L1.89601 13.596L1.16601 12.889C0.616829 12.3653 0.293987 11.6479 0.266338 10.8896C0.238689 10.1313 0.508426 9.39223 1.01802 8.83001L1.15501 8.687L1.89001 7.96899C2.13721 7.7294 2.29315 7.41112 2.331 7.06896L2.33801 6.92297V5.90996L2.34301 5.73498C2.39727 4.99744 2.72061 4.30557 3.25158 3.79082C3.78256 3.27608 4.48416 2.97434 5.22302 2.94298H5.40301H6.45401C6.80512 2.94324 7.14623 2.82601 7.42302 2.60998L7.53501 2.51L8.26602 1.80199C8.85089 1.2344 9.63503 0.918774 10.45 0.922965C11.1719 0.918741 11.8719 1.1703 12.426 1.63299L12.611 1.79998L13.343 2.50896C13.5967 2.75136 13.9247 2.90114 14.274 2.93401L14.425 2.94097H15.471C16.2418 2.93039 16.9876 3.21415 17.5563 3.73443C18.1251 4.2547 18.4741 4.97237 18.532 5.74102L18.537 5.91601V6.92998C18.5381 7.27423 18.6599 7.60717 18.881 7.87096L18.981 7.97997L19.713 8.68902C20.2617 9.2129 20.5842 9.93026 20.6119 10.6884C20.6395 11.4466 20.3701 12.1855 19.861 12.748L19.724 12.891L18.983 13.609C18.7358 13.8483 18.5804 14.1668 18.544 14.509L18.537 14.656V15.671C18.5249 16.4401 18.2194 17.1755 17.6829 17.7267C17.1464 18.2779 16.4195 18.6032 15.651 18.636H14.424C14.0727 18.6356 13.7315 18.7532 13.455 18.97L13.342 19.07L12.611 19.776C12.0535 20.3125 11.3175 20.624 10.5443 20.6508C9.77108 20.6776 9.01523 20.4177 8.42201 19.921L8.42501 19.918ZM3.87602 5.77196L3.87001 5.90801V6.92101C3.8673 7.6427 3.59725 8.33778 3.11201 8.872L2.97502 9.01598L2.23501 9.734C1.9648 9.9908 1.80369 10.3417 1.78508 10.714C1.76646 11.0863 1.89175 11.4515 2.13501 11.734L2.23501 11.848L2.96701 12.558C3.48735 13.0598 3.80305 13.7368 3.85301 14.458L3.86001 14.658V15.673C3.86853 16.0493 4.01645 16.409 4.27511 16.6825C4.53378 16.9559 4.88475 17.1236 5.26001 17.153L5.40101 17.159H6.45901C7.19493 17.1585 7.90741 17.4178 8.471 17.891L8.62001 18.025L9.35701 18.739C9.6314 19.0013 9.9912 19.1558 10.3703 19.1741C10.7495 19.1925 11.1225 19.0735 11.421 18.839L11.537 18.739L12.271 18.03C12.8015 17.5213 13.4954 17.2172 14.229 17.172L14.429 17.166H15.475C15.854 17.1743 16.2223 17.0396 16.5065 16.7887C16.7908 16.5378 16.9702 16.1891 17.009 15.812L17.014 15.676V14.657C17.016 13.9357 17.285 13.2407 17.769 12.706L17.907 12.563L18.647 11.846C18.9168 11.5889 19.0776 11.2381 19.0962 10.866C19.1148 10.4938 18.9898 10.1287 18.747 9.846L18.647 9.734L17.911 9.02099C17.3924 8.51818 17.0776 7.84157 17.027 7.12096L17.02 6.92101V5.90996C17.0173 5.5313 16.8715 5.1677 16.6118 4.89208C16.3522 4.61646 15.9978 4.44924 15.62 4.424L15.48 4.41802H14.424C13.6877 4.41878 12.9748 4.15949 12.411 3.68597L12.263 3.55297L11.563 2.87298L11.521 2.83501C11.2471 2.57368 10.8883 2.41972 10.5101 2.40136C10.132 2.38299 9.75994 2.50141 9.46202 2.73498L9.346 2.83501L8.611 3.54699C8.08019 4.05442 7.38695 4.35767 6.65402 4.40301L6.45401 4.40899H5.40901C5.03021 4.40596 4.66375 4.54356 4.38057 4.79516C4.09738 5.04676 3.9176 5.39446 3.87602 5.77099V5.77196ZM12.514 13.847C12.4448 13.7755 12.3895 13.6917 12.351 13.6C12.3106 13.5136 12.2898 13.4193 12.29 13.324C12.29 13.2254 12.3108 13.128 12.351 13.038C12.4321 12.8552 12.5813 12.7111 12.7669 12.6364C12.9525 12.5617 13.1598 12.5623 13.345 12.638C13.4374 12.6749 13.5217 12.7296 13.593 12.799C13.6644 12.8667 13.7228 12.9471 13.765 13.036C13.7978 13.1278 13.815 13.2245 13.816 13.322C13.815 13.4163 13.7978 13.5096 13.765 13.598C13.7228 13.6899 13.6646 13.7735 13.593 13.845C13.4478 13.9839 13.2547 14.0616 13.0537 14.0618C12.8528 14.0619 12.6595 13.9847 12.514 13.846V13.847ZM7.28501 13.841C7.15586 13.7178 7.07684 13.5511 7.06318 13.3732C7.04952 13.1952 7.10217 13.0185 7.21101 12.877L7.28501 12.793L12.517 7.72198C12.6624 7.58286 12.8558 7.50524 13.057 7.50524C13.2582 7.50524 13.4516 7.58286 13.597 7.72198C13.7264 7.84523 13.8056 8.01209 13.8193 8.1903C13.833 8.36851 13.7801 8.54545 13.671 8.687L13.598 8.77099L8.36502 13.842C8.2194 13.9808 8.02581 14.0581 7.82461 14.0577C7.62341 14.0574 7.43012 13.9794 7.28501 13.84V13.841ZM7.53601 8.92998C7.44387 8.89395 7.35888 8.84181 7.28501 8.77599C7.21794 8.70281 7.16291 8.61943 7.122 8.52898C7.08139 8.44267 7.06056 8.34837 7.06102 8.25298C7.0603 8.15435 7.08111 8.05673 7.122 7.96697C7.15825 7.87695 7.21392 7.79603 7.28501 7.72997C7.43237 7.59562 7.6246 7.52117 7.82402 7.52117C8.02343 7.52117 8.21566 7.59562 8.36302 7.72997C8.43365 7.79757 8.48989 7.87875 8.52838 7.96862C8.56687 8.05849 8.58682 8.15522 8.58702 8.25298C8.59082 8.34763 8.57338 8.44194 8.53601 8.52898C8.49143 8.61975 8.43308 8.70308 8.36302 8.77599C8.29239 8.84286 8.20999 8.89607 8.12001 8.93297C8.02509 8.97305 7.92305 8.99346 7.82002 8.99297C7.72089 8.99327 7.62278 8.97283 7.53201 8.93297L7.53601 8.92998Z" fill="#3F2D20"/>
</svg>
