<svg width="17" height="21" viewBox="0 0 17 21" fill="none" xmlns="http://www.w3.org/2000/svg">
<path d="M7.5 20.574L7.44 20.526L7.02699 20.249C5.31321 19.072 3.78644 17.6437 2.498 16.012L2.18201 15.601C0.831625 13.8361 0.0685027 11.6922 0 9.47101V9.18701C0.0747301 6.9858 1.00215 4.89979 2.58636 3.36969C4.17058 1.83959 6.28752 0.985215 8.49001 0.987002H8.77499C10.981 1.06083 13.0715 1.99097 14.6032 3.5802C16.135 5.16943 16.9875 7.29279 16.98 9.5V9.59998C16.93 12.228 15.645 14.944 13.264 17.455C12.1395 18.6213 10.8846 19.6544 9.524 20.534L9.474 20.575C9.18674 20.7807 8.8423 20.8913 8.489 20.8913C8.1357 20.8913 7.79126 20.7807 7.504 20.575L7.5 20.574ZM8.269 2.49701C6.46144 2.55297 4.74617 3.30836 3.4846 4.60407C2.22304 5.89977 1.51368 7.63459 1.506 9.443L1.52499 9.79798C1.65577 11.5759 2.30449 13.2766 3.39101 14.69C4.74018 16.4922 6.39694 18.0419 8.285 19.268L8.367 19.33C8.40007 19.3586 8.44229 19.3743 8.48599 19.3743C8.52969 19.3743 8.57193 19.3586 8.605 19.33L8.69 19.266C9.95526 18.4505 11.1223 17.4918 12.168 16.409C14.281 14.179 15.421 11.819 15.468 9.58301V9.25299C15.4107 7.44519 14.654 5.73019 13.3571 4.46936C12.0603 3.20854 10.3247 2.50037 8.51601 2.49402L8.269 2.49701ZM5.25 9.59198C5.2504 8.95249 5.44038 8.32751 5.79593 7.79596C6.15148 7.26442 6.65665 6.85021 7.24756 6.60572C7.83847 6.36122 8.48861 6.29738 9.11578 6.42231C9.74296 6.54723 10.319 6.8553 10.7711 7.30756C11.2233 7.75982 11.5311 8.33598 11.6559 8.9632C11.7806 9.59041 11.7166 10.2405 11.4719 10.8314C11.2272 11.4222 10.8129 11.9273 10.2812 12.2827C9.74958 12.638 9.1245 12.8278 8.485 12.828C8.06012 12.8284 7.63934 12.7449 7.24678 12.5824C6.85422 12.4199 6.49758 12.1815 6.19733 11.8809C5.89708 11.5802 5.65912 11.2233 5.49707 10.8305C5.33502 10.4377 5.25208 10.0169 5.25301 9.59198H5.25ZM6.761 9.59198C6.761 9.93272 6.86203 10.2658 7.05132 10.5491C7.2406 10.8325 7.50962 11.0533 7.8244 11.1838C8.13918 11.3142 8.48558 11.3484 8.81978 11.282C9.15398 11.2156 9.46099 11.0515 9.702 10.8107C9.943 10.5698 10.1072 10.2629 10.1738 9.92877C10.2404 9.59461 10.2064 9.24821 10.0761 8.93335C9.94587 8.6185 9.72519 8.3493 9.44197 8.15985C9.15876 7.97041 8.82574 7.86922 8.485 7.86902C8.25879 7.86889 8.03478 7.91337 7.82579 7.99994C7.6168 8.08651 7.42694 8.21343 7.26707 8.37348C7.10721 8.53352 6.98049 8.72353 6.89417 8.93262C6.80784 9.14171 6.76361 9.36577 6.76401 9.59198H6.761Z" fill="#EF8829"/>
</svg>
