<svg width="14" height="14" viewBox="0 0 14 14" fill="none" xmlns="http://www.w3.org/2000/svg">
<path d="M9.59978 13H4.39978C3.93629 13.0167 3.47449 12.9353 3.04466 12.7611C2.61483 12.5869 2.22667 12.3238 1.90564 11.9891C1.58461 11.6544 1.33795 11.2556 1.18184 10.8189C1.02572 10.3822 0.96368 9.91738 0.999779 9.45499V4.55497C0.962679 4.09189 1.02395 3.62623 1.17957 3.18851C1.33519 2.75079 1.58164 2.3509 1.90273 2.01517C2.22382 1.67944 2.6123 1.41542 3.04266 1.24045C3.47301 1.06549 3.93551 0.983541 4.39978 0.999974H9.59978C10.0639 0.983105 10.5263 1.06467 10.9567 1.23929C11.3871 1.41391 11.7756 1.67765 12.0967 2.01316C12.4179 2.34866 12.6644 2.74831 12.82 3.18589C12.9757 3.62346 13.0369 4.08903 12.9998 4.55198V9.452C13.0368 9.91473 12.9754 10.38 12.8197 10.8174C12.664 11.2547 12.4174 11.654 12.0962 11.9892C11.775 12.3243 11.3865 12.5877 10.9562 12.7619C10.526 12.9362 10.0637 13.0173 9.59978 13ZM4.85978 6.47495C4.7551 6.47403 4.65253 6.50448 4.56526 6.56229C4.47798 6.6201 4.40998 6.70267 4.37 6.79941C4.33001 6.89616 4.31985 7.00264 4.34084 7.1052C4.36183 7.20776 4.413 7.30171 4.48778 7.37497L5.91578 8.79398C6.01455 8.89013 6.14694 8.94394 6.28478 8.94394C6.42262 8.94394 6.55501 8.89013 6.65378 8.79398L9.50378 5.94394C9.60244 5.84528 9.65787 5.71152 9.65787 5.572C9.65787 5.43247 9.60244 5.29865 9.50378 5.19999C9.40512 5.10133 9.27131 5.04587 9.13178 5.04587C8.99225 5.04587 8.85844 5.10133 8.75978 5.19999L6.28178 7.67795L5.23178 6.62796C5.13424 6.53021 5.00187 6.47516 4.86378 6.47495H4.85978Z" fill="#84BD93"/>
</svg>
