<svg width="16" height="16" viewBox="0 0 16 16" fill="none" xmlns="http://www.w3.org/2000/svg">
<path d="M9.30814 16C9.16189 16.0033 9.01997 15.9502 8.91187 15.8516C8.80377 15.7531 8.73777 15.6166 8.7276 15.4707C8.71744 15.3248 8.76388 15.1805 8.85727 15.0679C8.95066 14.9553 9.08383 14.883 9.22913 14.866L9.30814 14.861H15.4131C15.5595 14.8574 15.7017 14.9103 15.81 15.0088C15.9183 15.1073 15.9845 15.2437 15.9948 15.3898C16.0051 15.5358 15.9588 15.6802 15.8653 15.793C15.7719 15.9057 15.6386 15.978 15.4931 15.995L15.4131 16H9.30814ZM0.589114 16C0.510409 16.0005 0.432412 15.9852 0.359744 15.955C0.287076 15.9247 0.221217 15.8802 0.16611 15.824C0.112678 15.7708 0.0706632 15.7073 0.0426357 15.6373C0.0146082 15.5673 0.00116381 15.4924 0.00311544 15.417L0.0921352 11.94C0.109331 11.2781 0.386274 10.6494 0.863131 10.19L9.47513 1.802C10.014 1.28308 10.733 0.993164 11.4811 0.993164C12.2292 0.993164 12.9482 1.28308 13.4871 1.802L14.6371 2.922C14.8953 3.17058 15.1016 3.46785 15.2442 3.79663C15.3868 4.12541 15.4629 4.47918 15.468 4.83752C15.4731 5.19587 15.4072 5.55168 15.274 5.8844C15.1408 6.21712 14.9431 6.52015 14.6921 6.776L14.6371 6.83099L5.99314 15.25C5.49359 15.7352 4.82352 16.0049 4.12714 16.001L0.589114 16ZM1.68912 10.993C1.42528 11.2484 1.27168 11.5969 1.26111 11.964L1.18613 14.858H4.12613C4.46768 14.8587 4.79913 14.7422 5.06513 14.528L5.16513 14.44L12.3141 7.47699L8.80814 4.065L1.68912 10.993ZM13.1391 6.67499L13.8071 6.02399C13.9587 5.87785 14.0797 5.70313 14.1634 5.50995C14.247 5.31676 14.2916 5.10893 14.2945 4.89844C14.2973 4.68794 14.2585 4.47897 14.1802 4.28357C14.1019 4.08817 13.9856 3.91024 13.8381 3.76001L13.8071 3.729L12.6521 2.60901C12.3354 2.30438 11.9131 2.13422 11.4736 2.13422C11.0342 2.13422 10.6118 2.30438 10.2951 2.60901L9.62714 3.26001L13.1391 6.67499Z" fill="#3F2D20"/>
</svg>
