<svg width="20" height="21" viewBox="0 0 20 21" fill="none" xmlns="http://www.w3.org/2000/svg">
<path d="M0.317116 20.748C0.18656 20.6085 0.103784 20.4311 0.0807721 20.2414C0.0577601 20.0518 0.0957002 19.8597 0.18911 19.693L0.219108 19.652C0.23865 19.6192 0.261793 19.5887 0.288109 19.561L18.1881 1.18203C18.2633 1.09951 18.3546 1.03336 18.4565 0.987758C18.5583 0.94216 18.6685 0.918079 18.7801 0.917019C18.8927 0.919247 19.0037 0.943853 19.1067 0.989345C19.2097 1.03484 19.3026 1.10032 19.3801 1.18203C19.5373 1.34744 19.6249 1.56686 19.6249 1.79501C19.6249 2.02316 19.5373 2.24264 19.3801 2.40805V2.41903L10.0001 12.039L9.43011 12.6241L10.2301 11.8061C11.0268 12.4441 11.9074 12.9697 12.8471 13.368C13.3471 13.559 14.2201 12.8291 14.6851 12.5561C14.9105 12.383 15.1679 12.2562 15.4425 12.1831C15.7171 12.11 16.0035 12.092 16.2851 12.13C17.4237 12.747 18.4647 13.5291 19.3741 14.451C19.689 14.7546 19.8941 15.1542 19.9571 15.587C20.0101 17.097 18.0171 18.806 17.6481 19.023C17.1613 19.3799 16.5717 19.5687 15.9681 19.561C15.2213 19.5372 14.4893 19.3473 13.8251 19.005C11.5139 17.8603 9.40277 16.3498 7.57311 14.532L1.51911 20.746C1.36215 20.9047 1.14926 20.9955 0.926109 20.9991C0.698685 20.9953 0.481105 20.9056 0.317116 20.748ZM1.34312 6.33902C0.633117 4.73902 0.623107 3.41203 1.33311 2.41903C1.61011 1.95003 3.21912 -0.0039809 4.65612 0.0550191C5.08932 0.11073 5.48672 0.324421 5.77212 0.655056C6.6634 1.59572 7.41384 2.66037 8.00011 3.81601C8.07724 4.39989 7.92843 4.9912 7.58411 5.46902C7.31811 5.93602 6.60612 6.83804 6.79412 7.36904C7.07927 8.06174 7.43906 8.72128 7.86712 9.33603L5.20011 12.08C3.61666 10.3842 2.31457 8.44603 1.34312 6.33902Z" fill="white"/>
</svg>
