<svg width="20" height="19" viewBox="0 0 20 19" fill="none" xmlns="http://www.w3.org/2000/svg">
<path d="M9.58492 18.811L9.34392 18.665C7.21701 17.3487 5.24115 15.8028 3.45193 14.055C2.13054 12.7373 1.12946 11.1337 0.525924 9.36796C-0.069921 7.59488 0.00118351 5.66537 0.725921 3.94096C1.07516 3.12395 1.59592 2.39155 2.25293 1.79337C2.90993 1.1952 3.68783 0.74526 4.53392 0.473977C5.38308 0.199659 6.28012 0.105479 7.16773 0.197426C8.05535 0.289373 8.91403 0.565422 9.68893 1.00797L9.95092 1.16398L10.2139 1.007C10.9485 0.588719 11.7583 0.319422 12.5971 0.214577C13.4358 0.109732 14.287 0.171376 15.1019 0.395974L15.3629 0.473977C16.2101 0.745541 16.989 1.19625 17.6466 1.79551C18.3042 2.39477 18.8251 3.12857 19.1739 3.947C19.8991 5.67481 19.9702 7.60753 19.3739 9.38395C18.7649 11.1424 17.766 12.7403 16.4519 14.058C14.662 15.8021 12.6862 17.3447 10.5599 18.658L10.3349 18.799C10.2228 18.8685 10.0937 18.9058 9.96177 18.9069C9.82983 18.908 9.70015 18.8727 9.58692 18.805L9.58492 18.811ZM4.96992 1.85099C4.30958 2.06389 3.70339 2.41776 3.19334 2.8881C2.68328 3.35844 2.28154 3.93403 2.01592 4.57499C1.45325 5.95965 1.40782 7.50059 1.88792 8.91599C2.42325 10.4624 3.30073 11.868 4.45493 13.028C6.16635 14.6963 8.05565 16.1718 10.0889 17.428L9.94792 17.339L10.4069 17.049C12.0109 16.0083 13.5203 14.8288 14.9179 13.524L15.4359 13.031C16.5902 11.8755 17.4682 10.4739 18.0039 8.93101C18.4851 7.51338 18.4397 5.96985 17.8759 4.58299C17.61 3.94074 17.2078 3.3639 16.6971 2.89237C16.1864 2.42084 15.5793 2.06585 14.9179 1.85197C14.1543 1.60641 13.3428 1.54821 12.5519 1.68223C11.761 1.81624 11.014 2.13856 10.3739 2.62199C10.2518 2.71371 10.1036 2.76404 9.9509 2.76566C9.79819 2.76728 9.64895 2.72007 9.52492 2.63096L9.32492 2.49198C8.6953 2.0582 7.97439 1.77496 7.21787 1.66416C6.46136 1.55336 5.68949 1.618 4.96192 1.853L4.96992 1.85099ZM14.6499 7.16898C14.6192 6.78531 14.4759 6.41926 14.2378 6.1168C13.9998 5.81434 13.6776 5.58895 13.3119 5.46897C13.2209 5.44271 13.136 5.39879 13.0619 5.3397C12.9879 5.28061 12.9263 5.20753 12.8805 5.12461C12.788 4.95714 12.7659 4.75976 12.8189 4.57597C12.872 4.39217 12.9959 4.23696 13.1633 4.14451C13.3308 4.05205 13.5281 4.02994 13.7119 4.08299L13.7509 4.09599C14.3888 4.30348 14.951 4.69542 15.3662 5.22227C15.7815 5.74912 16.0312 6.38726 16.0839 7.05601C16.0997 7.24609 16.0396 7.43467 15.9166 7.58048C15.7937 7.7263 15.6179 7.81742 15.4279 7.83396H15.3659C15.1847 7.83372 15.0103 7.76512 14.8776 7.64182C14.7448 7.51853 14.6635 7.34965 14.6499 7.16898Z" fill="#3F2D20"/>
</svg>
