<svg width="20" height="20" viewBox="0 0 20 20" fill="none" xmlns="http://www.w3.org/2000/svg">
<path d="M12.4543 15.364C12.4451 14.6211 12.6563 13.8921 13.0613 13.2693C13.4663 12.6464 14.0469 12.1576 14.7297 11.8647C15.4124 11.5718 16.1667 11.4878 16.8971 11.6235C17.6276 11.7592 18.3014 12.1084 18.8334 12.627C19.3655 13.1456 19.7318 13.8103 19.8861 14.537C20.0404 15.2638 19.9757 16.02 19.7003 16.71C19.4249 17.4 18.9511 17.9929 18.3388 18.4137C17.7265 18.8345 17.0032 19.0643 16.2603 19.074H16.2103C15.2205 19.0791 14.2692 18.6913 13.5651 17.9957C12.8609 17.3002 12.4614 16.3537 12.4543 15.364ZM14.2163 15.364C14.2104 15.7597 14.322 16.1483 14.537 16.4805C14.7521 16.8128 15.0608 17.0738 15.4243 17.2304C15.7877 17.3871 16.1894 17.4324 16.5786 17.3607C16.9678 17.289 17.327 17.1034 17.6107 16.8274C17.8943 16.5514 18.0898 16.1975 18.1722 15.8104C18.2546 15.4233 18.2204 15.0205 18.0737 14.6529C17.9271 14.2853 17.6747 13.9695 17.3485 13.7454C17.0224 13.5213 16.637 13.399 16.2413 13.394H16.2133C15.6874 13.3908 15.1818 13.5965 14.8076 13.9659C14.4333 14.3353 14.221 14.8382 14.2173 15.364H14.2163ZM0.880287 16.234C0.649548 16.234 0.42827 16.1423 0.265113 15.9792C0.101957 15.816 0.0102915 15.5947 0.0102915 15.364C0.0102915 15.1333 0.101957 14.912 0.265113 14.7488C0.42827 14.5857 0.649548 14.494 0.880287 14.494H8.10029C8.33103 14.494 8.5523 14.5857 8.71546 14.7488C8.87862 14.912 8.97028 15.1333 8.97028 15.364C8.97028 15.5947 8.87862 15.816 8.71546 15.9792C8.5523 16.1423 8.33103 16.234 8.10029 16.234H0.880287ZM0.000281741 3.80299C-0.00884055 3.05799 0.203746 2.32711 0.61103 1.70323C1.01831 1.07935 1.6019 0.590665 2.2876 0.299269C2.97331 0.00787273 3.73019 -0.073069 4.46201 0.0667401C5.19383 0.206549 5.86753 0.560792 6.39753 1.08444C6.92753 1.60809 7.28986 2.27749 7.43848 3.00757C7.5871 3.73765 7.5153 4.49543 7.23218 5.1846C6.94907 5.87377 6.46747 6.4632 5.84855 6.87797C5.22962 7.29275 4.50135 7.51413 3.75629 7.51399C2.76638 7.51905 1.81488 7.13113 1.11069 6.43538C0.406506 5.73963 0.00715618 4.79289 0.000281741 3.80299ZM1.76228 3.80299C1.75637 4.19871 1.86801 4.58728 2.08305 4.91952C2.29808 5.25177 2.60686 5.51275 2.97028 5.66943C3.33371 5.82611 3.73544 5.87144 4.12464 5.7997C4.51384 5.72795 4.87301 5.54235 5.15668 5.26639C5.44035 4.99042 5.63577 4.6365 5.71821 4.24942C5.80064 3.86234 5.76637 3.4595 5.61976 3.0919C5.47314 2.7243 5.22077 2.40847 4.89457 2.18437C4.56837 1.96027 4.183 1.83798 3.78727 1.83299H3.75928C3.49874 1.83115 3.24039 1.88065 2.99897 1.97865C2.75755 2.07666 2.5378 2.22126 2.35227 2.40419C2.16674 2.58712 2.01904 2.8048 1.91764 3.04481C1.81624 3.28482 1.7631 3.54245 1.76127 3.80299H1.76228ZM11.8623 4.673C11.7481 4.67688 11.6343 4.65822 11.5273 4.6181C11.4203 4.57798 11.3223 4.51719 11.2388 4.43919C11.1553 4.36119 11.088 4.26751 11.0407 4.1635C10.9935 4.05949 10.9672 3.94718 10.9633 3.83299C10.9594 3.71881 10.978 3.60499 11.0182 3.49801C11.0583 3.39104 11.1191 3.29301 11.1971 3.20953C11.2751 3.12605 11.3688 3.05875 11.4728 3.01147C11.5768 2.9642 11.6891 2.93788 11.8033 2.934H19.0863C19.2005 2.93013 19.3143 2.94877 19.4213 2.98889C19.5282 3.02901 19.6263 3.08981 19.7098 3.16781C19.7932 3.24582 19.8605 3.33948 19.9078 3.44349C19.9551 3.5475 19.9814 3.65982 19.9853 3.774C19.9891 3.88818 19.9705 4.00202 19.9304 4.10899C19.8903 4.21597 19.8295 4.31399 19.7515 4.39747C19.6735 4.48095 19.5798 4.54824 19.4758 4.59552C19.3718 4.64279 19.2595 4.66913 19.1453 4.673H11.8623Z" fill="#3F2D20"/>
</svg>
