<svg width="52" height="13" viewBox="0 0 52 13" fill="none" xmlns="http://www.w3.org/2000/svg">
<path d="M6.776 1.34499V2.81699H1.928V6.32099H5.928V7.72899H1.928V12.641H0.104V1.34499H6.776ZM32.8521 3.71299C33.9935 3.71299 34.9375 4.01699 35.6841 4.62499C36.4308 5.22232 36.8948 6.03832 37.0761 7.07299H35.1401C35.0335 6.51832 34.7721 6.08632 34.3561 5.77699C33.9508 5.45699 33.4388 5.29699 32.8201 5.29699C32.1161 5.29699 31.5295 5.54766 31.0601 6.04899C30.5908 6.53966 30.3561 7.26499 30.3561 8.22499C30.3561 9.18499 30.5908 9.91566 31.0601 10.417C31.5295 10.9183 32.1161 11.169 32.8201 11.169C33.4388 11.169 33.9508 11.009 34.3561 10.689C34.7721 10.369 35.0335 9.93166 35.1401 9.37699H37.0761C36.8948 10.4117 36.4308 11.233 35.6841 11.841C34.9375 12.449 33.9935 12.753 32.8521 12.753C31.9988 12.753 31.2415 12.5717 30.5801 12.209C29.9295 11.8463 29.4175 11.3237 29.0441 10.641C28.6708 9.95832 28.4841 9.15299 28.4841 8.22499C28.4841 7.30766 28.6708 6.50766 29.0441 5.82499C29.4175 5.14232 29.9295 4.61966 30.5801 4.25699C31.2415 3.89432 31.9988 3.71299 32.8521 3.71299ZM43.7664 3.68099C44.7904 3.68099 45.6117 4.01166 46.2304 4.67299C46.849 5.33432 47.1584 6.27832 47.1584 7.50499V12.641H45.3344V7.69699C45.3344 6.90766 45.1317 6.29966 44.7264 5.87299C44.321 5.43566 43.7664 5.21699 43.0624 5.21699C42.337 5.21699 41.7557 5.45166 41.3184 5.92099C40.881 6.37966 40.6624 7.05699 40.6624 7.95299V12.641H38.8384V0.800991H40.6624V5.76099C40.897 5.09966 41.2917 4.58766 41.8464 4.22499C42.401 3.86232 43.041 3.68099 43.7664 3.68099ZM49.0355 1.26499C49.0355 0.955658 49.1422 0.699657 49.3555 0.49699C49.5688 0.294324 49.8515 0.19299 50.2035 0.19299C50.5555 0.19299 50.8382 0.294324 51.0515 0.49699C51.2755 0.699657 51.3875 0.955658 51.3875 1.26499C51.3875 1.57432 51.2755 1.82499 51.0515 2.01699C50.8382 2.20899 50.5555 2.30499 50.2035 2.30499C49.8515 2.30499 49.5688 2.20899 49.3555 2.01699C49.1422 1.82499 49.0355 1.57432 49.0355 1.26499ZM51.1155 3.82499V12.641H49.2915V3.82499H51.1155Z" fill="#3F2D20"/>
<path d="M12.4329 3.71299C13.2862 3.71299 14.0542 3.89432 14.7369 4.25699C15.4195 4.61966 15.9529 5.14232 16.3369 5.82499C16.7209 6.50766 16.9129 7.30766 16.9129 8.22499C16.9129 9.15299 16.7209 9.95832 16.3369 10.641C15.9529 11.3237 15.4195 11.8463 14.7369 12.209C14.0542 12.5717 13.2862 12.753 12.4329 12.753C11.5795 12.753 10.8115 12.5717 10.1289 12.209C9.45688 11.8463 8.92354 11.3237 8.52888 10.641C8.14488 9.94766 7.95288 9.14232 7.95288 8.22499C7.95288 7.30766 8.14488 6.50766 8.52888 5.82499C8.92354 5.14232 9.45688 4.61966 10.1289 4.25699C10.8115 3.89432 11.5795 3.71299 12.4329 3.71299ZM12.4329 5.29699C11.9635 5.29699 11.5315 5.40366 11.1369 5.61699C10.7422 5.83032 10.4222 6.16099 10.1769 6.60899C9.94221 7.04632 9.82488 7.58499 9.82488 8.22499C9.82488 8.87566 9.94221 9.41966 10.1769 9.85699C10.4222 10.2943 10.7422 10.6197 11.1369 10.833C11.5315 11.0463 11.9635 11.153 12.4329 11.153C12.9022 11.153 13.3342 11.0463 13.7289 10.833C14.1235 10.6197 14.4382 10.2943 14.6729 9.85699C14.9182 9.41966 15.0409 8.87566 15.0409 8.22499C15.0409 7.58499 14.9182 7.04632 14.6729 6.60899C14.4382 6.16099 14.1235 5.83032 13.7289 5.61699C13.3342 5.40366 12.9022 5.29699 12.4329 5.29699Z" fill="#EF8829"/>
<path d="M22.6985 3.71299C23.5518 3.71299 24.3198 3.89432 25.0025 4.25699C25.6852 4.61966 26.2185 5.14232 26.6025 5.82499C26.9865 6.50766 27.1785 7.30766 27.1785 8.22499C27.1785 9.15299 26.9865 9.95832 26.6025 10.641C26.2185 11.3237 25.6852 11.8463 25.0025 12.209C24.3198 12.5717 23.5518 12.753 22.6985 12.753C21.8452 12.753 21.0772 12.5717 20.3945 12.209C19.7225 11.8463 19.1892 11.3237 18.7945 10.641C18.4105 9.94766 18.2185 9.14232 18.2185 8.22499C18.2185 7.30766 18.4105 6.50766 18.7945 5.82499C19.1892 5.14232 19.7225 4.61966 20.3945 4.25699C21.0772 3.89432 21.8452 3.71299 22.6985 3.71299ZM22.6985 5.29699C22.2292 5.29699 21.7972 5.40366 21.4025 5.61699C21.0078 5.83032 20.6878 6.16099 20.4425 6.60899C20.2078 7.04632 20.0905 7.58499 20.0905 8.22499C20.0905 8.87566 20.2078 9.41966 20.4425 9.85699C20.6878 10.2943 21.0078 10.6197 21.4025 10.833C21.7972 11.0463 22.2292 11.153 22.6985 11.153C23.1678 11.153 23.5998 11.0463 23.9945 10.833C24.3892 10.6197 24.7038 10.2943 24.9385 9.85699C25.1838 9.41966 25.3065 8.87566 25.3065 8.22499C25.3065 7.58499 25.1838 7.04632 24.9385 6.60899C24.7038 6.16099 24.3892 5.83032 23.9945 5.61699C23.5998 5.40366 23.1678 5.29699 22.6985 5.29699Z" fill="#84BD93"/>
</svg>
