<svg width="19" height="20" viewBox="0 0 19 20" fill="none" xmlns="http://www.w3.org/2000/svg">
<path d="M15.28 19.916H13.29C12.8372 19.9117 12.4025 19.7381 12.0712 19.4295C11.74 19.1208 11.5362 18.6993 11.5 18.248L11.49 18.11V15.282C11.4877 15.1323 11.432 14.9883 11.3331 14.8759C11.2341 14.7636 11.0982 14.6902 10.95 14.669L10.86 14.659H8.189C8.03938 14.6601 7.895 14.7142 7.78162 14.8119C7.66823 14.9095 7.59323 15.0442 7.57 15.192L7.56 15.282V18.1C7.55839 18.1595 7.5517 18.2187 7.54 18.277L7.53 18.298L7.518 18.3661C7.4588 18.7788 7.25813 19.1582 6.95026 19.4394C6.64239 19.7207 6.24642 19.8863 5.83 19.908L5.7 19.919H3.91C2.9139 19.9257 1.95318 19.5501 1.22576 18.8695C0.498339 18.189 0.0596276 17.2553 0 16.261V8.05001C0.00568478 7.63965 0.097661 7.23512 0.269947 6.86263C0.442233 6.49015 0.690972 6.15808 1 5.88802L7.23 0.935998C7.84838 0.452302 8.60561 0.179769 9.3904 0.158349C10.1752 0.136929 10.9462 0.367795 11.59 0.81704L11.751 0.935998L17.839 5.74801C18.1663 5.99877 18.4378 6.31507 18.6359 6.67666C18.8341 7.03825 18.9547 7.43722 18.99 7.84805L19 8.048V16.062C18.9917 17.0587 18.6012 18.0142 17.909 18.7313C17.2168 19.4484 16.2757 19.8725 15.28 19.916ZM8.04 13.287H10.86C11.3668 13.2866 11.8554 13.4761 12.2294 13.8182C12.6033 14.1603 12.8355 14.6302 12.88 15.135V18.109C12.88 18.2094 12.915 18.3065 12.9788 18.3839C13.0427 18.4612 13.1315 18.514 13.23 18.533H15.089C15.7227 18.5385 16.3347 18.3026 16.8007 17.8732C17.2667 17.4438 17.5518 16.853 17.598 16.221L17.61 16.064V8.06405C17.6042 7.85443 17.557 7.64797 17.4712 7.45663C17.3854 7.26528 17.2627 7.09276 17.11 6.949L16.98 6.83901L10.88 2.01803C10.4832 1.70702 9.99319 1.53862 9.489 1.54C9.04561 1.53872 8.6115 1.66699 8.24 1.90902L8.089 2.01901L2.009 6.86001C1.84241 6.98314 1.70254 7.13883 1.59786 7.31759C1.49318 7.49635 1.42587 7.69451 1.4 7.90005L1.389 8.06002V16.06C1.39421 16.6949 1.64135 17.3039 2.08006 17.7628C2.51876 18.2218 3.116 18.4962 3.75 18.5301H5.7C5.8037 18.5345 5.90546 18.501 5.98626 18.4358C6.06705 18.3707 6.12135 18.2783 6.139 18.176L6.16 18L6.171 17.95V15.283C6.16991 14.7745 6.36255 14.2847 6.70974 13.9132C7.05693 13.5416 7.53259 13.3163 8.04 13.283V13.287Z" fill="#3F2D20"/>
</svg>
