<svg width="16" height="16" viewBox="0 0 16 16" fill="none" xmlns="http://www.w3.org/2000/svg">
<path d="M0 7.99999C0 6.41774 0.469185 4.871 1.34824 3.55541C2.22729 2.23981 3.47673 1.21443 4.93854 0.608933C6.40035 0.00343233 8.00888 -0.154949 9.56073 0.153733C11.1126 0.462415 12.538 1.22431 13.6569 2.34313C14.7757 3.46195 15.5376 4.88741 15.8463 6.43926C16.155 7.9911 15.9965 9.59964 15.391 11.0614C14.7855 12.5233 13.7601 13.7727 12.4445 14.6517C11.129 15.5308 9.58225 16 8 16C5.87827 16 3.84343 15.1571 2.34314 13.6568C0.842849 12.1566 0 10.1217 0 7.99999ZM1.15799 7.99999C1.15799 9.35321 1.55929 10.676 2.3111 11.8012C3.0629 12.9264 4.13147 13.8033 5.38168 14.3212C6.6319 14.839 8.00759 14.9745 9.33481 14.7105C10.662 14.4465 11.8811 13.7949 12.838 12.838C13.7949 11.8811 14.4465 10.662 14.7105 9.33476C14.9745 8.00755 14.8391 6.63185 14.3212 5.38164C13.8033 4.13143 12.9264 3.06289 11.8012 2.31108C10.676 1.55927 9.35322 1.15801 8 1.15801C6.18539 1.15801 4.44511 1.87885 3.16199 3.16197C1.87886 4.4451 1.15799 6.18537 1.15799 7.99999ZM4.952 10.922C4.89808 10.849 4.86233 10.7642 4.84772 10.6747C4.83311 10.5851 4.84008 10.4933 4.86801 10.407L6.09799 6.481C6.12597 6.39115 6.17537 6.30945 6.24191 6.24291C6.30845 6.17636 6.39016 6.12696 6.48001 6.09898L10.41 4.869C10.467 4.85115 10.5263 4.84201 10.586 4.84197C10.6769 4.84281 10.7663 4.86498 10.847 4.90666C10.9278 4.94835 10.9977 5.00837 11.051 5.08196C11.1047 5.15486 11.1404 5.23945 11.1552 5.32878C11.17 5.41811 11.1634 5.50969 11.136 5.59599L9.89999 9.52001C9.87171 9.60914 9.82244 9.69014 9.75632 9.75627C9.69019 9.8224 9.60913 9.87172 9.51999 9.90001L5.59 11.133C5.533 11.1507 5.47368 11.1598 5.414 11.16C5.32383 11.1587 5.23516 11.1366 5.155 11.0953C5.07483 11.054 5.00535 10.9947 4.952 10.922ZM7.112 7.11199L6.29999 9.7L8.88501 8.89201L9.69299 6.30699L7.112 7.11199Z" fill="#3F2D20"/>
</svg>
