<svg width="16" height="16" viewBox="0 0 16 16" fill="none" xmlns="http://www.w3.org/2000/svg">
<path d="M3.45731 16C2.55643 15.9894 1.69432 15.6319 1.0504 15.0018C0.406486 14.3716 0.0303632 13.5174 0.000307947 12.617V3.54797C-0.0116311 2.64646 0.323985 1.77502 0.937514 1.11438C1.55104 0.453742 2.39538 0.0546639 3.29531 0H7.25431C8.15364 0.0120658 9.01382 0.369868 9.65637 0.999207C10.2989 1.62855 10.6746 2.48112 10.7053 3.38V4.29303C10.7126 4.44538 10.6599 4.59449 10.5585 4.70844C10.4572 4.82238 10.3151 4.89206 10.163 4.90253C10.0108 4.91299 9.86061 4.8634 9.74458 4.7644C9.62855 4.66541 9.55593 4.5249 9.54231 4.37299L9.53631 4.29303V3.54797C9.54459 2.95667 9.32695 2.38451 8.92778 1.94818C8.52862 1.51185 7.97802 1.24427 7.38831 1.20001H3.45731C2.86632 1.20657 2.30025 1.43912 1.87533 1.84991C1.4504 2.26071 1.19885 2.81856 1.17231 3.409V12.45C1.16408 13.0418 1.38214 13.6144 1.78193 14.0508C2.18172 14.4872 2.73307 14.7544 3.32331 14.798H3.45831H7.25831C7.84649 14.7907 8.40963 14.5588 8.8324 14.1498C9.25516 13.7408 9.50556 13.1856 9.53231 12.598V11.706C9.52896 11.5558 9.5836 11.4102 9.68488 11.2993C9.78615 11.1883 9.92627 11.1207 10.0761 11.1104C10.226 11.1001 10.374 11.1479 10.4895 11.244C10.605 11.34 10.6791 11.4768 10.6963 11.626V11.706V12.46C10.7085 13.3562 10.3765 14.2229 9.76869 14.8815C9.16087 15.5401 8.32355 15.9404 7.42931 16H3.45731ZM12.7213 10.757C12.6221 10.6537 12.5622 10.5189 12.5522 10.376C12.5421 10.2331 12.5825 10.0912 12.6663 9.97498L12.7223 9.90698L14.0003 8.59998H6.03731C5.88606 8.59836 5.74101 8.53973 5.63118 8.43573C5.52134 8.33173 5.45484 8.19006 5.44498 8.03912C5.43512 7.88819 5.48263 7.7391 5.578 7.6217C5.67337 7.5043 5.80956 7.42728 5.95931 7.40601H6.03731H14.0003L12.7213 6.09998C12.6217 5.99723 12.5613 5.86284 12.5505 5.72015C12.5397 5.57747 12.5793 5.43551 12.6623 5.31897L12.7193 5.25098C12.8166 5.1495 12.9478 5.08736 13.0879 5.07629C13.228 5.06523 13.3673 5.10602 13.4793 5.19098L13.5453 5.24902L15.8263 7.58099C15.919 7.6757 15.9777 7.79841 15.9933 7.92999V7.94397V7.95801V8V8.01202V8.05902C15.9858 8.12844 15.9665 8.19603 15.9363 8.25897V8.26898V8.27698L15.9303 8.28802L15.9243 8.29797L15.9173 8.30902L15.9113 8.31897L15.9053 8.328L15.9003 8.33502C15.8794 8.36369 15.8559 8.39041 15.8303 8.41498L13.5633 10.735C13.5099 10.7904 13.4458 10.8345 13.3749 10.8646C13.304 10.8947 13.2278 10.9103 13.1508 10.9103C13.0738 10.9103 12.9976 10.8947 12.9267 10.8646C12.8558 10.8345 12.7918 10.7904 12.7383 10.735L12.7213 10.757Z" fill="#3F2D20"/>
</svg>
