<svg width="20" height="20" viewBox="0 0 20 20" fill="none" xmlns="http://www.w3.org/2000/svg">
<path d="M13.984 20C13.192 19.996 12.4341 19.6778 11.8766 19.1153C11.3191 18.5528 11.0078 17.792 11.011 17V13.941C11.0078 13.149 11.3191 12.3882 11.8766 11.8257C12.4341 11.2632 13.192 10.9449 13.984 10.941H17.021C17.8128 10.9449 18.5707 11.2632 19.128 11.8257C19.6853 12.3883 19.9964 13.1491 19.993 13.941V17C19.9964 17.7919 19.6853 18.5527 19.128 19.1152C18.5707 19.6778 17.8128 19.996 17.021 20H13.984ZM12.405 13.941V17C12.4031 17.4213 12.5682 17.8262 12.8641 18.126C13.1601 18.4259 13.5627 18.5963 13.984 18.6H17.021C17.4423 18.5965 17.8452 18.4262 18.1411 18.1263C18.4371 17.8264 18.6021 17.4214 18.6 17V13.941C18.6021 13.5196 18.4371 13.1146 18.1411 12.8147C17.8452 12.5148 17.4423 12.3444 17.021 12.341H13.989C13.7795 12.3414 13.5722 12.3831 13.3788 12.4638C13.1855 12.5445 13.01 12.6625 12.8624 12.8112C12.7148 12.9598 12.5979 13.1361 12.5186 13.33C12.4392 13.5239 12.3989 13.7315 12.4 13.941H12.405ZM2.979 20C2.18705 19.996 1.42907 19.6778 0.871606 19.1153C0.314145 18.5528 0.00279997 17.792 0.00599047 17V13.941C0.00279997 13.149 0.314145 12.3882 0.871606 11.8257C1.42907 11.2632 2.18705 10.9449 2.979 10.941H6.016C6.80795 10.9449 7.56591 11.2632 8.12338 11.8257C8.68084 12.3882 8.99218 13.149 8.98899 13.941V17C8.99218 17.792 8.68084 18.5528 8.12338 19.1153C7.56591 19.6778 6.80795 19.996 6.016 20H2.979ZM1.39999 13.941V17C1.39812 17.4213 1.56322 17.8262 1.85914 18.126C2.15506 18.4259 2.55772 18.5963 2.979 18.6H6.016C6.22507 18.5989 6.43188 18.5567 6.62463 18.4758C6.81738 18.3948 6.99228 18.2766 7.13937 18.1281C7.28646 17.9795 7.40285 17.8034 7.48188 17.6099C7.56092 17.4163 7.60105 17.2091 7.6 17V13.941C7.60213 13.5196 7.43712 13.1146 7.14114 12.8147C6.84516 12.5148 6.44235 12.3444 6.02099 12.341H2.98399C2.77492 12.3421 2.56811 12.3842 2.37536 12.4652C2.18261 12.5462 2.00771 12.6644 1.86062 12.8129C1.71353 12.9615 1.59714 13.1376 1.51811 13.3312C1.43907 13.5247 1.39893 13.7319 1.39999 13.941ZM13.984 9.05499C13.192 9.05102 12.4341 8.73281 11.8766 8.17029C11.3191 7.60776 11.0078 6.84694 11.011 6.05499V3C11.0078 2.20805 11.3191 1.44723 11.8766 0.884705C12.4341 0.32218 13.192 0.00396927 13.984 0H17.021C17.813 0.00370473 18.5712 0.321817 19.1287 0.884399C19.6862 1.44698 19.9975 2.20797 19.994 3V6.06C19.9975 6.85186 19.6863 7.61268 19.129 8.17523C18.5717 8.73779 17.8139 9.05603 17.022 9.06L13.984 9.05499ZM12.4 3V6.06C12.3981 6.48128 12.5632 6.88618 12.8591 7.18604C13.1551 7.48589 13.5577 7.65627 13.979 7.65997H17.016C17.4374 7.65654 17.8402 7.4862 18.1361 7.18628C18.4321 6.88636 18.5971 6.48136 18.595 6.06V3C18.5971 2.57863 18.4321 2.17363 18.1361 1.87372C17.8402 1.5738 17.4374 1.40346 17.016 1.40002H13.979C13.5576 1.40346 13.1548 1.5738 12.8588 1.87372C12.5629 2.17363 12.3979 2.57863 12.4 3ZM2.975 9.06C2.18288 9.05629 1.42463 8.73821 0.866952 8.17566C0.309275 7.61311 -0.00218907 6.85212 0.00100084 6.06V3C-0.00218966 2.20805 0.30914 1.44723 0.866601 0.884705C1.42406 0.32218 2.18204 0.00396927 2.97399 0H6.011C6.80294 0.00396927 7.56092 0.32218 8.11839 0.884705C8.67585 1.44723 8.98718 2.20805 8.98399 3V6.06C8.98718 6.85195 8.67585 7.61277 8.11839 8.17529C7.56092 8.73782 6.80294 9.05603 6.011 9.06H2.975ZM1.39999 3V6.06C1.39812 6.48128 1.56322 6.88618 1.85914 7.18604C2.15506 7.48589 2.55772 7.65627 2.979 7.65997H6.016C6.43736 7.65654 6.84015 7.4862 7.13613 7.18628C7.43211 6.88636 7.59713 6.48136 7.595 6.06V3C7.59713 2.57863 7.43211 2.17363 7.13613 1.87372C6.84015 1.5738 6.43736 1.40346 6.016 1.40002H2.979C2.55764 1.40346 2.15483 1.5738 1.85885 1.87372C1.56287 2.17363 1.39786 2.57863 1.39999 3Z" fill="#3F2D20"/>
</svg>
