<svg width="17" height="20" viewBox="0 0 17 20" fill="none" xmlns="http://www.w3.org/2000/svg">
<path d="M7.53201 19.0201V17.0971C5.47406 16.8751 3.56949 15.9044 2.18069 14.3695C0.791901 12.8347 0.0157869 10.8429 0 8.77311C0.00158678 8.51814 0.104325 8.2742 0.285645 8.09495C0.466964 7.91569 0.712028 7.81578 0.966995 7.81711C1.09341 7.81619 1.21877 7.84018 1.33591 7.88773C1.45304 7.93529 1.55965 8.00549 1.64964 8.09428C1.73964 8.18306 1.81125 8.28871 1.86038 8.40519C1.90952 8.52167 1.93522 8.64669 1.936 8.77311C1.95732 10.4996 2.6581 12.148 3.88649 13.3614C5.11488 14.5747 6.77192 15.2551 8.4985 15.2551C10.2251 15.2551 11.8821 14.5747 13.1105 13.3614C14.3389 12.148 15.0397 10.4996 15.061 8.77311C15.061 8.51611 15.1631 8.26965 15.3448 8.08793C15.5265 7.90621 15.773 7.80411 16.03 7.80411C16.287 7.80411 16.5335 7.90621 16.7152 8.08793C16.8969 8.26965 16.999 8.51611 16.999 8.77311C16.9835 10.843 16.2076 12.8349 14.819 14.3699C13.4304 15.9049 11.5259 16.8759 9.46799 17.0981V19.0211C9.46799 19.278 9.36596 19.5243 9.18433 19.7059C9.0027 19.8875 8.75637 19.9896 8.49951 19.9896C8.24265 19.9896 7.9963 19.8875 7.81467 19.7059C7.63304 19.5243 7.53101 19.278 7.53101 19.0211L7.53201 19.0201ZM8.32501 13.2011C7.7573 13.2048 7.19442 13.0966 6.66852 12.8828C6.14262 12.6689 5.66398 12.3536 5.25995 11.9547C4.85592 11.5559 4.5344 11.0814 4.31375 10.5583C4.09311 10.0352 3.97766 9.47381 3.974 8.9061V4.29508C3.98114 3.14898 4.44322 2.05267 5.25861 1.24723C6.07399 0.441785 7.17589 -0.00681889 8.32199 9.80991e-05H8.67499C9.82135 -0.00761968 10.9239 0.440328 11.74 1.2454C12.5561 2.05047 13.0191 3.14676 13.027 4.29313V8.91007C13.0193 10.0567 12.5566 11.1533 11.7404 11.9588C10.9243 12.7642 9.82162 13.2126 8.67499 13.2051L8.32501 13.2011Z" fill="#3F2D20"/>
</svg>
