<svg width="14" height="14" viewBox="0 0 14 14" fill="none" xmlns="http://www.w3.org/2000/svg">
<path d="M9.60002 13H4.40002C3.93654 13.0167 3.47473 12.9353 3.0449 12.7611C2.61507 12.5869 2.22692 12.3239 1.90588 11.9891C1.58485 11.6544 1.33819 11.2556 1.18208 10.8189C1.02597 10.3822 0.963924 9.91735 1.00002 9.45496V4.55497C0.962923 4.09189 1.02419 3.6262 1.17981 3.18848C1.33543 2.75076 1.58188 2.3509 1.90297 2.01517C2.22407 1.67944 2.61255 1.41542 3.0429 1.24045C3.47325 1.06549 3.93575 0.983541 4.40002 0.999974H9.60002C10.0641 0.983105 10.5266 1.06467 10.9569 1.23929C11.3873 1.41391 11.7758 1.67762 12.097 2.01313C12.4181 2.34863 12.6646 2.74831 12.8203 3.18589C12.9759 3.62346 13.0372 4.08903 13 4.55198V9.45197C13.0371 9.9147 12.9757 10.38 12.8199 10.8173C12.6642 11.2546 12.4176 11.654 12.0965 11.9892C11.7753 12.3243 11.3868 12.5877 10.9565 12.7619C10.5262 12.9361 10.0639 13.0173 9.60002 13ZM7.00002 7.73899L8.06802 8.79996C8.1146 8.85034 8.17126 8.89038 8.23432 8.91742C8.29738 8.94447 8.36541 8.95795 8.43402 8.95697C8.53726 8.9565 8.63807 8.92558 8.72384 8.86811C8.80961 8.81064 8.87653 8.72916 8.91623 8.63385C8.95593 8.53855 8.96665 8.43367 8.94704 8.33231C8.92744 8.23095 8.87839 8.1376 8.80602 8.06397L7.73802 6.99997L8.80602 5.93097C8.88068 5.85783 8.9318 5.76409 8.95285 5.66172C8.9739 5.55935 8.96391 5.45302 8.92418 5.35636C8.88444 5.2597 8.81675 5.17708 8.72979 5.11911C8.64282 5.06115 8.54054 5.03047 8.43602 5.03098C8.29599 5.03129 8.16168 5.08659 8.06202 5.18497L7.00002 6.24997L5.93202 5.18299C5.83276 5.08536 5.69925 5.03043 5.56002 5.02997C5.45556 5.02955 5.35334 5.06024 5.26638 5.11814C5.17943 5.17603 5.11167 5.2585 5.07177 5.35505C5.03187 5.45159 5.02161 5.55783 5.04232 5.66022C5.06302 5.76261 5.11374 5.85651 5.18802 5.92997L6.25602 6.99897L5.18802 8.06098C5.13666 8.10924 5.09551 8.16734 5.06704 8.23182C5.03857 8.29629 5.02334 8.36581 5.02227 8.43628C5.02119 8.50676 5.03429 8.57675 5.06079 8.64206C5.08729 8.70738 5.12665 8.7667 5.17652 8.8165C5.22639 8.86631 5.28576 8.90557 5.35111 8.93198C5.41646 8.95839 5.48645 8.97142 5.55692 8.97025C5.6274 8.96908 5.69692 8.95374 5.76135 8.92518C5.82579 8.89661 5.88383 8.85539 5.93202 8.80396L7.00002 7.73899Z" fill="#EF8829"/>
</svg>
