<svg width="44" height="41" viewBox="0 0 44 41" fill="none" xmlns="http://www.w3.org/2000/svg">
<path d="M22.4842 11.037L25.4262 12.737C25.7459 12.9215 26.1164 12.9986 26.4832 12.957L32.6332 12.257L32.9412 14.157L26.0412 14.957C25.7703 14.9872 25.4962 14.9529 25.2412 14.857L20.8852 13.244L22.4842 11.037Z" fill="#EDC3B4"/>
<path d="M25.8392 15.134C25.9113 15.1341 25.9834 15.1301 26.0552 15.122L33.1392 14.305L32.7752 12.062L26.4592 12.779C26.1293 12.8148 25.7966 12.7448 25.5092 12.579L22.4392 10.805L20.6092 13.321L25.1822 15.014C25.3924 15.0923 25.6148 15.1329 25.8392 15.134ZM32.7392 13.998L26.0162 14.774C25.7737 14.802 25.5281 14.7725 25.2992 14.688L21.1602 13.155L22.5332 11.268L25.3392 12.884C25.692 13.0862 26.1 13.1709 26.5042 13.126L32.4882 12.446L32.7392 13.998Z" fill="#444445"/>
<path d="M31.6482 32.711L30.3042 15.698C31.4985 15.6979 32.6539 16.1222 33.5643 16.8952C34.4747 17.6682 35.0807 18.7395 35.2742 19.918L36.9812 27.971C37.0552 27.971 37.1282 27.965 37.2022 27.965C37.9406 27.9649 38.6717 28.1102 39.354 28.3927C40.0362 28.6752 40.656 29.0892 41.1782 29.6113C41.7004 30.1334 42.1146 30.7532 42.3972 31.4353C42.6797 32.1175 42.8252 32.8486 42.8252 33.587L41.6372 33.644L37.6372 31.056L37.8172 31.906L31.7592 34.088L31.7142 33.521L31.5822 33.587C31.5815 33.2937 31.6036 33.0009 31.6482 32.711Z" fill="#EF8829"/>
<path d="M31.6001 34.3311L38.0181 32.0201L37.8941 31.4331L41.5941 33.8231L43.0051 33.7551V33.5881C43.0051 32.0498 42.3941 30.5746 41.3063 29.4868C40.2186 28.3991 38.7434 27.7881 37.2051 27.7881H37.1251L35.4491 19.8821C35.2518 18.6617 34.6255 17.5519 33.6829 16.7521C32.7403 15.9523 31.5433 15.5151 30.3071 15.5191H30.1171L31.4721 32.7051C31.4275 32.9976 31.4051 33.2931 31.4051 33.5891V33.8721L31.5591 33.7951L31.6001 34.3311ZM37.6121 31.7941L31.9121 33.8461L31.8651 33.2461L31.7651 33.2981C31.7752 33.1095 31.7949 32.9216 31.8241 32.7351V32.7151V32.6941L30.4951 15.8741C31.6155 15.9142 32.6872 16.3419 33.5274 17.0842C34.3675 17.8264 34.9241 18.8372 35.1021 19.9441V19.9521L36.8401 28.1521L36.9871 28.1461C37.0581 28.1461 37.1301 28.1401 37.2021 28.1401C38.6175 28.1414 39.9769 28.693 40.993 29.6783C42.009 30.6636 42.6022 32.0054 42.6471 33.4201L41.6841 33.4661L37.3761 30.6801L37.6121 31.7941Z" fill="#464647"/>
<path d="M11.5522 24.0609H24.1572L25.3122 25.2869C25.376 25.3195 25.4271 25.3725 25.4571 25.4376C25.4872 25.5026 25.4946 25.5758 25.4781 25.6455C25.4617 25.7153 25.4223 25.7774 25.3662 25.8221C25.3102 25.8668 25.2409 25.8914 25.1692 25.8919C24.6619 25.8936 24.1599 25.9952 23.6919 26.1909C23.2239 26.3866 22.799 26.6726 22.4415 27.0325C22.084 27.3925 21.8008 27.8193 21.6083 28.2886C21.4157 28.7579 21.3175 29.2606 21.3192 29.7679C21.3175 30.2752 21.4157 30.7779 21.6083 31.2472C21.8008 31.7166 22.084 32.1434 22.4415 32.5033C22.799 32.8632 23.2239 33.1492 23.6919 33.3449C24.1599 33.5406 24.6619 33.6422 25.1692 33.6439H32.9392L32.5342 35.4829H16.7892L13.9972 32.3649L13.0362 31.5179L13.0732 31.7039L9.57321 31.9339L7.31021 34.7399H4.88521C4.56198 34.7373 4.24672 34.6393 3.97888 34.4584C3.71104 34.2774 3.50253 34.0215 3.37946 33.7226C3.25638 33.4237 3.2242 33.0951 3.28694 32.778C3.34969 32.4609 3.50457 32.1694 3.73221 31.9399C4.64736 30.4965 5.67239 29.1258 6.79821 27.8399C8.18174 26.3461 9.7848 25.0718 11.5522 24.0609Z" fill="#EF8829"/>
<path d="M16.7112 35.658H32.6762L33.1592 33.469H25.1702C24.1926 33.4645 23.2566 33.0724 22.5677 32.3788C21.8788 31.6851 21.493 30.7466 21.4952 29.769C21.493 28.7913 21.8788 27.8528 22.5677 27.1591C23.2566 26.4655 24.1926 26.0735 25.1702 26.069C25.2813 26.0701 25.3895 26.0331 25.4767 25.9641C25.5638 25.8951 25.6247 25.7984 25.6492 25.69C25.6754 25.5871 25.6674 25.4785 25.6262 25.3807C25.5851 25.2828 25.5131 25.2011 25.4212 25.148L24.2332 23.887H11.5062L11.4662 23.909C9.68269 24.9329 8.06438 26.2208 6.66618 27.729C5.54198 29.0176 4.51515 30.388 3.59418 31.829C3.34364 32.0833 3.17441 32.4064 3.10799 32.7572C3.04158 33.108 3.08098 33.4706 3.22118 33.799C3.35462 34.1305 3.58485 34.4141 3.88185 34.6128C4.17885 34.8115 4.52884 34.9161 4.88618 34.913H7.39018L9.65718 32.105L13.1732 31.874L13.8732 32.491L16.7112 35.658ZM32.3952 35.308H16.8672L14.1202 32.24L12.7622 31.04L12.8622 31.54L9.48118 31.762L7.22318 34.562H4.88218C4.59409 34.5641 4.31203 34.4794 4.07281 34.3189C3.8336 34.1583 3.64833 33.9294 3.54118 33.662C3.42694 33.3946 3.3957 33.0991 3.45152 32.8138C3.50733 32.5285 3.64762 32.2665 3.85418 32.062L3.87018 32.046L3.88118 32.027C4.79292 30.5944 5.81219 29.2331 6.93018 27.955C8.29049 26.4873 9.86496 25.2337 11.6002 24.237H24.0822L25.2072 25.43L25.2342 25.444C25.264 25.4581 25.2879 25.4823 25.3016 25.5123C25.3153 25.5423 25.318 25.5762 25.3092 25.608C25.3029 25.6397 25.2856 25.6682 25.2603 25.6885C25.2351 25.7088 25.2035 25.7196 25.1712 25.719C24.1006 25.7237 23.0757 26.1529 22.3212 26.9123C21.5666 27.6717 21.1441 28.6994 21.1462 29.77C21.1441 30.8405 21.5666 31.8682 22.3212 32.6276C23.0757 33.387 24.1006 33.8162 25.1712 33.821H32.7232L32.3952 35.308Z" fill="#464647"/>
<path d="M11.5522 25.1849H25.3762C25.3762 23.3419 23.6422 22.7549 21.5032 22.7549H14.3722C13.6768 22.7069 12.9904 22.9351 12.4623 23.3901C11.9341 23.8451 11.6067 24.49 11.5512 25.1849H11.5522Z" fill="#BDB39B"/>
<path d="M11.2723 25.465H25.6573V25.185C25.6755 24.7404 25.564 24.3002 25.3364 23.9179C25.1087 23.5356 24.7748 23.2278 24.3753 23.032C23.4766 22.6181 22.4914 22.427 21.5033 22.475H14.3722C13.6029 22.4279 12.846 22.686 12.2657 23.1933C11.6854 23.7006 11.3284 24.4162 11.2723 25.185V25.465ZM25.0802 24.905H11.8543C11.9875 24.347 12.313 23.8539 12.7736 23.5121C13.2343 23.1703 13.8007 23.0017 14.3732 23.036H21.5033C23.7263 23.035 24.9272 23.664 25.0802 24.905Z" fill="#444445"/>
<path d="M3.67606 25.219H11.7331C11.9386 25.219 12.1357 25.1373 12.2811 24.992C12.4264 24.8467 12.5081 24.6495 12.5081 24.444C12.5081 24.2385 12.4264 24.0413 12.2811 23.896C12.1357 23.7506 11.9386 23.669 11.7331 23.669H3.67606C3.47051 23.669 3.27339 23.7506 3.12805 23.896C2.98271 24.0413 2.90105 24.2385 2.90105 24.444C2.90105 24.6495 2.98271 24.8467 3.12805 24.992C3.27339 25.1373 3.47051 25.219 3.67606 25.219Z" fill="#BDB39B"/>
<path d="M3.67609 25.5H11.7331C12.0128 25.4997 12.281 25.3885 12.4788 25.1907C12.6766 24.9929 12.7878 24.7247 12.7881 24.445C12.7878 24.1653 12.6766 23.8971 12.4788 23.6993C12.281 23.5015 12.0128 23.3903 11.7331 23.39H3.67609C3.39636 23.3903 3.12818 23.5015 2.93038 23.6993C2.73259 23.8971 2.62135 24.1653 2.62109 24.445C2.62135 24.7247 2.73259 24.9929 2.93038 25.1907C3.12818 25.3885 3.39636 25.4997 3.67609 25.5ZM11.7331 23.95C11.864 23.9513 11.9891 24.0039 12.0817 24.0964C12.1742 24.189 12.2268 24.3141 12.2281 24.445C12.2268 24.5759 12.1742 24.701 12.0817 24.7936C11.9891 24.8861 11.864 24.9387 11.7331 24.94H3.67609C3.54521 24.9387 3.42006 24.8861 3.32751 24.7936C3.23496 24.701 3.18239 24.5759 3.18109 24.445C3.18239 24.3141 3.23496 24.189 3.32751 24.0964C3.42006 24.0039 3.54521 23.9513 3.67609 23.95H11.7331Z" fill="#444445"/>
<path d="M4.40502 31.418H21.374L21.227 31.051C21.2216 31.0383 21.2173 31.0253 21.214 31.012L21.127 30.646H4.93902L4.40502 31.418Z" fill="white"/>
<path d="M11.5521 30.247C12.9408 30.247 14.2727 30.7986 15.2548 31.7805C16.2369 32.7624 16.7888 34.0942 16.7891 35.483C16.7888 36.8718 16.2369 38.2036 15.2548 39.1855C14.2727 40.1674 12.9408 40.719 11.5521 40.719C10.1633 40.719 8.8314 40.1674 7.8493 39.1855C6.8672 38.2036 6.31533 36.8718 6.31506 35.483C6.31533 34.0942 6.8672 32.7624 7.8493 31.7805C8.8314 30.7986 10.1633 30.247 11.5521 30.247ZM11.5521 38.382C12.3212 38.382 13.0588 38.0765 13.6027 37.5326C14.1465 36.9888 14.4521 36.2511 14.4521 35.482C14.4521 34.7129 14.1465 33.9752 13.6027 33.4314C13.0588 32.8875 12.3212 32.582 11.5521 32.582C11.1712 32.582 10.7941 32.657 10.4423 32.8027C10.0904 32.9485 9.77075 33.1621 9.50146 33.4314C9.23217 33.7007 9.01856 34.0204 8.87282 34.3722C8.72708 34.7241 8.65207 35.1012 8.65207 35.482C8.65207 35.8628 8.72708 36.2399 8.87282 36.5918C9.01856 36.9436 9.23217 37.2633 9.50146 37.5326C9.77075 37.8019 10.0904 38.0155 10.4423 38.1612C10.7941 38.307 11.1712 38.382 11.5521 38.382Z" fill="#6D6D6D"/>
<path d="M11.5521 41C13.0149 40.9987 14.4176 40.417 15.4521 39.3827C16.4866 38.3484 17.0685 36.9459 17.0701 35.483C17.0685 34.0201 16.4866 32.6176 15.4521 31.5833C14.4176 30.549 13.0149 29.9673 11.5521 29.966C10.0894 29.9676 8.687 30.5493 7.65271 31.5836C6.61842 32.6179 6.03665 34.0203 6.03506 35.483C6.03665 36.9457 6.61842 38.3481 7.65271 39.3824C8.687 40.4166 10.0894 40.9984 11.5521 41ZM11.5521 30.527C12.8662 30.5283 14.1261 31.0509 15.0554 31.98C15.9847 32.9091 16.5075 34.1689 16.5091 35.483C16.5075 36.7971 15.9847 38.0569 15.0554 38.986C14.1261 39.9151 12.8662 40.4377 11.5521 40.439C10.238 40.4377 8.97805 39.9151 8.04875 38.986C7.11945 38.0569 6.59665 36.7971 6.59506 35.483C6.59665 34.1689 7.11945 32.9091 8.04875 31.98C8.97805 31.0509 10.238 30.5283 11.5521 30.527ZM11.5521 38.662C12.395 38.6612 13.2033 38.326 13.7994 37.7301C14.3956 37.1341 14.731 36.326 14.7321 35.483C14.731 34.64 14.3956 33.8319 13.7994 33.2359C13.2033 32.6399 12.395 32.3048 11.5521 32.304C10.7093 32.3051 9.90129 32.6403 9.30534 33.2363C8.70939 33.8322 8.37412 34.6402 8.37306 35.483C8.37412 36.3258 8.70939 37.1338 9.30534 37.7297C9.90129 38.3257 10.7093 38.6609 11.5521 38.662ZM11.5521 32.862C12.2464 32.8628 12.9121 33.139 13.4031 33.63C13.8941 34.1209 14.1703 34.7866 14.1711 35.481C14.17 36.1752 13.8937 36.8406 13.4027 37.3314C12.9118 37.8222 12.2462 38.0982 11.5521 38.099C10.8579 38.0982 10.1923 37.8222 9.70139 37.3314C9.21043 36.8406 8.93413 36.1752 8.93307 35.481C8.93439 34.787 9.21081 34.1218 9.70174 33.6313C10.1927 33.1407 10.8581 32.8648 11.5521 32.864V32.862Z" fill="#444445"/>
<path d="M27.076 19.995C27.4118 20.139 27.7084 20.3611 27.9409 20.6429C28.1735 20.9247 28.3353 21.258 28.413 21.615C28.6438 22.9064 28.6855 24.2245 28.537 25.528C28.499 26.791 28.443 28.054 28.443 29.317V30.886H24.959C24.959 29.525 24.968 27.442 24.979 26.086C24.984 25.417 25.057 24.714 24.995 24.048C24.957 23.64 24.759 23.3 24.274 23.377C23.1133 23.5316 21.9448 23.6204 20.774 23.643C19.3805 23.816 17.9664 23.5939 16.693 23.002C16.1562 22.7422 15.7001 22.3414 15.3735 21.8424C15.0469 21.3434 14.8622 20.7649 14.839 20.169C14.8393 20.0898 14.847 20.0108 14.862 19.933H20.391C21.759 19.933 23.128 19.926 24.496 19.922C25.3423 19.8222 26.1985 19.8428 27.039 19.983L27.076 19.995Z" fill="#5B5B5B"/>
<path d="M28.6181 31.061V29.317C28.6181 28.361 28.6511 27.388 28.6821 26.447C28.6921 26.1424 28.7021 25.8377 28.7121 25.533C28.7201 25.276 28.7331 25.017 28.7471 24.742C28.8603 23.6819 28.8043 22.6106 28.5811 21.568C28.4994 21.1815 28.3244 20.8209 28.0713 20.5176C27.8182 20.2143 27.4947 19.9775 27.1291 19.828L27.0881 19.816C26.4788 19.6757 25.8499 19.6419 25.2291 19.716C24.9751 19.732 24.7341 19.747 24.4951 19.747H23.0891C22.2051 19.747 21.2891 19.753 20.3891 19.753H14.7191L14.6931 19.896C14.6762 19.984 14.6675 20.0734 14.6671 20.163C14.689 20.7901 14.8817 21.3992 15.2245 21.9248C15.5673 22.4503 16.0471 22.8722 16.6121 23.145C17.9138 23.7503 19.3589 23.9796 20.7841 23.807L21.3391 23.782C22.3303 23.7592 23.3194 23.6781 24.3011 23.539C24.357 23.5251 24.4152 23.5231 24.4719 23.5333C24.5286 23.5435 24.5825 23.5655 24.6301 23.598C24.6901 23.6577 24.7377 23.7286 24.7703 23.8066C24.8029 23.8847 24.8198 23.9684 24.8201 24.053C24.8491 24.4996 24.8491 24.9475 24.8201 25.394C24.8111 25.618 24.8021 25.85 24.8001 26.074C24.7891 27.54 24.7801 29.606 24.7801 30.88V31.055L28.6181 31.061ZM26.0181 20.034C26.3467 20.0272 26.6746 20.0669 26.9921 20.152L27.0241 20.161C27.3312 20.2974 27.6019 20.5043 27.8141 20.7649C28.0262 21.0256 28.1739 21.3326 28.2451 21.661C28.4563 22.6674 28.5079 23.7007 28.3981 24.723C28.3841 25 28.3701 25.261 28.3631 25.523C28.3537 25.827 28.3437 26.131 28.3331 26.435C28.3011 27.379 28.2691 28.355 28.2691 29.317V30.711H25.1391C25.1391 29.43 25.1481 27.483 25.1591 26.083C25.1591 25.864 25.1701 25.635 25.1791 25.414C25.2093 24.9522 25.2093 24.4889 25.1791 24.027C25.176 23.8944 25.1457 23.7637 25.09 23.6433C25.0342 23.5229 24.9543 23.4152 24.8551 23.327C24.7698 23.2644 24.6723 23.2205 24.5689 23.1983C24.4655 23.176 24.3585 23.176 24.2551 23.198C23.2866 23.3348 22.3109 23.4146 21.3331 23.437L20.7771 23.462C19.4156 23.6291 18.0346 23.4144 16.7881 22.842C16.2788 22.5989 15.8456 22.2214 15.535 21.7502C15.2245 21.2789 15.0486 20.7319 15.0261 20.168C15.0261 20.148 15.0261 20.128 15.0261 20.108H20.3911C21.2911 20.108 22.2061 20.108 23.0911 20.102H24.4971C24.7471 20.102 25.0031 20.085 25.2521 20.07C25.5011 20.055 25.7621 20.034 26.0161 20.034H26.0181Z" fill="#424243"/>
<path d="M15.6622 19.529H20.1822C20.9381 19.4495 21.7011 19.4684 22.4522 19.585C22.8902 19.706 23.4582 20.085 23.4732 20.585C23.4732 20.585 25.6842 20.549 25.8872 20.577C26.1811 20.6017 26.4659 20.6915 26.7208 20.8399C26.9758 20.9883 27.1945 21.1916 27.3612 21.435C27.7597 22.3514 27.8783 23.3653 27.7022 24.349C27.6162 26.11 27.6832 27.883 27.6832 29.649V31.272H24.2462C24.2462 29.864 24.2552 28.456 24.2662 27.047C24.2712 26.355 24.3422 25.627 24.2812 24.938C24.2442 24.516 24.0482 24.164 23.5702 24.244C22.4263 24.4038 21.2739 24.4956 20.1192 24.519C18.7412 24.6974 17.3412 24.4669 16.0932 23.856C15.556 23.5744 15.1035 23.1548 14.7822 22.6404C14.461 22.1259 14.2825 21.5352 14.2652 20.929C14.2652 20.5582 14.4123 20.2026 14.6742 19.9401C14.9361 19.6776 15.2914 19.5298 15.6622 19.529Z" fill="#6D6E6F"/>
<path d="M24.0712 31.4449H27.8592V29.6449C27.8592 29.1099 27.8532 28.5639 27.8472 28.0369C27.8332 26.8279 27.8192 25.5779 27.8792 24.3559C27.8842 24.2469 27.8912 24.1369 27.8972 24.0259C28.0419 23.1137 27.908 22.179 27.5132 21.3439C27.3322 21.079 27.095 20.8572 26.8184 20.6945C26.5418 20.5319 26.2327 20.4323 25.9132 20.4029C25.7632 20.3829 24.7842 20.3929 23.7492 20.4029H23.6282C23.5367 20.1574 23.3859 19.9382 23.1893 19.765C22.9927 19.5917 22.7563 19.4698 22.5012 19.4099C21.9529 19.2928 21.3895 19.2637 20.8322 19.3239C20.6062 19.3359 20.3922 19.3479 20.1842 19.3479H15.6642C15.2471 19.3485 14.8473 19.5144 14.5525 19.8092C14.2576 20.1041 14.0917 20.5039 14.0912 20.9209C14.1059 21.5593 14.2914 22.182 14.6284 22.7244C14.9653 23.2667 15.4414 23.7089 16.0072 24.0049C17.2845 24.6307 18.717 24.8692 20.1282 24.6909L20.6762 24.6659C21.6547 24.6422 22.6309 24.558 23.5992 24.4139C23.6523 24.4004 23.7077 24.3985 23.7617 24.4081C23.8157 24.4178 23.867 24.4389 23.9122 24.4699C23.9755 24.533 24.0257 24.608 24.06 24.6905C24.0944 24.7731 24.1121 24.8616 24.1122 24.9509C24.141 25.4138 24.141 25.8781 24.1122 26.3409C24.1032 26.5729 24.0942 26.8119 24.0922 27.0409C24.0822 28.3869 24.0722 29.8219 24.0722 31.2669L24.0712 31.4449ZM27.5082 31.0949H24.4212C24.4212 29.7099 24.4312 28.3369 24.4412 27.0469C24.4412 26.8199 24.4522 26.5839 24.4602 26.3549C24.4902 25.8774 24.4902 25.3985 24.4602 24.9209C24.458 24.7836 24.4276 24.6482 24.3709 24.5231C24.3141 24.398 24.2321 24.286 24.1302 24.1939C24.0471 24.1327 23.952 24.09 23.8511 24.0686C23.7502 24.0472 23.6459 24.0477 23.5452 24.0699C22.5908 24.2112 21.6286 24.2937 20.6642 24.3169L20.1142 24.3429C18.7694 24.5148 17.4037 24.2921 16.1832 23.7019C15.6722 23.4367 15.2414 23.0396 14.9354 22.5519C14.6295 22.0641 14.4595 21.5035 14.4432 20.9279C14.4434 20.6044 14.5718 20.294 14.8002 20.0649C15.0287 19.8357 15.3386 19.7063 15.6622 19.7049H20.1822C20.3992 19.7049 20.6272 19.6929 20.8482 19.6809C21.3681 19.6241 21.8938 19.6487 22.4062 19.7539C22.7692 19.8539 23.2862 20.1799 23.2992 20.5909C23.2992 20.7629 23.4642 20.7609 23.5512 20.7599H23.7512C24.2372 20.7529 25.7172 20.7339 25.8622 20.7529C26.1302 20.7739 26.3902 20.8543 26.6233 20.9882C26.8565 21.122 27.0569 21.3061 27.2102 21.5269C27.5672 22.3008 27.6842 23.1639 27.5462 24.0049C27.5392 24.1169 27.5332 24.2289 27.5282 24.3389C27.4682 25.5719 27.4822 26.8269 27.4962 28.0389C27.5022 28.5649 27.5082 29.1089 27.5082 29.6389V31.0949Z" fill="#424243"/>
<path d="M31.023 32.7839H26.886C26.7839 32.7839 26.6859 32.7434 26.6137 32.6712C26.5415 32.599 26.501 32.501 26.501 32.3989V31.6319C26.501 31.5298 26.5415 31.4319 26.6137 31.3597C26.6859 31.2875 26.7839 31.2469 26.886 31.2469H30.344C30.626 31.2469 30.8965 31.3589 31.096 31.5582C31.2955 31.7575 31.4077 32.0279 31.408 32.3099V32.3989C31.408 32.501 31.3674 32.599 31.2952 32.6712C31.223 32.7434 31.1251 32.7839 31.023 32.7839V32.7839Z" fill="#6E6659"/>
<path d="M26.886 32.9599H31.023C31.1714 32.9597 31.3137 32.9006 31.4187 32.7956C31.5237 32.6907 31.5827 32.5484 31.583 32.3999V32.3109C31.5827 32.1479 31.5503 31.9865 31.4877 31.836C31.425 31.6854 31.3333 31.5487 31.2178 31.4337C31.1022 31.3186 30.9652 31.2274 30.8144 31.1654C30.6636 31.1033 30.5021 31.0716 30.339 31.0719H26.881C26.7326 31.0722 26.5903 31.1313 26.4853 31.2363C26.3804 31.3412 26.3213 31.4835 26.321 31.6319V32.3999C26.3211 32.4739 26.3359 32.547 26.3644 32.6153C26.3929 32.6835 26.4346 32.7454 26.4871 32.7974C26.5396 32.8494 26.6019 32.8906 26.6703 32.9185C26.7388 32.9464 26.8121 32.9605 26.886 32.9599ZM30.339 31.4219C30.5747 31.4222 30.8007 31.516 30.9673 31.6826C31.134 31.8493 31.2277 32.0752 31.228 32.3109V32.3999C31.228 32.4556 31.2059 32.5091 31.1665 32.5484C31.1271 32.5878 31.0737 32.6099 31.018 32.6099H26.881C26.8253 32.6099 26.7719 32.5878 26.7325 32.5484C26.6931 32.5091 26.671 32.4556 26.671 32.3999V31.6319C26.671 31.5762 26.6931 31.5228 26.7325 31.4835C26.7719 31.4441 26.8253 31.4219 26.881 31.4219H30.339Z" fill="#444445"/>
<path d="M26.8639 32.955H31.0449C31.1897 32.9457 31.325 32.8797 31.4214 32.7713C31.5178 32.6629 31.5676 32.5208 31.5599 32.376C31.5777 32.0508 31.4663 31.7317 31.25 31.4882C31.0337 31.2447 30.73 31.0966 30.4049 31.076H26.8639C26.7191 31.0852 26.5839 31.1512 26.4874 31.2596C26.391 31.368 26.3413 31.5101 26.3489 31.655V32.376C26.3413 32.5208 26.391 32.6629 26.4874 32.7713C26.5839 32.8797 26.7191 32.9457 26.8639 32.955ZM30.4049 31.417C30.6443 31.4324 30.868 31.5417 31.0273 31.7211C31.1867 31.9004 31.2688 32.1354 31.2559 32.375C31.2592 32.4344 31.2389 32.4928 31.1994 32.5374C31.1599 32.5819 31.1044 32.6091 31.0449 32.613H26.8639C26.8045 32.6091 26.749 32.5819 26.7095 32.5374C26.67 32.4928 26.6496 32.4344 26.6529 32.375V31.654C26.6496 31.5945 26.67 31.5361 26.7095 31.4916C26.749 31.447 26.8045 31.4198 26.8639 31.416L30.4049 31.417Z" fill="#484849"/>
<path d="M24.6911 33.2439H29.5911C29.7041 33.2439 29.8124 33.199 29.8923 33.1191C29.9722 33.0392 30.0171 32.9309 30.0171 32.8179C30.0171 32.506 29.8932 32.2069 29.6726 31.9863C29.4521 31.7658 29.153 31.6419 28.8411 31.6419H24.6881C24.5751 31.6419 24.4668 31.6868 24.3869 31.7667C24.307 31.8466 24.2621 31.9549 24.2621 32.0679V32.8179C24.2621 32.8741 24.2732 32.9297 24.2948 32.9816C24.3164 33.0335 24.348 33.0806 24.3879 33.1202C24.4278 33.1598 24.4751 33.1911 24.5271 33.2123C24.5792 33.2336 24.6349 33.2443 24.6911 33.2439Z" fill="#6E6659"/>
<path d="M24.6912 33.4189H29.5912C29.7503 33.4189 29.9029 33.3557 30.0154 33.2432C30.1279 33.1307 30.1912 32.9781 30.1912 32.8189C30.1906 32.4608 30.0481 32.1175 29.7949 31.8642C29.5416 31.611 29.1983 31.4685 28.8402 31.4679H24.6872C24.528 31.4679 24.3754 31.5311 24.2629 31.6437C24.1504 31.7562 24.0872 31.9088 24.0872 32.0679V32.8179C24.087 32.8971 24.1026 32.9756 24.1329 33.0488C24.1633 33.1219 24.2078 33.1884 24.264 33.2443C24.3201 33.3001 24.3868 33.3443 24.4601 33.3743C24.5334 33.4043 24.6119 33.4195 24.6912 33.4189ZM28.8442 31.8189C29.1094 31.8189 29.3637 31.9243 29.5513 32.1118C29.7388 32.2994 29.8442 32.5537 29.8442 32.8189C29.8439 32.8853 29.8173 32.9489 29.7703 32.9958C29.7233 33.0426 29.6596 33.0689 29.5932 33.0689H24.6932C24.6268 33.0689 24.5631 33.0426 24.516 32.9958C24.469 32.9489 24.4424 32.8853 24.4422 32.8189V32.0689C24.4424 32.0025 24.469 31.9389 24.516 31.8921C24.5631 31.8452 24.6268 31.8189 24.6932 31.8189H28.8442Z" fill="#444445"/>
<path d="M24.6912 33.422H29.5912C29.7503 33.422 29.9029 33.3587 30.0154 33.2462C30.1279 33.1337 30.1912 32.9811 30.1912 32.822C30.1906 32.463 30.0478 32.1189 29.794 31.8651C29.5402 31.6113 29.1961 31.4685 28.8372 31.468H24.6842C24.525 31.468 24.3724 31.5312 24.2599 31.6437C24.1474 31.7562 24.0842 31.9088 24.0842 32.068V32.818C24.0836 32.8977 24.099 32.9767 24.1293 33.0504C24.1597 33.1241 24.2044 33.1911 24.2609 33.2473C24.3175 33.3035 24.3846 33.3479 24.4585 33.3779C24.5323 33.4079 24.6114 33.4229 24.6912 33.422ZM28.8442 31.822C29.1094 31.822 29.3637 31.9273 29.5513 32.1149C29.7388 32.3024 29.8442 32.5567 29.8442 32.822C29.8442 32.8545 29.8378 32.8868 29.8253 32.9169C29.8128 32.9469 29.7946 32.9743 29.7715 32.9973C29.7485 33.0203 29.7212 33.0386 29.6911 33.0511C29.661 33.0635 29.6287 33.07 29.5962 33.07H24.6962C24.6636 33.07 24.6313 33.0635 24.6013 33.0511C24.5712 33.0386 24.5438 33.0203 24.5208 32.9973C24.4978 32.9743 24.4795 32.9469 24.467 32.9169C24.4546 32.8868 24.4482 32.8545 24.4482 32.822V32.072C24.4482 32.0394 24.4546 32.0071 24.467 31.977C24.4795 31.947 24.4978 31.9196 24.5208 31.8966C24.5438 31.8736 24.5712 31.8553 24.6013 31.8428C24.6313 31.8304 24.6636 31.824 24.6962 31.824L28.8442 31.822Z" fill="#484849"/>
<path d="M21.2679 20.0549H16.2959C15.6254 20.0549 14.9824 19.7886 14.5083 19.3145C14.0342 18.8404 13.7679 18.1974 13.7679 17.5269V14.4349C13.7679 13.45 13.9619 12.4747 14.3388 11.5648C14.7157 10.6549 15.2682 9.82807 15.9646 9.13163C17.3711 7.72511 19.2788 6.93493 21.2679 6.93493C21.937 6.93493 22.5788 7.20017 23.0526 7.67253C23.5265 8.1449 23.7938 8.78585 23.7959 9.45493V17.5269C23.7959 18.1974 23.5296 18.8404 23.0555 19.3145C22.5814 19.7886 21.9384 20.0549 21.2679 20.0549V20.0549Z" fill="#84BD93"/>
<path d="M16.292 20.23H21.268C21.9836 20.2284 22.6695 19.9434 23.1755 19.4374C23.6815 18.9314 23.9664 18.2456 23.968 17.53V9.46198C23.9664 8.74639 23.6815 8.06055 23.1755 7.55454C22.6695 7.04854 21.9836 6.76357 21.268 6.76199C19.2332 6.76436 17.2823 7.57333 15.8429 9.01161C14.4035 10.4499 13.593 12.4002 13.589 14.435V17.528C13.5901 18.2444 13.8752 18.9312 14.3819 19.4378C14.8887 19.9443 15.5756 20.2292 16.292 20.23ZM21.268 7.10498C21.8917 7.10551 22.4898 7.35345 22.9309 7.79439C23.372 8.23533 23.6202 8.83327 23.621 9.45699V17.525C23.6202 18.1487 23.372 18.7466 22.9309 19.1876C22.4898 19.6285 21.8917 19.8765 21.268 19.877H16.292C15.6688 19.8765 15.0712 19.6289 14.6302 19.1886C14.1892 18.7483 13.9406 18.1512 13.939 17.528V14.435C13.9409 12.4917 14.7136 10.6285 16.0876 9.25429C17.4616 7.88008 19.3247 7.1071 21.268 7.10498Z" fill="#444445"/>
<path d="M36.8172 30.247C38.206 30.247 39.5379 30.7986 40.52 31.7805C41.5021 32.7624 42.0539 34.0942 42.0542 35.483C42.0539 36.8718 41.5021 38.2036 40.52 39.1855C39.5379 40.1674 38.206 40.719 36.8172 40.719C35.4284 40.719 34.0965 40.1674 33.1144 39.1855C32.1323 38.2036 31.5805 36.8718 31.5802 35.483C31.5805 34.0942 32.1323 32.7624 33.1144 31.7805C34.0965 30.7986 35.4284 30.247 36.8172 30.247ZM36.8172 38.382C37.5863 38.382 38.324 38.0765 38.8678 37.5326C39.4117 36.9888 39.7172 36.2511 39.7172 35.482C39.7172 34.7129 39.4117 33.9752 38.8678 33.4314C38.324 32.8875 37.5863 32.582 36.8172 32.582C36.0481 32.582 35.3104 32.8875 34.7666 33.4314C34.2227 33.9752 33.9172 34.7129 33.9172 35.482C33.9172 36.2511 34.2227 36.9888 34.7666 37.5326C35.3104 38.0765 36.0481 38.382 36.8172 38.382Z" fill="#6D6D6D"/>
<path d="M36.8171 41C38.2807 40.9997 39.6843 40.4186 40.7197 39.3841C41.7551 38.3497 42.3375 36.9466 42.3391 35.483C42.3375 34.0203 41.7558 32.6179 40.7215 31.5836C39.6872 30.5493 38.2848 29.9676 36.8221 29.966C35.3592 29.9673 33.9566 30.549 32.9221 31.5833C31.8876 32.6176 31.3057 34.0201 31.3041 35.483C31.3057 36.945 31.8869 38.3468 32.9203 39.3809C33.9538 40.4151 35.3551 40.9974 36.8171 41ZM36.8171 30.527C38.1312 30.5283 39.3911 31.0509 40.3204 31.98C41.2497 32.9091 41.7725 34.1689 41.7741 35.483C41.7725 36.7971 41.2497 38.0569 40.3204 38.986C39.3911 39.9151 38.1312 40.4377 36.8171 40.439C35.503 40.4377 34.2431 39.9151 33.3138 38.986C32.3845 38.0569 31.8617 36.7971 31.8601 35.483C31.8617 34.1689 32.3845 32.9091 33.3138 31.98C34.2431 31.0509 35.503 30.5283 36.8171 30.527ZM36.8171 38.662C37.6599 38.6609 38.4679 38.3257 39.0638 37.7297C39.6598 37.1338 39.9951 36.3258 39.9961 35.483C39.9951 34.6402 39.6598 33.8322 39.0638 33.2363C38.4679 32.6403 37.6599 32.3051 36.8171 32.304C35.9741 32.3048 35.1659 32.6399 34.5697 33.2359C33.9736 33.8319 33.6382 34.64 33.6371 35.483C33.6382 36.326 33.9736 37.1341 34.5697 37.7301C35.1659 38.326 35.9741 38.6612 36.8171 38.662ZM36.8171 32.862C37.5115 32.8628 38.1772 33.139 38.6681 33.63C39.1591 34.1209 39.4353 34.7866 39.4361 35.481C39.4351 36.1752 39.1588 36.8406 38.6678 37.3314C38.1768 37.8222 37.5113 38.0982 36.8171 38.099C36.1229 38.0982 35.4574 37.8222 34.9664 37.3314C34.4755 36.8406 34.1992 36.1752 34.1981 35.481C34.1994 34.787 34.4759 34.1218 34.9668 33.6313C35.4577 33.1407 36.1231 32.8648 36.8171 32.864V32.862Z" fill="#444445"/>
<path d="M32.1001 16.738H33.7811C34.3819 16.738 34.958 16.4994 35.3827 16.0746C35.8075 15.6499 36.0461 15.0738 36.0461 14.473C36.0465 14.1753 35.9882 13.8805 35.8746 13.6053C35.7609 13.3302 35.5942 13.0801 35.3838 12.8695C35.1734 12.6589 34.9236 12.4917 34.6486 12.3777C34.3736 12.2637 34.0788 12.205 33.7811 12.205H32.1001C31.4996 12.2061 30.9241 12.4456 30.5001 12.8709C30.0761 13.2962 29.8383 13.8725 29.8391 14.473C29.8391 15.0731 30.0772 15.6486 30.5011 16.0732C30.925 16.4979 31.5001 16.737 32.1001 16.738Z" fill="#EF8829"/>
<path d="M32.1002 16.912H33.7812C34.4281 16.9112 35.0482 16.6539 35.5057 16.1965C35.9631 15.739 36.2204 15.1189 36.2212 14.472C36.2204 13.8251 35.9631 13.2049 35.5057 12.7475C35.0482 12.2901 34.4281 12.0328 33.7812 12.032H32.1002C31.4533 12.0328 30.8331 12.2901 30.3757 12.7475C29.9183 13.2049 29.661 13.8251 29.6602 14.472C29.661 15.1189 29.9183 15.739 30.3757 16.1965C30.8331 16.6539 31.4533 16.9112 32.1002 16.912ZM33.7812 12.382C34.3353 12.3825 34.8666 12.6029 35.2585 12.9947C35.6503 13.3866 35.8707 13.9179 35.8712 14.472C35.8707 15.0261 35.6503 15.5574 35.2585 15.9493C34.8666 16.3411 34.3353 16.5615 33.7812 16.562H32.1002C31.546 16.5615 31.0148 16.3411 30.6229 15.9493C30.2311 15.5574 30.0107 15.0261 30.0102 14.472C30.0107 13.9179 30.2311 13.3866 30.6229 12.9947C31.0148 12.6029 31.546 12.3825 32.1002 12.382H33.7812Z" fill="#464647"/>
<path d="M36.6201 27.715H31.5311L31.4821 26.98H36.4651L36.6201 27.715Z" fill="white"/>
<path d="M1.17519 23.6699H12.3672V12.4799H1.17519V23.6699Z" fill="#EF8829"/>
<path d="M1.00007 23.845H12.5391V12.305H0.997063L1.00007 23.845ZM12.1921 23.495H1.35107V12.655H12.1921V23.495Z" fill="#464647"/>
<path d="M1.46705 21.403H12.123V20.454H1.46705V21.403Z" fill="white"/>
<path d="M18.5391 8.08702C18.5391 9.31702 20.0541 10.31 21.9141 10.306H21.9791C23.8391 10.305 25.3391 9.30502 25.3391 8.07202L25.3241 3.57202C25.3241 2.34202 23.8091 1.34902 21.9491 1.35301H21.8841C20.0241 1.35301 18.5191 2.35302 18.5231 3.58702L18.5391 8.08702Z" fill="#EDC3B4"/>
<path d="M22.6443 1.35805V10.3051C20.3783 10.2991 18.5443 9.30505 18.5383 8.08605L18.5203 3.58605C18.5173 2.36205 20.3633 1.36205 22.6443 1.35805Z" fill="#F3D3C5"/>
<path d="M21.9002 10.358H21.9772C22.8312 10.3729 23.6713 10.1406 24.3962 9.68896C24.6855 9.52511 24.9288 9.29095 25.1036 9.00813C25.2784 8.72532 25.379 8.40299 25.3962 8.07097L25.3812 3.57097C25.3812 2.31697 23.8412 1.29996 21.9542 1.29996H21.8772C21.0232 1.28488 20.1831 1.51723 19.4582 1.96896C19.168 2.1322 18.9237 2.3661 18.748 2.64896C18.5723 2.93181 18.4709 3.25446 18.4532 3.58697L18.4682 8.08697C18.4772 9.34097 20.0132 10.358 21.9002 10.358ZM21.9592 1.40996C23.7762 1.40996 25.2592 2.37996 25.2592 3.57596L25.2742 8.07596C25.2566 8.39175 25.1595 8.69798 24.9921 8.9663C24.8246 9.23462 24.5922 9.45635 24.3162 9.61097C23.6149 10.0475 22.8022 10.2719 21.9762 10.257H21.9002C20.0832 10.257 18.6002 9.28696 18.6002 8.09096L18.5862 3.59096C18.6039 3.27517 18.701 2.96895 18.8684 2.70063C19.0359 2.43231 19.2683 2.21059 19.5442 2.05597C20.2456 1.61942 21.0583 1.39506 21.8842 1.40996H21.9592Z" fill="#484849"/>
<path d="M21.9002 10.429H21.9772C22.8451 10.4438 23.6987 10.2073 24.4352 9.74802C24.7351 9.57859 24.9873 9.33611 25.1685 9.0431C25.3496 8.75009 25.4537 8.41606 25.4712 8.07203L25.4572 3.57203C25.4572 2.28103 23.8842 1.23103 21.9572 1.23103H21.8802C21.0123 1.21622 20.1587 1.45272 19.4222 1.91203C19.1223 2.08146 18.87 2.32395 18.6889 2.61696C18.5078 2.90997 18.4037 3.244 18.3862 3.58803L18.4002 8.08803C18.4072 9.37803 19.9762 10.429 21.9002 10.429ZM21.9592 1.48103C23.7362 1.48103 25.1852 2.42202 25.1892 3.58103L25.2042 8.08103C25.1864 8.3852 25.0922 8.67997 24.9304 8.93813C24.7685 9.19628 24.5442 9.40948 24.2782 9.55803C23.5886 9.98656 22.7899 10.2067 21.9782 10.192H21.9022C20.1252 10.192 18.6762 9.25203 18.6722 8.09203V8.02203L18.6582 3.59703C18.676 3.29286 18.7702 2.99808 18.932 2.73993C19.0939 2.48178 19.3182 2.26857 19.5842 2.12003C20.2737 1.69128 21.0724 1.47111 21.8842 1.48603L21.9592 1.48103Z" fill="#484849"/>
<path d="M23.8641 5.32903C23.8641 5.40859 23.8957 5.4849 23.952 5.54116C24.0082 5.59742 24.0845 5.62903 24.1641 5.62903C24.2437 5.62903 24.32 5.59742 24.3762 5.54116C24.4325 5.4849 24.4641 5.40859 24.4641 5.32903C24.4641 5.24946 24.4325 5.17316 24.3762 5.1169C24.32 5.06064 24.2437 5.02903 24.1641 5.02903C24.0845 5.02903 24.0082 5.06064 23.952 5.1169C23.8957 5.17316 23.8641 5.24946 23.8641 5.32903Z" fill="#484849"/>
<path d="M21.3741 5.32903C21.3741 5.40859 21.4057 5.4849 21.462 5.54116C21.5183 5.59742 21.5946 5.62903 21.6741 5.62903C21.7537 5.62903 21.83 5.59742 21.8863 5.54116C21.9425 5.4849 21.9741 5.40859 21.9741 5.32903C21.9741 5.24946 21.9425 5.17316 21.8863 5.1169C21.83 5.06064 21.7537 5.02903 21.6741 5.02903C21.5946 5.02903 21.5183 5.06064 21.462 5.1169C21.4057 5.17316 21.3741 5.24946 21.3741 5.32903Z" fill="#484849"/>
<path d="M21.2034 6.09298C21.5254 6.09298 21.7864 6.26498 21.7864 6.47698C21.7864 6.68898 21.5254 6.85999 21.2034 6.85999C20.8814 6.85999 20.6204 6.68798 20.6204 6.47698C20.6204 6.26598 20.8804 6.09298 21.2034 6.09298Z" fill="#C27E77"/>
<path d="M24.2913 6.09399C23.9693 6.09399 23.7083 6.26546 23.7083 6.47699C23.7083 6.68851 23.9693 6.85999 24.2913 6.85999C24.6132 6.85999 24.8743 6.68851 24.8743 6.47699C24.8743 6.26546 24.6132 6.09399 24.2913 6.09399Z" fill="#C27E77"/>
<path d="M18.7803 4.62096C18.7803 4.62096 17.7653 4.64696 17.7633 5.40796C17.7613 6.16896 18.7753 6.15096 18.7753 6.15096L18.7803 4.62096Z" fill="#F3D3C5"/>
<path d="M18.7123 4.47198C18.7513 4.47657 18.7871 4.49589 18.8123 4.52598C18.8257 4.54298 18.8344 4.56318 18.8375 4.58458C18.8407 4.60598 18.8382 4.62784 18.8303 4.64797C18.8206 4.6678 18.8066 4.6852 18.7893 4.69888C18.772 4.71255 18.7518 4.72216 18.7303 4.72698C18.6195 4.739 18.5101 4.76109 18.4033 4.79298C18.2876 4.84212 18.1887 4.9239 18.1188 5.02832C18.0488 5.13275 18.0108 5.25529 18.0093 5.38098C18.0077 5.46189 18.0223 5.54231 18.0521 5.61753C18.082 5.69274 18.1266 5.76123 18.1833 5.81898C18.2511 5.88281 18.334 5.92824 18.4243 5.95098C18.5023 5.97298 18.6413 5.95598 18.7053 6.00098C18.7693 6.04598 18.7563 6.10798 18.7533 6.16798C18.7535 6.17959 18.7514 6.19113 18.7473 6.20198C18.7013 6.30198 18.4573 6.22298 18.3873 6.20198C18.2424 6.16384 18.1085 6.09226 17.9963 5.99298C17.9132 5.91425 17.848 5.81861 17.805 5.71251C17.7621 5.60642 17.7424 5.49233 17.7473 5.37798C17.7444 5.23359 17.7785 5.09086 17.8464 4.96341C17.9143 4.83596 18.0138 4.72805 18.1353 4.64997C18.3075 4.53846 18.5072 4.47685 18.7123 4.47198Z" fill="#484849"/>
<path d="M18.6733 4.93195C18.6733 4.93195 18.1493 4.87995 18.1423 5.38095C18.1353 5.84795 18.6703 5.83295 18.6703 5.83295L18.6733 4.93195Z" fill="#EDC3B4"/>
<path d="M22.639 5.77308C22.639 5.94308 22.639 5.99708 22.639 6.16708C22.6904 6.17684 22.7397 6.19509 22.785 6.22108C22.8348 6.24821 22.8776 6.28654 22.9101 6.33305C22.9426 6.37956 22.9638 6.43297 22.972 6.48908C22.9763 6.54524 22.9647 6.60147 22.9385 6.65134C22.9124 6.70121 22.8727 6.74271 22.824 6.77108C22.7716 6.8 22.712 6.81304 22.6523 6.8086C22.5926 6.80416 22.5356 6.78243 22.488 6.74608L22.639 5.77308Z" fill="#F3D3C5"/>
<path d="M22.6701 6.88106C22.7352 6.88125 22.7992 6.86473 22.8561 6.83306C22.9169 6.79833 22.9664 6.7469 22.9989 6.68486C23.0313 6.62282 23.0453 6.55279 23.0391 6.48305C23.03 6.4157 23.0052 6.35144 22.9666 6.29549C22.9281 6.23954 22.8768 6.19348 22.8171 6.16106C22.7821 6.1405 22.7449 6.12406 22.7061 6.11206V5.77306H22.5661V6.22506L22.6231 6.23606C22.6667 6.24428 22.7087 6.25983 22.7471 6.28206C22.7873 6.30386 22.822 6.33457 22.8485 6.37183C22.875 6.4091 22.8927 6.45193 22.9001 6.49705C22.9037 6.5398 22.895 6.58269 22.875 6.62063C22.855 6.65856 22.8245 6.68996 22.7871 6.71106C22.7473 6.73298 22.702 6.74302 22.6566 6.74001C22.6113 6.73699 22.5677 6.72105 22.5311 6.69406L22.4391 6.80506C22.5048 6.85672 22.5866 6.88362 22.6701 6.88106Z" fill="#444445"/>
<path d="M16.2532 11.655C16.4429 11.206 16.7737 10.8308 17.1955 10.5864C17.6173 10.3419 18.1072 10.2414 18.5912 10.3C19.0267 10.3875 19.4383 10.5676 19.7982 10.828L22.3982 12.72L20.7982 14.92L16.2532 11.655Z" fill="#84BD93"/>
<path d="M18.633 13.205L20.793 14.757L22.247 12.757L19.724 10.924C19.3741 10.6704 18.9737 10.4951 18.55 10.41C18.1642 10.3544 17.7706 10.4132 17.4179 10.5793C17.0652 10.7453 16.769 11.0112 16.566 11.344C16.5074 11.4247 16.4514 11.5097 16.398 11.599L16.598 11.744C16.6202 11.7645 16.6335 11.7928 16.635 11.8229C16.6365 11.853 16.6261 11.8825 16.606 11.905C16.591 11.931 16.5663 11.9501 16.5373 11.9581C16.5083 11.9662 16.4774 11.9625 16.451 11.948L16.178 11.748C16.1582 11.7305 16.1453 11.7063 16.1418 11.6801C16.1383 11.6538 16.1444 11.6271 16.159 11.605C16.3606 11.1311 16.7106 10.7355 17.1564 10.4778C17.6023 10.22 18.1198 10.1141 18.631 10.176C19.0782 10.2655 19.5008 10.4504 19.87 10.718L22.47 12.61C22.4811 12.6185 22.4901 12.6294 22.4963 12.6419C22.5026 12.6544 22.5059 12.6681 22.506 12.682C22.507 12.714 22.4971 12.7454 22.478 12.771L20.878 14.971C20.863 14.997 20.8383 15.0161 20.8093 15.0241C20.7803 15.0322 20.7494 15.0285 20.723 15.014L18.481 13.404C18.4589 13.3836 18.4456 13.3553 18.4441 13.3252C18.4426 13.295 18.453 13.2656 18.473 13.243C18.4809 13.2299 18.4914 13.2185 18.5037 13.2094C18.5161 13.2004 18.5301 13.1939 18.545 13.1904C18.5599 13.1868 18.5754 13.1863 18.5905 13.1888C18.6056 13.1913 18.6201 13.1968 18.633 13.205Z" fill="#484849"/>
<path d="M20.7781 15.0811C20.8055 15.0802 20.8324 15.073 20.8565 15.06C20.8806 15.047 20.9014 15.0285 20.9171 15.0061L22.5171 12.8061C22.5418 12.7725 22.5545 12.7317 22.5531 12.6901C22.5522 12.6705 22.547 12.6514 22.5378 12.6341C22.5286 12.6169 22.5158 12.6018 22.5001 12.5901L19.9001 10.6981C19.5261 10.4268 19.0981 10.2392 18.6451 10.1481C18.1249 10.0839 17.598 10.1907 17.1438 10.4522C16.6896 10.7138 16.3327 11.1159 16.1271 11.5981C16.1066 11.6293 16.0984 11.6671 16.1042 11.704C16.1099 11.741 16.1291 11.7745 16.1581 11.7981L16.4311 11.9981C16.4664 12.0189 16.5084 12.0251 16.5482 12.0154C16.588 12.0057 16.6224 11.9808 16.6441 11.9461C16.6584 11.9273 16.6689 11.9059 16.6749 11.8831C16.6809 11.8602 16.6823 11.8364 16.6791 11.8131C16.6767 11.7958 16.6708 11.7793 16.6619 11.7643C16.6529 11.7494 16.6411 11.7364 16.6271 11.7261L16.4571 11.6041C16.5031 11.5281 16.5571 11.4541 16.6031 11.3851C16.8022 11.0598 17.0919 10.7997 17.4367 10.6368C17.7816 10.4739 18.1664 10.4153 18.5441 10.4681C18.9621 10.5519 19.357 10.7248 19.7021 10.9751L22.1891 12.7721L20.7891 14.7041L18.6621 13.1761C18.6268 13.1552 18.5848 13.149 18.545 13.1587C18.5052 13.1684 18.4708 13.1933 18.4491 13.2281C18.4203 13.266 18.4077 13.3138 18.4141 13.3611C18.4166 13.3781 18.4225 13.3945 18.4315 13.4093C18.4404 13.4241 18.4522 13.4369 18.4661 13.4471L20.7081 15.0571C20.7286 15.0718 20.7529 15.0801 20.7781 15.0811ZM18.2661 10.1891C18.3867 10.1889 18.507 10.201 18.6251 10.2251C19.0665 10.3134 19.4837 10.4959 19.8481 10.7601L22.4481 12.6521C22.4541 12.6569 22.4589 12.663 22.4622 12.6699C22.4655 12.6768 22.4672 12.6844 22.4671 12.6921C22.4676 12.7144 22.4605 12.7362 22.4471 12.7541L20.8471 14.9541C20.8211 14.9901 20.7771 15.0061 20.7471 14.9871L18.5051 13.3771C18.5001 13.3732 18.496 13.3684 18.4929 13.3629C18.4898 13.3574 18.4878 13.3513 18.4871 13.3451C18.4845 13.3202 18.4913 13.2952 18.5061 13.2751C18.5321 13.2391 18.5771 13.2231 18.6061 13.2421L20.8001 14.8181L22.3001 12.7511L19.7441 10.8931C19.3892 10.6358 18.9829 10.4581 18.5531 10.3721C18.1596 10.3155 17.7581 10.3753 17.3981 10.5441C17.0381 10.7129 16.7353 10.9833 16.5271 11.3221C16.4681 11.4041 16.4111 11.4911 16.3571 11.5801L16.3371 11.6131L16.5701 11.7801C16.5751 11.7839 16.5793 11.7887 16.5824 11.7942C16.5855 11.7997 16.5874 11.8058 16.5881 11.8121C16.5908 11.8369 16.584 11.8619 16.5691 11.8821C16.5421 11.9181 16.4981 11.9341 16.4691 11.9151L16.1961 11.7151C16.1848 11.7034 16.1779 11.6881 16.1766 11.6718C16.1753 11.6556 16.1797 11.6394 16.1891 11.6261C16.3745 11.2222 16.6652 10.8757 17.0306 10.6228C17.3961 10.37 17.8228 10.2202 18.2661 10.1891Z" fill="#484849"/>
<path d="M22.4842 12.7789L25.4262 14.4789C25.7459 14.6634 26.1164 14.7405 26.4832 14.6989L32.6332 13.9989L32.9412 15.8989L26.0412 16.6989C25.7703 16.7292 25.4962 16.6949 25.2412 16.5989L20.8852 14.9859L22.4842 12.7789Z" fill="#F3D3C5"/>
<path d="M25.8391 16.876C25.9113 16.8761 25.9834 16.8721 26.0551 16.864L33.1421 16.046L32.7791 13.805L26.4631 14.522C26.1332 14.5579 25.8005 14.4879 25.5131 14.322L22.4391 12.549L20.6091 15.065L25.1821 16.758C25.3925 16.8355 25.6149 16.8755 25.8391 16.876ZM32.7391 15.74L26.0161 16.516C25.7737 16.5437 25.5281 16.5143 25.2991 16.43L21.1601 14.897L22.5331 13.005L25.3391 14.626C25.6919 14.8282 26.0999 14.9129 26.5041 14.868L32.4881 14.188L32.7391 15.74Z" fill="#444445"/>
<path d="M34.108 14.791C34.1348 15.2275 33.9873 15.6568 33.6977 15.9845C33.4082 16.3123 33.0004 16.5117 32.564 16.539C32.3482 16.5597 32.1305 16.5376 31.9232 16.4741C31.716 16.4106 31.5232 16.3069 31.3561 16.1689C31.1889 16.0309 31.0506 15.8613 30.949 15.6699C30.8474 15.4784 30.7845 15.2688 30.764 15.053C30.7507 14.8367 30.7802 14.6199 30.8507 14.415C30.9212 14.2101 31.0314 14.0211 31.1749 13.8588C31.3185 13.6965 31.4926 13.564 31.6874 13.469C31.8821 13.374 32.0937 13.3182 32.31 13.305C32.7454 13.2638 33.1794 13.3971 33.5166 13.6758C33.8537 13.9544 34.0664 14.3556 34.108 14.791Z" fill="#F3D3C5"/>
<path d="M32.4261 16.72C32.4761 16.72 32.5261 16.72 32.5781 16.714C33.0608 16.6826 33.5114 16.4611 33.831 16.098C34.1506 15.7348 34.3132 15.2598 34.2831 14.777C34.2645 14.5398 34.198 14.3089 34.0877 14.0982C33.9774 13.8874 33.8254 13.7013 33.6411 13.551C33.2652 13.2406 32.7828 13.0895 32.2971 13.13C31.8143 13.1613 31.3637 13.3829 31.0441 13.746C30.7245 14.1091 30.5619 14.5841 30.5921 15.067C30.6105 15.3043 30.6769 15.5354 30.7872 15.7463C30.8976 15.9572 31.0496 16.1435 31.2341 16.294C31.5695 16.5707 31.9912 16.7214 32.4261 16.72ZM32.4481 13.474C32.8016 13.4726 33.1444 13.595 33.4171 13.82C33.5651 13.9406 33.6872 14.09 33.7758 14.2591C33.8645 14.4282 33.918 14.6136 33.9331 14.804C33.9558 15.1942 33.8228 15.5775 33.5634 15.8699C33.304 16.1624 32.9392 16.34 32.5491 16.364C32.1539 16.3974 31.7613 16.275 31.4551 16.023C31.307 15.9023 31.185 15.7529 31.0963 15.5838C31.0076 15.4147 30.9541 15.2293 30.9391 15.039C30.9164 14.6487 31.0493 14.2654 31.3087 13.973C31.5681 13.6806 31.9329 13.5029 32.3231 13.479C32.3651 13.476 32.4071 13.474 32.4481 13.474Z" fill="#444445"/>
<path d="M32.993 16.057C32.5452 16.0899 32.1027 15.9443 31.7619 15.652C31.4211 15.3597 31.2097 14.9445 31.174 14.497C31.1476 14.1614 31.2213 13.8256 31.386 13.532C31.1834 13.7061 31.0246 13.9255 30.9227 14.1724C30.8207 14.4193 30.7783 14.6867 30.799 14.953C30.8347 15.4005 31.0461 15.8157 31.3869 16.108C31.7277 16.4003 32.1702 16.5459 32.618 16.513C32.8949 16.4912 33.1622 16.4013 33.3961 16.2515C33.63 16.1016 33.8233 15.8964 33.959 15.654C33.6882 15.8878 33.3497 16.029 32.993 16.057Z" fill="#EDC3B4"/>
<path d="M34.2389 14.78C34.1941 14.3089 33.9642 13.8749 33.5998 13.5731C33.2354 13.2712 32.7661 13.1263 32.2949 13.17C31.8226 13.2003 31.3817 13.4168 31.0688 13.7719C30.7559 14.1269 30.5966 14.5916 30.6259 15.064C30.6705 15.5352 30.9003 15.9695 31.2647 16.2716C31.6292 16.5736 32.0986 16.7187 32.5699 16.675C33.0424 16.6446 33.4835 16.4281 33.7965 16.0728C34.1094 15.7175 34.2685 15.2525 34.2389 14.78ZM33.9689 14.801C33.9916 15.2012 33.855 15.5941 33.589 15.8939C33.3229 16.1937 32.949 16.376 32.5489 16.401C32.1493 16.4389 31.7508 16.3168 31.441 16.0615C31.1312 15.8062 30.9352 15.4385 30.8959 15.039C30.873 14.6387 31.0095 14.2457 31.2756 13.9458C31.5417 13.6459 31.9158 13.4637 32.3159 13.439C32.5145 13.4197 32.7149 13.4397 32.9056 13.4979C33.0964 13.5562 33.2738 13.6515 33.4277 13.7783C33.5816 13.9052 33.709 14.0612 33.8026 14.2374C33.8961 14.4135 33.954 14.6064 33.9729 14.805L33.9689 14.801Z" fill="#444445"/>
<path d="M32.427 16.7049C32.4763 16.7049 32.526 16.7029 32.576 16.6989C33.0551 16.6678 33.5023 16.4481 33.8197 16.0878C34.137 15.7275 34.2986 15.2561 34.269 14.777C34.2504 14.542 34.1844 14.3133 34.0751 14.1045C33.9658 13.8957 33.8154 13.7111 33.633 13.5619C33.2597 13.2528 32.7801 13.102 32.297 13.1419C31.8136 13.1777 31.3635 13.4014 31.043 13.765C30.8858 13.9407 30.7658 14.1466 30.6904 14.37C30.6149 14.5934 30.5855 14.8298 30.604 15.0649C30.6464 15.5173 30.8575 15.9371 31.1952 16.241C31.533 16.5448 31.9727 16.7104 32.427 16.7049ZM34.217 14.7809C34.2458 15.2464 34.0887 15.7043 33.7803 16.0541C33.4719 16.4039 33.0374 16.6171 32.572 16.6469C32.1079 16.6898 31.6457 16.547 31.2868 16.2497C30.9278 15.9524 30.7013 15.5249 30.657 15.0609C30.6395 14.8329 30.6683 14.6037 30.7415 14.387C30.8147 14.1703 30.9308 13.9707 31.083 13.7999C31.3954 13.4484 31.8329 13.233 32.302 13.1999C32.7721 13.1604 33.2389 13.3069 33.602 13.6079C33.7791 13.7526 33.9251 13.9317 34.0311 14.1343C34.1372 14.337 34.2011 14.559 34.219 14.7869L34.217 14.7809ZM32.426 16.4339C32.4687 16.4339 32.5117 16.4323 32.555 16.429C32.9625 16.4035 33.3433 16.2175 33.614 15.9118C33.8846 15.6061 34.0231 15.2055 33.999 14.7979C33.9833 14.5983 33.9271 14.404 33.8339 14.2268C33.7408 14.0495 33.6125 13.8931 33.457 13.7669C33.1382 13.5046 32.7294 13.3772 32.318 13.4119C31.9105 13.4374 31.5297 13.6234 31.259 13.9291C30.9884 14.2348 30.8499 14.6354 30.874 15.043C30.8897 15.2426 30.9458 15.4369 31.039 15.6142C31.1322 15.7914 31.2605 15.9479 31.416 16.0739C31.7001 16.3088 32.0574 16.4369 32.426 16.4359V16.4339ZM33.973 14.805H33.947C33.9585 15.0003 33.9314 15.196 33.8673 15.3809C33.8031 15.5657 33.7032 15.7362 33.5732 15.8824C33.4432 16.0287 33.2857 16.1479 33.1096 16.2333C32.9335 16.3186 32.7424 16.3685 32.547 16.3799C32.1495 16.4129 31.7549 16.2895 31.447 16.0359C31.297 15.9143 31.1734 15.7635 31.0834 15.5926C30.9935 15.4218 30.9393 15.2344 30.924 15.042C30.9125 14.8466 30.9396 14.6509 31.0037 14.466C31.0679 14.2812 31.1678 14.1107 31.2978 13.9645C31.4278 13.8182 31.5853 13.699 31.7614 13.6136C31.9375 13.5283 32.1287 13.4784 32.324 13.4669C32.7215 13.4341 33.1161 13.5575 33.424 13.8109C33.5739 13.9326 33.6976 14.0834 33.7875 14.2543C33.8774 14.4251 33.9317 14.6125 33.947 14.805H33.973Z" fill="#444445"/>
<path d="M31.8302 14.955C31.8304 15.1021 31.889 15.2431 31.993 15.3472C32.0971 15.4512 32.2381 15.5097 32.3852 15.51C32.4581 15.51 32.5302 15.4957 32.5976 15.4678C32.6649 15.4399 32.7261 15.399 32.7776 15.3475C32.8292 15.2959 32.8701 15.2347 32.8979 15.1674C32.9258 15.1001 32.9402 15.0279 32.9402 14.955C32.9402 14.8078 32.8817 14.6667 32.7776 14.5626C32.6736 14.4585 32.5324 14.4 32.3852 14.4C32.3123 14.4 32.2401 14.4144 32.1728 14.4423C32.1055 14.4702 32.0443 14.511 31.9927 14.5626C31.9412 14.6141 31.9003 14.6753 31.8724 14.7426C31.8445 14.81 31.8302 14.8821 31.8302 14.955Z" fill="#7F8081"/>
<path d="M32.3852 15.686C32.5791 15.686 32.765 15.609 32.9021 15.4719C33.0392 15.3348 33.1162 15.1489 33.1162 14.955C33.1162 14.7612 33.0392 14.5752 32.9021 14.4381C32.765 14.3011 32.5791 14.224 32.3852 14.224C32.1913 14.224 32.0054 14.3011 31.8683 14.4381C31.7312 14.5752 31.6542 14.7612 31.6542 14.955C31.6542 15.1489 31.7312 15.3348 31.8683 15.4719C32.0054 15.609 32.1913 15.686 32.3852 15.686ZM32.3852 14.575C32.4861 14.575 32.5828 14.615 32.6543 14.6863C32.7257 14.7575 32.7659 14.8542 32.7662 14.955C32.7659 15.0559 32.7257 15.1526 32.6543 15.2238C32.5828 15.295 32.4861 15.335 32.3852 15.335C32.2845 15.3348 32.188 15.2946 32.1168 15.2234C32.0456 15.1522 32.0055 15.0557 32.0052 14.955C32.0055 14.8543 32.0456 14.7578 32.1168 14.6866C32.188 14.6154 32.2845 14.5753 32.3852 14.575Z" fill="#444445"/>
<path d="M22.3862 8.16994C22.3862 8.40494 22.5172 8.59595 22.6782 8.59595C22.8392 8.59595 22.9702 8.40494 22.9702 8.16994C22.9702 7.93494 22.8392 7.74394 22.6782 7.74394C22.5172 7.74394 22.3862 7.93494 22.3862 8.16994Z" fill="white"/>
<path d="M24.9891 4.56201C24.5204 4.65476 24.0364 4.63627 23.5761 4.50801L20.2351 3.85001C19.9758 3.76937 19.6971 3.7764 19.4421 3.87001C19.1421 4.02001 18.9761 4.40701 18.6421 4.45201C18.529 4.2757 18.4585 4.0754 18.4365 3.86706C18.4144 3.65872 18.4414 3.44811 18.5151 3.25201C18.6689 2.8588 18.9293 2.5163 19.2671 2.26302C20.0611 1.66304 21.0426 1.36494 22.0361 1.42201C23.0235 1.48273 23.9858 1.75777 24.8561 2.22801C25.8391 2.72501 26.4471 4.15001 24.9891 4.56201Z" fill="#DED270"/>
<path d="M24.4882 4.76604C24.6702 4.76763 24.8516 4.74408 25.0272 4.69604C25.8062 4.47604 25.9662 3.99603 25.9922 3.73303C25.9851 3.38758 25.8811 3.05108 25.6919 2.76196C25.5026 2.47285 25.2359 2.24278 24.9222 2.09804C24.0342 1.61761 23.052 1.33706 22.0442 1.27604C21.0167 1.21555 20.0014 1.52487 19.1822 2.14803C18.8216 2.41614 18.5442 2.78088 18.3822 3.20004C18.3005 3.41793 18.2711 3.65195 18.2963 3.88328C18.3215 4.11461 18.4006 4.33681 18.5272 4.53204L18.5792 4.60503L18.6632 4.59303C18.8809 4.54215 19.0746 4.41829 19.2122 4.24204C19.2958 4.14533 19.3944 4.06262 19.5042 3.99703C19.7306 3.919 19.9761 3.9162 20.2042 3.98904L23.5452 4.64703C23.8549 4.7173 24.1707 4.75716 24.4882 4.76604ZM21.8522 1.55404C21.9122 1.55404 21.9725 1.55404 22.0332 1.55404C23.0001 1.61364 23.9424 1.88358 24.7942 2.34503C25.0572 2.46536 25.282 2.6557 25.4441 2.8952C25.6062 3.13471 25.6992 3.41417 25.7132 3.70303C25.6792 4.04303 25.4132 4.29203 24.9512 4.42403C24.5038 4.50898 24.0428 4.48947 23.6042 4.36704L20.2622 3.70904C19.9724 3.62151 19.6618 3.63277 19.3792 3.74104C19.2409 3.8198 19.1169 3.92121 19.0122 4.04104C18.9289 4.14157 18.8271 4.22509 18.7122 4.28703C18.633 4.13374 18.5868 3.96554 18.5767 3.79329C18.5665 3.62104 18.5926 3.44858 18.6532 3.28703C18.7972 2.91808 19.0422 2.59716 19.3602 2.36104C20.076 1.81864 20.9543 1.53423 21.8522 1.55404Z" fill="#444445"/>
<path d="M21.0111 0.175049H23.2831C23.6203 0.174918 23.9542 0.241218 24.2657 0.370163C24.5773 0.499108 24.8604 0.688171 25.0989 0.926552C25.3374 1.16493 25.5265 1.44796 25.6556 1.75947C25.7847 2.07098 25.8511 2.40486 25.8511 2.74205V3.50605H18.4441V2.74205C18.4441 2.06124 18.7145 1.40831 19.1959 0.926906C19.6774 0.4455 20.3303 0.175049 21.0111 0.175049Z" fill="#84BD93"/>
<path d="M18.2691 3.68201H26.0261V2.742C26.0251 2.01493 25.7357 1.31796 25.2215 0.803932C24.7073 0.289908 24.0102 0.000801086 23.2831 7.62939e-06H21.0121C20.2851 0.000801086 19.588 0.289908 19.0738 0.803932C18.5595 1.31796 18.2702 2.01493 18.2691 2.742V3.68201ZM25.6761 3.33201H18.6191V2.743C18.6212 2.10908 18.8741 1.50174 19.3224 1.05358C19.7708 0.605422 20.3782 0.352851 21.0121 0.351006H23.2831C23.9169 0.353115 24.5241 0.605802 24.9722 1.05393C25.4203 1.50206 25.673 2.10925 25.6751 2.743L25.6761 3.33201Z" fill="#444445"/>
<path d="M27.7281 3.70496H18.6611C18.6035 3.70496 18.5483 3.6821 18.5076 3.6414C18.4669 3.60071 18.4441 3.54551 18.4441 3.48796V2.93596H27.7281C27.8299 2.93596 27.9276 2.97642 27.9996 3.04843C28.0716 3.12045 28.1121 3.21812 28.1121 3.31996C28.1122 3.37047 28.1024 3.42051 28.0831 3.46722C28.0639 3.51392 28.0356 3.55637 27.9999 3.59213C27.9643 3.6279 27.9219 3.65628 27.8752 3.67564C27.8286 3.695 27.7786 3.70496 27.7281 3.70496Z" fill="#637C46"/>
<path d="M18.6611 3.875H27.7281C27.8766 3.875 28.019 3.816 28.1241 3.71098C28.2291 3.60596 28.2881 3.46352 28.2881 3.31499C28.2878 3.16665 28.2287 3.02447 28.1237 2.91966C28.0187 2.81486 27.8764 2.756 27.7281 2.756H18.2691V3.48299C18.2691 3.58696 18.3104 3.68667 18.3839 3.76019C18.4574 3.8337 18.5571 3.875 18.6611 3.875ZM27.7281 3.106C27.7834 3.10626 27.8364 3.12837 27.8756 3.1675C27.9147 3.20664 27.9368 3.25965 27.9371 3.31499C27.9371 3.34244 27.9317 3.36962 27.9212 3.39498C27.9107 3.42034 27.8953 3.44338 27.8759 3.46278C27.8565 3.48219 27.8334 3.49758 27.8081 3.50809C27.7827 3.51859 27.7555 3.52399 27.7281 3.52399H18.6611C18.6499 3.52399 18.6393 3.51957 18.6314 3.5117C18.6235 3.50382 18.6191 3.49313 18.6191 3.48199V3.105L27.7281 3.106Z" fill="#444445"/>
<path d="M19.9662 14.123L21.4192 12.2231L21.1192 11.993L19.6672 13.8931L19.9662 14.123Z" fill="white"/>
<path d="M20.277 14.34L21.729 12.44L21.418 12.223L19.966 14.123L20.277 14.34Z" fill="#D0534F"/>
</svg>
