<svg width="20" height="20" viewBox="0 0 20 20" fill="none" xmlns="http://www.w3.org/2000/svg">
<path d="M18.7509 19.7521L18.6679 19.6821L15.5499 16.6491C13.8418 17.9816 11.7362 18.7027 9.56992 18.6971C7.7311 18.6515 5.94659 18.0645 4.43975 17.0096C2.93291 15.9547 1.77068 14.4789 1.09853 12.7667C0.426381 11.0545 0.274178 9.18212 0.660967 7.38387C1.04776 5.58561 1.95636 3.94138 3.27304 2.65698C4.58973 1.37259 6.25599 0.505098 8.0633 0.163071C9.8706 -0.178957 11.7386 0.0196847 13.4336 0.734131C15.1286 1.44858 16.5751 2.64708 17.5923 4.17964C18.6094 5.71221 19.1519 7.51075 19.1519 9.35013C19.1493 11.7 18.2464 13.9595 16.6289 15.6641L19.7099 18.6641C19.8444 18.7947 19.9217 18.9733 19.9247 19.1608C19.9277 19.3483 19.8562 19.5293 19.7259 19.6641L19.7099 19.6801C19.5834 19.8026 19.4179 19.8768 19.2423 19.8898C19.0667 19.9027 18.8921 19.8537 18.7489 19.7511L18.7509 19.7521ZM1.46791 9.35213C1.42834 10.9637 1.87014 12.5505 2.73686 13.9098C3.60359 15.2691 4.85589 16.3391 6.33374 16.9831C7.81159 17.6271 9.44789 17.8159 11.0336 17.5254C12.6193 17.2348 14.0823 16.4781 15.2358 15.352C16.3893 14.2258 17.1809 12.7813 17.5094 11.2031C17.8379 9.6248 17.6884 7.98443 17.08 6.49156C16.4716 4.99869 15.4319 3.7211 14.0938 2.82202C12.7558 1.92295 11.18 1.44322 9.5679 1.44412C7.44608 1.42196 5.40202 2.24189 3.8837 3.72423C2.36538 5.20656 1.49665 7.23038 1.46791 9.35213Z" fill="#3F2D20"/>
</svg>
