<svg width="20" height="19" viewBox="0 0 20 19" fill="none" xmlns="http://www.w3.org/2000/svg">
<path d="M9.99509 19L9.74009 18.84C7.47995 17.414 5.37811 15.7512 3.47009 13.88C2.14394 12.5156 1.1329 10.8772 0.508091 9.08004C-0.0541946 7.35833 -0.00438601 5.49525 0.64909 3.80605C0.971638 2.97854 1.47309 2.23253 2.11757 1.62142C2.76204 1.01031 3.53362 0.549162 4.37709 0.271017C4.66079 0.171428 4.95401 0.101405 5.25209 0.0620327H5.37009C5.64386 0.0213236 5.92031 0.00126949 6.19709 0.00203514H6.30509C6.9183 0.020592 7.52518 0.131808 8.10509 0.331991H8.16309C8.1959 0.346871 8.22599 0.367211 8.25209 0.39205C8.46712 0.457664 8.67487 0.545106 8.87209 0.653036L9.24609 0.822042C9.34341 0.879288 9.43694 0.942756 9.52609 1.01204C9.58209 1.05404 9.62609 1.08902 9.66909 1.11202L9.70909 1.13601C9.79753 1.18587 9.8827 1.24133 9.96408 1.30202C11.0318 0.461087 12.351 0.00327016 13.7101 0.00203514H13.7531C14.3753 -0.00239153 14.9939 0.0959461 15.5841 0.293051C16.4226 0.568733 17.1894 1.02712 17.8293 1.63515C18.4691 2.24318 18.966 2.98567 19.2841 3.80904C19.9269 5.49874 19.9808 7.3559 19.4371 9.08004C18.8201 10.8833 17.8085 12.5262 16.4761 13.889C14.5778 15.7553 12.489 17.4174 10.2441 18.848L9.99809 18.998L9.99509 19ZM14.8241 3.12099C14.6591 3.1236 14.4989 3.17722 14.3655 3.27444C14.2321 3.37165 14.1321 3.50772 14.0791 3.66402C14.0123 3.86588 14.0262 4.08573 14.1179 4.27755C14.2096 4.46937 14.372 4.61827 14.5711 4.69301C14.8843 4.81826 15.1524 5.03514 15.3402 5.31527C15.5281 5.5954 15.6271 5.92573 15.6241 6.26302V6.29305C15.6043 6.51608 15.6713 6.73814 15.8111 6.91305C15.907 7.0377 16.0397 7.12887 16.1905 7.17367C16.3412 7.21846 16.5023 7.21458 16.6506 7.1625C16.799 7.11041 16.9272 7.01281 17.0169 6.88363C17.1065 6.75444 17.1532 6.60024 17.1501 6.44301V6.324C17.1694 5.64791 16.9806 4.98222 16.6091 4.41701C16.2376 3.85181 15.7014 3.41441 15.0731 3.16402C14.993 3.13618 14.9089 3.12199 14.8241 3.12203V3.12099Z" fill="#3F2D20"/>
</svg>
