<svg width="20" height="20" viewBox="0 0 20 20" fill="none" xmlns="http://www.w3.org/2000/svg">
<path d="M14.0791 20C13.7445 19.9988 13.4134 19.9318 13.1047 19.8026C12.796 19.6735 12.5158 19.4848 12.28 19.2474C12.0443 19.0099 11.8576 18.7284 11.7306 18.4188C11.6037 18.1092 11.5389 17.7776 11.5401 17.443V14.031C11.5376 13.6972 11.6009 13.3661 11.7263 13.0568C11.8518 12.7474 12.0369 12.4658 12.2712 12.228C12.5055 11.9902 12.7843 11.8008 13.0918 11.6708C13.3992 11.5407 13.7293 11.4725 14.0631 11.47H17.4571C17.7917 11.4714 18.1228 11.5388 18.4314 11.6682C18.7399 11.7975 19.02 11.9864 19.2556 12.2241C19.4912 12.4617 19.6777 12.7434 19.8044 13.0531C19.9311 13.3628 19.9956 13.6944 19.9941 14.029V17.439C19.9962 18.1149 19.7303 18.7641 19.2545 19.2441C18.7787 19.7242 18.132 19.996 17.4561 20H14.0791ZM2.54511 20C1.86931 19.9958 1.22274 19.7239 0.747027 19.2438C0.271315 18.7638 0.00524788 18.1148 0.00711339 17.439V14.031C0.00540206 13.6963 0.0696371 13.3645 0.19617 13.0547C0.322702 12.7448 0.509052 12.4629 0.744555 12.2251C0.980059 11.9873 1.26011 11.7982 1.56871 11.6686C1.87731 11.5391 2.20842 11.4715 2.54311 11.47H5.92411C6.25801 11.4704 6.58857 11.5366 6.8969 11.6647C7.20522 11.7929 7.48528 11.9805 7.72106 12.217C7.95684 12.4534 8.14372 12.734 8.27104 13.0427C8.39837 13.3513 8.46363 13.6821 8.46311 14.016C8.46311 14.021 8.46311 14.026 8.46311 14.031V17.439C8.46495 17.7737 8.40082 18.1054 8.2744 18.4152C8.14798 18.7251 7.96174 19.007 7.72632 19.2448C7.4909 19.4827 7.21091 19.6718 6.90236 19.8013C6.59382 19.9309 6.26275 19.9984 5.9281 20H2.54511ZM14.0791 8.53003C13.7453 8.5299 13.4149 8.464 13.1066 8.33612C12.7983 8.20824 12.5182 8.02082 12.2823 7.78467C12.0464 7.54852 11.8594 7.26823 11.7319 6.95978C11.6043 6.65132 11.5388 6.32077 11.5391 5.987C11.5391 5.981 11.5391 5.97597 11.5391 5.96997V2.56097C11.5374 2.22628 11.6017 1.89457 11.7282 1.58472C11.8547 1.27486 12.041 0.992952 12.2766 0.755127C12.5121 0.517302 12.7921 0.328175 13.1007 0.198608C13.4093 0.0690423 13.7404 0.00157191 14.0751 0H17.4571C18.1328 0.00423149 18.7793 0.276174 19.2548 0.756226C19.7304 1.23628 19.9962 1.88525 19.9941 2.56097V5.96997C19.9958 6.30445 19.9316 6.63601 19.8052 6.94568C19.6788 7.25535 19.4926 7.53712 19.2573 7.77484C19.022 8.01256 18.7422 8.2016 18.4338 8.33118C18.1255 8.46075 17.7946 8.52833 17.4601 8.53003H14.0791ZM2.54511 8.53003C2.21063 8.52885 1.87966 8.46179 1.57109 8.3327C1.26253 8.20361 0.982413 8.015 0.746737 7.77765C0.511062 7.5403 0.324449 7.25887 0.197543 6.9494C0.070637 6.63993 0.00592941 6.30848 0.00711339 5.974V2.56097C0.00524788 1.88516 0.271315 1.23619 0.747027 0.756165C1.22274 0.276141 1.86931 0.00423119 2.54511 0H5.92311C6.25772 0.00131064 6.5888 0.0684926 6.89743 0.197754C7.20607 0.327015 7.48622 0.515824 7.7219 0.753357C7.95757 0.99089 8.14415 1.27251 8.27098 1.58215C8.39782 1.89179 8.46242 2.22337 8.46111 2.55798V5.96997C8.46361 6.30366 8.40037 6.6346 8.27498 6.94385C8.14959 7.2531 7.96451 7.53462 7.73032 7.77234C7.49613 8.01006 7.21741 8.19935 6.91007 8.32935C6.60273 8.45934 6.2728 8.52754 5.93911 8.53003H2.54511Z" fill="#3F2D20"/>
</svg>
