<svg width="21" height="20" viewBox="0 0 21 20" fill="none" xmlns="http://www.w3.org/2000/svg">
<path d="M10.444 19.89C9.63735 19.895 8.85998 19.5883 8.27396 19.034L7.53097 18.312C7.24147 18.0327 6.85422 17.8777 6.45196 17.88H5.39996C4.59972 17.8915 3.82758 17.5852 3.25283 17.0283C2.67808 16.4713 2.34765 15.7092 2.33396 14.909V13.889C2.33267 13.692 2.29243 13.4971 2.21554 13.3157C2.13865 13.1343 2.02665 12.9699 1.88596 12.832L1.15296 12.132C0.869823 11.8607 0.644322 11.5351 0.489968 11.1746C0.335614 10.8142 0.255581 10.4263 0.254647 10.0341C0.253713 9.642 0.3319 9.25372 0.484536 8.89252C0.637171 8.53132 0.861123 8.20464 1.14297 7.93201L1.88596 7.21003C2.02821 7.07348 2.14125 6.90949 2.21825 6.72797C2.29526 6.54646 2.33463 6.35117 2.33396 6.154V5.14802C2.34791 4.34817 2.67853 3.5865 3.2533 3.0301C3.82808 2.47369 4.60008 2.16796 5.39996 2.18H6.44897C6.85119 2.17914 7.23761 2.02335 7.52796 1.745L8.26096 1.03498C8.84435 0.475537 9.62089 0.16245 10.4292 0.160773C11.2374 0.159097 12.0153 0.468989 12.601 1.02601L13.345 1.745C13.634 2.02532 14.0213 2.18144 14.424 2.18H15.473C16.273 2.16796 17.0452 2.47384 17.62 3.03046C18.1948 3.58708 18.5253 4.34897 18.539 5.14899V6.16602C18.5392 6.36137 18.5792 6.55462 18.6564 6.73408C18.7335 6.91353 18.8464 7.07546 18.988 7.21003L19.721 7.91999C20.0027 8.19116 20.2272 8.51609 20.3812 8.87556C20.5351 9.23502 20.6154 9.62172 20.6172 10.0128C20.6191 10.4038 20.5425 10.7913 20.392 11.1522C20.2415 11.5131 20.0201 11.8402 19.741 12.114L19.721 12.134L19.711 12.144L18.988 12.844C18.8461 12.979 18.7332 13.1414 18.656 13.3214C18.5788 13.5014 18.539 13.6952 18.539 13.891V14.9C18.5255 15.7003 18.1952 16.4625 17.6204 17.0195C17.0456 17.5765 16.2733 17.8827 15.473 17.871H14.424C14.0217 17.8686 13.6345 18.0237 13.345 18.303L12.611 19.013C12.0314 19.5779 11.2533 19.8929 10.444 19.89ZM13.062 11.701C12.8923 11.7053 12.7276 11.7595 12.5885 11.8569C12.4494 11.9542 12.3421 12.0904 12.28 12.2484C12.2178 12.4064 12.2036 12.5792 12.239 12.7452C12.2745 12.9112 12.3581 13.0631 12.4793 13.1819C12.6006 13.3007 12.7542 13.3812 12.9209 13.4132C13.0876 13.4453 13.2601 13.4274 13.4167 13.3621C13.5734 13.2967 13.7073 13.1866 13.8018 13.0455C13.8963 12.9045 13.9471 12.7387 13.948 12.569V12.559C13.9425 12.3285 13.8466 12.1094 13.6811 11.9489C13.5155 11.7884 13.2935 11.6994 13.063 11.701H13.062ZM13.057 6.62598C12.8233 6.62509 12.5984 6.71513 12.43 6.87702L7.19497 11.948C7.07409 12.07 6.99209 12.225 6.95937 12.3936C6.92666 12.5622 6.94468 12.7367 7.01116 12.895C7.07764 13.0534 7.18959 13.1885 7.33285 13.2831C7.47611 13.3778 7.64423 13.4279 7.81596 13.427C7.93305 13.4291 8.04934 13.4073 8.1578 13.3632C8.26626 13.319 8.36463 13.2533 8.44697 13.17L13.683 8.09998C13.7655 8.02117 13.8313 7.92647 13.8762 7.82154C13.9211 7.71661 13.9442 7.60364 13.9442 7.48951C13.9442 7.37537 13.9211 7.26241 13.8762 7.15748C13.8313 7.05254 13.7655 6.95784 13.683 6.87903C13.5139 6.71578 13.288 6.62466 13.053 6.62501L13.057 6.62598ZM7.82696 6.62598C7.65725 6.63031 7.49258 6.68458 7.35351 6.78193C7.21443 6.87928 7.10711 7.01543 7.04496 7.17341C6.98281 7.33138 6.96858 7.50415 7.00404 7.67017C7.03949 7.83619 7.12307 7.98808 7.24433 8.10688C7.3656 8.22568 7.51918 8.30616 7.68589 8.3382C7.8526 8.37025 8.02506 8.35244 8.18173 8.28706C8.33839 8.22167 8.47233 8.11163 8.56681 7.97059C8.66129 7.82954 8.71212 7.66379 8.71296 7.49403V7.48298C8.7072 7.25256 8.61105 7.03369 8.44529 6.87354C8.27953 6.71339 8.05744 6.62485 7.82696 6.62702V6.62598Z" fill="#3F2D20"/>
</svg>
