<svg width="19" height="20" viewBox="0 0 19 20" fill="none" xmlns="http://www.w3.org/2000/svg">
<path d="M6.644 18.746V15.714C6.64664 15.3411 6.79691 14.9844 7.06192 14.722C7.32692 14.4597 7.68508 14.313 8.058 14.314H10.932C11.1175 14.3123 11.3014 14.3472 11.4734 14.4166C11.6454 14.4861 11.802 14.5887 11.9343 14.7188C12.0665 14.8488 12.1718 15.0036 12.2442 15.1744C12.3166 15.3452 12.3546 15.5285 12.356 15.714V18.737C12.3584 19.0606 12.4888 19.37 12.7187 19.5977C12.9487 19.8254 13.2594 19.9528 13.583 19.952H15.544C16.4565 19.9553 17.3338 19.6001 17.987 18.963C18.3069 18.6514 18.5613 18.2791 18.7353 17.8678C18.9093 17.4565 18.9993 17.0146 19 16.568V7.95697C18.9983 7.59686 18.9166 7.24163 18.761 6.91687C18.6054 6.59212 18.3796 6.30594 18.1 6.07898L11.443 0.848026C10.8752 0.404142 10.1722 0.168839 9.4516 0.181583C8.73102 0.194327 8.03671 0.454351 7.485 0.918033L0.966999 6.07703C0.67499 6.29767 0.43643 6.58122 0.269024 6.90668C0.101618 7.23214 0.00966695 7.59111 0 7.95697V16.557C0.00818612 17.465 0.37663 18.3327 1.02433 18.9691C1.67203 19.6056 2.54597 19.9587 3.454 19.951H5.372C5.69769 19.9536 6.01131 19.8279 6.245 19.601C6.35935 19.4901 6.4503 19.3573 6.51247 19.2106C6.57465 19.064 6.60679 18.9063 6.607 18.747L6.644 18.746Z" fill="#3F2D20"/>
</svg>
