<svg width="20" height="20" viewBox="0 0 20 20" fill="none" xmlns="http://www.w3.org/2000/svg">
<path d="M15.1 18.459C15.1081 18.1644 15.2027 17.8789 15.3721 17.6378C15.5415 17.3967 15.7781 17.2108 16.0525 17.1033C16.3268 16.9959 16.6267 16.9716 16.9148 17.0335C17.2029 17.0954 17.4663 17.2409 17.6722 17.4516C17.8782 17.6623 18.0175 17.929 18.0728 18.2184C18.1281 18.5079 18.097 18.8072 17.9833 19.079C17.8695 19.3508 17.6783 19.5831 17.4334 19.7469C17.1884 19.9107 16.9007 19.9987 16.606 20C16.2025 19.9937 15.8178 19.8282 15.5358 19.5396C15.2537 19.2509 15.0971 18.8625 15.1 18.459ZM3.93705 18.459C3.94511 18.1644 4.03975 17.8787 4.20917 17.6376C4.3786 17.3965 4.61527 17.2106 4.88969 17.1032C5.1641 16.9958 5.46409 16.9716 5.75217 17.0336C6.04026 17.0957 6.30369 17.2411 6.50959 17.452C6.71549 17.6628 6.85472 17.9296 6.90992 18.2191C6.96511 18.5085 6.93383 18.8079 6.81995 19.0797C6.70608 19.3514 6.51468 19.5837 6.26963 19.7474C6.02458 19.9111 5.73671 19.9989 5.44202 20C5.03825 19.9942 4.65317 19.8289 4.37083 19.5402C4.08849 19.2515 3.93182 18.8628 3.93503 18.459H3.93705ZM5.60404 15.295C4.96536 15.2943 4.35151 15.0476 3.89005 14.606C3.42049 14.1585 3.13335 13.5528 3.08405 12.906L2.17005 1.784L0.670051 1.51801C0.483202 1.48179 0.316516 1.3773 0.202491 1.22491C0.0884664 1.07252 0.0352556 0.883141 0.0532297 0.693665C0.0712037 0.504188 0.159075 0.328183 0.29972 0.199951C0.440365 0.0717193 0.623706 0.000439816 0.814033 0C0.852197 0.000323777 0.890305 0.00330336 0.928047 0.00897217L3.29404 0.375C3.45833 0.407543 3.60741 0.493007 3.71848 0.618347C3.82955 0.743688 3.89648 0.901967 3.90903 1.06897L4.09803 3.35498C4.10872 3.50797 4.17618 3.65144 4.28718 3.75726C4.39818 3.86308 4.54471 3.92363 4.69804 3.927H18.098C18.3694 3.91888 18.6386 3.9769 18.8825 4.09607C19.1264 4.21524 19.3377 4.39198 19.498 4.61102C19.6771 4.86227 19.8029 5.14741 19.8677 5.44904C19.9325 5.75066 19.935 6.06237 19.875 6.36499L18.931 13.059C18.8507 13.6708 18.5529 14.2333 18.092 14.6437C17.6312 15.054 17.038 15.2849 16.421 15.294L5.60404 15.295ZM11.349 8.46899C11.3477 8.56814 11.3659 8.66656 11.4027 8.75867C11.4394 8.85077 11.4939 8.93476 11.5631 9.0058C11.6323 9.07684 11.7148 9.13358 11.8059 9.17273C11.897 9.21188 11.9949 9.2327 12.094 9.23401H14.842C14.9412 9.2327 15.0391 9.21188 15.1302 9.17273C15.2213 9.13358 15.3038 9.07684 15.373 9.0058C15.4422 8.93476 15.4967 8.85077 15.5334 8.75867C15.5701 8.66656 15.5884 8.56814 15.587 8.46899C15.5919 8.27077 15.5178 8.07876 15.3811 7.93512C15.2444 7.79148 15.0563 7.70798 14.858 7.703H12.093C11.9948 7.7034 11.8977 7.72314 11.8072 7.76111C11.7166 7.79908 11.6344 7.85451 11.5653 7.92426C11.4962 7.99401 11.4416 8.07671 11.4045 8.1676C11.3673 8.2585 11.3485 8.3558 11.349 8.45398C11.349 8.45398 11.349 8.46402 11.349 8.46802V8.46899Z" fill="#3F2D20"/>
</svg>
