<svg width="20" height="20" viewBox="0 0 20 20" fill="none" xmlns="http://www.w3.org/2000/svg">
<path d="M19.2001 10.036C19.2054 9.68674 19.115 9.34265 18.9387 9.04104C18.7625 8.73944 18.507 8.49182 18.2001 8.32504L3.62305 0.32504C3.30856 0.146447 2.94976 0.0609947 2.58853 0.0787019C2.2273 0.0964091 1.87858 0.216521 1.58307 0.425015C1.26832 0.683259 1.02985 1.02236 0.893309 1.40591C0.756767 1.78946 0.727317 2.20298 0.808074 2.60202L2.16406 8.31003C2.23062 8.59478 2.39217 8.84834 2.6221 9.02902C2.85203 9.20969 3.13663 9.30672 3.42905 9.30404L11.5481 9.26901C11.6436 9.26689 11.7386 9.28362 11.8277 9.31826C11.9168 9.35291 11.9982 9.40484 12.0672 9.47097C12.1362 9.53711 12.1915 9.61618 12.2299 9.7037C12.2683 9.79123 12.2891 9.88548 12.291 9.98105C12.291 9.99171 12.291 10.0021 12.291 10.0121C12.2885 10.2102 12.2086 10.3994 12.0685 10.5395C11.9284 10.6796 11.7392 10.7595 11.541 10.7621L3.41507 10.79C3.12193 10.7915 2.83764 10.8907 2.60712 11.0717C2.37659 11.2528 2.21295 11.5056 2.14206 11.79L0.724059 17.519C0.638843 17.8412 0.6402 18.1802 0.727996 18.5017C0.815791 18.8232 0.986912 19.1158 1.22406 19.35C1.28125 19.4096 1.34204 19.4658 1.40607 19.518C1.70462 19.7501 2.06461 19.8895 2.44156 19.9192C2.8185 19.9489 3.19588 19.8675 3.52707 19.685L18.1731 11.732C18.4809 11.5665 18.7387 11.3215 18.9197 11.0225C19.1007 10.7235 19.1981 10.3815 19.2021 10.032" fill="#84BD93"/>
</svg>
