<svg width="18" height="18" viewBox="0 0 18 18" fill="none" xmlns="http://www.w3.org/2000/svg">
<path d="M9.65125 18C9.06345 17.9547 8.50702 17.7168 8.06825 17.323L4.55125 14.383H2.74425C2.06087 14.3725 1.40815 14.0976 0.923285 13.6159C0.438423 13.1342 0.159178 12.4833 0.144248 11.8C-0.0480827 9.91254 -0.0480827 8.01043 0.144248 6.12299C0.189499 5.45679 0.48055 4.83114 0.960952 4.36737C1.44135 3.9036 2.07687 3.63474 2.74425 3.61298H4.55025L8.00025 0.718994C8.48538 0.300795 9.09162 0.0488443 9.73025 0C10.2832 0.0243007 10.813 0.228532 11.2392 0.581604C11.6653 0.934676 11.9645 1.41726 12.0913 1.95599C12.2053 2.44789 12.2826 2.9476 12.3222 3.45099L12.3703 3.89301C12.5496 7.29598 12.5496 10.706 12.3703 14.109L12.3222 14.567C12.2873 15.0566 12.2128 15.5425 12.0992 16.02C11.9788 16.5606 11.6846 17.0467 11.2616 17.4043C10.8387 17.7619 10.3103 17.9711 9.75725 18H9.65125ZM15.0893 14.743C14.8893 14.5969 14.7537 14.3791 14.711 14.1352C14.6683 13.8913 14.7218 13.6403 14.8603 13.435C15.6717 12.0982 16.1008 10.5643 16.1008 9.00049C16.1008 7.43666 15.6717 5.9028 14.8603 4.56598C14.7218 4.36069 14.6683 4.10976 14.711 3.86584C14.7537 3.62193 14.8893 3.40403 15.0893 3.258C15.1865 3.18876 15.2964 3.13955 15.4128 3.11322C15.5292 3.08689 15.6497 3.08396 15.7672 3.10461C15.8847 3.12527 15.997 3.16914 16.0974 3.23358C16.1979 3.29802 16.2845 3.38175 16.3522 3.47998L16.3623 3.495C17.3874 5.14818 17.9305 7.05477 17.9305 9C17.9305 10.9452 17.3874 12.8518 16.3623 14.505C16.2791 14.6278 16.1673 14.7284 16.0364 14.7982C15.9055 14.8679 15.7595 14.9046 15.6113 14.905C15.4245 14.9066 15.242 14.8495 15.0893 14.742V14.743Z" fill="#3F2D20"/>
</svg>
