<svg width="16" height="15" viewBox="0 0 16 15" fill="none" xmlns="http://www.w3.org/2000/svg">
<path d="M3.81302 14.9975C3.65418 15.0002 3.49635 14.9715 3.34872 14.9128C3.2011 14.8541 3.06659 14.7667 2.953 14.6556C2.83942 14.5445 2.74901 14.412 2.68704 14.2657C2.62507 14.1195 2.59278 13.9623 2.59201 13.8035C2.59195 13.7405 2.59695 13.6776 2.60699 13.6155L3.319 9.67748C3.3193 9.67307 3.31866 9.66865 3.31711 9.66451C3.31556 9.66037 3.31312 9.65659 3.31 9.65346L0.35199 6.84346C0.241372 6.73671 0.153257 6.60889 0.092804 6.46755C0.0323505 6.3262 0.000791615 6.17419 0 6.02046C0.000431242 5.85847 0.0333038 5.6982 0.0966797 5.54912C0.160056 5.40004 0.252669 5.26517 0.369019 5.15245C0.556073 4.98653 0.786258 4.877 1.03299 4.83647L5.07101 4.26247C5.08701 4.26247 5.103 4.25548 5.103 4.23747L6.909 0.66347C7.05445 0.378673 7.30615 0.162554 7.60968 0.0618766C7.91321 -0.0388007 8.24418 -0.01594 8.53101 0.125475C8.76656 0.240472 8.95799 0.429426 9.07602 0.66347L10.884 4.24648C10.891 4.25348 10.9 4.26247 10.908 4.26247L14.955 4.83846C15.2712 4.88093 15.5583 5.0453 15.755 5.29647C15.9278 5.52618 16.0102 5.81136 15.9866 6.09783C15.963 6.38429 15.835 6.6521 15.627 6.85045L12.693 9.65047C12.6904 9.65261 12.6883 9.65535 12.687 9.65846L13.387 13.6125C13.4302 13.9236 13.3496 14.2392 13.1627 14.4917C12.9757 14.7441 12.6972 14.9131 12.387 14.9625C12.3241 14.9715 12.2606 14.9762 12.197 14.9765C12 14.9763 11.806 14.9279 11.632 14.8355L8.017 12.9725C8.00546 12.9719 7.99401 12.9747 7.98401 12.9805L4.345 14.8625C4.18031 14.9475 3.99834 14.9937 3.81302 14.9975ZM7.983 1.15447L7.97501 1.15947C7.96806 1.16337 7.96249 1.1693 7.95901 1.17647L6.151 4.75145C6.06436 4.9247 5.93741 5.07464 5.78079 5.18862C5.62418 5.3026 5.4425 5.37731 5.25101 5.40648L1.229 5.97545L1.17999 5.99147C1.1742 6.00108 1.17176 6.01231 1.173 6.02346L4.13101 8.82347C4.26933 8.95738 4.37292 9.12297 4.43286 9.30593C4.4928 9.48888 4.50727 9.68366 4.47501 9.87346L3.77499 13.8045V13.8205C3.77732 13.8279 3.78198 13.8345 3.78827 13.8392C3.79456 13.8438 3.80216 13.8464 3.81 13.8465H3.823L7.444 11.9725C7.62148 11.8784 7.81918 11.829 8.02002 11.8285C8.2134 11.8291 8.4039 11.8753 8.57602 11.9635L12.176 13.8185H12.183C12.1901 13.8225 12.1979 13.8252 12.206 13.8265H12.232L12.248 13.8115L11.548 9.88048C11.5096 9.6895 11.5212 9.49184 11.5816 9.30666C11.6421 9.12147 11.7493 8.95503 11.893 8.82347L14.827 6.01445L14.835 5.99648L14.827 5.98946H14.817C14.8101 5.98794 14.8029 5.98794 14.796 5.98946L10.748 5.40846C10.5564 5.3797 10.3745 5.30514 10.2178 5.19112C10.0612 5.07709 9.93429 4.92696 9.84799 4.75347L8.04102 1.18746C8.04129 1.18421 8.04089 1.18094 8.03986 1.17784C8.03882 1.17475 8.03717 1.17189 8.035 1.16945C8.02967 1.1651 8.02286 1.16297 8.01599 1.16347L8.009 1.15648L7.983 1.15447Z" fill="#3F2D20"/>
</svg>
