<svg width="20" height="20" viewBox="0 0 20 20" fill="none" xmlns="http://www.w3.org/2000/svg">
<path d="M0 10C0 8.02219 0.586489 6.08877 1.6853 4.44428C2.78412 2.79979 4.3459 1.51811 6.17316 0.761235C8.00042 0.00435829 10.0111 -0.193709 11.9509 0.192143C13.8907 0.577995 15.6726 1.53043 17.0711 2.92896C18.4696 4.32748 19.422 6.10927 19.8079 8.04908C20.1937 9.98889 19.9957 11.9996 19.2388 13.8268C18.4819 15.6541 17.2002 17.2159 15.5557 18.3147C13.9112 19.4135 11.9778 20 10 20C7.34784 20 4.80429 18.9464 2.92892 17.071C1.05356 15.1957 0 12.6522 0 10ZM1.5 10C1.5 11.6811 1.99852 13.3245 2.93251 14.7224C3.8665 16.1202 5.19402 17.2096 6.74719 17.853C8.30036 18.4963 10.0094 18.6646 11.6583 18.3367C13.3071 18.0087 14.8217 17.1992 16.0104 16.0104C17.1992 14.8217 18.0087 13.3071 18.3367 11.6583C18.6646 10.0094 18.4963 8.30037 17.853 6.7472C17.2096 5.19402 16.1202 3.86649 14.7224 2.9325C13.3245 1.99851 11.6811 1.5 10 1.5C7.74566 1.5 5.58365 2.39551 3.98959 3.98957C2.39553 5.58363 1.5 7.74566 1.5 10ZM13.138 13.633L13.047 13.586L9.27701 11.337C9.18195 11.2801 9.10063 11.2029 9.03891 11.111C8.97719 11.019 8.9366 10.9145 8.92001 10.805L8.91199 10.693V5.84601C8.91255 5.65616 8.9851 5.47356 9.11499 5.33509C9.24488 5.19662 9.42245 5.11255 9.61188 5.09986C9.80131 5.08717 9.98849 5.14682 10.1357 5.26673C10.2829 5.38664 10.3791 5.55789 10.405 5.74598L10.411 5.84601V10.266L13.811 12.298C13.9666 12.3908 14.0833 12.5369 14.1396 12.7092C14.1958 12.8814 14.1878 13.0682 14.117 13.235L14.071 13.326C13.9783 13.482 13.8321 13.5991 13.6596 13.6555C13.4871 13.712 13.3 13.704 13.133 13.633H13.138Z" fill="#EF8829"/>
</svg>
